G75*
%MOMM*%
%OFA0B0*%
%FSLAX33Y33*%
%IPPOS*%
%LPD*%
%AMOC8*
5,1,8,0,0,1.08239X$1,22.5*
%
%ADD10C,1.210*%
%ADD11OC8,2.286*%
%ADD12OC8,2.540*%
%ADD13C,2.540*%
%ADD14C,2.286*%
%ADD15C,3.912*%
%ADD16C,3.150*%
%ADD17C,1.880*%
%ADD18C,2.110*%
%ADD19OC8,2.388*%
%ADD20OC8,2.794*%
%ADD21C,2.134*%
%ADD22C,3.785*%
%ADD23C,2.261*%
%ADD24C,1.956*%
%ADD25R,1.210X2.810*%
%ADD26C,2.032*%
%ADD27C,2.410*%
D10*
X48300Y26250D03*
X52550Y47500D03*
D11*
X55230Y17220D03*
X55230Y13080D03*
D12*
X67530Y18600D03*
D13*
X67530Y13520D03*
D14*
X58348Y09130D02*
X56672Y09130D01*
X56672Y06590D02*
X58348Y06590D01*
X58348Y04050D02*
X56672Y04050D01*
D15*
X72496Y06590D03*
D16*
X25259Y04500D02*
X22719Y04500D01*
X22719Y12873D02*
X25259Y12873D01*
X25259Y28167D02*
X22719Y28167D01*
X22719Y36540D02*
X25259Y36540D01*
X25259Y51833D02*
X22719Y51833D01*
X22719Y60206D02*
X25259Y60206D01*
X25259Y75500D02*
X22719Y75500D01*
X22719Y83873D02*
X25259Y83873D01*
X07259Y83873D02*
X04719Y83873D01*
X04719Y75500D02*
X07259Y75500D01*
X07259Y60206D02*
X04719Y60206D01*
X04719Y51833D02*
X07259Y51833D01*
X07259Y36540D02*
X04719Y36540D01*
X04719Y28167D02*
X07259Y28167D01*
X07259Y12873D02*
X04719Y12873D01*
X04719Y04500D02*
X07259Y04500D01*
D17*
X06635Y01500D02*
X05365Y01500D01*
X23365Y01500D02*
X24635Y01500D01*
X24635Y25167D02*
X23365Y25167D01*
X06635Y25167D02*
X05365Y25167D01*
X05365Y48833D02*
X06635Y48833D01*
X23365Y48833D02*
X24635Y48833D01*
X24635Y72500D02*
X23365Y72500D01*
X06635Y72500D02*
X05365Y72500D01*
D18*
X12250Y69310D02*
X13750Y69310D01*
X13750Y66770D02*
X12250Y66770D01*
X12250Y64230D02*
X13750Y64230D01*
X13750Y61690D02*
X12250Y61690D01*
X12650Y43390D02*
X14150Y43390D01*
X14150Y40850D02*
X12650Y40850D01*
X12650Y38310D02*
X14150Y38310D01*
X14150Y35770D02*
X12650Y35770D01*
X12650Y33230D02*
X14150Y33230D01*
X14150Y30690D02*
X12650Y30690D01*
X12650Y28150D02*
X14150Y28150D01*
X14150Y25610D02*
X12650Y25610D01*
X35550Y25610D02*
X37050Y25610D01*
X37050Y28150D02*
X35550Y28150D01*
X35550Y30690D02*
X37050Y30690D01*
X37050Y33230D02*
X35550Y33230D01*
X35550Y35770D02*
X37050Y35770D01*
X37050Y38310D02*
X35550Y38310D01*
X35550Y40850D02*
X37050Y40850D01*
X37050Y43390D02*
X35550Y43390D01*
X35550Y61690D02*
X37050Y61690D01*
X37050Y64230D02*
X35550Y64230D01*
X35550Y66770D02*
X37050Y66770D01*
X37050Y69310D02*
X35550Y69310D01*
X72800Y58060D02*
X74300Y58060D01*
X74300Y55520D02*
X72800Y55520D01*
X72800Y52980D02*
X74300Y52980D01*
X74300Y50440D02*
X72800Y50440D01*
X41720Y14160D02*
X40220Y14160D01*
X40220Y11620D02*
X41720Y11620D01*
X41720Y09080D02*
X40220Y09080D01*
X40220Y06540D02*
X41720Y06540D01*
X41720Y04000D02*
X40220Y04000D01*
X37680Y04000D02*
X36180Y04000D01*
X36180Y06540D02*
X37680Y06540D01*
X37680Y09080D02*
X36180Y09080D01*
X36180Y11620D02*
X37680Y11620D01*
X37680Y14160D02*
X36180Y14160D01*
D19*
X26540Y16700D03*
X21460Y16700D03*
X08640Y16500D03*
X03560Y16500D03*
X03460Y40000D03*
X08540Y40000D03*
X21460Y40100D03*
X26540Y40100D03*
X26540Y63900D03*
X21460Y63900D03*
X08540Y63900D03*
X03460Y63900D03*
X03460Y87600D03*
X08540Y87600D03*
X21350Y87620D03*
X26430Y87620D03*
D20*
X17250Y81121D03*
X17250Y76865D03*
X18200Y73555D03*
X18200Y69299D03*
X21549Y69900D03*
X21395Y66800D03*
X25651Y66800D03*
X25805Y69900D03*
X15100Y57655D03*
X15100Y53399D03*
X12700Y50751D03*
X12700Y46495D03*
X08205Y45500D03*
X08151Y42700D03*
X03895Y42700D03*
X03949Y45500D03*
X21699Y46500D03*
X21695Y43200D03*
X25951Y43200D03*
X25955Y46500D03*
X08205Y70300D03*
X03949Y70300D03*
X02895Y91050D03*
X07151Y91050D03*
X45065Y22320D03*
X49321Y22320D03*
X46450Y12435D03*
X46450Y08179D03*
X25951Y20100D03*
X21695Y20100D03*
X17050Y16601D03*
X17050Y12345D03*
X12250Y12301D03*
X12250Y08045D03*
X07805Y19800D03*
X03549Y19800D03*
D21*
X12638Y20500D02*
X14162Y20500D01*
X35538Y20500D02*
X37062Y20500D01*
X57538Y22530D02*
X59062Y22530D01*
X59062Y25070D02*
X57538Y25070D01*
X57538Y27610D02*
X59062Y27610D01*
X59062Y30150D02*
X57538Y30150D01*
X57538Y32690D02*
X59062Y32690D01*
X59062Y35230D02*
X57538Y35230D01*
X57538Y37770D02*
X59062Y37770D01*
X59062Y40310D02*
X57538Y40310D01*
X57538Y42850D02*
X59062Y42850D01*
X59062Y45390D02*
X57538Y45390D01*
X57538Y47930D02*
X59062Y47930D01*
X59062Y50470D02*
X57538Y50470D01*
X85708Y80670D02*
X87232Y80670D01*
X87232Y83210D02*
X85708Y83210D01*
X85708Y85750D02*
X87232Y85750D01*
X87232Y88290D02*
X85708Y88290D01*
X85708Y90830D02*
X87232Y90830D01*
X87232Y93370D02*
X85708Y93370D01*
X85708Y95910D02*
X87232Y95910D01*
X87232Y98450D02*
X85708Y98450D01*
X85708Y100990D02*
X87232Y100990D01*
X87232Y103530D02*
X85708Y103530D01*
X85708Y106070D02*
X87232Y106070D01*
X87232Y108610D02*
X85708Y108610D01*
X85708Y111150D02*
X87232Y111150D01*
X87232Y113690D02*
X85708Y113690D01*
X85708Y116230D02*
X87232Y116230D01*
X100948Y116230D02*
X102472Y116230D01*
X102472Y113690D02*
X100948Y113690D01*
X100948Y111150D02*
X102472Y111150D01*
X102472Y108610D02*
X100948Y108610D01*
X100948Y106070D02*
X102472Y106070D01*
X102472Y103530D02*
X100948Y103530D01*
X100948Y100990D02*
X102472Y100990D01*
X102472Y98450D02*
X100948Y98450D01*
X100948Y95910D02*
X102472Y95910D01*
X102472Y93370D02*
X100948Y93370D01*
X100948Y90830D02*
X102472Y90830D01*
X102472Y88290D02*
X100948Y88290D01*
X100948Y85750D02*
X102472Y85750D01*
X102472Y83210D02*
X100948Y83210D01*
X100948Y80670D02*
X102472Y80670D01*
X17540Y87445D02*
X17540Y88969D01*
X15000Y88969D02*
X15000Y87445D01*
X12460Y87445D02*
X12460Y88969D01*
X12460Y101923D02*
X12460Y103447D01*
X17540Y103447D02*
X17540Y101923D01*
D22*
X21604Y97287D02*
X21604Y94112D01*
X08396Y94112D02*
X08396Y97287D01*
D23*
X86470Y78130D03*
X101710Y78130D03*
X101710Y118770D03*
X86470Y118770D03*
D24*
X55403Y59780D02*
X54057Y59780D01*
X53403Y56750D02*
X52057Y56750D01*
X47783Y59780D02*
X46437Y59780D01*
X45783Y56750D02*
X44437Y56750D01*
X43937Y44690D02*
X45283Y44690D01*
X45283Y42160D02*
X43937Y42160D01*
X44283Y38380D02*
X42937Y38380D01*
X43033Y35600D02*
X41687Y35600D01*
X49307Y35600D02*
X50653Y35600D01*
X50557Y38380D02*
X51903Y38380D01*
X51557Y42160D02*
X52903Y42160D01*
X52903Y44690D02*
X51557Y44690D01*
X52257Y18820D02*
X53603Y18820D01*
X45983Y18820D02*
X44637Y18820D01*
D25*
X44570Y26400D03*
X43300Y26400D03*
X42030Y26400D03*
X40760Y26400D03*
X39490Y26400D03*
X39490Y31600D03*
X40760Y31600D03*
X42030Y31600D03*
X43300Y31600D03*
X44570Y31600D03*
X45840Y31600D03*
X47110Y31600D03*
X47110Y26400D03*
X45840Y26400D03*
X46280Y48150D03*
X45010Y48150D03*
X43740Y48150D03*
X47550Y48150D03*
X48820Y48150D03*
X50090Y48150D03*
X51360Y48150D03*
X51360Y53350D03*
X50090Y53350D03*
X48820Y53350D03*
X47550Y53350D03*
X46280Y53350D03*
X45010Y53350D03*
X43740Y53350D03*
D26*
X50600Y15341D02*
X50600Y13919D01*
X50600Y05181D02*
X50600Y03759D01*
D27*
X64300Y16250D03*
X64300Y27000D03*
X53050Y50250D03*
X64300Y52750D03*
X64700Y61750D03*
X72550Y61750D03*
X39300Y57000D03*
X36300Y53750D03*
M02*
