G75*
%MOMM*%
%OFA0B0*%
%FSLAX33Y33*%
%IPPOS*%
%LPD*%
%AMOC8*
5,1,8,0,0,1.08239X$1,22.5*
%
%ADD10C,0.152*%
D10*
X-02002Y00000D02*
X-00167Y00000D01*
X-00167Y-00094D02*
X-00071Y-00190D01*
X33066Y-00190D01*
X33163Y-00094D01*
X33163Y00043D01*
X33163Y128543D01*
X33066Y128640D01*
X-00071Y128640D01*
X-00167Y128543D01*
X-00167Y-00094D01*
X-00110Y-00151D02*
X-02002Y-00151D01*
X-02002Y-00302D02*
X34998Y-00302D01*
X34998Y-00453D02*
X-02002Y-00453D01*
X-02002Y-00604D02*
X34998Y-00604D01*
X34998Y-00754D02*
X-02002Y-00754D01*
X-02002Y-00905D02*
X34998Y-00905D01*
X34998Y-01056D02*
X-02002Y-01056D01*
X-02002Y-01207D02*
X34998Y-01207D01*
X34998Y-01358D02*
X-02002Y-01358D01*
X-02002Y-01509D02*
X34998Y-01509D01*
X34998Y-01660D02*
X-02002Y-01660D01*
X-02002Y-01811D02*
X34998Y-01811D01*
X34998Y-01962D02*
X-02002Y-01962D01*
X-02002Y-02113D02*
X34998Y-02113D01*
X34998Y-02264D02*
X-02002Y-02264D01*
X-02002Y-02414D02*
X34998Y-02414D01*
X34998Y-02525D02*
X-02002Y-02525D01*
X-02002Y130475D01*
X34998Y130475D01*
X34998Y-02525D01*
X34998Y-00151D02*
X33106Y-00151D01*
X33163Y00000D02*
X34998Y00000D01*
X34998Y00151D02*
X33163Y00151D01*
X33163Y00302D02*
X34998Y00302D01*
X34998Y00453D02*
X33163Y00453D01*
X33163Y00604D02*
X34998Y00604D01*
X34998Y00754D02*
X33163Y00754D01*
X33163Y00905D02*
X34998Y00905D01*
X34998Y01056D02*
X33163Y01056D01*
X33163Y01207D02*
X34998Y01207D01*
X34998Y01358D02*
X33163Y01358D01*
X33163Y01509D02*
X34998Y01509D01*
X34998Y01660D02*
X33163Y01660D01*
X33163Y01811D02*
X34998Y01811D01*
X34998Y01962D02*
X33163Y01962D01*
X33163Y02113D02*
X34998Y02113D01*
X34998Y02264D02*
X33163Y02264D01*
X33163Y02414D02*
X34998Y02414D01*
X34998Y02565D02*
X33163Y02565D01*
X33163Y02716D02*
X34998Y02716D01*
X34998Y02867D02*
X33163Y02867D01*
X33163Y03018D02*
X34998Y03018D01*
X34998Y03169D02*
X33163Y03169D01*
X33163Y03320D02*
X34998Y03320D01*
X34998Y03471D02*
X33163Y03471D01*
X33163Y03622D02*
X34998Y03622D01*
X34998Y03772D02*
X33163Y03772D01*
X33163Y03923D02*
X34998Y03923D01*
X34998Y04074D02*
X33163Y04074D01*
X33163Y04225D02*
X34998Y04225D01*
X34998Y04376D02*
X33163Y04376D01*
X33163Y04527D02*
X34998Y04527D01*
X34998Y04678D02*
X33163Y04678D01*
X33163Y04829D02*
X34998Y04829D01*
X34998Y04980D02*
X33163Y04980D01*
X33163Y05131D02*
X34998Y05131D01*
X34998Y05282D02*
X33163Y05282D01*
X33163Y05432D02*
X34998Y05432D01*
X34998Y05583D02*
X33163Y05583D01*
X33163Y05734D02*
X34998Y05734D01*
X34998Y05885D02*
X33163Y05885D01*
X33163Y06036D02*
X34998Y06036D01*
X34998Y06187D02*
X33163Y06187D01*
X33163Y06338D02*
X34998Y06338D01*
X34998Y06489D02*
X33163Y06489D01*
X33163Y06640D02*
X34998Y06640D01*
X34998Y06790D02*
X33163Y06790D01*
X33163Y06941D02*
X34998Y06941D01*
X34998Y07092D02*
X33163Y07092D01*
X33163Y07243D02*
X34998Y07243D01*
X34998Y07394D02*
X33163Y07394D01*
X33163Y07545D02*
X34998Y07545D01*
X34998Y07696D02*
X33163Y07696D01*
X33163Y07847D02*
X34998Y07847D01*
X34998Y07998D02*
X33163Y07998D01*
X33163Y08149D02*
X34998Y08149D01*
X34998Y08300D02*
X33163Y08300D01*
X33163Y08450D02*
X34998Y08450D01*
X34998Y08601D02*
X33163Y08601D01*
X33163Y08752D02*
X34998Y08752D01*
X34998Y08903D02*
X33163Y08903D01*
X33163Y09054D02*
X34998Y09054D01*
X34998Y09205D02*
X33163Y09205D01*
X33163Y09356D02*
X34998Y09356D01*
X34998Y09507D02*
X33163Y09507D01*
X33163Y09658D02*
X34998Y09658D01*
X34998Y09809D02*
X33163Y09809D01*
X33163Y09959D02*
X34998Y09959D01*
X34998Y10110D02*
X33163Y10110D01*
X33163Y10261D02*
X34998Y10261D01*
X34998Y10412D02*
X33163Y10412D01*
X33163Y10563D02*
X34998Y10563D01*
X34998Y10714D02*
X33163Y10714D01*
X33163Y10865D02*
X34998Y10865D01*
X34998Y11016D02*
X33163Y11016D01*
X33163Y11167D02*
X34998Y11167D01*
X34998Y11317D02*
X33163Y11317D01*
X33163Y11468D02*
X34998Y11468D01*
X34998Y11619D02*
X33163Y11619D01*
X33163Y11770D02*
X34998Y11770D01*
X34998Y11921D02*
X33163Y11921D01*
X33163Y12072D02*
X34998Y12072D01*
X34998Y12223D02*
X33163Y12223D01*
X33163Y12374D02*
X34998Y12374D01*
X34998Y12525D02*
X33163Y12525D01*
X33163Y12676D02*
X34998Y12676D01*
X34998Y12826D02*
X33163Y12826D01*
X33163Y12977D02*
X34998Y12977D01*
X34998Y13128D02*
X33163Y13128D01*
X33163Y13279D02*
X34998Y13279D01*
X34998Y13430D02*
X33163Y13430D01*
X33163Y13581D02*
X34998Y13581D01*
X34998Y13732D02*
X33163Y13732D01*
X33163Y13883D02*
X34998Y13883D01*
X34998Y14034D02*
X33163Y14034D01*
X33163Y14185D02*
X34998Y14185D01*
X34998Y14335D02*
X33163Y14335D01*
X33163Y14486D02*
X34998Y14486D01*
X34998Y14637D02*
X33163Y14637D01*
X33163Y14788D02*
X34998Y14788D01*
X34998Y14939D02*
X33163Y14939D01*
X33163Y15090D02*
X34998Y15090D01*
X34998Y15241D02*
X33163Y15241D01*
X33163Y15392D02*
X34998Y15392D01*
X34998Y15543D02*
X33163Y15543D01*
X33163Y15694D02*
X34998Y15694D01*
X34998Y15844D02*
X33163Y15844D01*
X33163Y15995D02*
X34998Y15995D01*
X34998Y16146D02*
X33163Y16146D01*
X33163Y16297D02*
X34998Y16297D01*
X34998Y16448D02*
X33163Y16448D01*
X33163Y16599D02*
X34998Y16599D01*
X34998Y16750D02*
X33163Y16750D01*
X33163Y16901D02*
X34998Y16901D01*
X34998Y17052D02*
X33163Y17052D01*
X33163Y17203D02*
X34998Y17203D01*
X34998Y17354D02*
X33163Y17354D01*
X33163Y17504D02*
X34998Y17504D01*
X34998Y17655D02*
X33163Y17655D01*
X33163Y17806D02*
X34998Y17806D01*
X34998Y17957D02*
X33163Y17957D01*
X33163Y18108D02*
X34998Y18108D01*
X34998Y18259D02*
X33163Y18259D01*
X33163Y18410D02*
X34998Y18410D01*
X34998Y18561D02*
X33163Y18561D01*
X33163Y18712D02*
X34998Y18712D01*
X34998Y18863D02*
X33163Y18863D01*
X33163Y19013D02*
X34998Y19013D01*
X34998Y19164D02*
X33163Y19164D01*
X33163Y19315D02*
X34998Y19315D01*
X34998Y19466D02*
X33163Y19466D01*
X33163Y19617D02*
X34998Y19617D01*
X34998Y19768D02*
X33163Y19768D01*
X33163Y19919D02*
X34998Y19919D01*
X34998Y20070D02*
X33163Y20070D01*
X33163Y20221D02*
X34998Y20221D01*
X34998Y20372D02*
X33163Y20372D01*
X33163Y20522D02*
X34998Y20522D01*
X34998Y20673D02*
X33163Y20673D01*
X33163Y20824D02*
X34998Y20824D01*
X34998Y20975D02*
X33163Y20975D01*
X33163Y21126D02*
X34998Y21126D01*
X34998Y21277D02*
X33163Y21277D01*
X33163Y21428D02*
X34998Y21428D01*
X34998Y21579D02*
X33163Y21579D01*
X33163Y21730D02*
X34998Y21730D01*
X34998Y21880D02*
X33163Y21880D01*
X33163Y22031D02*
X34998Y22031D01*
X34998Y22182D02*
X33163Y22182D01*
X33163Y22333D02*
X34998Y22333D01*
X34998Y22484D02*
X33163Y22484D01*
X33163Y22635D02*
X34998Y22635D01*
X34998Y22786D02*
X33163Y22786D01*
X33163Y22937D02*
X34998Y22937D01*
X34998Y23088D02*
X33163Y23088D01*
X33163Y23239D02*
X34998Y23239D01*
X34998Y23389D02*
X33163Y23389D01*
X33163Y23540D02*
X34998Y23540D01*
X34998Y23691D02*
X33163Y23691D01*
X33163Y23842D02*
X34998Y23842D01*
X34998Y23993D02*
X33163Y23993D01*
X33163Y24144D02*
X34998Y24144D01*
X34998Y24295D02*
X33163Y24295D01*
X33163Y24446D02*
X34998Y24446D01*
X34998Y24597D02*
X33163Y24597D01*
X33163Y24748D02*
X34998Y24748D01*
X34998Y24898D02*
X33163Y24898D01*
X33163Y25049D02*
X34998Y25049D01*
X34998Y25200D02*
X33163Y25200D01*
X33163Y25351D02*
X34998Y25351D01*
X34998Y25502D02*
X33163Y25502D01*
X33163Y25653D02*
X34998Y25653D01*
X34998Y25804D02*
X33163Y25804D01*
X33163Y25955D02*
X34998Y25955D01*
X34998Y26106D02*
X33163Y26106D01*
X33163Y26257D02*
X34998Y26257D01*
X34998Y26407D02*
X33163Y26407D01*
X33163Y26558D02*
X34998Y26558D01*
X34998Y26709D02*
X33163Y26709D01*
X33163Y26860D02*
X34998Y26860D01*
X34998Y27011D02*
X33163Y27011D01*
X33163Y27162D02*
X34998Y27162D01*
X34998Y27313D02*
X33163Y27313D01*
X33163Y27464D02*
X34998Y27464D01*
X34998Y27615D02*
X33163Y27615D01*
X33163Y27766D02*
X34998Y27766D01*
X34998Y27916D02*
X33163Y27916D01*
X33163Y28067D02*
X34998Y28067D01*
X34998Y28218D02*
X33163Y28218D01*
X33163Y28369D02*
X34998Y28369D01*
X34998Y28520D02*
X33163Y28520D01*
X33163Y28671D02*
X34998Y28671D01*
X34998Y28822D02*
X33163Y28822D01*
X33163Y28973D02*
X34998Y28973D01*
X34998Y29124D02*
X33163Y29124D01*
X33163Y29275D02*
X34998Y29275D01*
X34998Y29425D02*
X33163Y29425D01*
X33163Y29576D02*
X34998Y29576D01*
X34998Y29727D02*
X33163Y29727D01*
X33163Y29878D02*
X34998Y29878D01*
X34998Y30029D02*
X33163Y30029D01*
X33163Y30180D02*
X34998Y30180D01*
X34998Y30331D02*
X33163Y30331D01*
X33163Y30482D02*
X34998Y30482D01*
X34998Y30633D02*
X33163Y30633D01*
X33163Y30784D02*
X34998Y30784D01*
X34998Y30934D02*
X33163Y30934D01*
X33163Y31085D02*
X34998Y31085D01*
X34998Y31236D02*
X33163Y31236D01*
X33163Y31387D02*
X34998Y31387D01*
X34998Y31538D02*
X33163Y31538D01*
X33163Y31689D02*
X34998Y31689D01*
X34998Y31840D02*
X33163Y31840D01*
X33163Y31991D02*
X34998Y31991D01*
X34998Y32142D02*
X33163Y32142D01*
X33163Y32293D02*
X34998Y32293D01*
X34998Y32443D02*
X33163Y32443D01*
X33163Y32594D02*
X34998Y32594D01*
X34998Y32745D02*
X33163Y32745D01*
X33163Y32896D02*
X34998Y32896D01*
X34998Y33047D02*
X33163Y33047D01*
X33163Y33198D02*
X34998Y33198D01*
X34998Y33349D02*
X33163Y33349D01*
X33163Y33500D02*
X34998Y33500D01*
X34998Y33651D02*
X33163Y33651D01*
X33163Y33802D02*
X34998Y33802D01*
X34998Y33953D02*
X33163Y33953D01*
X33163Y34103D02*
X34998Y34103D01*
X34998Y34254D02*
X33163Y34254D01*
X33163Y34405D02*
X34998Y34405D01*
X34998Y34556D02*
X33163Y34556D01*
X33163Y34707D02*
X34998Y34707D01*
X34998Y34858D02*
X33163Y34858D01*
X33163Y35009D02*
X34998Y35009D01*
X34998Y35160D02*
X33163Y35160D01*
X33163Y35311D02*
X34998Y35311D01*
X34998Y35462D02*
X33163Y35462D01*
X33163Y35612D02*
X34998Y35612D01*
X34998Y35763D02*
X33163Y35763D01*
X33163Y35914D02*
X34998Y35914D01*
X34998Y36065D02*
X33163Y36065D01*
X33163Y36216D02*
X34998Y36216D01*
X34998Y36367D02*
X33163Y36367D01*
X33163Y36518D02*
X34998Y36518D01*
X34998Y36669D02*
X33163Y36669D01*
X33163Y36820D02*
X34998Y36820D01*
X34998Y36971D02*
X33163Y36971D01*
X33163Y37121D02*
X34998Y37121D01*
X34998Y37272D02*
X33163Y37272D01*
X33163Y37423D02*
X34998Y37423D01*
X34998Y37574D02*
X33163Y37574D01*
X33163Y37725D02*
X34998Y37725D01*
X34998Y37876D02*
X33163Y37876D01*
X33163Y38027D02*
X34998Y38027D01*
X34998Y38178D02*
X33163Y38178D01*
X33163Y38329D02*
X34998Y38329D01*
X34998Y38480D02*
X33163Y38480D01*
X33163Y38630D02*
X34998Y38630D01*
X34998Y38781D02*
X33163Y38781D01*
X33163Y38932D02*
X34998Y38932D01*
X34998Y39083D02*
X33163Y39083D01*
X33163Y39234D02*
X34998Y39234D01*
X34998Y39385D02*
X33163Y39385D01*
X33163Y39536D02*
X34998Y39536D01*
X34998Y39687D02*
X33163Y39687D01*
X33163Y39838D02*
X34998Y39838D01*
X34998Y39989D02*
X33163Y39989D01*
X33163Y40139D02*
X34998Y40139D01*
X34998Y40290D02*
X33163Y40290D01*
X33163Y40441D02*
X34998Y40441D01*
X34998Y40592D02*
X33163Y40592D01*
X33163Y40743D02*
X34998Y40743D01*
X34998Y40894D02*
X33163Y40894D01*
X33163Y41045D02*
X34998Y41045D01*
X34998Y41196D02*
X33163Y41196D01*
X33163Y41347D02*
X34998Y41347D01*
X34998Y41498D02*
X33163Y41498D01*
X33163Y41648D02*
X34998Y41648D01*
X34998Y41799D02*
X33163Y41799D01*
X33163Y41950D02*
X34998Y41950D01*
X34998Y42101D02*
X33163Y42101D01*
X33163Y42252D02*
X34998Y42252D01*
X34998Y42403D02*
X33163Y42403D01*
X33163Y42554D02*
X34998Y42554D01*
X34998Y42705D02*
X33163Y42705D01*
X33163Y42856D02*
X34998Y42856D01*
X34998Y43007D02*
X33163Y43007D01*
X33163Y43157D02*
X34998Y43157D01*
X34998Y43308D02*
X33163Y43308D01*
X33163Y43459D02*
X34998Y43459D01*
X34998Y43610D02*
X33163Y43610D01*
X33163Y43761D02*
X34998Y43761D01*
X34998Y43912D02*
X33163Y43912D01*
X33163Y44063D02*
X34998Y44063D01*
X34998Y44214D02*
X33163Y44214D01*
X33163Y44365D02*
X34998Y44365D01*
X34998Y44515D02*
X33163Y44515D01*
X33163Y44666D02*
X34998Y44666D01*
X34998Y44817D02*
X33163Y44817D01*
X33163Y44968D02*
X34998Y44968D01*
X34998Y45119D02*
X33163Y45119D01*
X33163Y45270D02*
X34998Y45270D01*
X34998Y45421D02*
X33163Y45421D01*
X33163Y45572D02*
X34998Y45572D01*
X34998Y45723D02*
X33163Y45723D01*
X33163Y45874D02*
X34998Y45874D01*
X34998Y46024D02*
X33163Y46024D01*
X33163Y46175D02*
X34998Y46175D01*
X34998Y46326D02*
X33163Y46326D01*
X33163Y46477D02*
X34998Y46477D01*
X34998Y46628D02*
X33163Y46628D01*
X33163Y46779D02*
X34998Y46779D01*
X34998Y46930D02*
X33163Y46930D01*
X33163Y47081D02*
X34998Y47081D01*
X34998Y47232D02*
X33163Y47232D01*
X33163Y47383D02*
X34998Y47383D01*
X34998Y47533D02*
X33163Y47533D01*
X33163Y47684D02*
X34998Y47684D01*
X34998Y47835D02*
X33163Y47835D01*
X33163Y47986D02*
X34998Y47986D01*
X34998Y48137D02*
X33163Y48137D01*
X33163Y48288D02*
X34998Y48288D01*
X34998Y48439D02*
X33163Y48439D01*
X33163Y48590D02*
X34998Y48590D01*
X34998Y48741D02*
X33163Y48741D01*
X33163Y48892D02*
X34998Y48892D01*
X34998Y49042D02*
X33163Y49042D01*
X33163Y49193D02*
X34998Y49193D01*
X34998Y49344D02*
X33163Y49344D01*
X33163Y49495D02*
X34998Y49495D01*
X34998Y49646D02*
X33163Y49646D01*
X33163Y49797D02*
X34998Y49797D01*
X34998Y49948D02*
X33163Y49948D01*
X33163Y50099D02*
X34998Y50099D01*
X34998Y50250D02*
X33163Y50250D01*
X33163Y50401D02*
X34998Y50401D01*
X34998Y50551D02*
X33163Y50551D01*
X33163Y50702D02*
X34998Y50702D01*
X34998Y50853D02*
X33163Y50853D01*
X33163Y51004D02*
X34998Y51004D01*
X34998Y51155D02*
X33163Y51155D01*
X33163Y51306D02*
X34998Y51306D01*
X34998Y51457D02*
X33163Y51457D01*
X33163Y51608D02*
X34998Y51608D01*
X34998Y51759D02*
X33163Y51759D01*
X33163Y51910D02*
X34998Y51910D01*
X34998Y52060D02*
X33163Y52060D01*
X33163Y52211D02*
X34998Y52211D01*
X34998Y52362D02*
X33163Y52362D01*
X33163Y52513D02*
X34998Y52513D01*
X34998Y52664D02*
X33163Y52664D01*
X33163Y52815D02*
X34998Y52815D01*
X34998Y52966D02*
X33163Y52966D01*
X33163Y53117D02*
X34998Y53117D01*
X34998Y53268D02*
X33163Y53268D01*
X33163Y53419D02*
X34998Y53419D01*
X34998Y53569D02*
X33163Y53569D01*
X33163Y53720D02*
X34998Y53720D01*
X34998Y53871D02*
X33163Y53871D01*
X33163Y54022D02*
X34998Y54022D01*
X34998Y54173D02*
X33163Y54173D01*
X33163Y54324D02*
X34998Y54324D01*
X34998Y54475D02*
X33163Y54475D01*
X33163Y54626D02*
X34998Y54626D01*
X34998Y54777D02*
X33163Y54777D01*
X33163Y54928D02*
X34998Y54928D01*
X34998Y55078D02*
X33163Y55078D01*
X33163Y55229D02*
X34998Y55229D01*
X34998Y55380D02*
X33163Y55380D01*
X33163Y55531D02*
X34998Y55531D01*
X34998Y55682D02*
X33163Y55682D01*
X33163Y55833D02*
X34998Y55833D01*
X34998Y55984D02*
X33163Y55984D01*
X33163Y56135D02*
X34998Y56135D01*
X34998Y56286D02*
X33163Y56286D01*
X33163Y56437D02*
X34998Y56437D01*
X34998Y56587D02*
X33163Y56587D01*
X33163Y56738D02*
X34998Y56738D01*
X34998Y56889D02*
X33163Y56889D01*
X33163Y57040D02*
X34998Y57040D01*
X34998Y57191D02*
X33163Y57191D01*
X33163Y57342D02*
X34998Y57342D01*
X34998Y57493D02*
X33163Y57493D01*
X33163Y57644D02*
X34998Y57644D01*
X34998Y57795D02*
X33163Y57795D01*
X33163Y57946D02*
X34998Y57946D01*
X34998Y58096D02*
X33163Y58096D01*
X33163Y58247D02*
X34998Y58247D01*
X34998Y58398D02*
X33163Y58398D01*
X33163Y58549D02*
X34998Y58549D01*
X34998Y58700D02*
X33163Y58700D01*
X33163Y58851D02*
X34998Y58851D01*
X34998Y59002D02*
X33163Y59002D01*
X33163Y59153D02*
X34998Y59153D01*
X34998Y59304D02*
X33163Y59304D01*
X33163Y59455D02*
X34998Y59455D01*
X34998Y59605D02*
X33163Y59605D01*
X33163Y59756D02*
X34998Y59756D01*
X34998Y59907D02*
X33163Y59907D01*
X33163Y60058D02*
X34998Y60058D01*
X34998Y60209D02*
X33163Y60209D01*
X33163Y60360D02*
X34998Y60360D01*
X34998Y60511D02*
X33163Y60511D01*
X33163Y60662D02*
X34998Y60662D01*
X34998Y60813D02*
X33163Y60813D01*
X33163Y60964D02*
X34998Y60964D01*
X34998Y61114D02*
X33163Y61114D01*
X33163Y61265D02*
X34998Y61265D01*
X34998Y61416D02*
X33163Y61416D01*
X33163Y61567D02*
X34998Y61567D01*
X34998Y61718D02*
X33163Y61718D01*
X33163Y61869D02*
X34998Y61869D01*
X34998Y62020D02*
X33163Y62020D01*
X33163Y62171D02*
X34998Y62171D01*
X34998Y62322D02*
X33163Y62322D01*
X33163Y62473D02*
X34998Y62473D01*
X34998Y62623D02*
X33163Y62623D01*
X33163Y62774D02*
X34998Y62774D01*
X34998Y62925D02*
X33163Y62925D01*
X33163Y63076D02*
X34998Y63076D01*
X34998Y63227D02*
X33163Y63227D01*
X33163Y63378D02*
X34998Y63378D01*
X34998Y63529D02*
X33163Y63529D01*
X33163Y63680D02*
X34998Y63680D01*
X34998Y63831D02*
X33163Y63831D01*
X33163Y63982D02*
X34998Y63982D01*
X34998Y64132D02*
X33163Y64132D01*
X33163Y64283D02*
X34998Y64283D01*
X34998Y64434D02*
X33163Y64434D01*
X33163Y64585D02*
X34998Y64585D01*
X34998Y64736D02*
X33163Y64736D01*
X33163Y64887D02*
X34998Y64887D01*
X34998Y65038D02*
X33163Y65038D01*
X33163Y65189D02*
X34998Y65189D01*
X34998Y65340D02*
X33163Y65340D01*
X33163Y65491D02*
X34998Y65491D01*
X34998Y65642D02*
X33163Y65642D01*
X33163Y65792D02*
X34998Y65792D01*
X34998Y65943D02*
X33163Y65943D01*
X33163Y66094D02*
X34998Y66094D01*
X34998Y66245D02*
X33163Y66245D01*
X33163Y66396D02*
X34998Y66396D01*
X34998Y66547D02*
X33163Y66547D01*
X33163Y66698D02*
X34998Y66698D01*
X34998Y66849D02*
X33163Y66849D01*
X33163Y67000D02*
X34998Y67000D01*
X34998Y67151D02*
X33163Y67151D01*
X33163Y67301D02*
X34998Y67301D01*
X34998Y67452D02*
X33163Y67452D01*
X33163Y67603D02*
X34998Y67603D01*
X34998Y67754D02*
X33163Y67754D01*
X33163Y67905D02*
X34998Y67905D01*
X34998Y68056D02*
X33163Y68056D01*
X33163Y68207D02*
X34998Y68207D01*
X34998Y68358D02*
X33163Y68358D01*
X33163Y68509D02*
X34998Y68509D01*
X34998Y68660D02*
X33163Y68660D01*
X33163Y68810D02*
X34998Y68810D01*
X34998Y68961D02*
X33163Y68961D01*
X33163Y69112D02*
X34998Y69112D01*
X34998Y69263D02*
X33163Y69263D01*
X33163Y69414D02*
X34998Y69414D01*
X34998Y69565D02*
X33163Y69565D01*
X33163Y69716D02*
X34998Y69716D01*
X34998Y69867D02*
X33163Y69867D01*
X33163Y70018D02*
X34998Y70018D01*
X34998Y70169D02*
X33163Y70169D01*
X33163Y70319D02*
X34998Y70319D01*
X34998Y70470D02*
X33163Y70470D01*
X33163Y70621D02*
X34998Y70621D01*
X34998Y70772D02*
X33163Y70772D01*
X33163Y70923D02*
X34998Y70923D01*
X34998Y71074D02*
X33163Y71074D01*
X33163Y71225D02*
X34998Y71225D01*
X34998Y71376D02*
X33163Y71376D01*
X33163Y71527D02*
X34998Y71527D01*
X34998Y71678D02*
X33163Y71678D01*
X33163Y71828D02*
X34998Y71828D01*
X34998Y71979D02*
X33163Y71979D01*
X33163Y72130D02*
X34998Y72130D01*
X34998Y72281D02*
X33163Y72281D01*
X33163Y72432D02*
X34998Y72432D01*
X34998Y72583D02*
X33163Y72583D01*
X33163Y72734D02*
X34998Y72734D01*
X34998Y72885D02*
X33163Y72885D01*
X33163Y73036D02*
X34998Y73036D01*
X34998Y73187D02*
X33163Y73187D01*
X33163Y73337D02*
X34998Y73337D01*
X34998Y73488D02*
X33163Y73488D01*
X33163Y73639D02*
X34998Y73639D01*
X34998Y73790D02*
X33163Y73790D01*
X33163Y73941D02*
X34998Y73941D01*
X34998Y74092D02*
X33163Y74092D01*
X33163Y74243D02*
X34998Y74243D01*
X34998Y74394D02*
X33163Y74394D01*
X33163Y74545D02*
X34998Y74545D01*
X34998Y74696D02*
X33163Y74696D01*
X33163Y74846D02*
X34998Y74846D01*
X34998Y74997D02*
X33163Y74997D01*
X33163Y75148D02*
X34998Y75148D01*
X34998Y75299D02*
X33163Y75299D01*
X33163Y75450D02*
X34998Y75450D01*
X34998Y75601D02*
X33163Y75601D01*
X33163Y75752D02*
X34998Y75752D01*
X34998Y75903D02*
X33163Y75903D01*
X33163Y76054D02*
X34998Y76054D01*
X34998Y76205D02*
X33163Y76205D01*
X33163Y76355D02*
X34998Y76355D01*
X34998Y76506D02*
X33163Y76506D01*
X33163Y76657D02*
X34998Y76657D01*
X34998Y76808D02*
X33163Y76808D01*
X33163Y76959D02*
X34998Y76959D01*
X34998Y77110D02*
X33163Y77110D01*
X33163Y77261D02*
X34998Y77261D01*
X34998Y77412D02*
X33163Y77412D01*
X33163Y77563D02*
X34998Y77563D01*
X34998Y77714D02*
X33163Y77714D01*
X33163Y77864D02*
X34998Y77864D01*
X34998Y78015D02*
X33163Y78015D01*
X33163Y78166D02*
X34998Y78166D01*
X34998Y78317D02*
X33163Y78317D01*
X33163Y78468D02*
X34998Y78468D01*
X34998Y78619D02*
X33163Y78619D01*
X33163Y78770D02*
X34998Y78770D01*
X34998Y78921D02*
X33163Y78921D01*
X33163Y79072D02*
X34998Y79072D01*
X34998Y79223D02*
X33163Y79223D01*
X33163Y79373D02*
X34998Y79373D01*
X34998Y79524D02*
X33163Y79524D01*
X33163Y79675D02*
X34998Y79675D01*
X34998Y79826D02*
X33163Y79826D01*
X33163Y79977D02*
X34998Y79977D01*
X34998Y80128D02*
X33163Y80128D01*
X33163Y80279D02*
X34998Y80279D01*
X34998Y80430D02*
X33163Y80430D01*
X33163Y80581D02*
X34998Y80581D01*
X34998Y80732D02*
X33163Y80732D01*
X33163Y80882D02*
X34998Y80882D01*
X34998Y81033D02*
X33163Y81033D01*
X33163Y81184D02*
X34998Y81184D01*
X34998Y81335D02*
X33163Y81335D01*
X33163Y81486D02*
X34998Y81486D01*
X34998Y81637D02*
X33163Y81637D01*
X33163Y81788D02*
X34998Y81788D01*
X34998Y81939D02*
X33163Y81939D01*
X33163Y82090D02*
X34998Y82090D01*
X34998Y82241D02*
X33163Y82241D01*
X33163Y82391D02*
X34998Y82391D01*
X34998Y82542D02*
X33163Y82542D01*
X33163Y82693D02*
X34998Y82693D01*
X34998Y82844D02*
X33163Y82844D01*
X33163Y82995D02*
X34998Y82995D01*
X34998Y83146D02*
X33163Y83146D01*
X33163Y83297D02*
X34998Y83297D01*
X34998Y83448D02*
X33163Y83448D01*
X33163Y83599D02*
X34998Y83599D01*
X34998Y83750D02*
X33163Y83750D01*
X33163Y83900D02*
X34998Y83900D01*
X34998Y84051D02*
X33163Y84051D01*
X33163Y84202D02*
X34998Y84202D01*
X34998Y84353D02*
X33163Y84353D01*
X33163Y84504D02*
X34998Y84504D01*
X34998Y84655D02*
X33163Y84655D01*
X33163Y84806D02*
X34998Y84806D01*
X34998Y84957D02*
X33163Y84957D01*
X33163Y85108D02*
X34998Y85108D01*
X34998Y85259D02*
X33163Y85259D01*
X33163Y85409D02*
X34998Y85409D01*
X34998Y85560D02*
X33163Y85560D01*
X33163Y85711D02*
X34998Y85711D01*
X34998Y85862D02*
X33163Y85862D01*
X33163Y86013D02*
X34998Y86013D01*
X34998Y86164D02*
X33163Y86164D01*
X33163Y86315D02*
X34998Y86315D01*
X34998Y86466D02*
X33163Y86466D01*
X33163Y86617D02*
X34998Y86617D01*
X34998Y86768D02*
X33163Y86768D01*
X33163Y86918D02*
X34998Y86918D01*
X34998Y87069D02*
X33163Y87069D01*
X33163Y87220D02*
X34998Y87220D01*
X34998Y87371D02*
X33163Y87371D01*
X33163Y87522D02*
X34998Y87522D01*
X34998Y87673D02*
X33163Y87673D01*
X33163Y87824D02*
X34998Y87824D01*
X34998Y87975D02*
X33163Y87975D01*
X33163Y88126D02*
X34998Y88126D01*
X34998Y88276D02*
X33163Y88276D01*
X33163Y88427D02*
X34998Y88427D01*
X34998Y88578D02*
X33163Y88578D01*
X33163Y88729D02*
X34998Y88729D01*
X34998Y88880D02*
X33163Y88880D01*
X33163Y89031D02*
X34998Y89031D01*
X34998Y89182D02*
X33163Y89182D01*
X33163Y89333D02*
X34998Y89333D01*
X34998Y89484D02*
X33163Y89484D01*
X33163Y89635D02*
X34998Y89635D01*
X34998Y89785D02*
X33163Y89785D01*
X33163Y89936D02*
X34998Y89936D01*
X34998Y90087D02*
X33163Y90087D01*
X33163Y90238D02*
X34998Y90238D01*
X34998Y90389D02*
X33163Y90389D01*
X33163Y90540D02*
X34998Y90540D01*
X34998Y90691D02*
X33163Y90691D01*
X33163Y90842D02*
X34998Y90842D01*
X34998Y90993D02*
X33163Y90993D01*
X33163Y91144D02*
X34998Y91144D01*
X34998Y91294D02*
X33163Y91294D01*
X33163Y91445D02*
X34998Y91445D01*
X34998Y91596D02*
X33163Y91596D01*
X33163Y91747D02*
X34998Y91747D01*
X34998Y91898D02*
X33163Y91898D01*
X33163Y92049D02*
X34998Y92049D01*
X34998Y92200D02*
X33163Y92200D01*
X33163Y92351D02*
X34998Y92351D01*
X34998Y92502D02*
X33163Y92502D01*
X33163Y92653D02*
X34998Y92653D01*
X34998Y92803D02*
X33163Y92803D01*
X33163Y92954D02*
X34998Y92954D01*
X34998Y93105D02*
X33163Y93105D01*
X33163Y93256D02*
X34998Y93256D01*
X34998Y93407D02*
X33163Y93407D01*
X33163Y93558D02*
X34998Y93558D01*
X34998Y93709D02*
X33163Y93709D01*
X33163Y93860D02*
X34998Y93860D01*
X34998Y94011D02*
X33163Y94011D01*
X33163Y94162D02*
X34998Y94162D01*
X34998Y94312D02*
X33163Y94312D01*
X33163Y94463D02*
X34998Y94463D01*
X34998Y94614D02*
X33163Y94614D01*
X33163Y94765D02*
X34998Y94765D01*
X34998Y94916D02*
X33163Y94916D01*
X33163Y95067D02*
X34998Y95067D01*
X34998Y95218D02*
X33163Y95218D01*
X33163Y95369D02*
X34998Y95369D01*
X34998Y95520D02*
X33163Y95520D01*
X33163Y95671D02*
X34998Y95671D01*
X34998Y95821D02*
X33163Y95821D01*
X33163Y95972D02*
X34998Y95972D01*
X34998Y96123D02*
X33163Y96123D01*
X33163Y96274D02*
X34998Y96274D01*
X34998Y96425D02*
X33163Y96425D01*
X33163Y96576D02*
X34998Y96576D01*
X34998Y96727D02*
X33163Y96727D01*
X33163Y96878D02*
X34998Y96878D01*
X34998Y97029D02*
X33163Y97029D01*
X33163Y97180D02*
X34998Y97180D01*
X34998Y97330D02*
X33163Y97330D01*
X33163Y97481D02*
X34998Y97481D01*
X34998Y97632D02*
X33163Y97632D01*
X33163Y97783D02*
X34998Y97783D01*
X34998Y97934D02*
X33163Y97934D01*
X33163Y98085D02*
X34998Y98085D01*
X34998Y98236D02*
X33163Y98236D01*
X33163Y98387D02*
X34998Y98387D01*
X34998Y98538D02*
X33163Y98538D01*
X33163Y98689D02*
X34998Y98689D01*
X34998Y98839D02*
X33163Y98839D01*
X33163Y98990D02*
X34998Y98990D01*
X34998Y99141D02*
X33163Y99141D01*
X33163Y99292D02*
X34998Y99292D01*
X34998Y99443D02*
X33163Y99443D01*
X33163Y99594D02*
X34998Y99594D01*
X34998Y99745D02*
X33163Y99745D01*
X33163Y99896D02*
X34998Y99896D01*
X34998Y100047D02*
X33163Y100047D01*
X33163Y100198D02*
X34998Y100198D01*
X34998Y100348D02*
X33163Y100348D01*
X33163Y100499D02*
X34998Y100499D01*
X34998Y100650D02*
X33163Y100650D01*
X33163Y100801D02*
X34998Y100801D01*
X34998Y100952D02*
X33163Y100952D01*
X33163Y101103D02*
X34998Y101103D01*
X34998Y101254D02*
X33163Y101254D01*
X33163Y101405D02*
X34998Y101405D01*
X34998Y101556D02*
X33163Y101556D01*
X33163Y101707D02*
X34998Y101707D01*
X34998Y101857D02*
X33163Y101857D01*
X33163Y102008D02*
X34998Y102008D01*
X34998Y102159D02*
X33163Y102159D01*
X33163Y102310D02*
X34998Y102310D01*
X34998Y102461D02*
X33163Y102461D01*
X33163Y102612D02*
X34998Y102612D01*
X34998Y102763D02*
X33163Y102763D01*
X33163Y102914D02*
X34998Y102914D01*
X34998Y103065D02*
X33163Y103065D01*
X33163Y103216D02*
X34998Y103216D01*
X34998Y103366D02*
X33163Y103366D01*
X33163Y103517D02*
X34998Y103517D01*
X34998Y103668D02*
X33163Y103668D01*
X33163Y103819D02*
X34998Y103819D01*
X34998Y103970D02*
X33163Y103970D01*
X33163Y104121D02*
X34998Y104121D01*
X34998Y104272D02*
X33163Y104272D01*
X33163Y104423D02*
X34998Y104423D01*
X34998Y104574D02*
X33163Y104574D01*
X33163Y104725D02*
X34998Y104725D01*
X34998Y104875D02*
X33163Y104875D01*
X33163Y105026D02*
X34998Y105026D01*
X34998Y105177D02*
X33163Y105177D01*
X33163Y105328D02*
X34998Y105328D01*
X34998Y105479D02*
X33163Y105479D01*
X33163Y105630D02*
X34998Y105630D01*
X34998Y105781D02*
X33163Y105781D01*
X33163Y105932D02*
X34998Y105932D01*
X34998Y106083D02*
X33163Y106083D01*
X33163Y106234D02*
X34998Y106234D01*
X34998Y106384D02*
X33163Y106384D01*
X33163Y106535D02*
X34998Y106535D01*
X34998Y106686D02*
X33163Y106686D01*
X33163Y106837D02*
X34998Y106837D01*
X34998Y106988D02*
X33163Y106988D01*
X33163Y107139D02*
X34998Y107139D01*
X34998Y107290D02*
X33163Y107290D01*
X33163Y107441D02*
X34998Y107441D01*
X34998Y107592D02*
X33163Y107592D01*
X33163Y107743D02*
X34998Y107743D01*
X34998Y107893D02*
X33163Y107893D01*
X33163Y108044D02*
X34998Y108044D01*
X34998Y108195D02*
X33163Y108195D01*
X33163Y108346D02*
X34998Y108346D01*
X34998Y108497D02*
X33163Y108497D01*
X33163Y108648D02*
X34998Y108648D01*
X34998Y108799D02*
X33163Y108799D01*
X33163Y108950D02*
X34998Y108950D01*
X34998Y109101D02*
X33163Y109101D01*
X33163Y109252D02*
X34998Y109252D01*
X34998Y109402D02*
X33163Y109402D01*
X33163Y109553D02*
X34998Y109553D01*
X34998Y109704D02*
X33163Y109704D01*
X33163Y109855D02*
X34998Y109855D01*
X34998Y110006D02*
X33163Y110006D01*
X33163Y110157D02*
X34998Y110157D01*
X34998Y110308D02*
X33163Y110308D01*
X33163Y110459D02*
X34998Y110459D01*
X34998Y110610D02*
X33163Y110610D01*
X33163Y110761D02*
X34998Y110761D01*
X34998Y110911D02*
X33163Y110911D01*
X33163Y111062D02*
X34998Y111062D01*
X34998Y111213D02*
X33163Y111213D01*
X33163Y111364D02*
X34998Y111364D01*
X34998Y111515D02*
X33163Y111515D01*
X33163Y111666D02*
X34998Y111666D01*
X34998Y111817D02*
X33163Y111817D01*
X33163Y111968D02*
X34998Y111968D01*
X34998Y112119D02*
X33163Y112119D01*
X33163Y112270D02*
X34998Y112270D01*
X34998Y112420D02*
X33163Y112420D01*
X33163Y112571D02*
X34998Y112571D01*
X34998Y112722D02*
X33163Y112722D01*
X33163Y112873D02*
X34998Y112873D01*
X34998Y113024D02*
X33163Y113024D01*
X33163Y113175D02*
X34998Y113175D01*
X34998Y113326D02*
X33163Y113326D01*
X33163Y113477D02*
X34998Y113477D01*
X34998Y113628D02*
X33163Y113628D01*
X33163Y113779D02*
X34998Y113779D01*
X34998Y113929D02*
X33163Y113929D01*
X33163Y114080D02*
X34998Y114080D01*
X34998Y114231D02*
X33163Y114231D01*
X33163Y114382D02*
X34998Y114382D01*
X34998Y114533D02*
X33163Y114533D01*
X33163Y114684D02*
X34998Y114684D01*
X34998Y114835D02*
X33163Y114835D01*
X33163Y114986D02*
X34998Y114986D01*
X34998Y115137D02*
X33163Y115137D01*
X33163Y115288D02*
X34998Y115288D01*
X34998Y115438D02*
X33163Y115438D01*
X33163Y115589D02*
X34998Y115589D01*
X34998Y115740D02*
X33163Y115740D01*
X33163Y115891D02*
X34998Y115891D01*
X34998Y116042D02*
X33163Y116042D01*
X33163Y116193D02*
X34998Y116193D01*
X34998Y116344D02*
X33163Y116344D01*
X33163Y116495D02*
X34998Y116495D01*
X34998Y116646D02*
X33163Y116646D01*
X33163Y116797D02*
X34998Y116797D01*
X34998Y116947D02*
X33163Y116947D01*
X33163Y117098D02*
X34998Y117098D01*
X34998Y117249D02*
X33163Y117249D01*
X33163Y117400D02*
X34998Y117400D01*
X34998Y117551D02*
X33163Y117551D01*
X33163Y117702D02*
X34998Y117702D01*
X34998Y117853D02*
X33163Y117853D01*
X33163Y118004D02*
X34998Y118004D01*
X34998Y118155D02*
X33163Y118155D01*
X33163Y118306D02*
X34998Y118306D01*
X34998Y118456D02*
X33163Y118456D01*
X33163Y118607D02*
X34998Y118607D01*
X34998Y118758D02*
X33163Y118758D01*
X33163Y118909D02*
X34998Y118909D01*
X34998Y119060D02*
X33163Y119060D01*
X33163Y119211D02*
X34998Y119211D01*
X34998Y119362D02*
X33163Y119362D01*
X33163Y119513D02*
X34998Y119513D01*
X34998Y119664D02*
X33163Y119664D01*
X33163Y119815D02*
X34998Y119815D01*
X34998Y119965D02*
X33163Y119965D01*
X33163Y120116D02*
X34998Y120116D01*
X34998Y120267D02*
X33163Y120267D01*
X33163Y120418D02*
X34998Y120418D01*
X34998Y120569D02*
X33163Y120569D01*
X33163Y120720D02*
X34998Y120720D01*
X34998Y120871D02*
X33163Y120871D01*
X33163Y121022D02*
X34998Y121022D01*
X34998Y121173D02*
X33163Y121173D01*
X33163Y121324D02*
X34998Y121324D01*
X34998Y121474D02*
X33163Y121474D01*
X33163Y121625D02*
X34998Y121625D01*
X34998Y121776D02*
X33163Y121776D01*
X33163Y121927D02*
X34998Y121927D01*
X34998Y122078D02*
X33163Y122078D01*
X33163Y122229D02*
X34998Y122229D01*
X34998Y122380D02*
X33163Y122380D01*
X33163Y122531D02*
X34998Y122531D01*
X34998Y122682D02*
X33163Y122682D01*
X33163Y122833D02*
X34998Y122833D01*
X34998Y122983D02*
X33163Y122983D01*
X33163Y123134D02*
X34998Y123134D01*
X34998Y123285D02*
X33163Y123285D01*
X33163Y123436D02*
X34998Y123436D01*
X34998Y123587D02*
X33163Y123587D01*
X33163Y123738D02*
X34998Y123738D01*
X34998Y123889D02*
X33163Y123889D01*
X33163Y124040D02*
X34998Y124040D01*
X34998Y124191D02*
X33163Y124191D01*
X33163Y124342D02*
X34998Y124342D01*
X34998Y124492D02*
X33163Y124492D01*
X33163Y124643D02*
X34998Y124643D01*
X34998Y124794D02*
X33163Y124794D01*
X33163Y124945D02*
X34998Y124945D01*
X34998Y125096D02*
X33163Y125096D01*
X33163Y125247D02*
X34998Y125247D01*
X34998Y125398D02*
X33163Y125398D01*
X33163Y125549D02*
X34998Y125549D01*
X34998Y125700D02*
X33163Y125700D01*
X33163Y125851D02*
X34998Y125851D01*
X34998Y126001D02*
X33163Y126001D01*
X33163Y126152D02*
X34998Y126152D01*
X34998Y126303D02*
X33163Y126303D01*
X33163Y126454D02*
X34998Y126454D01*
X34998Y126605D02*
X33163Y126605D01*
X33163Y126756D02*
X34998Y126756D01*
X34998Y126907D02*
X33163Y126907D01*
X33163Y127058D02*
X34998Y127058D01*
X34998Y127209D02*
X33163Y127209D01*
X33163Y127360D02*
X34998Y127360D01*
X34998Y127510D02*
X33163Y127510D01*
X33163Y127661D02*
X34998Y127661D01*
X34998Y127812D02*
X33163Y127812D01*
X33163Y127963D02*
X34998Y127963D01*
X34998Y128114D02*
X33163Y128114D01*
X33163Y128265D02*
X34998Y128265D01*
X34998Y128416D02*
X33163Y128416D01*
X33139Y128567D02*
X34998Y128567D01*
X34998Y128718D02*
X-02002Y128718D01*
X-02002Y128869D02*
X34998Y128869D01*
X34998Y129019D02*
X-02002Y129019D01*
X-02002Y129170D02*
X34998Y129170D01*
X34998Y129321D02*
X-02002Y129321D01*
X-02002Y129472D02*
X34998Y129472D01*
X34998Y129623D02*
X-02002Y129623D01*
X-02002Y129774D02*
X34998Y129774D01*
X34998Y129925D02*
X-02002Y129925D01*
X-02002Y130076D02*
X34998Y130076D01*
X34998Y130227D02*
X-02002Y130227D01*
X-02002Y130378D02*
X34998Y130378D01*
X32833Y128310D02*
X32833Y00140D01*
X00163Y00140D01*
X00163Y128310D01*
X32833Y128310D01*
X32833Y128265D02*
X00163Y128265D01*
X00163Y128114D02*
X32833Y128114D01*
X32833Y127963D02*
X00163Y127963D01*
X00163Y127812D02*
X32833Y127812D01*
X32833Y127661D02*
X00163Y127661D01*
X00163Y127510D02*
X32833Y127510D01*
X32833Y127360D02*
X00163Y127360D01*
X00163Y127209D02*
X32833Y127209D01*
X32833Y127058D02*
X29104Y127058D01*
X28998Y127102D02*
X28351Y127102D01*
X27753Y126854D01*
X27295Y126396D01*
X27047Y125798D01*
X27047Y125151D01*
X27295Y124553D01*
X27753Y124095D01*
X28351Y123848D01*
X28998Y123848D01*
X29596Y124095D01*
X30054Y124553D01*
X30301Y125151D01*
X30301Y125798D01*
X30054Y126396D01*
X29596Y126854D01*
X28998Y127102D01*
X29468Y126907D02*
X32833Y126907D01*
X32833Y126756D02*
X29694Y126756D01*
X29845Y126605D02*
X32833Y126605D01*
X32833Y126454D02*
X29996Y126454D01*
X30092Y126303D02*
X32833Y126303D01*
X32833Y126152D02*
X30155Y126152D01*
X30217Y126001D02*
X32833Y126001D01*
X32833Y125851D02*
X30280Y125851D01*
X30301Y125700D02*
X32833Y125700D01*
X32833Y125549D02*
X30301Y125549D01*
X30301Y125398D02*
X32833Y125398D01*
X32833Y125247D02*
X30301Y125247D01*
X30279Y125096D02*
X32833Y125096D01*
X32833Y124945D02*
X30216Y124945D01*
X30154Y124794D02*
X32833Y124794D01*
X32833Y124643D02*
X30091Y124643D01*
X29993Y124492D02*
X32833Y124492D01*
X32833Y124342D02*
X29842Y124342D01*
X29691Y124191D02*
X32833Y124191D01*
X32833Y124040D02*
X29462Y124040D01*
X29098Y123889D02*
X32833Y123889D01*
X32833Y123738D02*
X00163Y123738D01*
X00163Y123889D02*
X03675Y123889D01*
X03774Y123848D02*
X03176Y124095D01*
X02718Y124553D01*
X02471Y125151D01*
X02471Y125798D01*
X02718Y126396D01*
X03176Y126854D01*
X03774Y127102D01*
X04421Y127102D01*
X05019Y126854D01*
X05477Y126396D01*
X05725Y125798D01*
X05725Y125151D01*
X05477Y124553D01*
X05019Y124095D01*
X04421Y123848D01*
X03774Y123848D01*
X03310Y124040D02*
X00163Y124040D01*
X00163Y124191D02*
X03081Y124191D01*
X02930Y124342D02*
X00163Y124342D01*
X00163Y124492D02*
X02779Y124492D01*
X02681Y124643D02*
X00163Y124643D01*
X00163Y124794D02*
X02619Y124794D01*
X02556Y124945D02*
X00163Y124945D01*
X00163Y125096D02*
X02494Y125096D01*
X02471Y125247D02*
X00163Y125247D01*
X00163Y125398D02*
X02471Y125398D01*
X02471Y125549D02*
X00163Y125549D01*
X00163Y125700D02*
X02471Y125700D01*
X02492Y125851D02*
X00163Y125851D01*
X00163Y126001D02*
X02555Y126001D01*
X02617Y126152D02*
X00163Y126152D01*
X00163Y126303D02*
X02680Y126303D01*
X02776Y126454D02*
X00163Y126454D01*
X00163Y126605D02*
X02927Y126605D01*
X03078Y126756D02*
X00163Y126756D01*
X00163Y126907D02*
X03304Y126907D01*
X03668Y127058D02*
X00163Y127058D01*
X-00167Y127058D02*
X-02002Y127058D01*
X-02002Y127209D02*
X-00167Y127209D01*
X-00167Y127360D02*
X-02002Y127360D01*
X-02002Y127510D02*
X-00167Y127510D01*
X-00167Y127661D02*
X-02002Y127661D01*
X-02002Y127812D02*
X-00167Y127812D01*
X-00167Y127963D02*
X-02002Y127963D01*
X-02002Y128114D02*
X-00167Y128114D01*
X-00167Y128265D02*
X-02002Y128265D01*
X-02002Y128416D02*
X-00167Y128416D01*
X-00144Y128567D02*
X-02002Y128567D01*
X-02002Y126907D02*
X-00167Y126907D01*
X-00167Y126756D02*
X-02002Y126756D01*
X-02002Y126605D02*
X-00167Y126605D01*
X-00167Y126454D02*
X-02002Y126454D01*
X-02002Y126303D02*
X-00167Y126303D01*
X-00167Y126152D02*
X-02002Y126152D01*
X-02002Y126001D02*
X-00167Y126001D01*
X-00167Y125851D02*
X-02002Y125851D01*
X-02002Y125700D02*
X-00167Y125700D01*
X-00167Y125549D02*
X-02002Y125549D01*
X-02002Y125398D02*
X-00167Y125398D01*
X-00167Y125247D02*
X-02002Y125247D01*
X-02002Y125096D02*
X-00167Y125096D01*
X-00167Y124945D02*
X-02002Y124945D01*
X-02002Y124794D02*
X-00167Y124794D01*
X-00167Y124643D02*
X-02002Y124643D01*
X-02002Y124492D02*
X-00167Y124492D01*
X-00167Y124342D02*
X-02002Y124342D01*
X-02002Y124191D02*
X-00167Y124191D01*
X-00167Y124040D02*
X-02002Y124040D01*
X-02002Y123889D02*
X-00167Y123889D01*
X-00167Y123738D02*
X-02002Y123738D01*
X-02002Y123587D02*
X-00167Y123587D01*
X-00167Y123436D02*
X-02002Y123436D01*
X-02002Y123285D02*
X-00167Y123285D01*
X-00167Y123134D02*
X-02002Y123134D01*
X-02002Y122983D02*
X-00167Y122983D01*
X-00167Y122833D02*
X-02002Y122833D01*
X-02002Y122682D02*
X-00167Y122682D01*
X-00167Y122531D02*
X-02002Y122531D01*
X-02002Y122380D02*
X-00167Y122380D01*
X-00167Y122229D02*
X-02002Y122229D01*
X-02002Y122078D02*
X-00167Y122078D01*
X-00167Y121927D02*
X-02002Y121927D01*
X-02002Y121776D02*
X-00167Y121776D01*
X-00167Y121625D02*
X-02002Y121625D01*
X-02002Y121474D02*
X-00167Y121474D01*
X-00167Y121324D02*
X-02002Y121324D01*
X-02002Y121173D02*
X-00167Y121173D01*
X-00167Y121022D02*
X-02002Y121022D01*
X-02002Y120871D02*
X-00167Y120871D01*
X-00167Y120720D02*
X-02002Y120720D01*
X-02002Y120569D02*
X-00167Y120569D01*
X-00167Y120418D02*
X-02002Y120418D01*
X-02002Y120267D02*
X-00167Y120267D01*
X-00167Y120116D02*
X-02002Y120116D01*
X-02002Y119965D02*
X-00167Y119965D01*
X-00167Y119815D02*
X-02002Y119815D01*
X-02002Y119664D02*
X-00167Y119664D01*
X-00167Y119513D02*
X-02002Y119513D01*
X-02002Y119362D02*
X-00167Y119362D01*
X-00167Y119211D02*
X-02002Y119211D01*
X-02002Y119060D02*
X-00167Y119060D01*
X-00167Y118909D02*
X-02002Y118909D01*
X-02002Y118758D02*
X-00167Y118758D01*
X-00167Y118607D02*
X-02002Y118607D01*
X-02002Y118456D02*
X-00167Y118456D01*
X-00167Y118306D02*
X-02002Y118306D01*
X-02002Y118155D02*
X-00167Y118155D01*
X-00167Y118004D02*
X-02002Y118004D01*
X-02002Y117853D02*
X-00167Y117853D01*
X-00167Y117702D02*
X-02002Y117702D01*
X-02002Y117551D02*
X-00167Y117551D01*
X-00167Y117400D02*
X-02002Y117400D01*
X-02002Y117249D02*
X-00167Y117249D01*
X-00167Y117098D02*
X-02002Y117098D01*
X-02002Y116947D02*
X-00167Y116947D01*
X-00167Y116797D02*
X-02002Y116797D01*
X-02002Y116646D02*
X-00167Y116646D01*
X-00167Y116495D02*
X-02002Y116495D01*
X-02002Y116344D02*
X-00167Y116344D01*
X-00167Y116193D02*
X-02002Y116193D01*
X-02002Y116042D02*
X-00167Y116042D01*
X-00167Y115891D02*
X-02002Y115891D01*
X-02002Y115740D02*
X-00167Y115740D01*
X-00167Y115589D02*
X-02002Y115589D01*
X-02002Y115438D02*
X-00167Y115438D01*
X-00167Y115288D02*
X-02002Y115288D01*
X-02002Y115137D02*
X-00167Y115137D01*
X-00167Y114986D02*
X-02002Y114986D01*
X-02002Y114835D02*
X-00167Y114835D01*
X-00167Y114684D02*
X-02002Y114684D01*
X-02002Y114533D02*
X-00167Y114533D01*
X-00167Y114382D02*
X-02002Y114382D01*
X-02002Y114231D02*
X-00167Y114231D01*
X-00167Y114080D02*
X-02002Y114080D01*
X-02002Y113929D02*
X-00167Y113929D01*
X-00167Y113779D02*
X-02002Y113779D01*
X-02002Y113628D02*
X-00167Y113628D01*
X-00167Y113477D02*
X-02002Y113477D01*
X-02002Y113326D02*
X-00167Y113326D01*
X-00167Y113175D02*
X-02002Y113175D01*
X-02002Y113024D02*
X-00167Y113024D01*
X-00167Y112873D02*
X-02002Y112873D01*
X-02002Y112722D02*
X-00167Y112722D01*
X-00167Y112571D02*
X-02002Y112571D01*
X-02002Y112420D02*
X-00167Y112420D01*
X-00167Y112270D02*
X-02002Y112270D01*
X-02002Y112119D02*
X-00167Y112119D01*
X-00167Y111968D02*
X-02002Y111968D01*
X-02002Y111817D02*
X-00167Y111817D01*
X-00167Y111666D02*
X-02002Y111666D01*
X-02002Y111515D02*
X-00167Y111515D01*
X-00167Y111364D02*
X-02002Y111364D01*
X-02002Y111213D02*
X-00167Y111213D01*
X-00167Y111062D02*
X-02002Y111062D01*
X-02002Y110911D02*
X-00167Y110911D01*
X-00167Y110761D02*
X-02002Y110761D01*
X-02002Y110610D02*
X-00167Y110610D01*
X-00167Y110459D02*
X-02002Y110459D01*
X-02002Y110308D02*
X-00167Y110308D01*
X-00167Y110157D02*
X-02002Y110157D01*
X-02002Y110006D02*
X-00167Y110006D01*
X-00167Y109855D02*
X-02002Y109855D01*
X-02002Y109704D02*
X-00167Y109704D01*
X-00167Y109553D02*
X-02002Y109553D01*
X-02002Y109402D02*
X-00167Y109402D01*
X-00167Y109252D02*
X-02002Y109252D01*
X-02002Y109101D02*
X-00167Y109101D01*
X-00167Y108950D02*
X-02002Y108950D01*
X-02002Y108799D02*
X-00167Y108799D01*
X-00167Y108648D02*
X-02002Y108648D01*
X-02002Y108497D02*
X-00167Y108497D01*
X-00167Y108346D02*
X-02002Y108346D01*
X-02002Y108195D02*
X-00167Y108195D01*
X-00167Y108044D02*
X-02002Y108044D01*
X-02002Y107893D02*
X-00167Y107893D01*
X-00167Y107743D02*
X-02002Y107743D01*
X-02002Y107592D02*
X-00167Y107592D01*
X-00167Y107441D02*
X-02002Y107441D01*
X-02002Y107290D02*
X-00167Y107290D01*
X-00167Y107139D02*
X-02002Y107139D01*
X-02002Y106988D02*
X-00167Y106988D01*
X-00167Y106837D02*
X-02002Y106837D01*
X-02002Y106686D02*
X-00167Y106686D01*
X-00167Y106535D02*
X-02002Y106535D01*
X-02002Y106384D02*
X-00167Y106384D01*
X-00167Y106234D02*
X-02002Y106234D01*
X-02002Y106083D02*
X-00167Y106083D01*
X-00167Y105932D02*
X-02002Y105932D01*
X-02002Y105781D02*
X-00167Y105781D01*
X-00167Y105630D02*
X-02002Y105630D01*
X-02002Y105479D02*
X-00167Y105479D01*
X-00167Y105328D02*
X-02002Y105328D01*
X-02002Y105177D02*
X-00167Y105177D01*
X-00167Y105026D02*
X-02002Y105026D01*
X-02002Y104875D02*
X-00167Y104875D01*
X-00167Y104725D02*
X-02002Y104725D01*
X-02002Y104574D02*
X-00167Y104574D01*
X-00167Y104423D02*
X-02002Y104423D01*
X-02002Y104272D02*
X-00167Y104272D01*
X-00167Y104121D02*
X-02002Y104121D01*
X-02002Y103970D02*
X-00167Y103970D01*
X-00167Y103819D02*
X-02002Y103819D01*
X-02002Y103668D02*
X-00167Y103668D01*
X-00167Y103517D02*
X-02002Y103517D01*
X-02002Y103366D02*
X-00167Y103366D01*
X-00167Y103216D02*
X-02002Y103216D01*
X-02002Y103065D02*
X-00167Y103065D01*
X-00167Y102914D02*
X-02002Y102914D01*
X-02002Y102763D02*
X-00167Y102763D01*
X-00167Y102612D02*
X-02002Y102612D01*
X-02002Y102461D02*
X-00167Y102461D01*
X-00167Y102310D02*
X-02002Y102310D01*
X-02002Y102159D02*
X-00167Y102159D01*
X-00167Y102008D02*
X-02002Y102008D01*
X-02002Y101857D02*
X-00167Y101857D01*
X-00167Y101707D02*
X-02002Y101707D01*
X-02002Y101556D02*
X-00167Y101556D01*
X-00167Y101405D02*
X-02002Y101405D01*
X-02002Y101254D02*
X-00167Y101254D01*
X-00167Y101103D02*
X-02002Y101103D01*
X-02002Y100952D02*
X-00167Y100952D01*
X-00167Y100801D02*
X-02002Y100801D01*
X-02002Y100650D02*
X-00167Y100650D01*
X-00167Y100499D02*
X-02002Y100499D01*
X-02002Y100348D02*
X-00167Y100348D01*
X-00167Y100198D02*
X-02002Y100198D01*
X-02002Y100047D02*
X-00167Y100047D01*
X-00167Y99896D02*
X-02002Y99896D01*
X-02002Y99745D02*
X-00167Y99745D01*
X-00167Y99594D02*
X-02002Y99594D01*
X-02002Y99443D02*
X-00167Y99443D01*
X-00167Y99292D02*
X-02002Y99292D01*
X-02002Y99141D02*
X-00167Y99141D01*
X-00167Y98990D02*
X-02002Y98990D01*
X-02002Y98839D02*
X-00167Y98839D01*
X-00167Y98689D02*
X-02002Y98689D01*
X-02002Y98538D02*
X-00167Y98538D01*
X-00167Y98387D02*
X-02002Y98387D01*
X-02002Y98236D02*
X-00167Y98236D01*
X-00167Y98085D02*
X-02002Y98085D01*
X-02002Y97934D02*
X-00167Y97934D01*
X-00167Y97783D02*
X-02002Y97783D01*
X-02002Y97632D02*
X-00167Y97632D01*
X-00167Y97481D02*
X-02002Y97481D01*
X-02002Y97330D02*
X-00167Y97330D01*
X-00167Y97180D02*
X-02002Y97180D01*
X-02002Y97029D02*
X-00167Y97029D01*
X-00167Y96878D02*
X-02002Y96878D01*
X-02002Y96727D02*
X-00167Y96727D01*
X-00167Y96576D02*
X-02002Y96576D01*
X-02002Y96425D02*
X-00167Y96425D01*
X-00167Y96274D02*
X-02002Y96274D01*
X-02002Y96123D02*
X-00167Y96123D01*
X-00167Y95972D02*
X-02002Y95972D01*
X-02002Y95821D02*
X-00167Y95821D01*
X-00167Y95671D02*
X-02002Y95671D01*
X-02002Y95520D02*
X-00167Y95520D01*
X-00167Y95369D02*
X-02002Y95369D01*
X-02002Y95218D02*
X-00167Y95218D01*
X-00167Y95067D02*
X-02002Y95067D01*
X-02002Y94916D02*
X-00167Y94916D01*
X-00167Y94765D02*
X-02002Y94765D01*
X-02002Y94614D02*
X-00167Y94614D01*
X-00167Y94463D02*
X-02002Y94463D01*
X-02002Y94312D02*
X-00167Y94312D01*
X-00167Y94162D02*
X-02002Y94162D01*
X-02002Y94011D02*
X-00167Y94011D01*
X-00167Y93860D02*
X-02002Y93860D01*
X-02002Y93709D02*
X-00167Y93709D01*
X-00167Y93558D02*
X-02002Y93558D01*
X-02002Y93407D02*
X-00167Y93407D01*
X-00167Y93256D02*
X-02002Y93256D01*
X-02002Y93105D02*
X-00167Y93105D01*
X-00167Y92954D02*
X-02002Y92954D01*
X-02002Y92803D02*
X-00167Y92803D01*
X-00167Y92653D02*
X-02002Y92653D01*
X-02002Y92502D02*
X-00167Y92502D01*
X-00167Y92351D02*
X-02002Y92351D01*
X-02002Y92200D02*
X-00167Y92200D01*
X-00167Y92049D02*
X-02002Y92049D01*
X-02002Y91898D02*
X-00167Y91898D01*
X-00167Y91747D02*
X-02002Y91747D01*
X-02002Y91596D02*
X-00167Y91596D01*
X-00167Y91445D02*
X-02002Y91445D01*
X-02002Y91294D02*
X-00167Y91294D01*
X-00167Y91144D02*
X-02002Y91144D01*
X-02002Y90993D02*
X-00167Y90993D01*
X-00167Y90842D02*
X-02002Y90842D01*
X-02002Y90691D02*
X-00167Y90691D01*
X-00167Y90540D02*
X-02002Y90540D01*
X-02002Y90389D02*
X-00167Y90389D01*
X-00167Y90238D02*
X-02002Y90238D01*
X-02002Y90087D02*
X-00167Y90087D01*
X-00167Y89936D02*
X-02002Y89936D01*
X-02002Y89785D02*
X-00167Y89785D01*
X-00167Y89635D02*
X-02002Y89635D01*
X-02002Y89484D02*
X-00167Y89484D01*
X-00167Y89333D02*
X-02002Y89333D01*
X-02002Y89182D02*
X-00167Y89182D01*
X-00167Y89031D02*
X-02002Y89031D01*
X-02002Y88880D02*
X-00167Y88880D01*
X-00167Y88729D02*
X-02002Y88729D01*
X-02002Y88578D02*
X-00167Y88578D01*
X-00167Y88427D02*
X-02002Y88427D01*
X-02002Y88276D02*
X-00167Y88276D01*
X-00167Y88126D02*
X-02002Y88126D01*
X-02002Y87975D02*
X-00167Y87975D01*
X-00167Y87824D02*
X-02002Y87824D01*
X-02002Y87673D02*
X-00167Y87673D01*
X-00167Y87522D02*
X-02002Y87522D01*
X-02002Y87371D02*
X-00167Y87371D01*
X-00167Y87220D02*
X-02002Y87220D01*
X-02002Y87069D02*
X-00167Y87069D01*
X-00167Y86918D02*
X-02002Y86918D01*
X-02002Y86768D02*
X-00167Y86768D01*
X-00167Y86617D02*
X-02002Y86617D01*
X-02002Y86466D02*
X-00167Y86466D01*
X-00167Y86315D02*
X-02002Y86315D01*
X-02002Y86164D02*
X-00167Y86164D01*
X-00167Y86013D02*
X-02002Y86013D01*
X-02002Y85862D02*
X-00167Y85862D01*
X-00167Y85711D02*
X-02002Y85711D01*
X-02002Y85560D02*
X-00167Y85560D01*
X-00167Y85409D02*
X-02002Y85409D01*
X-02002Y85259D02*
X-00167Y85259D01*
X-00167Y85108D02*
X-02002Y85108D01*
X-02002Y84957D02*
X-00167Y84957D01*
X-00167Y84806D02*
X-02002Y84806D01*
X-02002Y84655D02*
X-00167Y84655D01*
X-00167Y84504D02*
X-02002Y84504D01*
X-02002Y84353D02*
X-00167Y84353D01*
X-00167Y84202D02*
X-02002Y84202D01*
X-02002Y84051D02*
X-00167Y84051D01*
X-00167Y83900D02*
X-02002Y83900D01*
X-02002Y83750D02*
X-00167Y83750D01*
X-00167Y83599D02*
X-02002Y83599D01*
X-02002Y83448D02*
X-00167Y83448D01*
X-00167Y83297D02*
X-02002Y83297D01*
X-02002Y83146D02*
X-00167Y83146D01*
X-00167Y82995D02*
X-02002Y82995D01*
X-02002Y82844D02*
X-00167Y82844D01*
X-00167Y82693D02*
X-02002Y82693D01*
X-02002Y82542D02*
X-00167Y82542D01*
X-00167Y82391D02*
X-02002Y82391D01*
X-02002Y82241D02*
X-00167Y82241D01*
X-00167Y82090D02*
X-02002Y82090D01*
X-02002Y81939D02*
X-00167Y81939D01*
X-00167Y81788D02*
X-02002Y81788D01*
X-02002Y81637D02*
X-00167Y81637D01*
X-00167Y81486D02*
X-02002Y81486D01*
X-02002Y81335D02*
X-00167Y81335D01*
X-00167Y81184D02*
X-02002Y81184D01*
X-02002Y81033D02*
X-00167Y81033D01*
X-00167Y80882D02*
X-02002Y80882D01*
X-02002Y80732D02*
X-00167Y80732D01*
X-00167Y80581D02*
X-02002Y80581D01*
X-02002Y80430D02*
X-00167Y80430D01*
X-00167Y80279D02*
X-02002Y80279D01*
X-02002Y80128D02*
X-00167Y80128D01*
X-00167Y79977D02*
X-02002Y79977D01*
X-02002Y79826D02*
X-00167Y79826D01*
X-00167Y79675D02*
X-02002Y79675D01*
X-02002Y79524D02*
X-00167Y79524D01*
X-00167Y79373D02*
X-02002Y79373D01*
X-02002Y79223D02*
X-00167Y79223D01*
X-00167Y79072D02*
X-02002Y79072D01*
X-02002Y78921D02*
X-00167Y78921D01*
X-00167Y78770D02*
X-02002Y78770D01*
X-02002Y78619D02*
X-00167Y78619D01*
X-00167Y78468D02*
X-02002Y78468D01*
X-02002Y78317D02*
X-00167Y78317D01*
X-00167Y78166D02*
X-02002Y78166D01*
X-02002Y78015D02*
X-00167Y78015D01*
X-00167Y77864D02*
X-02002Y77864D01*
X-02002Y77714D02*
X-00167Y77714D01*
X-00167Y77563D02*
X-02002Y77563D01*
X-02002Y77412D02*
X-00167Y77412D01*
X-00167Y77261D02*
X-02002Y77261D01*
X-02002Y77110D02*
X-00167Y77110D01*
X-00167Y76959D02*
X-02002Y76959D01*
X-02002Y76808D02*
X-00167Y76808D01*
X-00167Y76657D02*
X-02002Y76657D01*
X-02002Y76506D02*
X-00167Y76506D01*
X-00167Y76355D02*
X-02002Y76355D01*
X-02002Y76205D02*
X-00167Y76205D01*
X-00167Y76054D02*
X-02002Y76054D01*
X-02002Y75903D02*
X-00167Y75903D01*
X-00167Y75752D02*
X-02002Y75752D01*
X-02002Y75601D02*
X-00167Y75601D01*
X-00167Y75450D02*
X-02002Y75450D01*
X-02002Y75299D02*
X-00167Y75299D01*
X-00167Y75148D02*
X-02002Y75148D01*
X-02002Y74997D02*
X-00167Y74997D01*
X-00167Y74846D02*
X-02002Y74846D01*
X-02002Y74696D02*
X-00167Y74696D01*
X-00167Y74545D02*
X-02002Y74545D01*
X-02002Y74394D02*
X-00167Y74394D01*
X-00167Y74243D02*
X-02002Y74243D01*
X-02002Y74092D02*
X-00167Y74092D01*
X-00167Y73941D02*
X-02002Y73941D01*
X-02002Y73790D02*
X-00167Y73790D01*
X-00167Y73639D02*
X-02002Y73639D01*
X-02002Y73488D02*
X-00167Y73488D01*
X-00167Y73337D02*
X-02002Y73337D01*
X-02002Y73187D02*
X-00167Y73187D01*
X-00167Y73036D02*
X-02002Y73036D01*
X-02002Y72885D02*
X-00167Y72885D01*
X-00167Y72734D02*
X-02002Y72734D01*
X-02002Y72583D02*
X-00167Y72583D01*
X-00167Y72432D02*
X-02002Y72432D01*
X-02002Y72281D02*
X-00167Y72281D01*
X-00167Y72130D02*
X-02002Y72130D01*
X-02002Y71979D02*
X-00167Y71979D01*
X-00167Y71828D02*
X-02002Y71828D01*
X-02002Y71678D02*
X-00167Y71678D01*
X-00167Y71527D02*
X-02002Y71527D01*
X-02002Y71376D02*
X-00167Y71376D01*
X-00167Y71225D02*
X-02002Y71225D01*
X-02002Y71074D02*
X-00167Y71074D01*
X-00167Y70923D02*
X-02002Y70923D01*
X-02002Y70772D02*
X-00167Y70772D01*
X-00167Y70621D02*
X-02002Y70621D01*
X-02002Y70470D02*
X-00167Y70470D01*
X-00167Y70319D02*
X-02002Y70319D01*
X-02002Y70169D02*
X-00167Y70169D01*
X-00167Y70018D02*
X-02002Y70018D01*
X-02002Y69867D02*
X-00167Y69867D01*
X-00167Y69716D02*
X-02002Y69716D01*
X-02002Y69565D02*
X-00167Y69565D01*
X-00167Y69414D02*
X-02002Y69414D01*
X-02002Y69263D02*
X-00167Y69263D01*
X-00167Y69112D02*
X-02002Y69112D01*
X-02002Y68961D02*
X-00167Y68961D01*
X-00167Y68810D02*
X-02002Y68810D01*
X-02002Y68660D02*
X-00167Y68660D01*
X-00167Y68509D02*
X-02002Y68509D01*
X-02002Y68358D02*
X-00167Y68358D01*
X-00167Y68207D02*
X-02002Y68207D01*
X-02002Y68056D02*
X-00167Y68056D01*
X-00167Y67905D02*
X-02002Y67905D01*
X-02002Y67754D02*
X-00167Y67754D01*
X-00167Y67603D02*
X-02002Y67603D01*
X-02002Y67452D02*
X-00167Y67452D01*
X-00167Y67301D02*
X-02002Y67301D01*
X-02002Y67151D02*
X-00167Y67151D01*
X-00167Y67000D02*
X-02002Y67000D01*
X-02002Y66849D02*
X-00167Y66849D01*
X-00167Y66698D02*
X-02002Y66698D01*
X-02002Y66547D02*
X-00167Y66547D01*
X-00167Y66396D02*
X-02002Y66396D01*
X-02002Y66245D02*
X-00167Y66245D01*
X-00167Y66094D02*
X-02002Y66094D01*
X-02002Y65943D02*
X-00167Y65943D01*
X-00167Y65792D02*
X-02002Y65792D01*
X-02002Y65642D02*
X-00167Y65642D01*
X-00167Y65491D02*
X-02002Y65491D01*
X-02002Y65340D02*
X-00167Y65340D01*
X-00167Y65189D02*
X-02002Y65189D01*
X-02002Y65038D02*
X-00167Y65038D01*
X-00167Y64887D02*
X-02002Y64887D01*
X-02002Y64736D02*
X-00167Y64736D01*
X-00167Y64585D02*
X-02002Y64585D01*
X-02002Y64434D02*
X-00167Y64434D01*
X-00167Y64283D02*
X-02002Y64283D01*
X-02002Y64132D02*
X-00167Y64132D01*
X-00167Y63982D02*
X-02002Y63982D01*
X-02002Y63831D02*
X-00167Y63831D01*
X-00167Y63680D02*
X-02002Y63680D01*
X-02002Y63529D02*
X-00167Y63529D01*
X-00167Y63378D02*
X-02002Y63378D01*
X-02002Y63227D02*
X-00167Y63227D01*
X-00167Y63076D02*
X-02002Y63076D01*
X-02002Y62925D02*
X-00167Y62925D01*
X-00167Y62774D02*
X-02002Y62774D01*
X-02002Y62623D02*
X-00167Y62623D01*
X-00167Y62473D02*
X-02002Y62473D01*
X-02002Y62322D02*
X-00167Y62322D01*
X-00167Y62171D02*
X-02002Y62171D01*
X-02002Y62020D02*
X-00167Y62020D01*
X-00167Y61869D02*
X-02002Y61869D01*
X-02002Y61718D02*
X-00167Y61718D01*
X-00167Y61567D02*
X-02002Y61567D01*
X-02002Y61416D02*
X-00167Y61416D01*
X-00167Y61265D02*
X-02002Y61265D01*
X-02002Y61114D02*
X-00167Y61114D01*
X-00167Y60964D02*
X-02002Y60964D01*
X-02002Y60813D02*
X-00167Y60813D01*
X-00167Y60662D02*
X-02002Y60662D01*
X-02002Y60511D02*
X-00167Y60511D01*
X-00167Y60360D02*
X-02002Y60360D01*
X-02002Y60209D02*
X-00167Y60209D01*
X-00167Y60058D02*
X-02002Y60058D01*
X-02002Y59907D02*
X-00167Y59907D01*
X-00167Y59756D02*
X-02002Y59756D01*
X-02002Y59605D02*
X-00167Y59605D01*
X-00167Y59455D02*
X-02002Y59455D01*
X-02002Y59304D02*
X-00167Y59304D01*
X-00167Y59153D02*
X-02002Y59153D01*
X-02002Y59002D02*
X-00167Y59002D01*
X-00167Y58851D02*
X-02002Y58851D01*
X-02002Y58700D02*
X-00167Y58700D01*
X-00167Y58549D02*
X-02002Y58549D01*
X-02002Y58398D02*
X-00167Y58398D01*
X-00167Y58247D02*
X-02002Y58247D01*
X-02002Y58096D02*
X-00167Y58096D01*
X-00167Y57946D02*
X-02002Y57946D01*
X-02002Y57795D02*
X-00167Y57795D01*
X-00167Y57644D02*
X-02002Y57644D01*
X-02002Y57493D02*
X-00167Y57493D01*
X-00167Y57342D02*
X-02002Y57342D01*
X-02002Y57191D02*
X-00167Y57191D01*
X-00167Y57040D02*
X-02002Y57040D01*
X-02002Y56889D02*
X-00167Y56889D01*
X-00167Y56738D02*
X-02002Y56738D01*
X-02002Y56587D02*
X-00167Y56587D01*
X-00167Y56437D02*
X-02002Y56437D01*
X-02002Y56286D02*
X-00167Y56286D01*
X-00167Y56135D02*
X-02002Y56135D01*
X-02002Y55984D02*
X-00167Y55984D01*
X-00167Y55833D02*
X-02002Y55833D01*
X-02002Y55682D02*
X-00167Y55682D01*
X-00167Y55531D02*
X-02002Y55531D01*
X-02002Y55380D02*
X-00167Y55380D01*
X-00167Y55229D02*
X-02002Y55229D01*
X-02002Y55078D02*
X-00167Y55078D01*
X-00167Y54928D02*
X-02002Y54928D01*
X-02002Y54777D02*
X-00167Y54777D01*
X-00167Y54626D02*
X-02002Y54626D01*
X-02002Y54475D02*
X-00167Y54475D01*
X-00167Y54324D02*
X-02002Y54324D01*
X-02002Y54173D02*
X-00167Y54173D01*
X-00167Y54022D02*
X-02002Y54022D01*
X-02002Y53871D02*
X-00167Y53871D01*
X-00167Y53720D02*
X-02002Y53720D01*
X-02002Y53569D02*
X-00167Y53569D01*
X-00167Y53419D02*
X-02002Y53419D01*
X-02002Y53268D02*
X-00167Y53268D01*
X-00167Y53117D02*
X-02002Y53117D01*
X-02002Y52966D02*
X-00167Y52966D01*
X-00167Y52815D02*
X-02002Y52815D01*
X-02002Y52664D02*
X-00167Y52664D01*
X-00167Y52513D02*
X-02002Y52513D01*
X-02002Y52362D02*
X-00167Y52362D01*
X-00167Y52211D02*
X-02002Y52211D01*
X-02002Y52060D02*
X-00167Y52060D01*
X-00167Y51910D02*
X-02002Y51910D01*
X-02002Y51759D02*
X-00167Y51759D01*
X-00167Y51608D02*
X-02002Y51608D01*
X-02002Y51457D02*
X-00167Y51457D01*
X-00167Y51306D02*
X-02002Y51306D01*
X-02002Y51155D02*
X-00167Y51155D01*
X-00167Y51004D02*
X-02002Y51004D01*
X-02002Y50853D02*
X-00167Y50853D01*
X-00167Y50702D02*
X-02002Y50702D01*
X-02002Y50551D02*
X-00167Y50551D01*
X-00167Y50401D02*
X-02002Y50401D01*
X-02002Y50250D02*
X-00167Y50250D01*
X-00167Y50099D02*
X-02002Y50099D01*
X-02002Y49948D02*
X-00167Y49948D01*
X-00167Y49797D02*
X-02002Y49797D01*
X-02002Y49646D02*
X-00167Y49646D01*
X-00167Y49495D02*
X-02002Y49495D01*
X-02002Y49344D02*
X-00167Y49344D01*
X-00167Y49193D02*
X-02002Y49193D01*
X-02002Y49042D02*
X-00167Y49042D01*
X-00167Y48892D02*
X-02002Y48892D01*
X-02002Y48741D02*
X-00167Y48741D01*
X-00167Y48590D02*
X-02002Y48590D01*
X-02002Y48439D02*
X-00167Y48439D01*
X-00167Y48288D02*
X-02002Y48288D01*
X-02002Y48137D02*
X-00167Y48137D01*
X-00167Y47986D02*
X-02002Y47986D01*
X-02002Y47835D02*
X-00167Y47835D01*
X-00167Y47684D02*
X-02002Y47684D01*
X-02002Y47533D02*
X-00167Y47533D01*
X-00167Y47383D02*
X-02002Y47383D01*
X-02002Y47232D02*
X-00167Y47232D01*
X-00167Y47081D02*
X-02002Y47081D01*
X-02002Y46930D02*
X-00167Y46930D01*
X-00167Y46779D02*
X-02002Y46779D01*
X-02002Y46628D02*
X-00167Y46628D01*
X-00167Y46477D02*
X-02002Y46477D01*
X-02002Y46326D02*
X-00167Y46326D01*
X-00167Y46175D02*
X-02002Y46175D01*
X-02002Y46024D02*
X-00167Y46024D01*
X-00167Y45874D02*
X-02002Y45874D01*
X-02002Y45723D02*
X-00167Y45723D01*
X-00167Y45572D02*
X-02002Y45572D01*
X-02002Y45421D02*
X-00167Y45421D01*
X-00167Y45270D02*
X-02002Y45270D01*
X-02002Y45119D02*
X-00167Y45119D01*
X-00167Y44968D02*
X-02002Y44968D01*
X-02002Y44817D02*
X-00167Y44817D01*
X-00167Y44666D02*
X-02002Y44666D01*
X-02002Y44515D02*
X-00167Y44515D01*
X-00167Y44365D02*
X-02002Y44365D01*
X-02002Y44214D02*
X-00167Y44214D01*
X-00167Y44063D02*
X-02002Y44063D01*
X-02002Y43912D02*
X-00167Y43912D01*
X-00167Y43761D02*
X-02002Y43761D01*
X-02002Y43610D02*
X-00167Y43610D01*
X-00167Y43459D02*
X-02002Y43459D01*
X-02002Y43308D02*
X-00167Y43308D01*
X-00167Y43157D02*
X-02002Y43157D01*
X-02002Y43007D02*
X-00167Y43007D01*
X-00167Y42856D02*
X-02002Y42856D01*
X-02002Y42705D02*
X-00167Y42705D01*
X-00167Y42554D02*
X-02002Y42554D01*
X-02002Y42403D02*
X-00167Y42403D01*
X-00167Y42252D02*
X-02002Y42252D01*
X-02002Y42101D02*
X-00167Y42101D01*
X-00167Y41950D02*
X-02002Y41950D01*
X-02002Y41799D02*
X-00167Y41799D01*
X-00167Y41648D02*
X-02002Y41648D01*
X-02002Y41498D02*
X-00167Y41498D01*
X-00167Y41347D02*
X-02002Y41347D01*
X-02002Y41196D02*
X-00167Y41196D01*
X-00167Y41045D02*
X-02002Y41045D01*
X-02002Y40894D02*
X-00167Y40894D01*
X-00167Y40743D02*
X-02002Y40743D01*
X-02002Y40592D02*
X-00167Y40592D01*
X-00167Y40441D02*
X-02002Y40441D01*
X-02002Y40290D02*
X-00167Y40290D01*
X-00167Y40139D02*
X-02002Y40139D01*
X-02002Y39989D02*
X-00167Y39989D01*
X-00167Y39838D02*
X-02002Y39838D01*
X-02002Y39687D02*
X-00167Y39687D01*
X-00167Y39536D02*
X-02002Y39536D01*
X-02002Y39385D02*
X-00167Y39385D01*
X-00167Y39234D02*
X-02002Y39234D01*
X-02002Y39083D02*
X-00167Y39083D01*
X-00167Y38932D02*
X-02002Y38932D01*
X-02002Y38781D02*
X-00167Y38781D01*
X-00167Y38630D02*
X-02002Y38630D01*
X-02002Y38480D02*
X-00167Y38480D01*
X-00167Y38329D02*
X-02002Y38329D01*
X-02002Y38178D02*
X-00167Y38178D01*
X-00167Y38027D02*
X-02002Y38027D01*
X-02002Y37876D02*
X-00167Y37876D01*
X-00167Y37725D02*
X-02002Y37725D01*
X-02002Y37574D02*
X-00167Y37574D01*
X-00167Y37423D02*
X-02002Y37423D01*
X-02002Y37272D02*
X-00167Y37272D01*
X-00167Y37121D02*
X-02002Y37121D01*
X-02002Y36971D02*
X-00167Y36971D01*
X-00167Y36820D02*
X-02002Y36820D01*
X-02002Y36669D02*
X-00167Y36669D01*
X-00167Y36518D02*
X-02002Y36518D01*
X-02002Y36367D02*
X-00167Y36367D01*
X-00167Y36216D02*
X-02002Y36216D01*
X-02002Y36065D02*
X-00167Y36065D01*
X-00167Y35914D02*
X-02002Y35914D01*
X-02002Y35763D02*
X-00167Y35763D01*
X-00167Y35612D02*
X-02002Y35612D01*
X-02002Y35462D02*
X-00167Y35462D01*
X-00167Y35311D02*
X-02002Y35311D01*
X-02002Y35160D02*
X-00167Y35160D01*
X-00167Y35009D02*
X-02002Y35009D01*
X-02002Y34858D02*
X-00167Y34858D01*
X-00167Y34707D02*
X-02002Y34707D01*
X-02002Y34556D02*
X-00167Y34556D01*
X-00167Y34405D02*
X-02002Y34405D01*
X-02002Y34254D02*
X-00167Y34254D01*
X-00167Y34103D02*
X-02002Y34103D01*
X-02002Y33953D02*
X-00167Y33953D01*
X-00167Y33802D02*
X-02002Y33802D01*
X-02002Y33651D02*
X-00167Y33651D01*
X-00167Y33500D02*
X-02002Y33500D01*
X-02002Y33349D02*
X-00167Y33349D01*
X-00167Y33198D02*
X-02002Y33198D01*
X-02002Y33047D02*
X-00167Y33047D01*
X-00167Y32896D02*
X-02002Y32896D01*
X-02002Y32745D02*
X-00167Y32745D01*
X-00167Y32594D02*
X-02002Y32594D01*
X-02002Y32443D02*
X-00167Y32443D01*
X-00167Y32293D02*
X-02002Y32293D01*
X-02002Y32142D02*
X-00167Y32142D01*
X-00167Y31991D02*
X-02002Y31991D01*
X-02002Y31840D02*
X-00167Y31840D01*
X-00167Y31689D02*
X-02002Y31689D01*
X-02002Y31538D02*
X-00167Y31538D01*
X-00167Y31387D02*
X-02002Y31387D01*
X-02002Y31236D02*
X-00167Y31236D01*
X-00167Y31085D02*
X-02002Y31085D01*
X-02002Y30934D02*
X-00167Y30934D01*
X-00167Y30784D02*
X-02002Y30784D01*
X-02002Y30633D02*
X-00167Y30633D01*
X-00167Y30482D02*
X-02002Y30482D01*
X-02002Y30331D02*
X-00167Y30331D01*
X-00167Y30180D02*
X-02002Y30180D01*
X-02002Y30029D02*
X-00167Y30029D01*
X-00167Y29878D02*
X-02002Y29878D01*
X-02002Y29727D02*
X-00167Y29727D01*
X-00167Y29576D02*
X-02002Y29576D01*
X-02002Y29425D02*
X-00167Y29425D01*
X-00167Y29275D02*
X-02002Y29275D01*
X-02002Y29124D02*
X-00167Y29124D01*
X-00167Y28973D02*
X-02002Y28973D01*
X-02002Y28822D02*
X-00167Y28822D01*
X-00167Y28671D02*
X-02002Y28671D01*
X-02002Y28520D02*
X-00167Y28520D01*
X-00167Y28369D02*
X-02002Y28369D01*
X-02002Y28218D02*
X-00167Y28218D01*
X-00167Y28067D02*
X-02002Y28067D01*
X-02002Y27916D02*
X-00167Y27916D01*
X-00167Y27766D02*
X-02002Y27766D01*
X-02002Y27615D02*
X-00167Y27615D01*
X-00167Y27464D02*
X-02002Y27464D01*
X-02002Y27313D02*
X-00167Y27313D01*
X-00167Y27162D02*
X-02002Y27162D01*
X-02002Y27011D02*
X-00167Y27011D01*
X-00167Y26860D02*
X-02002Y26860D01*
X-02002Y26709D02*
X-00167Y26709D01*
X-00167Y26558D02*
X-02002Y26558D01*
X-02002Y26407D02*
X-00167Y26407D01*
X-00167Y26257D02*
X-02002Y26257D01*
X-02002Y26106D02*
X-00167Y26106D01*
X-00167Y25955D02*
X-02002Y25955D01*
X-02002Y25804D02*
X-00167Y25804D01*
X-00167Y25653D02*
X-02002Y25653D01*
X-02002Y25502D02*
X-00167Y25502D01*
X-00167Y25351D02*
X-02002Y25351D01*
X-02002Y25200D02*
X-00167Y25200D01*
X-00167Y25049D02*
X-02002Y25049D01*
X-02002Y24898D02*
X-00167Y24898D01*
X-00167Y24748D02*
X-02002Y24748D01*
X-02002Y24597D02*
X-00167Y24597D01*
X-00167Y24446D02*
X-02002Y24446D01*
X-02002Y24295D02*
X-00167Y24295D01*
X-00167Y24144D02*
X-02002Y24144D01*
X-02002Y23993D02*
X-00167Y23993D01*
X-00167Y23842D02*
X-02002Y23842D01*
X-02002Y23691D02*
X-00167Y23691D01*
X-00167Y23540D02*
X-02002Y23540D01*
X-02002Y23389D02*
X-00167Y23389D01*
X-00167Y23239D02*
X-02002Y23239D01*
X-02002Y23088D02*
X-00167Y23088D01*
X-00167Y22937D02*
X-02002Y22937D01*
X-02002Y22786D02*
X-00167Y22786D01*
X-00167Y22635D02*
X-02002Y22635D01*
X-02002Y22484D02*
X-00167Y22484D01*
X-00167Y22333D02*
X-02002Y22333D01*
X-02002Y22182D02*
X-00167Y22182D01*
X-00167Y22031D02*
X-02002Y22031D01*
X-02002Y21880D02*
X-00167Y21880D01*
X-00167Y21730D02*
X-02002Y21730D01*
X-02002Y21579D02*
X-00167Y21579D01*
X-00167Y21428D02*
X-02002Y21428D01*
X-02002Y21277D02*
X-00167Y21277D01*
X-00167Y21126D02*
X-02002Y21126D01*
X-02002Y20975D02*
X-00167Y20975D01*
X-00167Y20824D02*
X-02002Y20824D01*
X-02002Y20673D02*
X-00167Y20673D01*
X-00167Y20522D02*
X-02002Y20522D01*
X-02002Y20372D02*
X-00167Y20372D01*
X-00167Y20221D02*
X-02002Y20221D01*
X-02002Y20070D02*
X-00167Y20070D01*
X-00167Y19919D02*
X-02002Y19919D01*
X-02002Y19768D02*
X-00167Y19768D01*
X-00167Y19617D02*
X-02002Y19617D01*
X-02002Y19466D02*
X-00167Y19466D01*
X-00167Y19315D02*
X-02002Y19315D01*
X-02002Y19164D02*
X-00167Y19164D01*
X-00167Y19013D02*
X-02002Y19013D01*
X-02002Y18863D02*
X-00167Y18863D01*
X-00167Y18712D02*
X-02002Y18712D01*
X-02002Y18561D02*
X-00167Y18561D01*
X-00167Y18410D02*
X-02002Y18410D01*
X-02002Y18259D02*
X-00167Y18259D01*
X-00167Y18108D02*
X-02002Y18108D01*
X-02002Y17957D02*
X-00167Y17957D01*
X-00167Y17806D02*
X-02002Y17806D01*
X-02002Y17655D02*
X-00167Y17655D01*
X-00167Y17504D02*
X-02002Y17504D01*
X-02002Y17354D02*
X-00167Y17354D01*
X-00167Y17203D02*
X-02002Y17203D01*
X-02002Y17052D02*
X-00167Y17052D01*
X-00167Y16901D02*
X-02002Y16901D01*
X-02002Y16750D02*
X-00167Y16750D01*
X-00167Y16599D02*
X-02002Y16599D01*
X-02002Y16448D02*
X-00167Y16448D01*
X-00167Y16297D02*
X-02002Y16297D01*
X-02002Y16146D02*
X-00167Y16146D01*
X-00167Y15995D02*
X-02002Y15995D01*
X-02002Y15844D02*
X-00167Y15844D01*
X-00167Y15694D02*
X-02002Y15694D01*
X-02002Y15543D02*
X-00167Y15543D01*
X-00167Y15392D02*
X-02002Y15392D01*
X-02002Y15241D02*
X-00167Y15241D01*
X-00167Y15090D02*
X-02002Y15090D01*
X-02002Y14939D02*
X-00167Y14939D01*
X-00167Y14788D02*
X-02002Y14788D01*
X-02002Y14637D02*
X-00167Y14637D01*
X-00167Y14486D02*
X-02002Y14486D01*
X-02002Y14335D02*
X-00167Y14335D01*
X-00167Y14185D02*
X-02002Y14185D01*
X-02002Y14034D02*
X-00167Y14034D01*
X-00167Y13883D02*
X-02002Y13883D01*
X-02002Y13732D02*
X-00167Y13732D01*
X-00167Y13581D02*
X-02002Y13581D01*
X-02002Y13430D02*
X-00167Y13430D01*
X-00167Y13279D02*
X-02002Y13279D01*
X-02002Y13128D02*
X-00167Y13128D01*
X-00167Y12977D02*
X-02002Y12977D01*
X-02002Y12826D02*
X-00167Y12826D01*
X-00167Y12676D02*
X-02002Y12676D01*
X-02002Y12525D02*
X-00167Y12525D01*
X-00167Y12374D02*
X-02002Y12374D01*
X-02002Y12223D02*
X-00167Y12223D01*
X-00167Y12072D02*
X-02002Y12072D01*
X-02002Y11921D02*
X-00167Y11921D01*
X-00167Y11770D02*
X-02002Y11770D01*
X-02002Y11619D02*
X-00167Y11619D01*
X-00167Y11468D02*
X-02002Y11468D01*
X-02002Y11317D02*
X-00167Y11317D01*
X-00167Y11167D02*
X-02002Y11167D01*
X-02002Y11016D02*
X-00167Y11016D01*
X-00167Y10865D02*
X-02002Y10865D01*
X-02002Y10714D02*
X-00167Y10714D01*
X-00167Y10563D02*
X-02002Y10563D01*
X-02002Y10412D02*
X-00167Y10412D01*
X-00167Y10261D02*
X-02002Y10261D01*
X-02002Y10110D02*
X-00167Y10110D01*
X-00167Y09959D02*
X-02002Y09959D01*
X-02002Y09809D02*
X-00167Y09809D01*
X-00167Y09658D02*
X-02002Y09658D01*
X-02002Y09507D02*
X-00167Y09507D01*
X-00167Y09356D02*
X-02002Y09356D01*
X-02002Y09205D02*
X-00167Y09205D01*
X-00167Y09054D02*
X-02002Y09054D01*
X-02002Y08903D02*
X-00167Y08903D01*
X-00167Y08752D02*
X-02002Y08752D01*
X-02002Y08601D02*
X-00167Y08601D01*
X-00167Y08450D02*
X-02002Y08450D01*
X-02002Y08300D02*
X-00167Y08300D01*
X-00167Y08149D02*
X-02002Y08149D01*
X-02002Y07998D02*
X-00167Y07998D01*
X-00167Y07847D02*
X-02002Y07847D01*
X-02002Y07696D02*
X-00167Y07696D01*
X-00167Y07545D02*
X-02002Y07545D01*
X-02002Y07394D02*
X-00167Y07394D01*
X-00167Y07243D02*
X-02002Y07243D01*
X-02002Y07092D02*
X-00167Y07092D01*
X-00167Y06941D02*
X-02002Y06941D01*
X-02002Y06790D02*
X-00167Y06790D01*
X-00167Y06640D02*
X-02002Y06640D01*
X-02002Y06489D02*
X-00167Y06489D01*
X-00167Y06338D02*
X-02002Y06338D01*
X-02002Y06187D02*
X-00167Y06187D01*
X-00167Y06036D02*
X-02002Y06036D01*
X-02002Y05885D02*
X-00167Y05885D01*
X-00167Y05734D02*
X-02002Y05734D01*
X-02002Y05583D02*
X-00167Y05583D01*
X-00167Y05432D02*
X-02002Y05432D01*
X-02002Y05282D02*
X-00167Y05282D01*
X-00167Y05131D02*
X-02002Y05131D01*
X-02002Y04980D02*
X-00167Y04980D01*
X-00167Y04829D02*
X-02002Y04829D01*
X-02002Y04678D02*
X-00167Y04678D01*
X-00167Y04527D02*
X-02002Y04527D01*
X-02002Y04376D02*
X-00167Y04376D01*
X-00167Y04225D02*
X-02002Y04225D01*
X-02002Y04074D02*
X-00167Y04074D01*
X-00167Y03923D02*
X-02002Y03923D01*
X-02002Y03772D02*
X-00167Y03772D01*
X-00167Y03622D02*
X-02002Y03622D01*
X-02002Y03471D02*
X-00167Y03471D01*
X-00167Y03320D02*
X-02002Y03320D01*
X-02002Y03169D02*
X-00167Y03169D01*
X-00167Y03018D02*
X-02002Y03018D01*
X-02002Y02867D02*
X-00167Y02867D01*
X-00167Y02716D02*
X-02002Y02716D01*
X-02002Y02565D02*
X-00167Y02565D01*
X-00167Y02414D02*
X-02002Y02414D01*
X-02002Y02264D02*
X-00167Y02264D01*
X-00167Y02113D02*
X-02002Y02113D01*
X-02002Y01962D02*
X-00167Y01962D01*
X-00167Y01811D02*
X-02002Y01811D01*
X-02002Y01660D02*
X-00167Y01660D01*
X-00167Y01509D02*
X-02002Y01509D01*
X-02002Y01358D02*
X-00167Y01358D01*
X-00167Y01207D02*
X-02002Y01207D01*
X-02002Y01056D02*
X-00167Y01056D01*
X-00167Y00905D02*
X-02002Y00905D01*
X-02002Y00754D02*
X-00167Y00754D01*
X-00167Y00604D02*
X-02002Y00604D01*
X-02002Y00453D02*
X-00167Y00453D01*
X-00167Y00302D02*
X-02002Y00302D01*
X-02002Y00151D02*
X-00167Y00151D01*
X00163Y00151D02*
X32833Y00151D01*
X32833Y00302D02*
X00163Y00302D01*
X00163Y00453D02*
X32833Y00453D01*
X32833Y00604D02*
X00163Y00604D01*
X00163Y00754D02*
X32833Y00754D01*
X32833Y00905D02*
X00163Y00905D01*
X00163Y01056D02*
X32833Y01056D01*
X32833Y01207D02*
X00163Y01207D01*
X00163Y01358D02*
X03749Y01358D01*
X03774Y01348D02*
X04421Y01348D01*
X05019Y01595D01*
X05477Y02053D01*
X05725Y02651D01*
X05725Y03298D01*
X05477Y03896D01*
X05019Y04354D01*
X04421Y04602D01*
X03774Y04602D01*
X03176Y04354D01*
X02718Y03896D01*
X02471Y03298D01*
X02471Y02651D01*
X02718Y02053D01*
X03176Y01595D01*
X03774Y01348D01*
X03385Y01509D02*
X00163Y01509D01*
X00163Y01660D02*
X03112Y01660D01*
X02961Y01811D02*
X00163Y01811D01*
X00163Y01962D02*
X02810Y01962D01*
X02694Y02113D02*
X00163Y02113D01*
X00163Y02264D02*
X02631Y02264D01*
X02569Y02414D02*
X00163Y02414D01*
X00163Y02565D02*
X02506Y02565D01*
X02471Y02716D02*
X00163Y02716D01*
X00163Y02867D02*
X02471Y02867D01*
X02471Y03018D02*
X00163Y03018D01*
X00163Y03169D02*
X02471Y03169D01*
X02480Y03320D02*
X00163Y03320D01*
X00163Y03471D02*
X02542Y03471D01*
X02605Y03622D02*
X00163Y03622D01*
X00163Y03772D02*
X02667Y03772D01*
X02746Y03923D02*
X00163Y03923D01*
X00163Y04074D02*
X02896Y04074D01*
X03047Y04225D02*
X00163Y04225D01*
X00163Y04376D02*
X03229Y04376D01*
X03594Y04527D02*
X00163Y04527D01*
X00163Y04678D02*
X32833Y04678D01*
X32833Y04829D02*
X00163Y04829D01*
X00163Y04980D02*
X32833Y04980D01*
X32833Y05131D02*
X00163Y05131D01*
X00163Y05282D02*
X32833Y05282D01*
X32833Y05432D02*
X00163Y05432D01*
X00163Y05583D02*
X32833Y05583D01*
X32833Y05734D02*
X00163Y05734D01*
X00163Y05885D02*
X32833Y05885D01*
X32833Y06036D02*
X00163Y06036D01*
X00163Y06187D02*
X32833Y06187D01*
X32833Y06338D02*
X00163Y06338D01*
X00163Y06489D02*
X32833Y06489D01*
X32833Y06640D02*
X00163Y06640D01*
X00163Y06790D02*
X32833Y06790D01*
X32833Y06941D02*
X00163Y06941D01*
X00163Y07092D02*
X32833Y07092D01*
X32833Y07243D02*
X00163Y07243D01*
X00163Y07394D02*
X32833Y07394D01*
X32833Y07545D02*
X00163Y07545D01*
X00163Y07696D02*
X32833Y07696D01*
X32833Y07847D02*
X00163Y07847D01*
X00163Y07998D02*
X32833Y07998D01*
X32833Y08149D02*
X00163Y08149D01*
X00163Y08300D02*
X32833Y08300D01*
X32833Y08450D02*
X00163Y08450D01*
X00163Y08601D02*
X32833Y08601D01*
X32833Y08752D02*
X00163Y08752D01*
X00163Y08903D02*
X32833Y08903D01*
X32833Y09054D02*
X00163Y09054D01*
X00163Y09205D02*
X32833Y09205D01*
X32833Y09356D02*
X00163Y09356D01*
X00163Y09507D02*
X32833Y09507D01*
X32833Y09658D02*
X00163Y09658D01*
X00163Y09809D02*
X32833Y09809D01*
X32833Y09959D02*
X00163Y09959D01*
X00163Y10110D02*
X32833Y10110D01*
X32833Y10261D02*
X00163Y10261D01*
X00163Y10412D02*
X32833Y10412D01*
X32833Y10563D02*
X00163Y10563D01*
X00163Y10714D02*
X32833Y10714D01*
X32833Y10865D02*
X00163Y10865D01*
X00163Y11016D02*
X32833Y11016D01*
X32833Y11167D02*
X00163Y11167D01*
X00163Y11317D02*
X32833Y11317D01*
X32833Y11468D02*
X00163Y11468D01*
X00163Y11619D02*
X32833Y11619D01*
X32833Y11770D02*
X00163Y11770D01*
X00163Y11921D02*
X32833Y11921D01*
X32833Y12072D02*
X00163Y12072D01*
X00163Y12223D02*
X32833Y12223D01*
X32833Y12374D02*
X00163Y12374D01*
X00163Y12525D02*
X32833Y12525D01*
X32833Y12676D02*
X00163Y12676D01*
X00163Y12826D02*
X32833Y12826D01*
X32833Y12977D02*
X00163Y12977D01*
X00163Y13128D02*
X32833Y13128D01*
X32833Y13279D02*
X00163Y13279D01*
X00163Y13430D02*
X32833Y13430D01*
X32833Y13581D02*
X00163Y13581D01*
X00163Y13732D02*
X32833Y13732D01*
X32833Y13883D02*
X00163Y13883D01*
X00163Y14034D02*
X32833Y14034D01*
X32833Y14185D02*
X00163Y14185D01*
X00163Y14335D02*
X32833Y14335D01*
X32833Y14486D02*
X00163Y14486D01*
X00163Y14637D02*
X32833Y14637D01*
X32833Y14788D02*
X00163Y14788D01*
X00163Y14939D02*
X32833Y14939D01*
X32833Y15090D02*
X00163Y15090D01*
X00163Y15241D02*
X32833Y15241D01*
X32833Y15392D02*
X26140Y15392D01*
X25975Y15348D02*
X26898Y15595D01*
X27725Y16072D01*
X28400Y16748D01*
X28878Y17575D01*
X29125Y18497D01*
X29125Y19452D01*
X28878Y20375D01*
X28400Y21202D01*
X27725Y21877D01*
X26898Y22355D01*
X25975Y22602D01*
X25020Y22602D01*
X24098Y22355D01*
X23271Y21877D01*
X22595Y21202D01*
X22118Y20375D01*
X21871Y19452D01*
X21871Y18497D01*
X22118Y17575D01*
X22595Y16748D01*
X23271Y16072D01*
X24098Y15595D01*
X25020Y15348D01*
X25975Y15348D01*
X26703Y15543D02*
X32833Y15543D01*
X32833Y15694D02*
X27069Y15694D01*
X27330Y15844D02*
X32833Y15844D01*
X32833Y15995D02*
X27591Y15995D01*
X27799Y16146D02*
X32833Y16146D01*
X32833Y16297D02*
X27950Y16297D01*
X28101Y16448D02*
X32833Y16448D01*
X32833Y16599D02*
X28251Y16599D01*
X28401Y16750D02*
X32833Y16750D01*
X32833Y16901D02*
X28489Y16901D01*
X28576Y17052D02*
X32833Y17052D01*
X32833Y17203D02*
X28663Y17203D01*
X28750Y17354D02*
X32833Y17354D01*
X32833Y17504D02*
X28837Y17504D01*
X28899Y17655D02*
X32833Y17655D01*
X32833Y17806D02*
X28940Y17806D01*
X28980Y17957D02*
X32833Y17957D01*
X32833Y18108D02*
X29021Y18108D01*
X29061Y18259D02*
X32833Y18259D01*
X32833Y18410D02*
X29101Y18410D01*
X29125Y18561D02*
X32833Y18561D01*
X32833Y18712D02*
X29125Y18712D01*
X29125Y18863D02*
X32833Y18863D01*
X32833Y19013D02*
X29125Y19013D01*
X29125Y19164D02*
X32833Y19164D01*
X32833Y19315D02*
X29125Y19315D01*
X29121Y19466D02*
X32833Y19466D01*
X32833Y19617D02*
X29081Y19617D01*
X29040Y19768D02*
X32833Y19768D01*
X32833Y19919D02*
X29000Y19919D01*
X28959Y20070D02*
X32833Y20070D01*
X32833Y20221D02*
X28919Y20221D01*
X28878Y20372D02*
X32833Y20372D01*
X32833Y20522D02*
X28792Y20522D01*
X28705Y20673D02*
X32833Y20673D01*
X32833Y20824D02*
X28618Y20824D01*
X28531Y20975D02*
X32833Y20975D01*
X32833Y21126D02*
X28444Y21126D01*
X28325Y21277D02*
X32833Y21277D01*
X32833Y21428D02*
X28174Y21428D01*
X28023Y21579D02*
X32833Y21579D01*
X32833Y21730D02*
X27872Y21730D01*
X27719Y21880D02*
X32833Y21880D01*
X32833Y22031D02*
X27457Y22031D01*
X27196Y22182D02*
X32833Y22182D01*
X32833Y22333D02*
X26935Y22333D01*
X26414Y22484D02*
X32833Y22484D01*
X32833Y22635D02*
X00163Y22635D01*
X00163Y22786D02*
X32833Y22786D01*
X32833Y22937D02*
X00163Y22937D01*
X00163Y23088D02*
X32833Y23088D01*
X32833Y23239D02*
X00163Y23239D01*
X00163Y23389D02*
X32833Y23389D01*
X32833Y23540D02*
X00163Y23540D01*
X00163Y23691D02*
X32833Y23691D01*
X32833Y23842D02*
X00163Y23842D01*
X00163Y23993D02*
X32833Y23993D01*
X32833Y24144D02*
X00163Y24144D01*
X00163Y24295D02*
X32833Y24295D01*
X32833Y24446D02*
X00163Y24446D01*
X00163Y24597D02*
X32833Y24597D01*
X32833Y24748D02*
X00163Y24748D01*
X00163Y24898D02*
X32833Y24898D01*
X32833Y25049D02*
X00163Y25049D01*
X00163Y25200D02*
X32833Y25200D01*
X32833Y25351D02*
X00163Y25351D01*
X00163Y25502D02*
X32833Y25502D01*
X32833Y25653D02*
X00163Y25653D01*
X00163Y25804D02*
X32833Y25804D01*
X32833Y25955D02*
X00163Y25955D01*
X00163Y26106D02*
X32833Y26106D01*
X32833Y26257D02*
X00163Y26257D01*
X00163Y26407D02*
X32833Y26407D01*
X32833Y26558D02*
X00163Y26558D01*
X00163Y26709D02*
X32833Y26709D01*
X32833Y26860D02*
X00163Y26860D01*
X00163Y27011D02*
X32833Y27011D01*
X32833Y27162D02*
X00163Y27162D01*
X00163Y27313D02*
X32833Y27313D01*
X32833Y27464D02*
X00163Y27464D01*
X00163Y27615D02*
X32833Y27615D01*
X32833Y27766D02*
X00163Y27766D01*
X00163Y27916D02*
X32833Y27916D01*
X32833Y28067D02*
X00163Y28067D01*
X00163Y28218D02*
X07101Y28218D01*
X07322Y28135D02*
X08023Y28220D01*
X08605Y28621D01*
X08933Y29247D01*
X08933Y29953D01*
X08605Y30579D01*
X08023Y30980D01*
X07322Y31065D01*
X06661Y30815D01*
X06193Y30286D01*
X06024Y29600D01*
X06193Y28914D01*
X06661Y28385D01*
X07322Y28135D01*
X06703Y28369D02*
X00163Y28369D01*
X00163Y28520D02*
X06542Y28520D01*
X06408Y28671D02*
X00163Y28671D01*
X00163Y28822D02*
X06274Y28822D01*
X06178Y28973D02*
X00163Y28973D01*
X00163Y29124D02*
X06141Y29124D01*
X06104Y29275D02*
X00163Y29275D01*
X00163Y29425D02*
X06067Y29425D01*
X06030Y29576D02*
X00163Y29576D01*
X00163Y29727D02*
X06055Y29727D01*
X06092Y29878D02*
X00163Y29878D01*
X00163Y30029D02*
X06130Y30029D01*
X06167Y30180D02*
X00163Y30180D01*
X00163Y30331D02*
X06233Y30331D01*
X06366Y30482D02*
X00163Y30482D01*
X00163Y30633D02*
X06500Y30633D01*
X06634Y30784D02*
X00163Y30784D01*
X00163Y30934D02*
X06977Y30934D01*
X08090Y30934D02*
X25077Y30934D01*
X24761Y30815D02*
X24293Y30286D01*
X24124Y29600D01*
X24293Y28914D01*
X24761Y28385D01*
X25422Y28135D01*
X26123Y28220D01*
X26705Y28621D01*
X27033Y29247D01*
X27033Y29953D01*
X26705Y30579D01*
X26123Y30980D01*
X25422Y31065D01*
X24761Y30815D01*
X24734Y30784D02*
X08308Y30784D01*
X08527Y30633D02*
X24600Y30633D01*
X24466Y30482D02*
X08656Y30482D01*
X08735Y30331D02*
X24333Y30331D01*
X24267Y30180D02*
X08814Y30180D01*
X08894Y30029D02*
X24230Y30029D01*
X24192Y29878D02*
X08933Y29878D01*
X08933Y29727D02*
X24155Y29727D01*
X24130Y29576D02*
X08933Y29576D01*
X08933Y29425D02*
X24167Y29425D01*
X24204Y29275D02*
X08933Y29275D01*
X08869Y29124D02*
X24241Y29124D01*
X24278Y28973D02*
X08790Y28973D01*
X08710Y28822D02*
X24374Y28822D01*
X24508Y28671D02*
X08631Y28671D01*
X08459Y28520D02*
X24642Y28520D01*
X24803Y28369D02*
X08240Y28369D01*
X08012Y28218D02*
X25201Y28218D01*
X26112Y28218D02*
X32833Y28218D01*
X32833Y28369D02*
X26340Y28369D01*
X26559Y28520D02*
X32833Y28520D01*
X32833Y28671D02*
X26731Y28671D01*
X26810Y28822D02*
X32833Y28822D01*
X32833Y28973D02*
X26890Y28973D01*
X26969Y29124D02*
X32833Y29124D01*
X32833Y29275D02*
X27033Y29275D01*
X27033Y29425D02*
X32833Y29425D01*
X32833Y29576D02*
X27033Y29576D01*
X27033Y29727D02*
X32833Y29727D01*
X32833Y29878D02*
X27033Y29878D01*
X26994Y30029D02*
X32833Y30029D01*
X32833Y30180D02*
X26914Y30180D01*
X26835Y30331D02*
X32833Y30331D01*
X32833Y30482D02*
X26756Y30482D01*
X26627Y30633D02*
X32833Y30633D01*
X32833Y30784D02*
X26408Y30784D01*
X26190Y30934D02*
X32833Y30934D01*
X32833Y31085D02*
X00163Y31085D01*
X00163Y31236D02*
X32833Y31236D01*
X32833Y31387D02*
X00163Y31387D01*
X00163Y31538D02*
X32833Y31538D01*
X32833Y31689D02*
X00163Y31689D01*
X00163Y31840D02*
X32833Y31840D01*
X32833Y31991D02*
X00163Y31991D01*
X00163Y32142D02*
X32833Y32142D01*
X32833Y32293D02*
X00163Y32293D01*
X00163Y32443D02*
X32833Y32443D01*
X32833Y32594D02*
X00163Y32594D01*
X00163Y32745D02*
X32833Y32745D01*
X32833Y32896D02*
X00163Y32896D01*
X00163Y33047D02*
X32833Y33047D01*
X32833Y33198D02*
X00163Y33198D01*
X00163Y33349D02*
X32833Y33349D01*
X32833Y33500D02*
X00163Y33500D01*
X00163Y33651D02*
X32833Y33651D01*
X32833Y33802D02*
X00163Y33802D01*
X00163Y33953D02*
X32833Y33953D01*
X32833Y34103D02*
X00163Y34103D01*
X00163Y34254D02*
X32833Y34254D01*
X32833Y34405D02*
X00163Y34405D01*
X00163Y34556D02*
X32833Y34556D01*
X32833Y34707D02*
X00163Y34707D01*
X00163Y34858D02*
X32833Y34858D01*
X32833Y35009D02*
X00163Y35009D01*
X00163Y35160D02*
X32833Y35160D01*
X32833Y35311D02*
X00163Y35311D01*
X00163Y35462D02*
X32833Y35462D01*
X32833Y35612D02*
X00163Y35612D01*
X00163Y35763D02*
X32833Y35763D01*
X32833Y35914D02*
X00163Y35914D01*
X00163Y36065D02*
X32833Y36065D01*
X32833Y36216D02*
X00163Y36216D01*
X00163Y36367D02*
X32833Y36367D01*
X32833Y36518D02*
X00163Y36518D01*
X00163Y36669D02*
X32833Y36669D01*
X32833Y36820D02*
X00163Y36820D01*
X00163Y36971D02*
X32833Y36971D01*
X32833Y37121D02*
X00163Y37121D01*
X00163Y37272D02*
X32833Y37272D01*
X32833Y37423D02*
X00163Y37423D01*
X00163Y37574D02*
X32833Y37574D01*
X32833Y37725D02*
X00163Y37725D01*
X00163Y37876D02*
X32833Y37876D01*
X32833Y38027D02*
X00163Y38027D01*
X00163Y38178D02*
X32833Y38178D01*
X32833Y38329D02*
X00163Y38329D01*
X00163Y38480D02*
X32833Y38480D01*
X32833Y38630D02*
X00163Y38630D01*
X00163Y38781D02*
X32833Y38781D01*
X32833Y38932D02*
X00163Y38932D01*
X00163Y39083D02*
X06888Y39083D01*
X07020Y39048D02*
X07975Y39048D01*
X08898Y39295D01*
X09725Y39772D01*
X10400Y40448D01*
X10878Y41275D01*
X11125Y42197D01*
X11125Y43152D01*
X10878Y44075D01*
X10400Y44902D01*
X09725Y45577D01*
X08898Y46055D01*
X07975Y46302D01*
X07020Y46302D01*
X06098Y46055D01*
X05271Y45577D01*
X04595Y44902D01*
X04118Y44075D01*
X03871Y43152D01*
X03871Y42197D01*
X04118Y41275D01*
X04595Y40448D01*
X05271Y39772D01*
X06098Y39295D01*
X07020Y39048D01*
X06325Y39234D02*
X00163Y39234D01*
X00163Y39385D02*
X05942Y39385D01*
X05681Y39536D02*
X00163Y39536D01*
X00163Y39687D02*
X05419Y39687D01*
X05206Y39838D02*
X00163Y39838D01*
X00163Y39989D02*
X05055Y39989D01*
X04904Y40139D02*
X00163Y40139D01*
X00163Y40290D02*
X04753Y40290D01*
X04602Y40441D02*
X00163Y40441D01*
X00163Y40592D02*
X04512Y40592D01*
X04425Y40743D02*
X00163Y40743D01*
X00163Y40894D02*
X04338Y40894D01*
X04251Y41045D02*
X00163Y41045D01*
X00163Y41196D02*
X04164Y41196D01*
X04099Y41347D02*
X00163Y41347D01*
X00163Y41498D02*
X04058Y41498D01*
X04018Y41648D02*
X00163Y41648D01*
X00163Y41799D02*
X03977Y41799D01*
X03937Y41950D02*
X00163Y41950D01*
X00163Y42101D02*
X03897Y42101D01*
X03871Y42252D02*
X00163Y42252D01*
X00163Y42403D02*
X03871Y42403D01*
X03871Y42554D02*
X00163Y42554D01*
X00163Y42705D02*
X03871Y42705D01*
X03871Y42856D02*
X00163Y42856D01*
X00163Y43007D02*
X03871Y43007D01*
X03872Y43157D02*
X00163Y43157D01*
X00163Y43308D02*
X03913Y43308D01*
X03953Y43459D02*
X00163Y43459D01*
X00163Y43610D02*
X03993Y43610D01*
X04034Y43761D02*
X00163Y43761D01*
X00163Y43912D02*
X04074Y43912D01*
X04115Y44063D02*
X00163Y44063D01*
X00163Y44214D02*
X04198Y44214D01*
X04285Y44365D02*
X00163Y44365D01*
X00163Y44515D02*
X04372Y44515D01*
X04460Y44666D02*
X00163Y44666D01*
X00163Y44817D02*
X04547Y44817D01*
X04662Y44968D02*
X00163Y44968D01*
X00163Y45119D02*
X04813Y45119D01*
X04964Y45270D02*
X00163Y45270D01*
X00163Y45421D02*
X05115Y45421D01*
X05266Y45572D02*
X00163Y45572D01*
X00163Y45723D02*
X05523Y45723D01*
X05784Y45874D02*
X00163Y45874D01*
X00163Y46024D02*
X06046Y46024D01*
X06549Y46175D02*
X00163Y46175D01*
X00163Y46326D02*
X32833Y46326D01*
X32833Y46175D02*
X26447Y46175D01*
X26898Y46055D02*
X25975Y46302D01*
X25020Y46302D01*
X24098Y46055D01*
X23271Y45577D01*
X22595Y44902D01*
X22118Y44075D01*
X21871Y43152D01*
X21871Y42197D01*
X22118Y41275D01*
X22595Y40448D01*
X23271Y39772D01*
X24098Y39295D01*
X25020Y39048D01*
X25975Y39048D01*
X26898Y39295D01*
X27725Y39772D01*
X28400Y40448D01*
X28878Y41275D01*
X29125Y42197D01*
X29125Y43152D01*
X28878Y44075D01*
X28400Y44902D01*
X27725Y45577D01*
X26898Y46055D01*
X26950Y46024D02*
X32833Y46024D01*
X32833Y45874D02*
X27211Y45874D01*
X27473Y45723D02*
X32833Y45723D01*
X32833Y45572D02*
X27730Y45572D01*
X27881Y45421D02*
X32833Y45421D01*
X32833Y45270D02*
X28032Y45270D01*
X28183Y45119D02*
X32833Y45119D01*
X32833Y44968D02*
X28334Y44968D01*
X28449Y44817D02*
X32833Y44817D01*
X32833Y44666D02*
X28536Y44666D01*
X28623Y44515D02*
X32833Y44515D01*
X32833Y44365D02*
X28710Y44365D01*
X28797Y44214D02*
X32833Y44214D01*
X32833Y44063D02*
X28881Y44063D01*
X28921Y43912D02*
X32833Y43912D01*
X32833Y43761D02*
X28962Y43761D01*
X29002Y43610D02*
X32833Y43610D01*
X32833Y43459D02*
X29043Y43459D01*
X29083Y43308D02*
X32833Y43308D01*
X32833Y43157D02*
X29123Y43157D01*
X29125Y43007D02*
X32833Y43007D01*
X32833Y42856D02*
X29125Y42856D01*
X29125Y42705D02*
X32833Y42705D01*
X32833Y42554D02*
X29125Y42554D01*
X29125Y42403D02*
X32833Y42403D01*
X32833Y42252D02*
X29125Y42252D01*
X29099Y42101D02*
X32833Y42101D01*
X32833Y41950D02*
X29059Y41950D01*
X29018Y41799D02*
X32833Y41799D01*
X32833Y41648D02*
X28978Y41648D01*
X28937Y41498D02*
X32833Y41498D01*
X32833Y41347D02*
X28897Y41347D01*
X28832Y41196D02*
X32833Y41196D01*
X32833Y41045D02*
X28745Y41045D01*
X28658Y40894D02*
X32833Y40894D01*
X32833Y40743D02*
X28571Y40743D01*
X28483Y40592D02*
X32833Y40592D01*
X32833Y40441D02*
X28394Y40441D01*
X28243Y40290D02*
X32833Y40290D01*
X32833Y40139D02*
X28092Y40139D01*
X27941Y39989D02*
X32833Y39989D01*
X32833Y39838D02*
X27790Y39838D01*
X27576Y39687D02*
X32833Y39687D01*
X32833Y39536D02*
X27315Y39536D01*
X27054Y39385D02*
X32833Y39385D01*
X32833Y39234D02*
X26670Y39234D01*
X26107Y39083D02*
X32833Y39083D01*
X32833Y46477D02*
X00163Y46477D01*
X00163Y46628D02*
X32833Y46628D01*
X32833Y46779D02*
X00163Y46779D01*
X00163Y46930D02*
X32833Y46930D01*
X32833Y47081D02*
X00163Y47081D01*
X00163Y47232D02*
X32833Y47232D01*
X32833Y47383D02*
X00163Y47383D01*
X00163Y47533D02*
X32833Y47533D01*
X32833Y47684D02*
X00163Y47684D01*
X00163Y47835D02*
X32833Y47835D01*
X32833Y47986D02*
X00163Y47986D01*
X00163Y48137D02*
X32833Y48137D01*
X32833Y48288D02*
X00163Y48288D01*
X00163Y48439D02*
X32833Y48439D01*
X32833Y48590D02*
X00163Y48590D01*
X00163Y48741D02*
X32833Y48741D01*
X32833Y48892D02*
X00163Y48892D01*
X00163Y49042D02*
X32833Y49042D01*
X32833Y49193D02*
X00163Y49193D01*
X00163Y49344D02*
X32833Y49344D01*
X32833Y49495D02*
X00163Y49495D01*
X00163Y49646D02*
X32833Y49646D01*
X32833Y49797D02*
X00163Y49797D01*
X00163Y49948D02*
X32833Y49948D01*
X32833Y50099D02*
X00163Y50099D01*
X00163Y50250D02*
X32833Y50250D01*
X32833Y50401D02*
X00163Y50401D01*
X00163Y50551D02*
X32833Y50551D01*
X32833Y50702D02*
X00163Y50702D01*
X00163Y50853D02*
X32833Y50853D01*
X32833Y51004D02*
X00163Y51004D01*
X00163Y51155D02*
X32833Y51155D01*
X32833Y51306D02*
X00163Y51306D01*
X00163Y51457D02*
X32833Y51457D01*
X32833Y51608D02*
X00163Y51608D01*
X00163Y51759D02*
X32833Y51759D01*
X32833Y51910D02*
X00163Y51910D01*
X00163Y52060D02*
X07254Y52060D01*
X07322Y52035D02*
X08023Y52120D01*
X08605Y52521D01*
X08933Y53147D01*
X08933Y53853D01*
X08605Y54479D01*
X08023Y54880D01*
X07322Y54965D01*
X06661Y54715D01*
X06193Y54186D01*
X06024Y53500D01*
X06193Y52814D01*
X06661Y52285D01*
X07322Y52035D01*
X07536Y52060D02*
X32833Y52060D01*
X32833Y52211D02*
X26055Y52211D01*
X26123Y52220D02*
X26705Y52621D01*
X27033Y53247D01*
X27033Y53953D01*
X26705Y54579D01*
X26123Y54980D01*
X25422Y55065D01*
X24761Y54815D01*
X24293Y54286D01*
X24124Y53600D01*
X24293Y52914D01*
X24761Y52385D01*
X25422Y52135D01*
X26123Y52220D01*
X26330Y52362D02*
X32833Y52362D01*
X32833Y52513D02*
X26549Y52513D01*
X26728Y52664D02*
X32833Y52664D01*
X32833Y52815D02*
X26807Y52815D01*
X26886Y52966D02*
X32833Y52966D01*
X32833Y53117D02*
X26965Y53117D01*
X27033Y53268D02*
X32833Y53268D01*
X32833Y53419D02*
X27033Y53419D01*
X27033Y53569D02*
X32833Y53569D01*
X32833Y53720D02*
X27033Y53720D01*
X27033Y53871D02*
X32833Y53871D01*
X32833Y54022D02*
X26997Y54022D01*
X26918Y54173D02*
X32833Y54173D01*
X32833Y54324D02*
X26839Y54324D01*
X26760Y54475D02*
X32833Y54475D01*
X32833Y54626D02*
X26637Y54626D01*
X26418Y54777D02*
X32833Y54777D01*
X32833Y54928D02*
X26200Y54928D01*
X25219Y52211D02*
X08156Y52211D01*
X08375Y52362D02*
X24822Y52362D01*
X24648Y52513D02*
X08594Y52513D01*
X08680Y52664D02*
X24514Y52664D01*
X24381Y52815D02*
X08759Y52815D01*
X08838Y52966D02*
X24280Y52966D01*
X24243Y53117D02*
X08918Y53117D01*
X08933Y53268D02*
X24206Y53268D01*
X24169Y53419D02*
X08933Y53419D01*
X08933Y53569D02*
X24131Y53569D01*
X24153Y53720D02*
X08933Y53720D01*
X08924Y53871D02*
X24191Y53871D01*
X24228Y54022D02*
X08845Y54022D01*
X08765Y54173D02*
X24265Y54173D01*
X24327Y54324D02*
X08686Y54324D01*
X08607Y54475D02*
X24460Y54475D01*
X24594Y54626D02*
X08392Y54626D01*
X08174Y54777D02*
X24728Y54777D01*
X25059Y54928D02*
X07634Y54928D01*
X07222Y54928D02*
X00163Y54928D01*
X00163Y55078D02*
X32833Y55078D01*
X32833Y55229D02*
X00163Y55229D01*
X00163Y55380D02*
X32833Y55380D01*
X32833Y55531D02*
X00163Y55531D01*
X00163Y55682D02*
X32833Y55682D01*
X32833Y55833D02*
X00163Y55833D01*
X00163Y55984D02*
X32833Y55984D01*
X32833Y56135D02*
X00163Y56135D01*
X00163Y56286D02*
X32833Y56286D01*
X32833Y56437D02*
X00163Y56437D01*
X00163Y56587D02*
X32833Y56587D01*
X32833Y56738D02*
X00163Y56738D01*
X00163Y56889D02*
X32833Y56889D01*
X32833Y57040D02*
X00163Y57040D01*
X00163Y57191D02*
X32833Y57191D01*
X32833Y57342D02*
X00163Y57342D01*
X00163Y57493D02*
X32833Y57493D01*
X32833Y57644D02*
X00163Y57644D01*
X00163Y57795D02*
X32833Y57795D01*
X32833Y57946D02*
X00163Y57946D01*
X00163Y58096D02*
X32833Y58096D01*
X32833Y58247D02*
X00163Y58247D01*
X00163Y58398D02*
X32833Y58398D01*
X32833Y58549D02*
X00163Y58549D01*
X00163Y58700D02*
X32833Y58700D01*
X32833Y58851D02*
X00163Y58851D01*
X00163Y59002D02*
X32833Y59002D01*
X32833Y59153D02*
X00163Y59153D01*
X00163Y59304D02*
X32833Y59304D01*
X32833Y59455D02*
X00163Y59455D01*
X00163Y59605D02*
X32833Y59605D01*
X32833Y59756D02*
X00163Y59756D01*
X00163Y59907D02*
X32833Y59907D01*
X32833Y60058D02*
X00163Y60058D01*
X00163Y60209D02*
X32833Y60209D01*
X32833Y60360D02*
X00163Y60360D01*
X00163Y60511D02*
X32833Y60511D01*
X32833Y60662D02*
X00163Y60662D01*
X00163Y60813D02*
X32833Y60813D01*
X32833Y60964D02*
X00163Y60964D01*
X00163Y61114D02*
X32833Y61114D01*
X32833Y61265D02*
X00163Y61265D01*
X00163Y61416D02*
X32833Y61416D01*
X32833Y61567D02*
X00163Y61567D01*
X00163Y61718D02*
X32833Y61718D01*
X32833Y61869D02*
X00163Y61869D01*
X00163Y62020D02*
X32833Y62020D01*
X32833Y62171D02*
X00163Y62171D01*
X00163Y62322D02*
X32833Y62322D01*
X32833Y62473D02*
X00163Y62473D01*
X00163Y62623D02*
X32833Y62623D01*
X32833Y62774D02*
X26448Y62774D01*
X26898Y62895D02*
X25975Y62648D01*
X25020Y62648D01*
X24098Y62895D01*
X23271Y63372D01*
X22595Y64048D01*
X22118Y64875D01*
X21871Y65797D01*
X21871Y66752D01*
X22118Y67675D01*
X22595Y68502D01*
X23271Y69177D01*
X24098Y69655D01*
X25020Y69902D01*
X25975Y69902D01*
X26898Y69655D01*
X27725Y69177D01*
X28400Y68502D01*
X28878Y67675D01*
X29125Y66752D01*
X29125Y65797D01*
X28878Y64875D01*
X28400Y64048D01*
X27725Y63372D01*
X26898Y62895D01*
X26950Y62925D02*
X32833Y62925D01*
X32833Y63076D02*
X27212Y63076D01*
X27473Y63227D02*
X32833Y63227D01*
X32833Y63378D02*
X27730Y63378D01*
X27881Y63529D02*
X32833Y63529D01*
X32833Y63680D02*
X28032Y63680D01*
X28183Y63831D02*
X32833Y63831D01*
X32833Y63982D02*
X28334Y63982D01*
X28449Y64132D02*
X32833Y64132D01*
X32833Y64283D02*
X28536Y64283D01*
X28623Y64434D02*
X32833Y64434D01*
X32833Y64585D02*
X28710Y64585D01*
X28798Y64736D02*
X32833Y64736D01*
X32833Y64887D02*
X28881Y64887D01*
X28921Y65038D02*
X32833Y65038D01*
X32833Y65189D02*
X28962Y65189D01*
X29002Y65340D02*
X32833Y65340D01*
X32833Y65491D02*
X29043Y65491D01*
X29083Y65642D02*
X32833Y65642D01*
X32833Y65792D02*
X29124Y65792D01*
X29125Y65943D02*
X32833Y65943D01*
X32833Y66094D02*
X29125Y66094D01*
X29125Y66245D02*
X32833Y66245D01*
X32833Y66396D02*
X29125Y66396D01*
X29125Y66547D02*
X32833Y66547D01*
X32833Y66698D02*
X29125Y66698D01*
X29099Y66849D02*
X32833Y66849D01*
X32833Y67000D02*
X29059Y67000D01*
X29018Y67151D02*
X32833Y67151D01*
X32833Y67301D02*
X28978Y67301D01*
X28937Y67452D02*
X32833Y67452D01*
X32833Y67603D02*
X28897Y67603D01*
X28832Y67754D02*
X32833Y67754D01*
X32833Y67905D02*
X28745Y67905D01*
X28658Y68056D02*
X32833Y68056D01*
X32833Y68207D02*
X28570Y68207D01*
X28483Y68358D02*
X32833Y68358D01*
X32833Y68509D02*
X28393Y68509D01*
X28242Y68660D02*
X32833Y68660D01*
X32833Y68810D02*
X28091Y68810D01*
X27941Y68961D02*
X32833Y68961D01*
X32833Y69112D02*
X27790Y69112D01*
X27576Y69263D02*
X32833Y69263D01*
X32833Y69414D02*
X27314Y69414D01*
X27053Y69565D02*
X32833Y69565D01*
X32833Y69716D02*
X26669Y69716D01*
X26106Y69867D02*
X32833Y69867D01*
X32833Y70018D02*
X00163Y70018D01*
X00163Y70169D02*
X32833Y70169D01*
X32833Y70319D02*
X00163Y70319D01*
X00163Y70470D02*
X32833Y70470D01*
X32833Y70621D02*
X00163Y70621D01*
X00163Y70772D02*
X32833Y70772D01*
X32833Y70923D02*
X00163Y70923D01*
X00163Y71074D02*
X32833Y71074D01*
X32833Y71225D02*
X00163Y71225D01*
X00163Y71376D02*
X32833Y71376D01*
X32833Y71527D02*
X00163Y71527D01*
X00163Y71678D02*
X32833Y71678D01*
X32833Y71828D02*
X00163Y71828D01*
X00163Y71979D02*
X32833Y71979D01*
X32833Y72130D02*
X00163Y72130D01*
X00163Y72281D02*
X32833Y72281D01*
X32833Y72432D02*
X00163Y72432D01*
X00163Y72583D02*
X32833Y72583D01*
X32833Y72734D02*
X00163Y72734D01*
X00163Y72885D02*
X32833Y72885D01*
X32833Y73036D02*
X00163Y73036D01*
X00163Y73187D02*
X32833Y73187D01*
X32833Y73337D02*
X00163Y73337D01*
X00163Y73488D02*
X32833Y73488D01*
X32833Y73639D02*
X00163Y73639D01*
X00163Y73790D02*
X32833Y73790D01*
X32833Y73941D02*
X00163Y73941D01*
X00163Y74092D02*
X32833Y74092D01*
X32833Y74243D02*
X00163Y74243D01*
X00163Y74394D02*
X32833Y74394D01*
X32833Y74545D02*
X00163Y74545D01*
X00163Y74696D02*
X32833Y74696D01*
X32833Y74846D02*
X00163Y74846D01*
X00163Y74997D02*
X32833Y74997D01*
X32833Y75148D02*
X00163Y75148D01*
X00163Y75299D02*
X32833Y75299D01*
X32833Y75450D02*
X00163Y75450D01*
X00163Y75601D02*
X32833Y75601D01*
X32833Y75752D02*
X00163Y75752D01*
X00163Y75903D02*
X07142Y75903D01*
X07322Y75835D02*
X08023Y75920D01*
X08605Y76321D01*
X08933Y76947D01*
X08933Y77653D01*
X08605Y78279D01*
X08023Y78680D01*
X07322Y78765D01*
X06661Y78515D01*
X06193Y77986D01*
X06024Y77300D01*
X06193Y76614D01*
X06661Y76085D01*
X07322Y75835D01*
X06745Y76054D02*
X00163Y76054D01*
X00163Y76205D02*
X06556Y76205D01*
X06422Y76355D02*
X00163Y76355D01*
X00163Y76506D02*
X06288Y76506D01*
X06182Y76657D02*
X00163Y76657D01*
X00163Y76808D02*
X06145Y76808D01*
X06108Y76959D02*
X00163Y76959D01*
X00163Y77110D02*
X06071Y77110D01*
X06033Y77261D02*
X00163Y77261D01*
X00163Y77412D02*
X06051Y77412D01*
X06089Y77563D02*
X00163Y77563D01*
X00163Y77714D02*
X06126Y77714D01*
X06163Y77864D02*
X00163Y77864D01*
X00163Y78015D02*
X06219Y78015D01*
X06353Y78166D02*
X00163Y78166D01*
X00163Y78317D02*
X06486Y78317D01*
X06620Y78468D02*
X00163Y78468D01*
X00163Y78619D02*
X06936Y78619D01*
X08112Y78619D02*
X24576Y78619D01*
X24661Y78715D02*
X24193Y78186D01*
X24024Y77500D01*
X24193Y76814D01*
X24661Y76285D01*
X25322Y76035D01*
X26023Y76120D01*
X26605Y76521D01*
X26933Y77147D01*
X26933Y77853D01*
X26605Y78479D01*
X26023Y78880D01*
X25322Y78965D01*
X24661Y78715D01*
X24806Y78770D02*
X00163Y78770D01*
X00163Y78921D02*
X25204Y78921D01*
X25690Y78921D02*
X32833Y78921D01*
X32833Y79072D02*
X00163Y79072D01*
X00163Y79223D02*
X32833Y79223D01*
X32833Y79373D02*
X00163Y79373D01*
X00163Y79524D02*
X32833Y79524D01*
X32833Y79675D02*
X00163Y79675D01*
X00163Y79826D02*
X32833Y79826D01*
X32833Y79977D02*
X00163Y79977D01*
X00163Y80128D02*
X32833Y80128D01*
X32833Y80279D02*
X00163Y80279D01*
X00163Y80430D02*
X32833Y80430D01*
X32833Y80581D02*
X00163Y80581D01*
X00163Y80732D02*
X32833Y80732D01*
X32833Y80882D02*
X00163Y80882D01*
X00163Y81033D02*
X32833Y81033D01*
X32833Y81184D02*
X00163Y81184D01*
X00163Y81335D02*
X32833Y81335D01*
X32833Y81486D02*
X00163Y81486D01*
X00163Y81637D02*
X32833Y81637D01*
X32833Y81788D02*
X00163Y81788D01*
X00163Y81939D02*
X32833Y81939D01*
X32833Y82090D02*
X00163Y82090D01*
X00163Y82241D02*
X32833Y82241D01*
X32833Y82391D02*
X00163Y82391D01*
X00163Y82542D02*
X32833Y82542D01*
X32833Y82693D02*
X00163Y82693D01*
X00163Y82844D02*
X32833Y82844D01*
X32833Y82995D02*
X00163Y82995D01*
X00163Y83146D02*
X32833Y83146D01*
X32833Y83297D02*
X00163Y83297D01*
X00163Y83448D02*
X32833Y83448D01*
X32833Y83599D02*
X00163Y83599D01*
X00163Y83750D02*
X32833Y83750D01*
X32833Y83900D02*
X00163Y83900D01*
X00163Y84051D02*
X32833Y84051D01*
X32833Y84202D02*
X00163Y84202D01*
X00163Y84353D02*
X32833Y84353D01*
X32833Y84504D02*
X00163Y84504D01*
X00163Y84655D02*
X32833Y84655D01*
X32833Y84806D02*
X00163Y84806D01*
X00163Y84957D02*
X32833Y84957D01*
X32833Y85108D02*
X00163Y85108D01*
X00163Y85259D02*
X32833Y85259D01*
X32833Y85409D02*
X00163Y85409D01*
X00163Y85560D02*
X32833Y85560D01*
X32833Y85711D02*
X00163Y85711D01*
X00163Y85862D02*
X32833Y85862D01*
X32833Y86013D02*
X00163Y86013D01*
X00163Y86164D02*
X32833Y86164D01*
X32833Y86315D02*
X00163Y86315D01*
X00163Y86466D02*
X06480Y86466D01*
X06920Y86348D02*
X05998Y86595D01*
X05171Y87072D01*
X04495Y87748D01*
X04018Y88575D01*
X03771Y89497D01*
X03771Y90452D01*
X04018Y91375D01*
X04495Y92202D01*
X05171Y92877D01*
X05998Y93355D01*
X06920Y93602D01*
X07875Y93602D01*
X08798Y93355D01*
X09625Y92877D01*
X10300Y92202D01*
X10778Y91375D01*
X11025Y90452D01*
X11025Y89497D01*
X10778Y88575D01*
X10300Y87748D01*
X09625Y87072D01*
X08798Y86595D01*
X07875Y86348D01*
X06920Y86348D01*
X05960Y86617D02*
X00163Y86617D01*
X00163Y86768D02*
X05699Y86768D01*
X05438Y86918D02*
X00163Y86918D01*
X00163Y87069D02*
X05176Y87069D01*
X05023Y87220D02*
X00163Y87220D01*
X00163Y87371D02*
X04872Y87371D01*
X04721Y87522D02*
X00163Y87522D01*
X00163Y87673D02*
X04570Y87673D01*
X04452Y87824D02*
X00163Y87824D01*
X00163Y87975D02*
X04364Y87975D01*
X04277Y88126D02*
X00163Y88126D01*
X00163Y88276D02*
X04190Y88276D01*
X04103Y88427D02*
X00163Y88427D01*
X00163Y88578D02*
X04017Y88578D01*
X03977Y88729D02*
X00163Y88729D01*
X00163Y88880D02*
X03936Y88880D01*
X03896Y89031D02*
X00163Y89031D01*
X00163Y89182D02*
X03855Y89182D01*
X03815Y89333D02*
X00163Y89333D01*
X00163Y89484D02*
X03774Y89484D01*
X03771Y89635D02*
X00163Y89635D01*
X00163Y89785D02*
X03771Y89785D01*
X03771Y89936D02*
X00163Y89936D01*
X00163Y90087D02*
X03771Y90087D01*
X03771Y90238D02*
X00163Y90238D01*
X00163Y90389D02*
X03771Y90389D01*
X03794Y90540D02*
X00163Y90540D01*
X00163Y90691D02*
X03835Y90691D01*
X03875Y90842D02*
X00163Y90842D01*
X00163Y90993D02*
X03916Y90993D01*
X03956Y91144D02*
X00163Y91144D01*
X00163Y91294D02*
X03996Y91294D01*
X04059Y91445D02*
X00163Y91445D01*
X00163Y91596D02*
X04146Y91596D01*
X04233Y91747D02*
X00163Y91747D01*
X00163Y91898D02*
X04320Y91898D01*
X04407Y92049D02*
X00163Y92049D01*
X00163Y92200D02*
X04494Y92200D01*
X04645Y92351D02*
X00163Y92351D01*
X00163Y92502D02*
X04795Y92502D01*
X04946Y92653D02*
X00163Y92653D01*
X00163Y92803D02*
X05097Y92803D01*
X05305Y92954D02*
X00163Y92954D01*
X00163Y93105D02*
X05566Y93105D01*
X05827Y93256D02*
X00163Y93256D01*
X00163Y93407D02*
X06194Y93407D01*
X06757Y93558D02*
X00163Y93558D01*
X00163Y93709D02*
X32833Y93709D01*
X32833Y93860D02*
X00163Y93860D01*
X00163Y94011D02*
X32833Y94011D01*
X32833Y94162D02*
X00163Y94162D01*
X00163Y94312D02*
X32833Y94312D01*
X32833Y94463D02*
X00163Y94463D01*
X00163Y94614D02*
X32833Y94614D01*
X32833Y94765D02*
X00163Y94765D01*
X00163Y94916D02*
X32833Y94916D01*
X32833Y95067D02*
X00163Y95067D01*
X00163Y95218D02*
X32833Y95218D01*
X32833Y95369D02*
X00163Y95369D01*
X00163Y95520D02*
X32833Y95520D01*
X32833Y95671D02*
X00163Y95671D01*
X00163Y95821D02*
X32833Y95821D01*
X32833Y95972D02*
X00163Y95972D01*
X00163Y96123D02*
X32833Y96123D01*
X32833Y96274D02*
X00163Y96274D01*
X00163Y96425D02*
X32833Y96425D01*
X32833Y96576D02*
X00163Y96576D01*
X00163Y96727D02*
X32833Y96727D01*
X32833Y96878D02*
X00163Y96878D01*
X00163Y97029D02*
X32833Y97029D01*
X32833Y97180D02*
X00163Y97180D01*
X00163Y97330D02*
X32833Y97330D01*
X32833Y97481D02*
X00163Y97481D01*
X00163Y97632D02*
X32833Y97632D01*
X32833Y97783D02*
X00163Y97783D01*
X00163Y97934D02*
X32833Y97934D01*
X32833Y98085D02*
X00163Y98085D01*
X00163Y98236D02*
X32833Y98236D01*
X32833Y98387D02*
X00163Y98387D01*
X00163Y98538D02*
X32833Y98538D01*
X32833Y98689D02*
X00163Y98689D01*
X00163Y98839D02*
X32833Y98839D01*
X32833Y98990D02*
X00163Y98990D01*
X00163Y99141D02*
X32833Y99141D01*
X32833Y99292D02*
X00163Y99292D01*
X00163Y99443D02*
X32833Y99443D01*
X32833Y99594D02*
X25812Y99594D01*
X26023Y99620D02*
X25322Y99535D01*
X24661Y99785D01*
X24193Y100314D01*
X24024Y101000D01*
X24193Y101686D01*
X24661Y102215D01*
X25322Y102465D01*
X26023Y102380D01*
X26605Y101979D01*
X26933Y101353D01*
X26933Y100647D01*
X26605Y100021D01*
X26023Y99620D01*
X26205Y99745D02*
X32833Y99745D01*
X32833Y99896D02*
X26423Y99896D01*
X26618Y100047D02*
X32833Y100047D01*
X32833Y100198D02*
X26698Y100198D01*
X26777Y100348D02*
X32833Y100348D01*
X32833Y100499D02*
X26856Y100499D01*
X26933Y100650D02*
X32833Y100650D01*
X32833Y100801D02*
X26933Y100801D01*
X26933Y100952D02*
X32833Y100952D01*
X32833Y101103D02*
X26933Y101103D01*
X26933Y101254D02*
X32833Y101254D01*
X32833Y101405D02*
X26906Y101405D01*
X26827Y101556D02*
X32833Y101556D01*
X32833Y101707D02*
X26748Y101707D01*
X26669Y101857D02*
X32833Y101857D01*
X32833Y102008D02*
X26562Y102008D01*
X26344Y102159D02*
X32833Y102159D01*
X32833Y102310D02*
X26125Y102310D01*
X25358Y102461D02*
X32833Y102461D01*
X32833Y102612D02*
X00163Y102612D01*
X00163Y102461D02*
X25311Y102461D01*
X24913Y102310D02*
X07931Y102310D01*
X07978Y102304D02*
X07277Y102390D01*
X06616Y102139D01*
X06147Y101610D01*
X05978Y100924D01*
X06147Y100238D01*
X06616Y99709D01*
X07277Y99459D01*
X07978Y99544D01*
X08559Y99945D01*
X08888Y100571D01*
X08888Y101277D01*
X08559Y101903D01*
X07978Y102304D01*
X08188Y102159D02*
X24612Y102159D01*
X24478Y102008D02*
X08407Y102008D01*
X08583Y101857D02*
X24345Y101857D01*
X24211Y101707D02*
X08663Y101707D01*
X08742Y101556D02*
X24161Y101556D01*
X24124Y101405D02*
X08821Y101405D01*
X08888Y101254D02*
X24086Y101254D01*
X24049Y101103D02*
X08888Y101103D01*
X08888Y100952D02*
X24036Y100952D01*
X24073Y100801D02*
X08888Y100801D01*
X08888Y100650D02*
X24110Y100650D01*
X24147Y100499D02*
X08850Y100499D01*
X08771Y100348D02*
X24184Y100348D01*
X24296Y100198D02*
X08692Y100198D01*
X08613Y100047D02*
X24430Y100047D01*
X24563Y99896D02*
X08488Y99896D01*
X08269Y99745D02*
X24767Y99745D01*
X25165Y99594D02*
X08050Y99594D01*
X06920Y99594D02*
X00163Y99594D01*
X00163Y99745D02*
X06584Y99745D01*
X06451Y99896D02*
X00163Y99896D01*
X00163Y100047D02*
X06317Y100047D01*
X06183Y100198D02*
X00163Y100198D01*
X00163Y100348D02*
X06120Y100348D01*
X06083Y100499D02*
X00163Y100499D01*
X00163Y100650D02*
X06046Y100650D01*
X06009Y100801D02*
X00163Y100801D01*
X00163Y100952D02*
X05985Y100952D01*
X06022Y101103D02*
X00163Y101103D01*
X00163Y101254D02*
X06060Y101254D01*
X06097Y101405D02*
X00163Y101405D01*
X00163Y101556D02*
X06134Y101556D01*
X06233Y101707D02*
X00163Y101707D01*
X00163Y101857D02*
X06366Y101857D01*
X06500Y102008D02*
X00163Y102008D01*
X00163Y102159D02*
X06669Y102159D01*
X07067Y102310D02*
X00163Y102310D01*
X00163Y102763D02*
X32833Y102763D01*
X32833Y102914D02*
X17441Y102914D01*
X17008Y102798D02*
X17994Y103062D01*
X18878Y103572D01*
X19600Y104294D01*
X20111Y105178D01*
X20375Y106164D01*
X20375Y107185D01*
X20111Y108171D01*
X19600Y109055D01*
X18878Y109777D01*
X17994Y110288D01*
X17008Y110552D01*
X15987Y110552D01*
X15001Y110288D01*
X14117Y109777D01*
X13395Y109055D01*
X12885Y108171D01*
X12621Y107185D01*
X12621Y106164D01*
X12885Y105178D01*
X13395Y104294D01*
X14117Y103572D01*
X15001Y103062D01*
X15987Y102798D01*
X17008Y102798D01*
X17999Y103065D02*
X32833Y103065D01*
X32833Y103216D02*
X18260Y103216D01*
X18522Y103366D02*
X32833Y103366D01*
X32833Y103517D02*
X18783Y103517D01*
X18974Y103668D02*
X32833Y103668D01*
X32833Y103819D02*
X19125Y103819D01*
X19276Y103970D02*
X32833Y103970D01*
X32833Y104121D02*
X19427Y104121D01*
X19578Y104272D02*
X32833Y104272D01*
X32833Y104423D02*
X19674Y104423D01*
X19762Y104574D02*
X32833Y104574D01*
X32833Y104725D02*
X19849Y104725D01*
X19936Y104875D02*
X32833Y104875D01*
X32833Y105026D02*
X20023Y105026D01*
X20110Y105177D02*
X32833Y105177D01*
X32833Y105328D02*
X20151Y105328D01*
X20191Y105479D02*
X32833Y105479D01*
X32833Y105630D02*
X20232Y105630D01*
X20272Y105781D02*
X32833Y105781D01*
X32833Y105932D02*
X20312Y105932D01*
X20353Y106083D02*
X32833Y106083D01*
X32833Y106234D02*
X20375Y106234D01*
X20375Y106384D02*
X32833Y106384D01*
X32833Y106535D02*
X20375Y106535D01*
X20375Y106686D02*
X32833Y106686D01*
X32833Y106837D02*
X20375Y106837D01*
X20375Y106988D02*
X32833Y106988D01*
X32833Y107139D02*
X20375Y107139D01*
X20347Y107290D02*
X32833Y107290D01*
X32833Y107441D02*
X20306Y107441D01*
X20266Y107592D02*
X32833Y107592D01*
X32833Y107743D02*
X20225Y107743D01*
X20185Y107893D02*
X32833Y107893D01*
X32833Y108044D02*
X20145Y108044D01*
X20097Y108195D02*
X32833Y108195D01*
X32833Y108346D02*
X20010Y108346D01*
X19922Y108497D02*
X32833Y108497D01*
X32833Y108648D02*
X19835Y108648D01*
X19748Y108799D02*
X32833Y108799D01*
X32833Y108950D02*
X19661Y108950D01*
X19555Y109101D02*
X32833Y109101D01*
X32833Y109252D02*
X19404Y109252D01*
X19253Y109402D02*
X32833Y109402D01*
X32833Y109553D02*
X19102Y109553D01*
X18951Y109704D02*
X32833Y109704D01*
X32833Y109855D02*
X18743Y109855D01*
X18482Y110006D02*
X32833Y110006D01*
X32833Y110157D02*
X18220Y110157D01*
X17918Y110308D02*
X32833Y110308D01*
X32833Y110459D02*
X17355Y110459D01*
X15641Y110459D02*
X00163Y110459D01*
X00163Y110610D02*
X32833Y110610D01*
X32833Y110761D02*
X00163Y110761D01*
X00163Y110911D02*
X32833Y110911D01*
X32833Y111062D02*
X00163Y111062D01*
X00163Y111213D02*
X32833Y111213D01*
X32833Y111364D02*
X00163Y111364D01*
X00163Y111515D02*
X32833Y111515D01*
X32833Y111666D02*
X00163Y111666D01*
X00163Y111817D02*
X32833Y111817D01*
X32833Y111968D02*
X00163Y111968D01*
X00163Y112119D02*
X32833Y112119D01*
X32833Y112270D02*
X00163Y112270D01*
X00163Y112420D02*
X32833Y112420D01*
X32833Y112571D02*
X00163Y112571D01*
X00163Y112722D02*
X32833Y112722D01*
X32833Y112873D02*
X00163Y112873D01*
X00163Y113024D02*
X32833Y113024D01*
X32833Y113175D02*
X00163Y113175D01*
X00163Y113326D02*
X32833Y113326D01*
X32833Y113477D02*
X00163Y113477D01*
X00163Y113628D02*
X32833Y113628D01*
X32833Y113779D02*
X00163Y113779D01*
X00163Y113929D02*
X32833Y113929D01*
X32833Y114080D02*
X00163Y114080D01*
X00163Y114231D02*
X32833Y114231D01*
X32833Y114382D02*
X00163Y114382D01*
X00163Y114533D02*
X32833Y114533D01*
X32833Y114684D02*
X00163Y114684D01*
X00163Y114835D02*
X32833Y114835D01*
X32833Y114986D02*
X00163Y114986D01*
X00163Y115137D02*
X32833Y115137D01*
X32833Y115288D02*
X00163Y115288D01*
X00163Y115438D02*
X32833Y115438D01*
X32833Y115589D02*
X00163Y115589D01*
X00163Y115740D02*
X32833Y115740D01*
X32833Y115891D02*
X00163Y115891D01*
X00163Y116042D02*
X32833Y116042D01*
X32833Y116193D02*
X00163Y116193D01*
X00163Y116344D02*
X32833Y116344D01*
X32833Y116495D02*
X00163Y116495D01*
X00163Y116646D02*
X32833Y116646D01*
X32833Y116797D02*
X00163Y116797D01*
X00163Y116947D02*
X32833Y116947D01*
X32833Y117098D02*
X00163Y117098D01*
X00163Y117249D02*
X32833Y117249D01*
X32833Y117400D02*
X00163Y117400D01*
X00163Y117551D02*
X32833Y117551D01*
X32833Y117702D02*
X00163Y117702D01*
X00163Y117853D02*
X32833Y117853D01*
X32833Y118004D02*
X00163Y118004D01*
X00163Y118155D02*
X32833Y118155D01*
X32833Y118306D02*
X00163Y118306D01*
X00163Y118456D02*
X32833Y118456D01*
X32833Y118607D02*
X00163Y118607D01*
X00163Y118758D02*
X32833Y118758D01*
X32833Y118909D02*
X00163Y118909D01*
X00163Y119060D02*
X32833Y119060D01*
X32833Y119211D02*
X00163Y119211D01*
X00163Y119362D02*
X32833Y119362D01*
X32833Y119513D02*
X00163Y119513D01*
X00163Y119664D02*
X32833Y119664D01*
X32833Y119815D02*
X00163Y119815D01*
X00163Y119965D02*
X32833Y119965D01*
X32833Y120116D02*
X00163Y120116D01*
X00163Y120267D02*
X32833Y120267D01*
X32833Y120418D02*
X00163Y120418D01*
X00163Y120569D02*
X32833Y120569D01*
X32833Y120720D02*
X00163Y120720D01*
X00163Y120871D02*
X32833Y120871D01*
X32833Y121022D02*
X00163Y121022D01*
X00163Y121173D02*
X32833Y121173D01*
X32833Y121324D02*
X00163Y121324D01*
X00163Y121474D02*
X32833Y121474D01*
X32833Y121625D02*
X00163Y121625D01*
X00163Y121776D02*
X32833Y121776D01*
X32833Y121927D02*
X00163Y121927D01*
X00163Y122078D02*
X32833Y122078D01*
X32833Y122229D02*
X00163Y122229D01*
X00163Y122380D02*
X32833Y122380D01*
X32833Y122531D02*
X00163Y122531D01*
X00163Y122682D02*
X32833Y122682D01*
X32833Y122833D02*
X00163Y122833D01*
X00163Y122983D02*
X32833Y122983D01*
X32833Y123134D02*
X00163Y123134D01*
X00163Y123285D02*
X32833Y123285D01*
X32833Y123436D02*
X00163Y123436D01*
X00163Y123587D02*
X32833Y123587D01*
X28251Y123889D02*
X04521Y123889D01*
X04885Y124040D02*
X27887Y124040D01*
X27658Y124191D02*
X05115Y124191D01*
X05266Y124342D02*
X27507Y124342D01*
X27356Y124492D02*
X05417Y124492D01*
X05515Y124643D02*
X27258Y124643D01*
X27195Y124794D02*
X05577Y124794D01*
X05640Y124945D02*
X27133Y124945D01*
X27070Y125096D02*
X05702Y125096D01*
X05725Y125247D02*
X27047Y125247D01*
X27047Y125398D02*
X05725Y125398D01*
X05725Y125549D02*
X27047Y125549D01*
X27047Y125700D02*
X05725Y125700D01*
X05703Y125851D02*
X27069Y125851D01*
X27132Y126001D02*
X05641Y126001D01*
X05578Y126152D02*
X27194Y126152D01*
X27257Y126303D02*
X05516Y126303D01*
X05419Y126454D02*
X27353Y126454D01*
X27504Y126605D02*
X05268Y126605D01*
X05117Y126756D02*
X27655Y126756D01*
X27881Y126907D02*
X04892Y126907D01*
X04527Y127058D02*
X28245Y127058D01*
X25975Y93602D02*
X25020Y93602D01*
X24098Y93355D01*
X23271Y92877D01*
X22595Y92202D01*
X22118Y91375D01*
X21871Y90452D01*
X21871Y89497D01*
X22118Y88575D01*
X22595Y87748D01*
X23271Y87072D01*
X24098Y86595D01*
X25020Y86348D01*
X25975Y86348D01*
X26898Y86595D01*
X27725Y87072D01*
X28400Y87748D01*
X28878Y88575D01*
X29125Y89497D01*
X29125Y90452D01*
X28878Y91375D01*
X28400Y92202D01*
X27725Y92877D01*
X26898Y93355D01*
X25975Y93602D01*
X26138Y93558D02*
X32833Y93558D01*
X32833Y93407D02*
X26702Y93407D01*
X27068Y93256D02*
X32833Y93256D01*
X32833Y93105D02*
X27329Y93105D01*
X27591Y92954D02*
X32833Y92954D01*
X32833Y92803D02*
X27798Y92803D01*
X27949Y92653D02*
X32833Y92653D01*
X32833Y92502D02*
X28100Y92502D01*
X28251Y92351D02*
X32833Y92351D01*
X32833Y92200D02*
X28401Y92200D01*
X28488Y92049D02*
X32833Y92049D01*
X32833Y91898D02*
X28575Y91898D01*
X28663Y91747D02*
X32833Y91747D01*
X32833Y91596D02*
X28750Y91596D01*
X28837Y91445D02*
X32833Y91445D01*
X32833Y91294D02*
X28899Y91294D01*
X28940Y91144D02*
X32833Y91144D01*
X32833Y90993D02*
X28980Y90993D01*
X29020Y90842D02*
X32833Y90842D01*
X32833Y90691D02*
X29061Y90691D01*
X29101Y90540D02*
X32833Y90540D01*
X32833Y90389D02*
X29125Y90389D01*
X29125Y90238D02*
X32833Y90238D01*
X32833Y90087D02*
X29125Y90087D01*
X29125Y89936D02*
X32833Y89936D01*
X32833Y89785D02*
X29125Y89785D01*
X29125Y89635D02*
X32833Y89635D01*
X32833Y89484D02*
X29121Y89484D01*
X29081Y89333D02*
X32833Y89333D01*
X32833Y89182D02*
X29040Y89182D01*
X29000Y89031D02*
X32833Y89031D01*
X32833Y88880D02*
X28959Y88880D01*
X28919Y88729D02*
X32833Y88729D01*
X32833Y88578D02*
X28879Y88578D01*
X28793Y88427D02*
X32833Y88427D01*
X32833Y88276D02*
X28705Y88276D01*
X28618Y88126D02*
X32833Y88126D01*
X32833Y87975D02*
X28531Y87975D01*
X28444Y87824D02*
X32833Y87824D01*
X32833Y87673D02*
X28325Y87673D01*
X28174Y87522D02*
X32833Y87522D01*
X32833Y87371D02*
X28024Y87371D01*
X27873Y87220D02*
X32833Y87220D01*
X32833Y87069D02*
X27719Y87069D01*
X27458Y86918D02*
X32833Y86918D01*
X32833Y86768D02*
X27197Y86768D01*
X26935Y86617D02*
X32833Y86617D01*
X32833Y86466D02*
X26416Y86466D01*
X24580Y86466D02*
X08316Y86466D01*
X08835Y86617D02*
X24060Y86617D01*
X23799Y86768D02*
X09097Y86768D01*
X09358Y86918D02*
X23538Y86918D01*
X23276Y87069D02*
X09619Y87069D01*
X09773Y87220D02*
X23123Y87220D01*
X22972Y87371D02*
X09924Y87371D01*
X10074Y87522D02*
X22821Y87522D01*
X22670Y87673D02*
X10225Y87673D01*
X10344Y87824D02*
X22552Y87824D01*
X22464Y87975D02*
X10431Y87975D01*
X10518Y88126D02*
X22377Y88126D01*
X22290Y88276D02*
X10605Y88276D01*
X10693Y88427D02*
X22203Y88427D01*
X22117Y88578D02*
X10779Y88578D01*
X10819Y88729D02*
X22077Y88729D01*
X22036Y88880D02*
X10859Y88880D01*
X10900Y89031D02*
X21996Y89031D01*
X21955Y89182D02*
X10940Y89182D01*
X10981Y89333D02*
X21915Y89333D01*
X21874Y89484D02*
X11021Y89484D01*
X11025Y89635D02*
X21871Y89635D01*
X21871Y89785D02*
X11025Y89785D01*
X11025Y89936D02*
X21871Y89936D01*
X21871Y90087D02*
X11025Y90087D01*
X11025Y90238D02*
X21871Y90238D01*
X21871Y90389D02*
X11025Y90389D01*
X11001Y90540D02*
X21894Y90540D01*
X21935Y90691D02*
X10961Y90691D01*
X10920Y90842D02*
X21975Y90842D01*
X22016Y90993D02*
X10880Y90993D01*
X10840Y91144D02*
X22056Y91144D01*
X22096Y91294D02*
X10799Y91294D01*
X10737Y91445D02*
X22159Y91445D01*
X22246Y91596D02*
X10650Y91596D01*
X10563Y91747D02*
X22333Y91747D01*
X22420Y91898D02*
X10475Y91898D01*
X10388Y92049D02*
X22507Y92049D01*
X22594Y92200D02*
X10301Y92200D01*
X10151Y92351D02*
X22745Y92351D01*
X22895Y92502D02*
X10000Y92502D01*
X09849Y92653D02*
X23046Y92653D01*
X23197Y92803D02*
X09698Y92803D01*
X09491Y92954D02*
X23405Y92954D01*
X23666Y93105D02*
X09229Y93105D01*
X08968Y93256D02*
X23927Y93256D01*
X24294Y93407D02*
X08602Y93407D01*
X08038Y93558D02*
X24857Y93558D01*
X26184Y78770D02*
X32833Y78770D01*
X32833Y78619D02*
X26402Y78619D01*
X26611Y78468D02*
X32833Y78468D01*
X32833Y78317D02*
X26690Y78317D01*
X26769Y78166D02*
X32833Y78166D01*
X32833Y78015D02*
X26848Y78015D01*
X26927Y77864D02*
X32833Y77864D01*
X32833Y77714D02*
X26933Y77714D01*
X26933Y77563D02*
X32833Y77563D01*
X32833Y77412D02*
X26933Y77412D01*
X26933Y77261D02*
X32833Y77261D01*
X32833Y77110D02*
X26914Y77110D01*
X26835Y76959D02*
X32833Y76959D01*
X32833Y76808D02*
X26756Y76808D01*
X26676Y76657D02*
X32833Y76657D01*
X32833Y76506D02*
X26584Y76506D01*
X26365Y76355D02*
X32833Y76355D01*
X32833Y76205D02*
X26146Y76205D01*
X25479Y76054D02*
X32833Y76054D01*
X32833Y75903D02*
X07883Y75903D01*
X08217Y76054D02*
X25272Y76054D01*
X24874Y76205D02*
X08436Y76205D01*
X08623Y76355D02*
X24599Y76355D01*
X24465Y76506D02*
X08702Y76506D01*
X08781Y76657D02*
X24332Y76657D01*
X24198Y76808D02*
X08861Y76808D01*
X08933Y76959D02*
X24157Y76959D01*
X24120Y77110D02*
X08933Y77110D01*
X08933Y77261D02*
X24083Y77261D01*
X24046Y77412D02*
X08933Y77412D01*
X08933Y77563D02*
X24039Y77563D01*
X24076Y77714D02*
X08902Y77714D01*
X08822Y77864D02*
X24114Y77864D01*
X24151Y78015D02*
X08743Y78015D01*
X08664Y78166D02*
X24188Y78166D01*
X24309Y78317D02*
X08550Y78317D01*
X08331Y78468D02*
X24443Y78468D01*
X24890Y69867D02*
X08106Y69867D01*
X07975Y69902D02*
X07020Y69902D01*
X06098Y69655D01*
X05271Y69177D01*
X04595Y68502D01*
X04118Y67675D01*
X03871Y66752D01*
X03871Y65797D01*
X04118Y64875D01*
X04595Y64048D01*
X05271Y63372D01*
X06098Y62895D01*
X07020Y62648D01*
X07975Y62648D01*
X08898Y62895D01*
X09725Y63372D01*
X10400Y64048D01*
X10878Y64875D01*
X11125Y65797D01*
X11125Y66752D01*
X10878Y67675D01*
X10400Y68502D01*
X09725Y69177D01*
X08898Y69655D01*
X07975Y69902D01*
X08669Y69716D02*
X24326Y69716D01*
X23943Y69565D02*
X09053Y69565D01*
X09314Y69414D02*
X23681Y69414D01*
X23420Y69263D02*
X09576Y69263D01*
X09790Y69112D02*
X23206Y69112D01*
X23055Y68961D02*
X09941Y68961D01*
X10091Y68810D02*
X22904Y68810D01*
X22753Y68660D02*
X10242Y68660D01*
X10393Y68509D02*
X22602Y68509D01*
X22512Y68358D02*
X10483Y68358D01*
X10570Y68207D02*
X22425Y68207D01*
X22338Y68056D02*
X10658Y68056D01*
X10745Y67905D02*
X22251Y67905D01*
X22164Y67754D02*
X10832Y67754D01*
X10897Y67603D02*
X22099Y67603D01*
X22058Y67452D02*
X10937Y67452D01*
X10978Y67301D02*
X22018Y67301D01*
X21978Y67151D02*
X11018Y67151D01*
X11059Y67000D02*
X21937Y67000D01*
X21897Y66849D02*
X11099Y66849D01*
X11125Y66698D02*
X21871Y66698D01*
X21871Y66547D02*
X11125Y66547D01*
X11125Y66396D02*
X21871Y66396D01*
X21871Y66245D02*
X11125Y66245D01*
X11125Y66094D02*
X21871Y66094D01*
X21871Y65943D02*
X11125Y65943D01*
X11124Y65792D02*
X21872Y65792D01*
X21913Y65642D02*
X11083Y65642D01*
X11043Y65491D02*
X21953Y65491D01*
X21993Y65340D02*
X11002Y65340D01*
X10962Y65189D02*
X22034Y65189D01*
X22074Y65038D02*
X10921Y65038D01*
X10881Y64887D02*
X22115Y64887D01*
X22198Y64736D02*
X10798Y64736D01*
X10710Y64585D02*
X22285Y64585D01*
X22372Y64434D02*
X10623Y64434D01*
X10536Y64283D02*
X22459Y64283D01*
X22547Y64132D02*
X10449Y64132D01*
X10334Y63982D02*
X22662Y63982D01*
X22812Y63831D02*
X10183Y63831D01*
X10032Y63680D02*
X22963Y63680D01*
X23114Y63529D02*
X09881Y63529D01*
X09730Y63378D02*
X23265Y63378D01*
X23522Y63227D02*
X09473Y63227D01*
X09212Y63076D02*
X23784Y63076D01*
X24045Y62925D02*
X08950Y62925D01*
X08448Y62774D02*
X24548Y62774D01*
X24549Y46175D02*
X08447Y46175D01*
X08950Y46024D02*
X24046Y46024D01*
X23784Y45874D02*
X09211Y45874D01*
X09473Y45723D02*
X23523Y45723D01*
X23266Y45572D02*
X09730Y45572D01*
X09881Y45421D02*
X23115Y45421D01*
X22964Y45270D02*
X10032Y45270D01*
X10183Y45119D02*
X22813Y45119D01*
X22662Y44968D02*
X10334Y44968D01*
X10449Y44817D02*
X22547Y44817D01*
X22460Y44666D02*
X10536Y44666D01*
X10623Y44515D02*
X22372Y44515D01*
X22285Y44365D02*
X10710Y44365D01*
X10797Y44214D02*
X22198Y44214D01*
X22115Y44063D02*
X10881Y44063D01*
X10921Y43912D02*
X22074Y43912D01*
X22034Y43761D02*
X10962Y43761D01*
X11002Y43610D02*
X21993Y43610D01*
X21953Y43459D02*
X11043Y43459D01*
X11083Y43308D02*
X21913Y43308D01*
X21872Y43157D02*
X11123Y43157D01*
X11125Y43007D02*
X21871Y43007D01*
X21871Y42856D02*
X11125Y42856D01*
X11125Y42705D02*
X21871Y42705D01*
X21871Y42554D02*
X11125Y42554D01*
X11125Y42403D02*
X21871Y42403D01*
X21871Y42252D02*
X11125Y42252D01*
X11099Y42101D02*
X21897Y42101D01*
X21937Y41950D02*
X11059Y41950D01*
X11018Y41799D02*
X21977Y41799D01*
X22018Y41648D02*
X10978Y41648D01*
X10937Y41498D02*
X22058Y41498D01*
X22099Y41347D02*
X10897Y41347D01*
X10832Y41196D02*
X22164Y41196D01*
X22251Y41045D02*
X10745Y41045D01*
X10658Y40894D02*
X22338Y40894D01*
X22425Y40743D02*
X10571Y40743D01*
X10483Y40592D02*
X22512Y40592D01*
X22602Y40441D02*
X10394Y40441D01*
X10243Y40290D02*
X22753Y40290D01*
X22904Y40139D02*
X10092Y40139D01*
X09941Y39989D02*
X23055Y39989D01*
X23206Y39838D02*
X09790Y39838D01*
X09576Y39687D02*
X23419Y39687D01*
X23681Y39536D02*
X09315Y39536D01*
X09054Y39385D02*
X23942Y39385D01*
X24325Y39234D02*
X08670Y39234D01*
X08107Y39083D02*
X24888Y39083D01*
X24581Y22484D02*
X08414Y22484D01*
X07975Y22602D02*
X07020Y22602D01*
X06098Y22355D01*
X05271Y21877D01*
X04595Y21202D01*
X04118Y20375D01*
X03871Y19452D01*
X03871Y18497D01*
X04118Y17575D01*
X04595Y16748D01*
X05271Y16072D01*
X06098Y15595D01*
X07020Y15348D01*
X07975Y15348D01*
X08898Y15595D01*
X09725Y16072D01*
X10400Y16748D01*
X10878Y17575D01*
X11125Y18497D01*
X11125Y19452D01*
X10878Y20375D01*
X10400Y21202D01*
X09725Y21877D01*
X08898Y22355D01*
X07975Y22602D01*
X08935Y22333D02*
X24061Y22333D01*
X23799Y22182D02*
X09196Y22182D01*
X09457Y22031D02*
X23538Y22031D01*
X23277Y21880D02*
X09719Y21880D01*
X09872Y21730D02*
X23123Y21730D01*
X22972Y21579D02*
X10023Y21579D01*
X10174Y21428D02*
X22822Y21428D01*
X22671Y21277D02*
X10325Y21277D01*
X10444Y21126D02*
X22552Y21126D01*
X22465Y20975D02*
X10531Y20975D01*
X10618Y20824D02*
X22377Y20824D01*
X22290Y20673D02*
X10705Y20673D01*
X10792Y20522D02*
X22203Y20522D01*
X22117Y20372D02*
X10878Y20372D01*
X10919Y20221D02*
X22077Y20221D01*
X22036Y20070D02*
X10959Y20070D01*
X11000Y19919D02*
X21996Y19919D01*
X21955Y19768D02*
X11040Y19768D01*
X11081Y19617D02*
X21915Y19617D01*
X21875Y19466D02*
X11121Y19466D01*
X11125Y19315D02*
X21871Y19315D01*
X21871Y19164D02*
X11125Y19164D01*
X11125Y19013D02*
X21871Y19013D01*
X21871Y18863D02*
X11125Y18863D01*
X11125Y18712D02*
X21871Y18712D01*
X21871Y18561D02*
X11125Y18561D01*
X11101Y18410D02*
X21894Y18410D01*
X21935Y18259D02*
X11061Y18259D01*
X11021Y18108D02*
X21975Y18108D01*
X22016Y17957D02*
X10980Y17957D01*
X10940Y17806D02*
X22056Y17806D01*
X22096Y17655D02*
X10899Y17655D01*
X10837Y17504D02*
X22159Y17504D01*
X22246Y17354D02*
X10750Y17354D01*
X10663Y17203D02*
X22333Y17203D01*
X22420Y17052D02*
X10576Y17052D01*
X10489Y16901D02*
X22507Y16901D01*
X22594Y16750D02*
X10401Y16750D01*
X10251Y16599D02*
X22744Y16599D01*
X22895Y16448D02*
X10101Y16448D01*
X09950Y16297D02*
X23046Y16297D01*
X23197Y16146D02*
X09799Y16146D01*
X09591Y15995D02*
X23404Y15995D01*
X23665Y15844D02*
X09330Y15844D01*
X09069Y15694D02*
X23927Y15694D01*
X24293Y15543D02*
X08703Y15543D01*
X08140Y15392D02*
X24856Y15392D01*
X28351Y04602D02*
X27753Y04354D01*
X27295Y03896D01*
X27047Y03298D01*
X27047Y02651D01*
X27295Y02053D01*
X27753Y01595D01*
X28351Y01348D01*
X28998Y01348D01*
X29596Y01595D01*
X30054Y02053D01*
X30301Y02651D01*
X30301Y03298D01*
X30054Y03896D01*
X29596Y04354D01*
X28998Y04602D01*
X28351Y04602D01*
X28170Y04527D02*
X04602Y04527D01*
X04966Y04376D02*
X27806Y04376D01*
X27624Y04225D02*
X05148Y04225D01*
X05299Y04074D02*
X27473Y04074D01*
X27322Y03923D02*
X05450Y03923D01*
X05528Y03772D02*
X27244Y03772D01*
X27181Y03622D02*
X05591Y03622D01*
X05653Y03471D02*
X27119Y03471D01*
X27056Y03320D02*
X05716Y03320D01*
X05725Y03169D02*
X27047Y03169D01*
X27047Y03018D02*
X05725Y03018D01*
X05725Y02867D02*
X27047Y02867D01*
X27047Y02716D02*
X05725Y02716D01*
X05689Y02565D02*
X27083Y02565D01*
X27146Y02414D02*
X05627Y02414D01*
X05564Y02264D02*
X27208Y02264D01*
X27271Y02113D02*
X05502Y02113D01*
X05386Y01962D02*
X27387Y01962D01*
X27537Y01811D02*
X05235Y01811D01*
X05084Y01660D02*
X27688Y01660D01*
X27961Y01509D02*
X04811Y01509D01*
X04446Y01358D02*
X28326Y01358D01*
X29023Y01358D02*
X32833Y01358D01*
X32833Y01509D02*
X29387Y01509D01*
X29661Y01660D02*
X32833Y01660D01*
X32833Y01811D02*
X29811Y01811D01*
X29962Y01962D02*
X32833Y01962D01*
X32833Y02113D02*
X30078Y02113D01*
X30141Y02264D02*
X32833Y02264D01*
X32833Y02414D02*
X30203Y02414D01*
X30266Y02565D02*
X32833Y02565D01*
X32833Y02716D02*
X30301Y02716D01*
X30301Y02867D02*
X32833Y02867D01*
X32833Y03018D02*
X30301Y03018D01*
X30301Y03169D02*
X32833Y03169D01*
X32833Y03320D02*
X30293Y03320D01*
X30230Y03471D02*
X32833Y03471D01*
X32833Y03622D02*
X30168Y03622D01*
X30105Y03772D02*
X32833Y03772D01*
X32833Y03923D02*
X30027Y03923D01*
X29876Y04074D02*
X32833Y04074D01*
X32833Y04225D02*
X29725Y04225D01*
X29543Y04376D02*
X32833Y04376D01*
X32833Y04527D02*
X29179Y04527D01*
X06856Y15392D02*
X00163Y15392D01*
X00163Y15543D02*
X06293Y15543D01*
X05927Y15694D02*
X00163Y15694D01*
X00163Y15844D02*
X05665Y15844D01*
X05404Y15995D02*
X00163Y15995D01*
X00163Y16146D02*
X05197Y16146D01*
X05046Y16297D02*
X00163Y16297D01*
X00163Y16448D02*
X04895Y16448D01*
X04744Y16599D02*
X00163Y16599D01*
X00163Y16750D02*
X04594Y16750D01*
X04507Y16901D02*
X00163Y16901D01*
X00163Y17052D02*
X04420Y17052D01*
X04333Y17203D02*
X00163Y17203D01*
X00163Y17354D02*
X04246Y17354D01*
X04159Y17504D02*
X00163Y17504D01*
X00163Y17655D02*
X04096Y17655D01*
X04056Y17806D02*
X00163Y17806D01*
X00163Y17957D02*
X04016Y17957D01*
X03975Y18108D02*
X00163Y18108D01*
X00163Y18259D02*
X03935Y18259D01*
X03894Y18410D02*
X00163Y18410D01*
X00163Y18561D02*
X03871Y18561D01*
X03871Y18712D02*
X00163Y18712D01*
X00163Y18863D02*
X03871Y18863D01*
X03871Y19013D02*
X00163Y19013D01*
X00163Y19164D02*
X03871Y19164D01*
X03871Y19315D02*
X00163Y19315D01*
X00163Y19466D02*
X03875Y19466D01*
X03915Y19617D02*
X00163Y19617D01*
X00163Y19768D02*
X03955Y19768D01*
X03996Y19919D02*
X00163Y19919D01*
X00163Y20070D02*
X04036Y20070D01*
X04077Y20221D02*
X00163Y20221D01*
X00163Y20372D02*
X04117Y20372D01*
X04203Y20522D02*
X00163Y20522D01*
X00163Y20673D02*
X04290Y20673D01*
X04378Y20824D02*
X00163Y20824D01*
X00163Y20975D02*
X04465Y20975D01*
X04552Y21126D02*
X00163Y21126D01*
X00163Y21277D02*
X04671Y21277D01*
X04822Y21428D02*
X00163Y21428D01*
X00163Y21579D02*
X04972Y21579D01*
X05123Y21730D02*
X00163Y21730D01*
X00163Y21880D02*
X05277Y21880D01*
X05538Y22031D02*
X00163Y22031D01*
X00163Y22182D02*
X05799Y22182D01*
X06061Y22333D02*
X00163Y22333D01*
X00163Y22484D02*
X06581Y22484D01*
X06856Y52211D02*
X00163Y52211D01*
X00163Y52362D02*
X06593Y52362D01*
X06459Y52513D02*
X00163Y52513D01*
X00163Y52664D02*
X06326Y52664D01*
X06193Y52815D02*
X00163Y52815D01*
X00163Y52966D02*
X06155Y52966D01*
X06118Y53117D02*
X00163Y53117D01*
X00163Y53268D02*
X06081Y53268D01*
X06044Y53419D02*
X00163Y53419D01*
X00163Y53569D02*
X06041Y53569D01*
X06078Y53720D02*
X00163Y53720D01*
X00163Y53871D02*
X06115Y53871D01*
X06153Y54022D02*
X00163Y54022D01*
X00163Y54173D02*
X06190Y54173D01*
X06315Y54324D02*
X00163Y54324D01*
X00163Y54475D02*
X06449Y54475D01*
X06582Y54626D02*
X00163Y54626D01*
X00163Y54777D02*
X06824Y54777D01*
X06548Y62774D02*
X00163Y62774D01*
X00163Y62925D02*
X06045Y62925D01*
X05784Y63076D02*
X00163Y63076D01*
X00163Y63227D02*
X05522Y63227D01*
X05265Y63378D02*
X00163Y63378D01*
X00163Y63529D02*
X05114Y63529D01*
X04963Y63680D02*
X00163Y63680D01*
X00163Y63831D02*
X04812Y63831D01*
X04662Y63982D02*
X00163Y63982D01*
X00163Y64132D02*
X04547Y64132D01*
X04459Y64283D02*
X00163Y64283D01*
X00163Y64434D02*
X04372Y64434D01*
X04285Y64585D02*
X00163Y64585D01*
X00163Y64736D02*
X04198Y64736D01*
X04115Y64887D02*
X00163Y64887D01*
X00163Y65038D02*
X04074Y65038D01*
X04034Y65189D02*
X00163Y65189D01*
X00163Y65340D02*
X03993Y65340D01*
X03953Y65491D02*
X00163Y65491D01*
X00163Y65642D02*
X03913Y65642D01*
X03872Y65792D02*
X00163Y65792D01*
X00163Y65943D02*
X03871Y65943D01*
X03871Y66094D02*
X00163Y66094D01*
X00163Y66245D02*
X03871Y66245D01*
X03871Y66396D02*
X00163Y66396D01*
X00163Y66547D02*
X03871Y66547D01*
X03871Y66698D02*
X00163Y66698D01*
X00163Y66849D02*
X03897Y66849D01*
X03937Y67000D02*
X00163Y67000D01*
X00163Y67151D02*
X03978Y67151D01*
X04018Y67301D02*
X00163Y67301D01*
X00163Y67452D02*
X04058Y67452D01*
X04099Y67603D02*
X00163Y67603D01*
X00163Y67754D02*
X04164Y67754D01*
X04251Y67905D02*
X00163Y67905D01*
X00163Y68056D02*
X04338Y68056D01*
X04425Y68207D02*
X00163Y68207D01*
X00163Y68358D02*
X04512Y68358D01*
X04602Y68509D02*
X00163Y68509D01*
X00163Y68660D02*
X04753Y68660D01*
X04904Y68810D02*
X00163Y68810D01*
X00163Y68961D02*
X05055Y68961D01*
X05206Y69112D02*
X00163Y69112D01*
X00163Y69263D02*
X05420Y69263D01*
X05681Y69414D02*
X00163Y69414D01*
X00163Y69565D02*
X05943Y69565D01*
X06326Y69716D02*
X00163Y69716D01*
X00163Y69867D02*
X06890Y69867D01*
X00163Y102914D02*
X15554Y102914D01*
X14997Y103065D02*
X00163Y103065D01*
X00163Y103216D02*
X14735Y103216D01*
X14474Y103366D02*
X00163Y103366D01*
X00163Y103517D02*
X14212Y103517D01*
X14021Y103668D02*
X00163Y103668D01*
X00163Y103819D02*
X13870Y103819D01*
X13720Y103970D02*
X00163Y103970D01*
X00163Y104121D02*
X13569Y104121D01*
X13418Y104272D02*
X00163Y104272D01*
X00163Y104423D02*
X13321Y104423D01*
X13234Y104574D02*
X00163Y104574D01*
X00163Y104725D02*
X13147Y104725D01*
X13060Y104875D02*
X00163Y104875D01*
X00163Y105026D02*
X12973Y105026D01*
X12886Y105177D02*
X00163Y105177D01*
X00163Y105328D02*
X12845Y105328D01*
X12804Y105479D02*
X00163Y105479D01*
X00163Y105630D02*
X12764Y105630D01*
X12724Y105781D02*
X00163Y105781D01*
X00163Y105932D02*
X12683Y105932D01*
X12643Y106083D02*
X00163Y106083D01*
X00163Y106234D02*
X12621Y106234D01*
X12621Y106384D02*
X00163Y106384D01*
X00163Y106535D02*
X12621Y106535D01*
X12621Y106686D02*
X00163Y106686D01*
X00163Y106837D02*
X12621Y106837D01*
X12621Y106988D02*
X00163Y106988D01*
X00163Y107139D02*
X12621Y107139D01*
X12649Y107290D02*
X00163Y107290D01*
X00163Y107441D02*
X12689Y107441D01*
X12730Y107592D02*
X00163Y107592D01*
X00163Y107743D02*
X12770Y107743D01*
X12811Y107893D02*
X00163Y107893D01*
X00163Y108044D02*
X12851Y108044D01*
X12899Y108195D02*
X00163Y108195D01*
X00163Y108346D02*
X12986Y108346D01*
X13073Y108497D02*
X00163Y108497D01*
X00163Y108648D02*
X13160Y108648D01*
X13247Y108799D02*
X00163Y108799D01*
X00163Y108950D02*
X13335Y108950D01*
X13441Y109101D02*
X00163Y109101D01*
X00163Y109252D02*
X13592Y109252D01*
X13743Y109402D02*
X00163Y109402D01*
X00163Y109553D02*
X13894Y109553D01*
X14044Y109704D02*
X00163Y109704D01*
X00163Y109855D02*
X14253Y109855D01*
X14514Y110006D02*
X00163Y110006D01*
X00163Y110157D02*
X14775Y110157D01*
X15077Y110308D02*
X00163Y110308D01*
M02*
