G75*
%MOMM*%
%OFA0B0*%
%FSLAX33Y33*%
%IPPOS*%
%LPD*%
%AMOC8*
5,1,8,0,0,1.08239X$1,22.5*
%
%ADD10C,0.381*%
%ADD11C,0.178*%
%ADD12C,2.540*%
%ADD13C,0.127*%
%ADD14C,0.432*%
%ADD15C,0.203*%
%ADD16C,0.584*%
%ADD17R,0.161X0.012*%
%ADD18R,0.247X0.012*%
%ADD19R,0.333X0.012*%
%ADD20R,0.383X0.012*%
%ADD21R,0.420X0.012*%
%ADD22R,0.469X0.012*%
%ADD23R,0.506X0.012*%
%ADD24R,0.543X0.012*%
%ADD25R,0.580X0.012*%
%ADD26R,0.617X0.012*%
%ADD27R,0.642X0.012*%
%ADD28R,0.679X0.012*%
%ADD29R,0.691X0.012*%
%ADD30R,0.728X0.012*%
%ADD31R,0.753X0.012*%
%ADD32R,0.778X0.012*%
%ADD33R,0.802X0.012*%
%ADD34R,0.815X0.012*%
%ADD35R,0.852X0.012*%
%ADD36R,0.864X0.012*%
%ADD37R,0.877X0.012*%
%ADD38R,0.914X0.012*%
%ADD39R,0.926X0.012*%
%ADD40R,0.938X0.012*%
%ADD41R,0.963X0.012*%
%ADD42R,0.975X0.012*%
%ADD43R,0.593X0.012*%
%ADD44R,0.333X0.012*%
%ADD45R,0.568X0.012*%
%ADD46R,0.346X0.012*%
%ADD47R,0.333X0.012*%
%ADD48R,0.531X0.012*%
%ADD49R,0.333X0.012*%
%ADD50R,0.531X0.012*%
%ADD51R,0.519X0.012*%
%ADD52R,0.321X0.012*%
%ADD53R,0.506X0.012*%
%ADD54R,0.506X0.012*%
%ADD55R,0.321X0.012*%
%ADD56R,0.494X0.012*%
%ADD57R,0.494X0.012*%
%ADD58R,0.494X0.012*%
%ADD59R,0.482X0.012*%
%ADD60R,0.482X0.012*%
%ADD61R,0.469X0.012*%
%ADD62R,0.469X0.012*%
%ADD63R,0.457X0.012*%
%ADD64R,0.444X0.012*%
%ADD65R,0.445X0.012*%
%ADD66R,0.444X0.012*%
%ADD67R,0.432X0.012*%
%ADD68R,0.432X0.012*%
%ADD69R,0.420X0.012*%
%ADD70R,0.407X0.012*%
%ADD71R,0.407X0.012*%
%ADD72R,0.395X0.012*%
%ADD73R,0.395X0.012*%
%ADD74R,0.395X0.012*%
%ADD75R,0.383X0.012*%
%ADD76R,0.383X0.012*%
%ADD77R,0.370X0.012*%
%ADD78R,0.370X0.012*%
%ADD79R,0.370X0.012*%
%ADD80R,0.358X0.012*%
%ADD81R,0.358X0.012*%
%ADD82R,0.358X0.012*%
%ADD83R,0.062X0.012*%
%ADD84R,0.358X0.012*%
%ADD85R,0.198X0.012*%
%ADD86R,0.272X0.012*%
%ADD87R,0.420X0.012*%
%ADD88R,0.457X0.012*%
%ADD89R,0.519X0.012*%
%ADD90R,0.346X0.012*%
%ADD91R,0.556X0.012*%
%ADD92R,0.346X0.012*%
%ADD93R,0.580X0.012*%
%ADD94R,0.617X0.012*%
%ADD95R,0.346X0.012*%
%ADD96R,0.630X0.012*%
%ADD97R,0.667X0.012*%
%ADD98R,0.679X0.012*%
%ADD99R,0.704X0.012*%
%ADD100R,0.716X0.012*%
%ADD101R,0.765X0.012*%
%ADD102R,0.790X0.012*%
%ADD103R,1.136X0.012*%
%ADD104R,1.161X0.012*%
%ADD105R,1.173X0.012*%
%ADD106R,1.185X0.012*%
%ADD107R,1.198X0.012*%
%ADD108R,0.555X0.012*%
%ADD109R,0.630X0.012*%
%ADD110R,0.531X0.012*%
%ADD111R,0.605X0.012*%
%ADD112R,0.605X0.012*%
%ADD113R,0.148X0.012*%
%ADD114R,0.593X0.012*%
%ADD115R,0.185X0.012*%
%ADD116R,0.481X0.012*%
%ADD117R,0.235X0.012*%
%ADD118R,0.580X0.012*%
%ADD119R,0.284X0.012*%
%ADD120R,0.568X0.012*%
%ADD121R,0.296X0.012*%
%ADD122R,0.457X0.012*%
%ADD123R,0.766X0.012*%
%ADD124R,0.556X0.012*%
%ADD125R,0.753X0.012*%
%ADD126R,0.741X0.012*%
%ADD127R,0.543X0.012*%
%ADD128R,0.716X0.012*%
%ADD129R,0.691X0.012*%
%ADD130R,0.259X0.012*%
%ADD131R,0.654X0.012*%
%ADD132R,0.642X0.012*%
%ADD133R,0.531X0.012*%
%ADD134R,1.000X0.012*%
%ADD135R,0.630X0.012*%
%ADD136R,0.617X0.012*%
%ADD137R,1.370X0.012*%
%ADD138R,1.506X0.012*%
%ADD139R,1.642X0.012*%
%ADD140R,1.765X0.012*%
%ADD141R,1.864X0.012*%
%ADD142R,1.951X0.012*%
%ADD143R,0.555X0.012*%
%ADD144R,2.049X0.012*%
%ADD145R,2.123X0.012*%
%ADD146R,0.580X0.012*%
%ADD147R,2.198X0.012*%
%ADD148R,2.272X0.012*%
%ADD149R,2.346X0.012*%
%ADD150R,0.605X0.012*%
%ADD151R,0.506X0.012*%
%ADD152R,2.407X0.012*%
%ADD153R,2.469X0.012*%
%ADD154R,2.518X0.012*%
%ADD155R,2.580X0.012*%
%ADD156R,2.630X0.012*%
%ADD157R,2.679X0.012*%
%ADD158R,2.716X0.012*%
%ADD159R,0.642X0.012*%
%ADD160R,2.778X0.012*%
%ADD161R,0.642X0.012*%
%ADD162R,2.815X0.012*%
%ADD163R,2.852X0.012*%
%ADD164R,0.654X0.012*%
%ADD165R,0.408X0.012*%
%ADD166R,0.494X0.012*%
%ADD167R,2.889X0.012*%
%ADD168R,0.667X0.012*%
%ADD169R,1.123X0.012*%
%ADD170R,1.543X0.012*%
%ADD171R,0.667X0.012*%
%ADD172R,0.926X0.012*%
%ADD173R,1.333X0.012*%
%ADD174R,1.210X0.012*%
%ADD175R,0.765X0.012*%
%ADD176R,1.049X0.012*%
%ADD177R,0.827X0.012*%
%ADD178R,1.000X0.012*%
%ADD179R,0.889X0.012*%
%ADD180R,0.938X0.012*%
%ADD181R,0.951X0.012*%
%ADD182R,0.901X0.012*%
%ADD183R,0.852X0.012*%
%ADD184R,0.691X0.012*%
%ADD185R,1.062X0.012*%
%ADD186R,0.309X0.012*%
%ADD187R,0.827X0.012*%
%ADD188R,1.111X0.012*%
%ADD189R,0.790X0.012*%
%ADD190R,1.247X0.012*%
%ADD191R,1.309X0.012*%
%ADD192R,0.704X0.012*%
%ADD193R,1.370X0.012*%
%ADD194R,1.432X0.012*%
%ADD195R,0.691X0.012*%
%ADD196R,1.469X0.012*%
%ADD197R,1.531X0.012*%
%ADD198R,1.580X0.012*%
%ADD199R,0.741X0.012*%
%ADD200R,1.630X0.012*%
%ADD201R,1.679X0.012*%
%ADD202R,0.827X0.012*%
%ADD203R,2.593X0.012*%
%ADD204R,2.630X0.012*%
%ADD205R,0.519X0.012*%
%ADD206R,2.654X0.012*%
%ADD207R,2.679X0.012*%
%ADD208R,2.704X0.012*%
%ADD209R,0.469X0.012*%
%ADD210R,2.728X0.012*%
%ADD211R,0.605X0.012*%
%ADD212R,2.741X0.012*%
%ADD213R,1.827X0.012*%
%ADD214R,0.716X0.012*%
%ADD215R,1.704X0.012*%
%ADD216R,0.679X0.012*%
%ADD217R,1.642X0.012*%
%ADD218R,1.580X0.012*%
%ADD219R,1.531X0.012*%
%ADD220R,1.494X0.012*%
%ADD221R,0.728X0.012*%
%ADD222R,0.951X0.012*%
%ADD223R,0.753X0.012*%
%ADD224R,0.370X0.012*%
%ADD225R,0.654X0.012*%
%ADD226R,0.815X0.012*%
%ADD227R,0.654X0.012*%
%ADD228R,0.741X0.012*%
%ADD229R,0.420X0.012*%
%ADD230R,0.309X0.012*%
%ADD231R,0.148X0.012*%
%ADD232R,0.630X0.012*%
%ADD233R,0.445X0.012*%
%ADD234R,0.395X0.012*%
%ADD235R,0.519X0.012*%
%ADD236R,0.408X0.012*%
%ADD237R,0.383X0.012*%
%ADD238R,0.716X0.012*%
%ADD239R,0.778X0.012*%
%ADD240R,0.802X0.012*%
%ADD241R,0.802X0.012*%
%ADD242R,0.802X0.012*%
%ADD243R,0.889X0.012*%
%ADD244R,0.827X0.012*%
%ADD245R,0.951X0.012*%
%ADD246R,0.840X0.012*%
%ADD247R,0.975X0.012*%
%ADD248R,1.012X0.012*%
%ADD249R,1.037X0.012*%
%ADD250R,1.062X0.012*%
%ADD251R,1.086X0.012*%
%ADD252R,1.087X0.012*%
%ADD253R,1.111X0.012*%
%ADD254R,1.123X0.012*%
%ADD255R,1.148X0.012*%
%ADD256R,1.148X0.012*%
%ADD257R,1.161X0.012*%
%ADD258R,1.123X0.012*%
%ADD259R,0.593X0.012*%
%ADD260R,1.099X0.012*%
%ADD261R,1.037X0.012*%
%ADD262R,0.778X0.012*%
%ADD263R,0.679X0.012*%
%ADD264R,0.926X0.012*%
%ADD265R,0.840X0.012*%
%ADD266R,0.852X0.012*%
%ADD267R,0.914X0.012*%
%ADD268R,1.284X0.012*%
%ADD269R,0.901X0.012*%
%ADD270R,1.272X0.012*%
%ADD271R,2.728X0.012*%
%ADD272R,2.901X0.012*%
%ADD273R,0.877X0.012*%
%ADD274R,0.741X0.012*%
%ADD275R,3.062X0.012*%
%ADD276R,3.198X0.012*%
%ADD277R,3.309X0.012*%
%ADD278R,0.877X0.012*%
%ADD279R,0.766X0.012*%
%ADD280R,4.272X0.012*%
%ADD281R,4.259X0.012*%
%ADD282R,4.235X0.012*%
%ADD283R,0.778X0.012*%
%ADD284R,4.210X0.012*%
%ADD285R,4.198X0.012*%
%ADD286R,4.185X0.012*%
%ADD287R,4.173X0.012*%
%ADD288R,4.160X0.012*%
%ADD289R,4.148X0.012*%
%ADD290R,4.123X0.012*%
%ADD291R,4.148X0.012*%
%ADD292R,4.247X0.012*%
%ADD293R,4.296X0.012*%
%ADD294R,4.309X0.012*%
%ADD295R,4.321X0.012*%
%ADD296R,2.025X0.012*%
%ADD297R,1.741X0.012*%
%ADD298R,1.309X0.012*%
%ADD299R,1.222X0.012*%
%ADD300R,1.383X0.012*%
%ADD301R,0.815X0.012*%
%ADD302R,1.086X0.012*%
%ADD303R,1.296X0.012*%
%ADD304R,1.025X0.012*%
%ADD305R,1.321X0.012*%
%ADD306R,1.358X0.012*%
%ADD307R,1.407X0.012*%
%ADD308R,1.420X0.012*%
%ADD309R,0.852X0.012*%
%ADD310R,0.753X0.012*%
%ADD311R,0.864X0.012*%
%ADD312R,0.889X0.012*%
%ADD313R,0.790X0.012*%
%ADD314R,0.926X0.012*%
%ADD315R,0.938X0.012*%
%ADD316R,0.790X0.012*%
%ADD317R,0.988X0.012*%
%ADD318R,0.901X0.012*%
%ADD319R,0.988X0.012*%
%ADD320R,1.012X0.012*%
%ADD321R,1.790X0.012*%
%ADD322R,1.790X0.012*%
%ADD323R,0.914X0.012*%
%ADD324R,1.778X0.012*%
%ADD325R,1.766X0.012*%
%ADD326R,1.765X0.012*%
%ADD327R,1.753X0.012*%
%ADD328R,1.753X0.012*%
%ADD329R,1.741X0.012*%
%ADD330R,1.728X0.012*%
%ADD331R,1.716X0.012*%
%ADD332R,0.963X0.012*%
%ADD333R,1.704X0.012*%
%ADD334R,0.963X0.012*%
%ADD335R,1.691X0.012*%
%ADD336R,1.667X0.012*%
%ADD337R,1.667X0.012*%
%ADD338R,1.642X0.012*%
%ADD339R,0.988X0.012*%
%ADD340R,1.630X0.012*%
%ADD341R,1.617X0.012*%
%ADD342R,0.988X0.012*%
%ADD343R,1.593X0.012*%
%ADD344R,1.580X0.012*%
%ADD345R,1.556X0.012*%
%ADD346R,1.543X0.012*%
%ADD347R,1.519X0.012*%
%ADD348R,1.506X0.012*%
%ADD349R,1.482X0.012*%
%ADD350R,0.481X0.012*%
%ADD351R,1.469X0.012*%
%ADD352R,1.457X0.012*%
%ADD353R,1.444X0.012*%
%ADD354R,1.432X0.012*%
%ADD355R,1.074X0.012*%
%ADD356R,1.099X0.012*%
%ADD357R,1.395X0.012*%
%ADD358R,1.136X0.012*%
%ADD359R,1.370X0.012*%
%ADD360R,0.815X0.012*%
%ADD361R,1.333X0.012*%
%ADD362R,1.654X0.012*%
%ADD363R,1.321X0.012*%
%ADD364R,1.630X0.012*%
%ADD365R,1.284X0.012*%
%ADD366R,1.605X0.012*%
%ADD367R,2.420X0.012*%
%ADD368R,1.247X0.012*%
%ADD369R,2.395X0.012*%
%ADD370R,1.235X0.012*%
%ADD371R,2.370X0.012*%
%ADD372R,1.222X0.012*%
%ADD373R,2.358X0.012*%
%ADD374R,1.198X0.012*%
%ADD375R,2.321X0.012*%
%ADD376R,2.296X0.012*%
%ADD377R,2.272X0.012*%
%ADD378R,2.247X0.012*%
%ADD379R,1.099X0.012*%
%ADD380R,2.222X0.012*%
%ADD381R,1.049X0.012*%
%ADD382R,2.185X0.012*%
%ADD383R,2.161X0.012*%
%ADD384R,2.136X0.012*%
%ADD385R,2.111X0.012*%
%ADD386R,2.086X0.012*%
%ADD387R,2.062X0.012*%
%ADD388R,0.963X0.012*%
%ADD389R,1.235X0.012*%
%ADD390R,1.148X0.012*%
%ADD391R,0.877X0.012*%
%ADD392R,1.049X0.012*%
%ADD393R,1.012X0.012*%
%ADD394R,0.012X0.012*%
%ADD395R,0.124X0.012*%
%ADD396R,0.037X0.012*%
%ADD397R,0.062X0.012*%
%ADD398R,0.296X0.012*%
%ADD399R,0.074X0.012*%
%ADD400R,0.086X0.012*%
%ADD401R,0.111X0.012*%
%ADD402R,0.284X0.012*%
%ADD403R,0.235X0.012*%
%ADD404R,0.148X0.012*%
%ADD405R,1.395X0.012*%
%ADD406R,1.012X0.012*%
%ADD407R,1.444X0.012*%
%ADD408R,1.457X0.012*%
%ADD409R,1.531X0.012*%
%ADD410R,1.568X0.012*%
%ADD411R,3.062X0.012*%
%ADD412R,3.049X0.012*%
%ADD413R,3.049X0.012*%
%ADD414R,3.049X0.012*%
%ADD415R,3.049X0.012*%
%ADD416R,3.025X0.012*%
%ADD417R,3.025X0.012*%
%ADD418R,2.556X0.012*%
%ADD419R,2.506X0.012*%
%ADD420R,0.309X0.012*%
%ADD421R,2.432X0.012*%
%ADD422R,2.407X0.012*%
%ADD423R,1.753X0.012*%
%ADD424R,0.951X0.012*%
%ADD425R,1.716X0.012*%
%ADD426R,1.605X0.012*%
%ADD427R,1.148X0.012*%
%ADD428R,1.049X0.012*%
%ADD429R,1.815X0.012*%
%ADD430R,1.852X0.012*%
%ADD431R,1.901X0.012*%
%ADD432R,0.938X0.012*%
%ADD433R,2.383X0.012*%
%ADD434R,2.395X0.012*%
%ADD435R,1.037X0.012*%
%ADD436R,2.420X0.012*%
%ADD437R,0.012X0.012*%
%ADD438R,2.444X0.012*%
%ADD439R,2.457X0.012*%
%ADD440R,1.222X0.012*%
%ADD441R,2.469X0.012*%
%ADD442R,1.309X0.012*%
%ADD443R,2.482X0.012*%
%ADD444R,2.518X0.012*%
%ADD445R,1.481X0.012*%
%ADD446R,2.531X0.012*%
%ADD447R,2.531X0.012*%
%ADD448R,2.543X0.012*%
%ADD449R,1.025X0.012*%
%ADD450R,2.568X0.012*%
%ADD451R,0.025X0.012*%
%ADD452R,2.568X0.012*%
%ADD453R,0.975X0.012*%
%ADD454R,2.580X0.012*%
%ADD455R,1.272X0.012*%
%ADD456R,0.901X0.012*%
%ADD457R,1.296X0.012*%
%ADD458R,1.062X0.012*%
%ADD459R,1.111X0.012*%
%ADD460R,0.272X0.012*%
%ADD461R,0.012X0.012*%
%ADD462R,1.173X0.012*%
%ADD463R,0.185X0.012*%
%ADD464R,1.185X0.012*%
%ADD465R,0.111X0.012*%
%ADD466R,1.259X0.012*%
%ADD467R,1.284X0.012*%
%ADD468R,0.284X0.012*%
%ADD469R,1.556X0.012*%
%ADD470R,1.469X0.012*%
%ADD471R,1.556X0.012*%
%ADD472R,1.506X0.012*%
%ADD473R,1.123X0.012*%
%ADD474R,1.556X0.012*%
%ADD475R,1.605X0.012*%
%ADD476R,1.074X0.012*%
%ADD477R,1.654X0.012*%
%ADD478R,1.691X0.012*%
%ADD479R,1.741X0.012*%
%ADD480R,1.778X0.012*%
%ADD481R,1.802X0.012*%
%ADD482R,1.840X0.012*%
%ADD483R,1.852X0.012*%
%ADD484R,1.877X0.012*%
%ADD485R,1.889X0.012*%
%ADD486R,1.926X0.012*%
%ADD487R,1.938X0.012*%
%ADD488R,1.988X0.012*%
%ADD489R,2.000X0.012*%
%ADD490R,2.025X0.012*%
%ADD491R,2.037X0.012*%
%ADD492R,2.062X0.012*%
%ADD493R,0.617X0.012*%
%ADD494R,2.074X0.012*%
%ADD495R,2.099X0.012*%
%ADD496R,2.111X0.012*%
%ADD497R,2.123X0.012*%
%ADD498R,2.173X0.012*%
%ADD499R,0.210X0.012*%
%ADD500R,2.309X0.012*%
%ADD501R,2.333X0.012*%
%ADD502R,2.358X0.012*%
%ADD503R,3.198X0.012*%
%ADD504R,2.309X0.012*%
%ADD505R,2.272X0.012*%
%ADD506R,2.235X0.012*%
%ADD507R,2.148X0.012*%
%ADD508R,2.062X0.012*%
%ADD509R,2.025X0.012*%
%ADD510R,1.975X0.012*%
%ADD511R,1.938X0.012*%
%ADD512R,1.889X0.012*%
%ADD513R,1.790X0.012*%
%ADD514R,1.728X0.012*%
%ADD515R,1.679X0.012*%
%ADD516R,1.580X0.012*%
%ADD517R,1.469X0.012*%
%ADD518R,1.395X0.012*%
%ADD519R,1.333X0.012*%
%ADD520R,1.284X0.012*%
%ADD521R,1.358X0.012*%
%ADD522R,1.445X0.012*%
%ADD523R,2.259X0.012*%
%ADD524R,2.222X0.012*%
%ADD525R,2.173X0.012*%
%ADD526R,1.926X0.012*%
%ADD527R,0.543X0.012*%
%ADD528R,1.815X0.012*%
%ADD529R,1.494X0.012*%
%ADD530R,1.210X0.012*%
%ADD531R,0.321X0.012*%
%ADD532R,0.321X0.012*%
%ADD533R,0.543X0.012*%
%ADD534R,1.333X0.012*%
%ADD535R,1.346X0.012*%
%ADD536R,1.346X0.012*%
%ADD537R,0.840X0.012*%
%ADD538R,0.704X0.012*%
%ADD539R,0.593X0.012*%
%ADD540R,0.284X0.012*%
%ADD541R,0.259X0.012*%
%ADD542R,0.235X0.012*%
%ADD543R,0.161X0.012*%
%ADD544R,0.099X0.012*%
%ADD545R,0.667X0.012*%
%ADD546R,0.568X0.012*%
%ADD547R,2.296X0.012*%
%ADD548R,2.284X0.012*%
%ADD549R,2.259X0.012*%
%ADD550R,2.235X0.012*%
%ADD551R,2.210X0.012*%
%ADD552R,2.198X0.012*%
%ADD553R,1.099X0.012*%
%ADD554R,1.074X0.012*%
%ADD555R,0.198X0.012*%
D10*
X06019Y24876D02*
X06978Y26316D01*
X06019Y26316D02*
X06978Y24876D01*
X07778Y24876D02*
X08977Y24876D01*
X07778Y24876D02*
X08797Y26076D01*
X08437Y27035D02*
X08386Y27033D01*
X08335Y27027D01*
X08284Y27018D01*
X08235Y27005D01*
X08186Y26988D01*
X08139Y26968D01*
X08094Y26944D01*
X08050Y26917D01*
X08009Y26887D01*
X07970Y26854D01*
X07933Y26818D01*
X07899Y26779D01*
X07869Y26738D01*
X07841Y26695D01*
X07816Y26650D01*
X07795Y26604D01*
X07778Y26556D01*
X08797Y26075D02*
X08830Y26109D01*
X08859Y26145D01*
X08886Y26184D01*
X08910Y26224D01*
X08930Y26267D01*
X08947Y26310D01*
X08960Y26355D01*
X08969Y26401D01*
X08975Y26448D01*
X08977Y26495D01*
X08975Y26540D01*
X08970Y26584D01*
X08960Y26628D01*
X08948Y26670D01*
X08932Y26712D01*
X08912Y26752D01*
X08889Y26790D01*
X08863Y26827D01*
X08834Y26861D01*
X08803Y26892D01*
X08769Y26921D01*
X08732Y26947D01*
X08694Y26970D01*
X08654Y26990D01*
X08612Y27006D01*
X08570Y27018D01*
X08526Y27028D01*
X08482Y27033D01*
X08437Y27035D01*
X08617Y48576D02*
X08617Y49536D01*
X08977Y49056D02*
X07778Y49056D01*
X08257Y50735D01*
X06978Y50016D02*
X06019Y48576D01*
X06978Y48576D02*
X06019Y50016D01*
X06019Y72176D02*
X06978Y73616D01*
X06019Y73616D02*
X06978Y72176D01*
X07777Y72776D02*
X07779Y72728D01*
X07785Y72680D01*
X07794Y72632D01*
X07808Y72586D01*
X07825Y72541D01*
X07846Y72497D01*
X07870Y72455D01*
X07897Y72416D01*
X07928Y72378D01*
X07961Y72343D01*
X07998Y72311D01*
X08036Y72282D01*
X08077Y72256D01*
X08120Y72234D01*
X08164Y72215D01*
X08210Y72200D01*
X08257Y72188D01*
X08305Y72180D01*
X08353Y72176D01*
X08401Y72176D01*
X08449Y72180D01*
X08497Y72188D01*
X08544Y72200D01*
X08590Y72215D01*
X08634Y72234D01*
X08677Y72256D01*
X08718Y72282D01*
X08756Y72311D01*
X08793Y72343D01*
X08826Y72378D01*
X08857Y72416D01*
X08884Y72455D01*
X08908Y72497D01*
X08929Y72541D01*
X08946Y72586D01*
X08960Y72632D01*
X08969Y72680D01*
X08975Y72728D01*
X08977Y72776D01*
X08975Y72824D01*
X08969Y72872D01*
X08960Y72920D01*
X08946Y72966D01*
X08929Y73011D01*
X08908Y73055D01*
X08884Y73097D01*
X08857Y73136D01*
X08826Y73174D01*
X08793Y73209D01*
X08756Y73241D01*
X08718Y73270D01*
X08677Y73296D01*
X08634Y73318D01*
X08590Y73337D01*
X08544Y73352D01*
X08497Y73364D01*
X08449Y73372D01*
X08401Y73376D01*
X08353Y73376D01*
X08305Y73372D01*
X08257Y73364D01*
X08210Y73352D01*
X08164Y73337D01*
X08120Y73318D01*
X08077Y73296D01*
X08036Y73270D01*
X07998Y73241D01*
X07961Y73209D01*
X07928Y73174D01*
X07897Y73136D01*
X07870Y73097D01*
X07846Y73055D01*
X07825Y73011D01*
X07808Y72966D01*
X07794Y72920D01*
X07785Y72872D01*
X07779Y72824D01*
X07777Y72776D01*
X07897Y73855D02*
X07899Y73812D01*
X07905Y73769D01*
X07914Y73727D01*
X07928Y73686D01*
X07945Y73647D01*
X07965Y73609D01*
X07989Y73573D01*
X08016Y73539D01*
X08045Y73508D01*
X08078Y73480D01*
X08113Y73454D01*
X08150Y73432D01*
X08188Y73414D01*
X08229Y73398D01*
X08270Y73387D01*
X08313Y73379D01*
X08355Y73375D01*
X08399Y73375D01*
X08441Y73379D01*
X08484Y73387D01*
X08525Y73398D01*
X08566Y73414D01*
X08604Y73432D01*
X08641Y73454D01*
X08676Y73480D01*
X08709Y73508D01*
X08738Y73539D01*
X08765Y73573D01*
X08789Y73609D01*
X08809Y73647D01*
X08826Y73686D01*
X08840Y73727D01*
X08849Y73769D01*
X08855Y73812D01*
X08857Y73855D01*
X08855Y73898D01*
X08849Y73941D01*
X08840Y73983D01*
X08826Y74024D01*
X08809Y74063D01*
X08789Y74101D01*
X08765Y74137D01*
X08738Y74171D01*
X08709Y74202D01*
X08676Y74230D01*
X08641Y74256D01*
X08604Y74278D01*
X08566Y74296D01*
X08525Y74312D01*
X08484Y74323D01*
X08441Y74331D01*
X08399Y74335D01*
X08355Y74335D01*
X08313Y74331D01*
X08270Y74323D01*
X08229Y74312D01*
X08188Y74296D01*
X08150Y74278D01*
X08113Y74256D01*
X08078Y74230D01*
X08045Y74202D01*
X08016Y74171D01*
X07989Y74137D01*
X07965Y74101D01*
X07945Y74063D01*
X07928Y74024D01*
X07914Y73983D01*
X07905Y73941D01*
X07899Y73898D01*
X07897Y73855D01*
X07833Y95876D02*
X06634Y95876D01*
X07233Y95876D02*
X07233Y98035D01*
X06634Y97555D01*
X05834Y97316D02*
X04875Y95876D01*
X05834Y95876D02*
X04875Y97316D01*
X08722Y97076D02*
X08722Y96476D01*
X08721Y96476D02*
X08723Y96428D01*
X08729Y96380D01*
X08738Y96332D01*
X08752Y96286D01*
X08769Y96241D01*
X08790Y96197D01*
X08814Y96155D01*
X08841Y96116D01*
X08872Y96078D01*
X08905Y96043D01*
X08942Y96011D01*
X08980Y95982D01*
X09021Y95956D01*
X09064Y95934D01*
X09108Y95915D01*
X09154Y95900D01*
X09201Y95888D01*
X09249Y95880D01*
X09297Y95876D01*
X09345Y95876D01*
X09393Y95880D01*
X09441Y95888D01*
X09488Y95900D01*
X09534Y95915D01*
X09578Y95934D01*
X09621Y95956D01*
X09662Y95982D01*
X09700Y96011D01*
X09737Y96043D01*
X09770Y96078D01*
X09801Y96116D01*
X09828Y96155D01*
X09852Y96197D01*
X09873Y96241D01*
X09890Y96286D01*
X09904Y96332D01*
X09913Y96380D01*
X09919Y96428D01*
X09921Y96476D01*
X09921Y96596D01*
X09919Y96638D01*
X09914Y96679D01*
X09905Y96720D01*
X09892Y96760D01*
X09876Y96799D01*
X09857Y96836D01*
X09834Y96871D01*
X09809Y96905D01*
X09780Y96935D01*
X09750Y96964D01*
X09716Y96989D01*
X09681Y97012D01*
X09644Y97031D01*
X09605Y97047D01*
X09565Y97060D01*
X09524Y97069D01*
X09483Y97074D01*
X09441Y97076D01*
X08722Y97076D01*
X08721Y97076D02*
X08723Y97136D01*
X08729Y97196D01*
X08738Y97256D01*
X08751Y97315D01*
X08768Y97373D01*
X08788Y97429D01*
X08812Y97485D01*
X08840Y97538D01*
X08870Y97590D01*
X08904Y97640D01*
X08941Y97688D01*
X08981Y97733D01*
X09024Y97776D01*
X09069Y97816D01*
X09117Y97853D01*
X09167Y97887D01*
X09219Y97917D01*
X09272Y97945D01*
X09328Y97969D01*
X09384Y97989D01*
X09442Y98006D01*
X09501Y98019D01*
X09561Y98028D01*
X09621Y98034D01*
X09681Y98036D01*
X24978Y74575D02*
X24019Y71936D01*
X25778Y72176D02*
X26977Y72176D01*
X25778Y72176D02*
X26797Y73376D01*
X26437Y74335D02*
X26386Y74333D01*
X26335Y74327D01*
X26284Y74318D01*
X26235Y74305D01*
X26186Y74288D01*
X26139Y74268D01*
X26094Y74244D01*
X26050Y74217D01*
X26009Y74187D01*
X25970Y74154D01*
X25933Y74118D01*
X25899Y74079D01*
X25869Y74038D01*
X25841Y73995D01*
X25816Y73950D01*
X25795Y73904D01*
X25778Y73856D01*
X26797Y73375D02*
X26830Y73409D01*
X26859Y73445D01*
X26886Y73484D01*
X26910Y73524D01*
X26930Y73567D01*
X26947Y73610D01*
X26960Y73655D01*
X26969Y73701D01*
X26975Y73748D01*
X26977Y73795D01*
X26975Y73840D01*
X26970Y73884D01*
X26960Y73928D01*
X26948Y73970D01*
X26932Y74012D01*
X26912Y74052D01*
X26889Y74090D01*
X26863Y74127D01*
X26834Y74161D01*
X26803Y74192D01*
X26769Y74221D01*
X26732Y74247D01*
X26694Y74270D01*
X26654Y74290D01*
X26612Y74306D01*
X26570Y74318D01*
X26526Y74328D01*
X26482Y74333D01*
X26437Y74335D01*
X26098Y95876D02*
X24898Y95876D01*
X25498Y95876D02*
X25498Y98035D01*
X24898Y97555D01*
X24978Y50975D02*
X24019Y48336D01*
X25778Y49056D02*
X26977Y49056D01*
X26617Y49536D02*
X26617Y48576D01*
X25778Y49056D02*
X26257Y50735D01*
X24978Y27275D02*
X24019Y24636D01*
X25777Y25476D02*
X25779Y25428D01*
X25785Y25380D01*
X25794Y25332D01*
X25808Y25286D01*
X25825Y25241D01*
X25846Y25197D01*
X25870Y25155D01*
X25897Y25116D01*
X25928Y25078D01*
X25961Y25043D01*
X25998Y25011D01*
X26036Y24982D01*
X26077Y24956D01*
X26120Y24934D01*
X26164Y24915D01*
X26210Y24900D01*
X26257Y24888D01*
X26305Y24880D01*
X26353Y24876D01*
X26401Y24876D01*
X26449Y24880D01*
X26497Y24888D01*
X26544Y24900D01*
X26590Y24915D01*
X26634Y24934D01*
X26677Y24956D01*
X26718Y24982D01*
X26756Y25011D01*
X26793Y25043D01*
X26826Y25078D01*
X26857Y25116D01*
X26884Y25155D01*
X26908Y25197D01*
X26929Y25241D01*
X26946Y25286D01*
X26960Y25332D01*
X26969Y25380D01*
X26975Y25428D01*
X26977Y25476D01*
X26975Y25524D01*
X26969Y25572D01*
X26960Y25620D01*
X26946Y25666D01*
X26929Y25711D01*
X26908Y25755D01*
X26884Y25797D01*
X26857Y25836D01*
X26826Y25874D01*
X26793Y25909D01*
X26756Y25941D01*
X26718Y25970D01*
X26677Y25996D01*
X26634Y26018D01*
X26590Y26037D01*
X26544Y26052D01*
X26497Y26064D01*
X26449Y26072D01*
X26401Y26076D01*
X26353Y26076D01*
X26305Y26072D01*
X26257Y26064D01*
X26210Y26052D01*
X26164Y26037D01*
X26120Y26018D01*
X26077Y25996D01*
X26036Y25970D01*
X25998Y25941D01*
X25961Y25909D01*
X25928Y25874D01*
X25897Y25836D01*
X25870Y25797D01*
X25846Y25755D01*
X25825Y25711D01*
X25808Y25666D01*
X25794Y25620D01*
X25785Y25572D01*
X25779Y25524D01*
X25777Y25476D01*
X25897Y26555D02*
X25899Y26512D01*
X25905Y26469D01*
X25914Y26427D01*
X25928Y26386D01*
X25945Y26347D01*
X25965Y26309D01*
X25989Y26273D01*
X26016Y26239D01*
X26045Y26208D01*
X26078Y26180D01*
X26113Y26154D01*
X26150Y26132D01*
X26188Y26114D01*
X26229Y26098D01*
X26270Y26087D01*
X26313Y26079D01*
X26355Y26075D01*
X26399Y26075D01*
X26441Y26079D01*
X26484Y26087D01*
X26525Y26098D01*
X26566Y26114D01*
X26604Y26132D01*
X26641Y26154D01*
X26676Y26180D01*
X26709Y26208D01*
X26738Y26239D01*
X26765Y26273D01*
X26789Y26309D01*
X26809Y26347D01*
X26826Y26386D01*
X26840Y26427D01*
X26849Y26469D01*
X26855Y26512D01*
X26857Y26555D01*
X26855Y26598D01*
X26849Y26641D01*
X26840Y26683D01*
X26826Y26724D01*
X26809Y26763D01*
X26789Y26801D01*
X26765Y26837D01*
X26738Y26871D01*
X26709Y26902D01*
X26676Y26930D01*
X26641Y26956D01*
X26604Y26978D01*
X26566Y26996D01*
X26525Y27012D01*
X26484Y27023D01*
X26441Y27031D01*
X26399Y27035D01*
X26355Y27035D01*
X26313Y27031D01*
X26270Y27023D01*
X26229Y27012D01*
X26188Y26996D01*
X26150Y26978D01*
X26113Y26956D01*
X26078Y26930D01*
X26045Y26902D01*
X26016Y26871D01*
X25989Y26837D01*
X25965Y26801D01*
X25945Y26763D01*
X25928Y26724D01*
X25914Y26683D01*
X25905Y26641D01*
X25899Y26598D01*
X25897Y26555D01*
D11*
X24463Y19528D02*
X23856Y19528D01*
X23856Y19406D01*
X24463Y19528D02*
X24159Y18436D01*
X25052Y18436D02*
X25052Y19164D01*
X25599Y19164D01*
X25625Y19162D01*
X25650Y19157D01*
X25675Y19148D01*
X25697Y19135D01*
X25718Y19120D01*
X25737Y19101D01*
X25752Y19080D01*
X25765Y19058D01*
X25774Y19033D01*
X25779Y19008D01*
X25781Y18982D01*
X25781Y18436D01*
X25417Y18436D02*
X25417Y19164D01*
X26424Y19164D02*
X26424Y18436D01*
X26788Y18436D02*
X26788Y19164D01*
X26970Y19164D02*
X26424Y19164D01*
X26970Y19164D02*
X26996Y19162D01*
X27021Y19157D01*
X27046Y19148D01*
X27068Y19135D01*
X27089Y19120D01*
X27108Y19101D01*
X27123Y19080D01*
X27136Y19058D01*
X27145Y19033D01*
X27150Y19008D01*
X27152Y18982D01*
X27152Y18436D01*
X27152Y42136D02*
X27152Y42682D01*
X27150Y42708D01*
X27145Y42733D01*
X27136Y42758D01*
X27123Y42780D01*
X27108Y42801D01*
X27089Y42820D01*
X27068Y42835D01*
X27046Y42848D01*
X27021Y42857D01*
X26996Y42862D01*
X26970Y42864D01*
X26424Y42864D01*
X26424Y42136D01*
X26788Y42136D02*
X26788Y42864D01*
X25781Y42682D02*
X25781Y42136D01*
X25417Y42136D02*
X25417Y42864D01*
X25599Y42864D02*
X25052Y42864D01*
X25052Y42136D01*
X24159Y42136D02*
X24463Y43228D01*
X23856Y43228D01*
X23856Y43106D01*
X25599Y42864D02*
X25625Y42862D01*
X25650Y42857D01*
X25675Y42848D01*
X25697Y42835D01*
X25718Y42820D01*
X25737Y42801D01*
X25752Y42780D01*
X25765Y42758D01*
X25774Y42733D01*
X25779Y42708D01*
X25781Y42682D01*
X25781Y65736D02*
X25781Y66282D01*
X25779Y66308D01*
X25774Y66333D01*
X25765Y66358D01*
X25752Y66380D01*
X25737Y66401D01*
X25718Y66420D01*
X25697Y66435D01*
X25675Y66448D01*
X25650Y66457D01*
X25625Y66462D01*
X25599Y66464D01*
X25052Y66464D01*
X25052Y65736D01*
X25417Y65736D02*
X25417Y66464D01*
X24463Y66828D02*
X24159Y65736D01*
X23856Y66706D02*
X23856Y66828D01*
X24463Y66828D01*
X26424Y66464D02*
X26970Y66464D01*
X26788Y66464D02*
X26788Y65736D01*
X26424Y65736D02*
X26424Y66464D01*
X26970Y66464D02*
X26996Y66462D01*
X27021Y66457D01*
X27046Y66448D01*
X27068Y66435D01*
X27089Y66420D01*
X27108Y66401D01*
X27123Y66380D01*
X27136Y66358D01*
X27145Y66333D01*
X27150Y66308D01*
X27152Y66282D01*
X27152Y65736D01*
X27152Y89436D02*
X27152Y89982D01*
X27150Y90008D01*
X27145Y90033D01*
X27136Y90058D01*
X27123Y90080D01*
X27108Y90101D01*
X27089Y90120D01*
X27068Y90135D01*
X27046Y90148D01*
X27021Y90157D01*
X26996Y90162D01*
X26970Y90164D01*
X26424Y90164D01*
X26424Y89436D01*
X26788Y89436D02*
X26788Y90164D01*
X25781Y89982D02*
X25781Y89436D01*
X25417Y89436D02*
X25417Y90164D01*
X25599Y90164D02*
X25052Y90164D01*
X25052Y89436D01*
X24159Y89436D02*
X24463Y90528D01*
X23856Y90528D01*
X23856Y90406D01*
X25599Y90164D02*
X25625Y90162D01*
X25650Y90157D01*
X25675Y90148D01*
X25697Y90135D01*
X25718Y90120D01*
X25737Y90101D01*
X25752Y90080D01*
X25765Y90058D01*
X25774Y90033D01*
X25779Y90008D01*
X25781Y89982D01*
X09052Y89982D02*
X09052Y89436D01*
X08688Y89436D02*
X08688Y90164D01*
X08870Y90164D02*
X08324Y90164D01*
X08324Y89436D01*
X09052Y89982D02*
X09050Y90008D01*
X09045Y90033D01*
X09036Y90058D01*
X09023Y90080D01*
X09008Y90101D01*
X08989Y90120D01*
X08968Y90135D01*
X08946Y90148D01*
X08921Y90157D01*
X08896Y90162D01*
X08870Y90164D01*
X07681Y89982D02*
X07681Y89436D01*
X07317Y89436D02*
X07317Y90164D01*
X07499Y90164D02*
X06952Y90164D01*
X06952Y89436D01*
X06059Y89436D02*
X06363Y90528D01*
X05756Y90528D01*
X05756Y90406D01*
X07499Y90164D02*
X07525Y90162D01*
X07550Y90157D01*
X07575Y90148D01*
X07597Y90135D01*
X07618Y90120D01*
X07637Y90101D01*
X07652Y90080D01*
X07665Y90058D01*
X07674Y90033D01*
X07679Y90008D01*
X07681Y89982D01*
X06463Y66828D02*
X05856Y66828D01*
X05856Y66706D01*
X06463Y66828D02*
X06159Y65736D01*
X07052Y65736D02*
X07052Y66464D01*
X07599Y66464D01*
X07625Y66462D01*
X07650Y66457D01*
X07675Y66448D01*
X07697Y66435D01*
X07718Y66420D01*
X07737Y66401D01*
X07752Y66380D01*
X07765Y66358D01*
X07774Y66333D01*
X07779Y66308D01*
X07781Y66282D01*
X07781Y65736D01*
X07417Y65736D02*
X07417Y66464D01*
X08424Y66464D02*
X08970Y66464D01*
X08788Y66464D02*
X08788Y65736D01*
X08424Y65736D02*
X08424Y66464D01*
X08970Y66464D02*
X08996Y66462D01*
X09021Y66457D01*
X09046Y66448D01*
X09068Y66435D01*
X09089Y66420D01*
X09108Y66401D01*
X09123Y66380D01*
X09136Y66358D01*
X09145Y66333D01*
X09150Y66308D01*
X09152Y66282D01*
X09152Y65736D01*
X06463Y43228D02*
X05856Y43228D01*
X05856Y43106D01*
X06463Y43228D02*
X06159Y42136D01*
X07052Y42136D02*
X07052Y42864D01*
X07599Y42864D01*
X07625Y42862D01*
X07650Y42857D01*
X07675Y42848D01*
X07697Y42835D01*
X07718Y42820D01*
X07737Y42801D01*
X07752Y42780D01*
X07765Y42758D01*
X07774Y42733D01*
X07779Y42708D01*
X07781Y42682D01*
X07781Y42136D01*
X07417Y42136D02*
X07417Y42864D01*
X08424Y42864D02*
X08424Y42136D01*
X08788Y42136D02*
X08788Y42864D01*
X08970Y42864D02*
X08424Y42864D01*
X08970Y42864D02*
X08996Y42862D01*
X09021Y42857D01*
X09046Y42848D01*
X09068Y42835D01*
X09089Y42820D01*
X09108Y42801D01*
X09123Y42780D01*
X09136Y42758D01*
X09145Y42733D01*
X09150Y42708D01*
X09152Y42682D01*
X09152Y42136D01*
X06463Y19528D02*
X05856Y19528D01*
X05856Y19406D01*
X06463Y19528D02*
X06159Y18436D01*
X07052Y18436D02*
X07052Y19164D01*
X07599Y19164D01*
X07625Y19162D01*
X07650Y19157D01*
X07675Y19148D01*
X07697Y19135D01*
X07718Y19120D01*
X07737Y19101D01*
X07752Y19080D01*
X07765Y19058D01*
X07774Y19033D01*
X07779Y19008D01*
X07781Y18982D01*
X07781Y18436D01*
X07417Y18436D02*
X07417Y19164D01*
X08424Y19164D02*
X08424Y18436D01*
X08788Y18436D02*
X08788Y19164D01*
X08970Y19164D02*
X08424Y19164D01*
X08970Y19164D02*
X08996Y19162D01*
X09021Y19157D01*
X09046Y19148D01*
X09068Y19135D01*
X09089Y19120D01*
X09108Y19101D01*
X09123Y19080D01*
X09136Y19058D01*
X09145Y19033D01*
X09150Y19008D01*
X09152Y18982D01*
X09152Y18436D01*
D12*
X10990Y16729D02*
X10997Y16668D01*
X11000Y16607D01*
X10999Y16546D01*
X10995Y16485D01*
X10987Y16424D01*
X10976Y16364D01*
X10961Y16305D01*
X10942Y16246D01*
X10920Y16189D01*
X10894Y16134D01*
X10866Y16080D01*
X10834Y16028D01*
X10798Y15978D01*
X10760Y15930D01*
X10719Y15885D01*
X10676Y15842D01*
X10630Y15802D01*
X10581Y15764D01*
X10531Y15730D01*
X10478Y15699D01*
X10424Y15671D01*
X10368Y15646D01*
X10311Y15625D01*
X10252Y15607D01*
X10193Y15593D01*
X10133Y15582D01*
X10133Y15583D02*
X07490Y15583D01*
X04971Y15583D01*
X04906Y15593D01*
X04842Y15608D01*
X04779Y15626D01*
X04717Y15648D01*
X04656Y15674D01*
X04597Y15703D01*
X04540Y15735D01*
X04485Y15771D01*
X04432Y15810D01*
X04381Y15851D01*
X04333Y15896D01*
X04287Y15943D01*
X04245Y15993D01*
X04205Y16046D01*
X04168Y16100D01*
X04135Y16157D01*
X04105Y16216D01*
X04078Y16276D01*
X04055Y16337D01*
X04036Y16400D01*
X04020Y16464D01*
X04008Y16529D01*
X04000Y16594D01*
X03996Y16659D01*
X03995Y16725D01*
X03998Y16791D01*
X04006Y16856D01*
X04006Y19221D01*
X04006Y21221D01*
X05125Y22494D02*
X07748Y22494D01*
X09830Y22494D01*
X09891Y22502D01*
X09952Y22506D01*
X10013Y22507D01*
X10074Y22504D01*
X10134Y22497D01*
X10195Y22486D01*
X10254Y22472D01*
X10313Y22455D01*
X10370Y22433D01*
X10426Y22409D01*
X10480Y22381D01*
X10533Y22350D01*
X10584Y22315D01*
X10632Y22278D01*
X10678Y22238D01*
X10722Y22195D01*
X10763Y22150D01*
X10801Y22102D01*
X10836Y22052D01*
X10868Y22000D01*
X10897Y21946D01*
X10923Y21891D01*
X10945Y21834D01*
X10963Y21775D01*
X10979Y21716D01*
X10990Y21656D01*
X10990Y19383D01*
X10990Y16729D01*
X08006Y15673D02*
X07752Y15673D01*
X04006Y19220D02*
X04016Y19338D01*
X04029Y19454D01*
X04047Y19570D01*
X04068Y19686D01*
X04094Y19801D01*
X04123Y19914D01*
X04156Y20027D01*
X04192Y20139D01*
X04233Y20249D01*
X04277Y20358D01*
X04324Y20465D01*
X04376Y20571D01*
X04430Y20675D01*
X04489Y20777D01*
X04550Y20877D01*
X04615Y20975D01*
X04683Y21071D01*
X04754Y21164D01*
X04829Y21255D01*
X04906Y21344D01*
X04986Y21429D01*
X05069Y21512D01*
X05155Y21593D01*
X05243Y21670D01*
X05334Y21744D01*
X05428Y21816D01*
X05523Y21884D01*
X05621Y21949D01*
X05721Y22010D01*
X05823Y22068D01*
X05927Y22123D01*
X06033Y22174D01*
X06141Y22222D01*
X06249Y22266D01*
X06360Y22306D01*
X06471Y22343D01*
X06584Y22376D01*
X06698Y22405D01*
X06813Y22431D01*
X06928Y22452D01*
X07044Y22470D01*
X07161Y22483D01*
X07278Y22493D01*
X07395Y22499D01*
X07513Y22501D01*
X07630Y22499D01*
X07747Y22493D01*
X07748Y22493D02*
X07858Y22494D01*
X07969Y22490D01*
X08080Y22483D01*
X08190Y22472D01*
X08300Y22456D01*
X08409Y22438D01*
X08518Y22415D01*
X08626Y22388D01*
X08732Y22358D01*
X08838Y22324D01*
X08942Y22287D01*
X09045Y22245D01*
X09147Y22201D01*
X09246Y22152D01*
X09344Y22101D01*
X09441Y22045D01*
X09535Y21987D01*
X09627Y21925D01*
X09717Y21860D01*
X09805Y21792D01*
X09890Y21721D01*
X09972Y21647D01*
X10052Y21571D01*
X10130Y21491D01*
X10204Y21409D01*
X10276Y21324D01*
X10344Y21237D01*
X10410Y21147D01*
X10472Y21056D01*
X10531Y20962D01*
X10587Y20866D01*
X10639Y20768D01*
X10688Y20669D01*
X10734Y20568D01*
X10775Y20465D01*
X10814Y20361D01*
X10848Y20255D01*
X10879Y20149D01*
X10906Y20041D01*
X10930Y19933D01*
X10949Y19824D01*
X10965Y19714D01*
X10977Y19604D01*
X10985Y19493D01*
X10989Y19382D01*
X07752Y15673D02*
X07637Y15667D01*
X07522Y15664D01*
X07408Y15665D01*
X07293Y15670D01*
X07178Y15679D01*
X07064Y15692D01*
X06950Y15708D01*
X06837Y15728D01*
X06725Y15752D01*
X06613Y15780D01*
X06503Y15811D01*
X06393Y15846D01*
X06285Y15885D01*
X06178Y15927D01*
X06073Y15973D01*
X05969Y16023D01*
X05867Y16075D01*
X05767Y16132D01*
X05669Y16191D01*
X05572Y16254D01*
X05478Y16320D01*
X05387Y16389D01*
X05297Y16461D01*
X05210Y16536D01*
X05126Y16614D01*
X05044Y16694D01*
X04965Y16778D01*
X04888Y16864D01*
X04815Y16952D01*
X04745Y17043D01*
X04677Y17136D01*
X04613Y17232D01*
X04552Y17329D01*
X04495Y17428D01*
X04441Y17530D01*
X04390Y17633D01*
X04342Y17737D01*
X04299Y17844D01*
X04258Y17951D01*
X04222Y18060D01*
X04189Y18170D01*
X04159Y18281D01*
X04134Y18393D01*
X04112Y18506D01*
X04094Y18620D01*
X04080Y18734D01*
X04069Y18848D01*
X04006Y21221D02*
X04004Y21288D01*
X04005Y21355D01*
X04010Y21422D01*
X04019Y21489D01*
X04032Y21555D01*
X04048Y21620D01*
X04068Y21684D01*
X04091Y21747D01*
X04118Y21809D01*
X04149Y21869D01*
X04182Y21927D01*
X04219Y21983D01*
X04259Y22037D01*
X04302Y22089D01*
X04348Y22138D01*
X04396Y22185D01*
X04447Y22228D01*
X04501Y22269D01*
X04556Y22307D01*
X04614Y22342D01*
X04673Y22373D01*
X04734Y22401D01*
X04797Y22425D01*
X04861Y22446D01*
X04926Y22464D01*
X04992Y22477D01*
X05058Y22487D01*
X05125Y22494D01*
X10990Y19383D02*
X10993Y19263D01*
X10992Y19144D01*
X10987Y19025D01*
X10978Y18905D01*
X10966Y18786D01*
X10949Y18668D01*
X10929Y18550D01*
X10904Y18433D01*
X10876Y18317D01*
X10844Y18202D01*
X10809Y18088D01*
X10769Y17975D01*
X10726Y17863D01*
X10680Y17753D01*
X10630Y17645D01*
X10576Y17538D01*
X10519Y17433D01*
X10458Y17330D01*
X10394Y17229D01*
X10327Y17130D01*
X10257Y17033D01*
X10183Y16939D01*
X10106Y16847D01*
X10027Y16758D01*
X09945Y16672D01*
X09859Y16588D01*
X09771Y16507D01*
X09681Y16429D01*
X09588Y16354D01*
X09493Y16282D01*
X09395Y16213D01*
X09295Y16147D01*
X09193Y16085D01*
X09089Y16026D01*
X08983Y15970D01*
X08875Y15918D01*
X08766Y15870D01*
X08655Y15825D01*
X08543Y15784D01*
X08430Y15746D01*
X08315Y15712D01*
X08199Y15682D01*
X08083Y15656D01*
X07965Y15634D01*
X07847Y15615D01*
X07728Y15601D01*
X07609Y15590D01*
X07490Y15583D01*
X07490Y39283D02*
X04971Y39283D01*
X04906Y39293D01*
X04842Y39308D01*
X04779Y39326D01*
X04717Y39348D01*
X04656Y39374D01*
X04597Y39403D01*
X04540Y39435D01*
X04485Y39471D01*
X04432Y39510D01*
X04381Y39551D01*
X04333Y39596D01*
X04287Y39643D01*
X04245Y39693D01*
X04205Y39746D01*
X04168Y39800D01*
X04135Y39857D01*
X04105Y39916D01*
X04078Y39976D01*
X04055Y40037D01*
X04036Y40100D01*
X04020Y40164D01*
X04008Y40229D01*
X04000Y40294D01*
X03996Y40359D01*
X03995Y40425D01*
X03998Y40491D01*
X04006Y40556D01*
X04006Y42921D01*
X04006Y44921D01*
X05125Y46194D02*
X07748Y46194D01*
X09830Y46194D01*
X09891Y46202D01*
X09952Y46206D01*
X10013Y46207D01*
X10074Y46204D01*
X10134Y46197D01*
X10195Y46186D01*
X10254Y46172D01*
X10313Y46155D01*
X10370Y46133D01*
X10426Y46109D01*
X10480Y46081D01*
X10533Y46050D01*
X10584Y46015D01*
X10632Y45978D01*
X10678Y45938D01*
X10722Y45895D01*
X10763Y45850D01*
X10801Y45802D01*
X10836Y45752D01*
X10868Y45700D01*
X10897Y45646D01*
X10923Y45591D01*
X10945Y45534D01*
X10963Y45475D01*
X10979Y45416D01*
X10990Y45356D01*
X10990Y43083D01*
X10990Y40429D01*
X10133Y39283D02*
X07490Y39283D01*
X07752Y39373D02*
X08006Y39373D01*
X04006Y42920D02*
X04016Y43038D01*
X04029Y43154D01*
X04047Y43270D01*
X04068Y43386D01*
X04094Y43501D01*
X04123Y43614D01*
X04156Y43727D01*
X04192Y43839D01*
X04233Y43949D01*
X04277Y44058D01*
X04324Y44165D01*
X04376Y44271D01*
X04430Y44375D01*
X04489Y44477D01*
X04550Y44577D01*
X04615Y44675D01*
X04683Y44771D01*
X04754Y44864D01*
X04829Y44955D01*
X04906Y45044D01*
X04986Y45129D01*
X05069Y45212D01*
X05155Y45293D01*
X05243Y45370D01*
X05334Y45444D01*
X05428Y45516D01*
X05523Y45584D01*
X05621Y45649D01*
X05721Y45710D01*
X05823Y45768D01*
X05927Y45823D01*
X06033Y45874D01*
X06141Y45922D01*
X06249Y45966D01*
X06360Y46006D01*
X06471Y46043D01*
X06584Y46076D01*
X06698Y46105D01*
X06813Y46131D01*
X06928Y46152D01*
X07044Y46170D01*
X07161Y46183D01*
X07278Y46193D01*
X07395Y46199D01*
X07513Y46201D01*
X07630Y46199D01*
X07747Y46193D01*
X07748Y46193D02*
X07858Y46194D01*
X07969Y46190D01*
X08080Y46183D01*
X08190Y46172D01*
X08300Y46156D01*
X08409Y46138D01*
X08518Y46115D01*
X08626Y46088D01*
X08732Y46058D01*
X08838Y46024D01*
X08942Y45987D01*
X09045Y45945D01*
X09147Y45901D01*
X09246Y45852D01*
X09344Y45801D01*
X09441Y45745D01*
X09535Y45687D01*
X09627Y45625D01*
X09717Y45560D01*
X09805Y45492D01*
X09890Y45421D01*
X09972Y45347D01*
X10052Y45271D01*
X10130Y45191D01*
X10204Y45109D01*
X10276Y45024D01*
X10344Y44937D01*
X10410Y44847D01*
X10472Y44756D01*
X10531Y44662D01*
X10587Y44566D01*
X10639Y44468D01*
X10688Y44369D01*
X10734Y44268D01*
X10775Y44165D01*
X10814Y44061D01*
X10848Y43955D01*
X10879Y43849D01*
X10906Y43741D01*
X10930Y43633D01*
X10949Y43524D01*
X10965Y43414D01*
X10977Y43304D01*
X10985Y43193D01*
X10989Y43082D01*
X10990Y40429D02*
X10997Y40368D01*
X11000Y40307D01*
X10999Y40246D01*
X10995Y40185D01*
X10987Y40124D01*
X10976Y40064D01*
X10961Y40005D01*
X10942Y39946D01*
X10920Y39889D01*
X10894Y39834D01*
X10866Y39780D01*
X10834Y39728D01*
X10798Y39678D01*
X10760Y39630D01*
X10719Y39585D01*
X10676Y39542D01*
X10630Y39502D01*
X10581Y39464D01*
X10531Y39430D01*
X10478Y39399D01*
X10424Y39371D01*
X10368Y39346D01*
X10311Y39325D01*
X10252Y39307D01*
X10193Y39293D01*
X10133Y39282D01*
X07752Y39373D02*
X07637Y39367D01*
X07522Y39364D01*
X07408Y39365D01*
X07293Y39370D01*
X07178Y39379D01*
X07064Y39392D01*
X06950Y39408D01*
X06837Y39428D01*
X06725Y39452D01*
X06613Y39480D01*
X06503Y39511D01*
X06393Y39546D01*
X06285Y39585D01*
X06178Y39627D01*
X06073Y39673D01*
X05969Y39723D01*
X05867Y39775D01*
X05767Y39832D01*
X05669Y39891D01*
X05572Y39954D01*
X05478Y40020D01*
X05387Y40089D01*
X05297Y40161D01*
X05210Y40236D01*
X05126Y40314D01*
X05044Y40394D01*
X04965Y40478D01*
X04888Y40564D01*
X04815Y40652D01*
X04745Y40743D01*
X04677Y40836D01*
X04613Y40932D01*
X04552Y41029D01*
X04495Y41128D01*
X04441Y41230D01*
X04390Y41333D01*
X04342Y41437D01*
X04299Y41544D01*
X04258Y41651D01*
X04222Y41760D01*
X04189Y41870D01*
X04159Y41981D01*
X04134Y42093D01*
X04112Y42206D01*
X04094Y42320D01*
X04080Y42434D01*
X04069Y42548D01*
X04006Y44921D02*
X04004Y44988D01*
X04005Y45055D01*
X04010Y45122D01*
X04019Y45189D01*
X04032Y45255D01*
X04048Y45320D01*
X04068Y45384D01*
X04091Y45447D01*
X04118Y45509D01*
X04149Y45569D01*
X04182Y45627D01*
X04219Y45683D01*
X04259Y45737D01*
X04302Y45789D01*
X04348Y45838D01*
X04396Y45885D01*
X04447Y45928D01*
X04501Y45969D01*
X04556Y46007D01*
X04614Y46042D01*
X04673Y46073D01*
X04734Y46101D01*
X04797Y46125D01*
X04861Y46146D01*
X04926Y46164D01*
X04992Y46177D01*
X05058Y46187D01*
X05125Y46194D01*
X10990Y43083D02*
X10993Y42963D01*
X10992Y42844D01*
X10987Y42725D01*
X10978Y42605D01*
X10966Y42486D01*
X10949Y42368D01*
X10929Y42250D01*
X10904Y42133D01*
X10876Y42017D01*
X10844Y41902D01*
X10809Y41788D01*
X10769Y41675D01*
X10726Y41563D01*
X10680Y41453D01*
X10630Y41345D01*
X10576Y41238D01*
X10519Y41133D01*
X10458Y41030D01*
X10394Y40929D01*
X10327Y40830D01*
X10257Y40733D01*
X10183Y40639D01*
X10106Y40547D01*
X10027Y40458D01*
X09945Y40372D01*
X09859Y40288D01*
X09771Y40207D01*
X09681Y40129D01*
X09588Y40054D01*
X09493Y39982D01*
X09395Y39913D01*
X09295Y39847D01*
X09193Y39785D01*
X09089Y39726D01*
X08983Y39670D01*
X08875Y39618D01*
X08766Y39570D01*
X08655Y39525D01*
X08543Y39484D01*
X08430Y39446D01*
X08315Y39412D01*
X08199Y39382D01*
X08083Y39356D01*
X07965Y39334D01*
X07847Y39315D01*
X07728Y39301D01*
X07609Y39290D01*
X07490Y39283D01*
X07490Y62883D02*
X04971Y62883D01*
X04906Y62893D01*
X04842Y62908D01*
X04779Y62926D01*
X04717Y62948D01*
X04656Y62974D01*
X04597Y63003D01*
X04540Y63035D01*
X04485Y63071D01*
X04432Y63110D01*
X04381Y63151D01*
X04333Y63196D01*
X04287Y63243D01*
X04245Y63293D01*
X04205Y63346D01*
X04168Y63400D01*
X04135Y63457D01*
X04105Y63516D01*
X04078Y63576D01*
X04055Y63637D01*
X04036Y63700D01*
X04020Y63764D01*
X04008Y63829D01*
X04000Y63894D01*
X03996Y63959D01*
X03995Y64025D01*
X03998Y64091D01*
X04006Y64156D01*
X04006Y66521D01*
X04006Y68521D01*
X05125Y69794D02*
X07748Y69794D01*
X09830Y69794D01*
X09891Y69802D01*
X09952Y69806D01*
X10013Y69807D01*
X10074Y69804D01*
X10134Y69797D01*
X10195Y69786D01*
X10254Y69772D01*
X10313Y69755D01*
X10370Y69733D01*
X10426Y69709D01*
X10480Y69681D01*
X10533Y69650D01*
X10584Y69615D01*
X10632Y69578D01*
X10678Y69538D01*
X10722Y69495D01*
X10763Y69450D01*
X10801Y69402D01*
X10836Y69352D01*
X10868Y69300D01*
X10897Y69246D01*
X10923Y69191D01*
X10945Y69134D01*
X10963Y69075D01*
X10979Y69016D01*
X10990Y68956D01*
X10990Y66683D01*
X10990Y64029D01*
X10133Y62883D02*
X07490Y62883D01*
X07752Y62973D02*
X08006Y62973D01*
X04006Y66520D02*
X04016Y66638D01*
X04029Y66754D01*
X04047Y66870D01*
X04068Y66986D01*
X04094Y67101D01*
X04123Y67214D01*
X04156Y67327D01*
X04192Y67439D01*
X04233Y67549D01*
X04277Y67658D01*
X04324Y67765D01*
X04376Y67871D01*
X04430Y67975D01*
X04489Y68077D01*
X04550Y68177D01*
X04615Y68275D01*
X04683Y68371D01*
X04754Y68464D01*
X04829Y68555D01*
X04906Y68644D01*
X04986Y68729D01*
X05069Y68812D01*
X05155Y68893D01*
X05243Y68970D01*
X05334Y69044D01*
X05428Y69116D01*
X05523Y69184D01*
X05621Y69249D01*
X05721Y69310D01*
X05823Y69368D01*
X05927Y69423D01*
X06033Y69474D01*
X06141Y69522D01*
X06249Y69566D01*
X06360Y69606D01*
X06471Y69643D01*
X06584Y69676D01*
X06698Y69705D01*
X06813Y69731D01*
X06928Y69752D01*
X07044Y69770D01*
X07161Y69783D01*
X07278Y69793D01*
X07395Y69799D01*
X07513Y69801D01*
X07630Y69799D01*
X07747Y69793D01*
X07748Y69793D02*
X07858Y69794D01*
X07969Y69790D01*
X08080Y69783D01*
X08190Y69772D01*
X08300Y69756D01*
X08409Y69738D01*
X08518Y69715D01*
X08626Y69688D01*
X08732Y69658D01*
X08838Y69624D01*
X08942Y69587D01*
X09045Y69545D01*
X09147Y69501D01*
X09246Y69452D01*
X09344Y69401D01*
X09441Y69345D01*
X09535Y69287D01*
X09627Y69225D01*
X09717Y69160D01*
X09805Y69092D01*
X09890Y69021D01*
X09972Y68947D01*
X10052Y68871D01*
X10130Y68791D01*
X10204Y68709D01*
X10276Y68624D01*
X10344Y68537D01*
X10410Y68447D01*
X10472Y68356D01*
X10531Y68262D01*
X10587Y68166D01*
X10639Y68068D01*
X10688Y67969D01*
X10734Y67868D01*
X10775Y67765D01*
X10814Y67661D01*
X10848Y67555D01*
X10879Y67449D01*
X10906Y67341D01*
X10930Y67233D01*
X10949Y67124D01*
X10965Y67014D01*
X10977Y66904D01*
X10985Y66793D01*
X10989Y66682D01*
X10990Y64029D02*
X10997Y63968D01*
X11000Y63907D01*
X10999Y63846D01*
X10995Y63785D01*
X10987Y63724D01*
X10976Y63664D01*
X10961Y63605D01*
X10942Y63546D01*
X10920Y63489D01*
X10894Y63434D01*
X10866Y63380D01*
X10834Y63328D01*
X10798Y63278D01*
X10760Y63230D01*
X10719Y63185D01*
X10676Y63142D01*
X10630Y63102D01*
X10581Y63064D01*
X10531Y63030D01*
X10478Y62999D01*
X10424Y62971D01*
X10368Y62946D01*
X10311Y62925D01*
X10252Y62907D01*
X10193Y62893D01*
X10133Y62882D01*
X07752Y62973D02*
X07637Y62967D01*
X07522Y62964D01*
X07408Y62965D01*
X07293Y62970D01*
X07178Y62979D01*
X07064Y62992D01*
X06950Y63008D01*
X06837Y63028D01*
X06725Y63052D01*
X06613Y63080D01*
X06503Y63111D01*
X06393Y63146D01*
X06285Y63185D01*
X06178Y63227D01*
X06073Y63273D01*
X05969Y63323D01*
X05867Y63375D01*
X05767Y63432D01*
X05669Y63491D01*
X05572Y63554D01*
X05478Y63620D01*
X05387Y63689D01*
X05297Y63761D01*
X05210Y63836D01*
X05126Y63914D01*
X05044Y63994D01*
X04965Y64078D01*
X04888Y64164D01*
X04815Y64252D01*
X04745Y64343D01*
X04677Y64436D01*
X04613Y64532D01*
X04552Y64629D01*
X04495Y64728D01*
X04441Y64830D01*
X04390Y64933D01*
X04342Y65037D01*
X04299Y65144D01*
X04258Y65251D01*
X04222Y65360D01*
X04189Y65470D01*
X04159Y65581D01*
X04134Y65693D01*
X04112Y65806D01*
X04094Y65920D01*
X04080Y66034D01*
X04069Y66148D01*
X04006Y68521D02*
X04004Y68588D01*
X04005Y68655D01*
X04010Y68722D01*
X04019Y68789D01*
X04032Y68855D01*
X04048Y68920D01*
X04068Y68984D01*
X04091Y69047D01*
X04118Y69109D01*
X04149Y69169D01*
X04182Y69227D01*
X04219Y69283D01*
X04259Y69337D01*
X04302Y69389D01*
X04348Y69438D01*
X04396Y69485D01*
X04447Y69528D01*
X04501Y69569D01*
X04556Y69607D01*
X04614Y69642D01*
X04673Y69673D01*
X04734Y69701D01*
X04797Y69725D01*
X04861Y69746D01*
X04926Y69764D01*
X04992Y69777D01*
X05058Y69787D01*
X05125Y69794D01*
X10990Y66683D02*
X10993Y66563D01*
X10992Y66444D01*
X10987Y66325D01*
X10978Y66205D01*
X10966Y66086D01*
X10949Y65968D01*
X10929Y65850D01*
X10904Y65733D01*
X10876Y65617D01*
X10844Y65502D01*
X10809Y65388D01*
X10769Y65275D01*
X10726Y65163D01*
X10680Y65053D01*
X10630Y64945D01*
X10576Y64838D01*
X10519Y64733D01*
X10458Y64630D01*
X10394Y64529D01*
X10327Y64430D01*
X10257Y64333D01*
X10183Y64239D01*
X10106Y64147D01*
X10027Y64058D01*
X09945Y63972D01*
X09859Y63888D01*
X09771Y63807D01*
X09681Y63729D01*
X09588Y63654D01*
X09493Y63582D01*
X09395Y63513D01*
X09295Y63447D01*
X09193Y63385D01*
X09089Y63326D01*
X08983Y63270D01*
X08875Y63218D01*
X08766Y63170D01*
X08655Y63125D01*
X08543Y63084D01*
X08430Y63046D01*
X08315Y63012D01*
X08199Y62982D01*
X08083Y62956D01*
X07965Y62934D01*
X07847Y62915D01*
X07728Y62901D01*
X07609Y62890D01*
X07490Y62883D01*
X07390Y86583D02*
X04871Y86583D01*
X04806Y86593D01*
X04742Y86608D01*
X04679Y86626D01*
X04617Y86648D01*
X04556Y86674D01*
X04497Y86703D01*
X04440Y86735D01*
X04385Y86771D01*
X04332Y86810D01*
X04281Y86851D01*
X04233Y86896D01*
X04187Y86943D01*
X04145Y86993D01*
X04105Y87046D01*
X04068Y87100D01*
X04035Y87157D01*
X04005Y87216D01*
X03978Y87276D01*
X03955Y87337D01*
X03936Y87400D01*
X03920Y87464D01*
X03908Y87529D01*
X03900Y87594D01*
X03896Y87659D01*
X03895Y87725D01*
X03898Y87791D01*
X03906Y87856D01*
X03906Y90221D01*
X03906Y92221D01*
X03904Y92288D01*
X03905Y92355D01*
X03910Y92422D01*
X03919Y92489D01*
X03932Y92555D01*
X03948Y92620D01*
X03968Y92684D01*
X03991Y92747D01*
X04018Y92809D01*
X04049Y92869D01*
X04082Y92927D01*
X04119Y92983D01*
X04159Y93037D01*
X04202Y93089D01*
X04248Y93138D01*
X04296Y93185D01*
X04347Y93228D01*
X04401Y93269D01*
X04456Y93307D01*
X04514Y93342D01*
X04573Y93373D01*
X04634Y93401D01*
X04697Y93425D01*
X04761Y93446D01*
X04826Y93464D01*
X04892Y93477D01*
X04958Y93487D01*
X05025Y93494D01*
X07648Y93494D01*
X09730Y93494D01*
X09791Y93502D01*
X09852Y93506D01*
X09913Y93507D01*
X09974Y93504D01*
X10034Y93497D01*
X10095Y93486D01*
X10154Y93472D01*
X10213Y93455D01*
X10270Y93433D01*
X10326Y93409D01*
X10380Y93381D01*
X10433Y93350D01*
X10484Y93315D01*
X10532Y93278D01*
X10578Y93238D01*
X10622Y93195D01*
X10663Y93150D01*
X10701Y93102D01*
X10736Y93052D01*
X10768Y93000D01*
X10797Y92946D01*
X10823Y92891D01*
X10845Y92834D01*
X10863Y92775D01*
X10879Y92716D01*
X10890Y92656D01*
X10890Y90383D01*
X10890Y87729D01*
X10897Y87668D01*
X10900Y87607D01*
X10899Y87546D01*
X10895Y87485D01*
X10887Y87424D01*
X10876Y87364D01*
X10861Y87305D01*
X10842Y87246D01*
X10820Y87189D01*
X10794Y87134D01*
X10766Y87080D01*
X10734Y87028D01*
X10698Y86978D01*
X10660Y86930D01*
X10619Y86885D01*
X10576Y86842D01*
X10530Y86802D01*
X10481Y86764D01*
X10431Y86730D01*
X10378Y86699D01*
X10324Y86671D01*
X10268Y86646D01*
X10211Y86625D01*
X10152Y86607D01*
X10093Y86593D01*
X10033Y86582D01*
X10033Y86583D02*
X07390Y86583D01*
X07652Y86673D02*
X07906Y86673D01*
X03906Y90220D02*
X03916Y90338D01*
X03929Y90454D01*
X03947Y90570D01*
X03968Y90686D01*
X03994Y90801D01*
X04023Y90914D01*
X04056Y91027D01*
X04092Y91139D01*
X04133Y91249D01*
X04177Y91358D01*
X04224Y91465D01*
X04276Y91571D01*
X04330Y91675D01*
X04389Y91777D01*
X04450Y91877D01*
X04515Y91975D01*
X04583Y92071D01*
X04654Y92164D01*
X04729Y92255D01*
X04806Y92344D01*
X04886Y92429D01*
X04969Y92512D01*
X05055Y92593D01*
X05143Y92670D01*
X05234Y92744D01*
X05328Y92816D01*
X05423Y92884D01*
X05521Y92949D01*
X05621Y93010D01*
X05723Y93068D01*
X05827Y93123D01*
X05933Y93174D01*
X06041Y93222D01*
X06149Y93266D01*
X06260Y93306D01*
X06371Y93343D01*
X06484Y93376D01*
X06598Y93405D01*
X06713Y93431D01*
X06828Y93452D01*
X06944Y93470D01*
X07061Y93483D01*
X07178Y93493D01*
X07295Y93499D01*
X07413Y93501D01*
X07530Y93499D01*
X07647Y93493D01*
X07648Y93493D02*
X07758Y93494D01*
X07869Y93490D01*
X07980Y93483D01*
X08090Y93472D01*
X08200Y93456D01*
X08309Y93438D01*
X08418Y93415D01*
X08526Y93388D01*
X08632Y93358D01*
X08738Y93324D01*
X08842Y93287D01*
X08945Y93245D01*
X09047Y93201D01*
X09146Y93152D01*
X09244Y93101D01*
X09341Y93045D01*
X09435Y92987D01*
X09527Y92925D01*
X09617Y92860D01*
X09705Y92792D01*
X09790Y92721D01*
X09872Y92647D01*
X09952Y92571D01*
X10030Y92491D01*
X10104Y92409D01*
X10176Y92324D01*
X10244Y92237D01*
X10310Y92147D01*
X10372Y92056D01*
X10431Y91962D01*
X10487Y91866D01*
X10539Y91768D01*
X10588Y91669D01*
X10634Y91568D01*
X10675Y91465D01*
X10714Y91361D01*
X10748Y91255D01*
X10779Y91149D01*
X10806Y91041D01*
X10830Y90933D01*
X10849Y90824D01*
X10865Y90714D01*
X10877Y90604D01*
X10885Y90493D01*
X10889Y90382D01*
X07652Y86673D02*
X07537Y86667D01*
X07422Y86664D01*
X07308Y86665D01*
X07193Y86670D01*
X07078Y86679D01*
X06964Y86692D01*
X06850Y86708D01*
X06737Y86728D01*
X06625Y86752D01*
X06513Y86780D01*
X06403Y86811D01*
X06293Y86846D01*
X06185Y86885D01*
X06078Y86927D01*
X05973Y86973D01*
X05869Y87023D01*
X05767Y87075D01*
X05667Y87132D01*
X05569Y87191D01*
X05472Y87254D01*
X05378Y87320D01*
X05287Y87389D01*
X05197Y87461D01*
X05110Y87536D01*
X05026Y87614D01*
X04944Y87694D01*
X04865Y87778D01*
X04788Y87864D01*
X04715Y87952D01*
X04645Y88043D01*
X04577Y88136D01*
X04513Y88232D01*
X04452Y88329D01*
X04395Y88428D01*
X04341Y88530D01*
X04290Y88633D01*
X04242Y88737D01*
X04199Y88844D01*
X04158Y88951D01*
X04122Y89060D01*
X04089Y89170D01*
X04059Y89281D01*
X04034Y89393D01*
X04012Y89506D01*
X03994Y89620D01*
X03980Y89734D01*
X03969Y89848D01*
X07390Y86583D02*
X07509Y86590D01*
X07628Y86601D01*
X07747Y86615D01*
X07865Y86634D01*
X07983Y86656D01*
X08099Y86682D01*
X08215Y86712D01*
X08330Y86746D01*
X08443Y86784D01*
X08555Y86825D01*
X08666Y86870D01*
X08775Y86918D01*
X08883Y86970D01*
X08989Y87026D01*
X09093Y87085D01*
X09195Y87147D01*
X09295Y87213D01*
X09393Y87282D01*
X09488Y87354D01*
X09581Y87429D01*
X09671Y87507D01*
X09759Y87588D01*
X09845Y87672D01*
X09927Y87758D01*
X10006Y87847D01*
X10083Y87939D01*
X10157Y88033D01*
X10227Y88130D01*
X10294Y88229D01*
X10358Y88330D01*
X10419Y88433D01*
X10476Y88538D01*
X10530Y88645D01*
X10580Y88753D01*
X10626Y88863D01*
X10669Y88975D01*
X10709Y89088D01*
X10744Y89202D01*
X10776Y89317D01*
X10804Y89433D01*
X10829Y89550D01*
X10849Y89668D01*
X10866Y89786D01*
X10878Y89905D01*
X10887Y90025D01*
X10892Y90144D01*
X10893Y90263D01*
X10890Y90383D01*
X22006Y90221D02*
X22006Y87856D01*
X22006Y90221D02*
X22006Y92221D01*
X22004Y92288D01*
X22005Y92355D01*
X22010Y92422D01*
X22019Y92489D01*
X22032Y92555D01*
X22048Y92620D01*
X22068Y92684D01*
X22091Y92747D01*
X22118Y92809D01*
X22149Y92869D01*
X22182Y92927D01*
X22219Y92983D01*
X22259Y93037D01*
X22302Y93089D01*
X22348Y93138D01*
X22396Y93185D01*
X22447Y93228D01*
X22501Y93269D01*
X22556Y93307D01*
X22614Y93342D01*
X22673Y93373D01*
X22734Y93401D01*
X22797Y93425D01*
X22861Y93446D01*
X22926Y93464D01*
X22992Y93477D01*
X23058Y93487D01*
X23125Y93494D01*
X25748Y93494D01*
X27830Y93494D01*
X27891Y93502D01*
X27952Y93506D01*
X28013Y93507D01*
X28074Y93504D01*
X28134Y93497D01*
X28195Y93486D01*
X28254Y93472D01*
X28313Y93455D01*
X28370Y93433D01*
X28426Y93409D01*
X28480Y93381D01*
X28533Y93350D01*
X28584Y93315D01*
X28632Y93278D01*
X28678Y93238D01*
X28722Y93195D01*
X28763Y93150D01*
X28801Y93102D01*
X28836Y93052D01*
X28868Y93000D01*
X28897Y92946D01*
X28923Y92891D01*
X28945Y92834D01*
X28963Y92775D01*
X28979Y92716D01*
X28990Y92656D01*
X28990Y90383D01*
X28990Y87729D01*
X28997Y87668D01*
X29000Y87607D01*
X28999Y87546D01*
X28995Y87485D01*
X28987Y87424D01*
X28976Y87364D01*
X28961Y87305D01*
X28942Y87246D01*
X28920Y87189D01*
X28894Y87134D01*
X28866Y87080D01*
X28834Y87028D01*
X28798Y86978D01*
X28760Y86930D01*
X28719Y86885D01*
X28676Y86842D01*
X28630Y86802D01*
X28581Y86764D01*
X28531Y86730D01*
X28478Y86699D01*
X28424Y86671D01*
X28368Y86646D01*
X28311Y86625D01*
X28252Y86607D01*
X28193Y86593D01*
X28133Y86582D01*
X28133Y86583D02*
X25490Y86583D01*
X22971Y86583D01*
X22906Y86593D01*
X22842Y86608D01*
X22779Y86626D01*
X22717Y86648D01*
X22656Y86674D01*
X22597Y86703D01*
X22540Y86735D01*
X22485Y86771D01*
X22432Y86810D01*
X22381Y86851D01*
X22333Y86896D01*
X22287Y86943D01*
X22245Y86993D01*
X22205Y87046D01*
X22168Y87100D01*
X22135Y87157D01*
X22105Y87216D01*
X22078Y87276D01*
X22055Y87337D01*
X22036Y87400D01*
X22020Y87464D01*
X22008Y87529D01*
X22000Y87594D01*
X21996Y87659D01*
X21995Y87725D01*
X21998Y87791D01*
X22006Y87856D01*
X25490Y86583D02*
X25609Y86590D01*
X25728Y86601D01*
X25847Y86615D01*
X25965Y86634D01*
X26083Y86656D01*
X26199Y86682D01*
X26315Y86712D01*
X26430Y86746D01*
X26543Y86784D01*
X26655Y86825D01*
X26766Y86870D01*
X26875Y86918D01*
X26983Y86970D01*
X27089Y87026D01*
X27193Y87085D01*
X27295Y87147D01*
X27395Y87213D01*
X27493Y87282D01*
X27588Y87354D01*
X27681Y87429D01*
X27771Y87507D01*
X27859Y87588D01*
X27945Y87672D01*
X28027Y87758D01*
X28106Y87847D01*
X28183Y87939D01*
X28257Y88033D01*
X28327Y88130D01*
X28394Y88229D01*
X28458Y88330D01*
X28519Y88433D01*
X28576Y88538D01*
X28630Y88645D01*
X28680Y88753D01*
X28726Y88863D01*
X28769Y88975D01*
X28809Y89088D01*
X28844Y89202D01*
X28876Y89317D01*
X28904Y89433D01*
X28929Y89550D01*
X28949Y89668D01*
X28966Y89786D01*
X28978Y89905D01*
X28987Y90025D01*
X28992Y90144D01*
X28993Y90263D01*
X28990Y90383D01*
X26006Y86673D02*
X25752Y86673D01*
X22006Y90220D02*
X22016Y90338D01*
X22029Y90454D01*
X22047Y90570D01*
X22068Y90686D01*
X22094Y90801D01*
X22123Y90914D01*
X22156Y91027D01*
X22192Y91139D01*
X22233Y91249D01*
X22277Y91358D01*
X22324Y91465D01*
X22376Y91571D01*
X22430Y91675D01*
X22489Y91777D01*
X22550Y91877D01*
X22615Y91975D01*
X22683Y92071D01*
X22754Y92164D01*
X22829Y92255D01*
X22906Y92344D01*
X22986Y92429D01*
X23069Y92512D01*
X23155Y92593D01*
X23243Y92670D01*
X23334Y92744D01*
X23428Y92816D01*
X23523Y92884D01*
X23621Y92949D01*
X23721Y93010D01*
X23823Y93068D01*
X23927Y93123D01*
X24033Y93174D01*
X24141Y93222D01*
X24249Y93266D01*
X24360Y93306D01*
X24471Y93343D01*
X24584Y93376D01*
X24698Y93405D01*
X24813Y93431D01*
X24928Y93452D01*
X25044Y93470D01*
X25161Y93483D01*
X25278Y93493D01*
X25395Y93499D01*
X25513Y93501D01*
X25630Y93499D01*
X25747Y93493D01*
X25748Y93493D02*
X25858Y93494D01*
X25969Y93490D01*
X26080Y93483D01*
X26190Y93472D01*
X26300Y93456D01*
X26409Y93438D01*
X26518Y93415D01*
X26626Y93388D01*
X26732Y93358D01*
X26838Y93324D01*
X26942Y93287D01*
X27045Y93245D01*
X27147Y93201D01*
X27246Y93152D01*
X27344Y93101D01*
X27441Y93045D01*
X27535Y92987D01*
X27627Y92925D01*
X27717Y92860D01*
X27805Y92792D01*
X27890Y92721D01*
X27972Y92647D01*
X28052Y92571D01*
X28130Y92491D01*
X28204Y92409D01*
X28276Y92324D01*
X28344Y92237D01*
X28410Y92147D01*
X28472Y92056D01*
X28531Y91962D01*
X28587Y91866D01*
X28639Y91768D01*
X28688Y91669D01*
X28734Y91568D01*
X28775Y91465D01*
X28814Y91361D01*
X28848Y91255D01*
X28879Y91149D01*
X28906Y91041D01*
X28930Y90933D01*
X28949Y90824D01*
X28965Y90714D01*
X28977Y90604D01*
X28985Y90493D01*
X28989Y90382D01*
X25752Y86673D02*
X25637Y86667D01*
X25522Y86664D01*
X25408Y86665D01*
X25293Y86670D01*
X25178Y86679D01*
X25064Y86692D01*
X24950Y86708D01*
X24837Y86728D01*
X24725Y86752D01*
X24613Y86780D01*
X24503Y86811D01*
X24393Y86846D01*
X24285Y86885D01*
X24178Y86927D01*
X24073Y86973D01*
X23969Y87023D01*
X23867Y87075D01*
X23767Y87132D01*
X23669Y87191D01*
X23572Y87254D01*
X23478Y87320D01*
X23387Y87389D01*
X23297Y87461D01*
X23210Y87536D01*
X23126Y87614D01*
X23044Y87694D01*
X22965Y87778D01*
X22888Y87864D01*
X22815Y87952D01*
X22745Y88043D01*
X22677Y88136D01*
X22613Y88232D01*
X22552Y88329D01*
X22495Y88428D01*
X22441Y88530D01*
X22390Y88633D01*
X22342Y88737D01*
X22299Y88844D01*
X22258Y88951D01*
X22222Y89060D01*
X22189Y89170D01*
X22159Y89281D01*
X22134Y89393D01*
X22112Y89506D01*
X22094Y89620D01*
X22080Y89734D01*
X22069Y89848D01*
X23125Y69794D02*
X25748Y69794D01*
X27830Y69794D01*
X27891Y69802D01*
X27952Y69806D01*
X28013Y69807D01*
X28074Y69804D01*
X28134Y69797D01*
X28195Y69786D01*
X28254Y69772D01*
X28313Y69755D01*
X28370Y69733D01*
X28426Y69709D01*
X28480Y69681D01*
X28533Y69650D01*
X28584Y69615D01*
X28632Y69578D01*
X28678Y69538D01*
X28722Y69495D01*
X28763Y69450D01*
X28801Y69402D01*
X28836Y69352D01*
X28868Y69300D01*
X28897Y69246D01*
X28923Y69191D01*
X28945Y69134D01*
X28963Y69075D01*
X28979Y69016D01*
X28990Y68956D01*
X28990Y66683D01*
X28990Y64029D01*
X28997Y63968D01*
X29000Y63907D01*
X28999Y63846D01*
X28995Y63785D01*
X28987Y63724D01*
X28976Y63664D01*
X28961Y63605D01*
X28942Y63546D01*
X28920Y63489D01*
X28894Y63434D01*
X28866Y63380D01*
X28834Y63328D01*
X28798Y63278D01*
X28760Y63230D01*
X28719Y63185D01*
X28676Y63142D01*
X28630Y63102D01*
X28581Y63064D01*
X28531Y63030D01*
X28478Y62999D01*
X28424Y62971D01*
X28368Y62946D01*
X28311Y62925D01*
X28252Y62907D01*
X28193Y62893D01*
X28133Y62882D01*
X28133Y62883D02*
X25490Y62883D01*
X22971Y62883D01*
X22906Y62893D01*
X22842Y62908D01*
X22779Y62926D01*
X22717Y62948D01*
X22656Y62974D01*
X22597Y63003D01*
X22540Y63035D01*
X22485Y63071D01*
X22432Y63110D01*
X22381Y63151D01*
X22333Y63196D01*
X22287Y63243D01*
X22245Y63293D01*
X22205Y63346D01*
X22168Y63400D01*
X22135Y63457D01*
X22105Y63516D01*
X22078Y63576D01*
X22055Y63637D01*
X22036Y63700D01*
X22020Y63764D01*
X22008Y63829D01*
X22000Y63894D01*
X21996Y63959D01*
X21995Y64025D01*
X21998Y64091D01*
X22006Y64156D01*
X22006Y66521D01*
X22006Y68521D01*
X22004Y68588D01*
X22005Y68655D01*
X22010Y68722D01*
X22019Y68789D01*
X22032Y68855D01*
X22048Y68920D01*
X22068Y68984D01*
X22091Y69047D01*
X22118Y69109D01*
X22149Y69169D01*
X22182Y69227D01*
X22219Y69283D01*
X22259Y69337D01*
X22302Y69389D01*
X22348Y69438D01*
X22396Y69485D01*
X22447Y69528D01*
X22501Y69569D01*
X22556Y69607D01*
X22614Y69642D01*
X22673Y69673D01*
X22734Y69701D01*
X22797Y69725D01*
X22861Y69746D01*
X22926Y69764D01*
X22992Y69777D01*
X23058Y69787D01*
X23125Y69794D01*
X28990Y66683D02*
X28993Y66563D01*
X28992Y66444D01*
X28987Y66325D01*
X28978Y66205D01*
X28966Y66086D01*
X28949Y65968D01*
X28929Y65850D01*
X28904Y65733D01*
X28876Y65617D01*
X28844Y65502D01*
X28809Y65388D01*
X28769Y65275D01*
X28726Y65163D01*
X28680Y65053D01*
X28630Y64945D01*
X28576Y64838D01*
X28519Y64733D01*
X28458Y64630D01*
X28394Y64529D01*
X28327Y64430D01*
X28257Y64333D01*
X28183Y64239D01*
X28106Y64147D01*
X28027Y64058D01*
X27945Y63972D01*
X27859Y63888D01*
X27771Y63807D01*
X27681Y63729D01*
X27588Y63654D01*
X27493Y63582D01*
X27395Y63513D01*
X27295Y63447D01*
X27193Y63385D01*
X27089Y63326D01*
X26983Y63270D01*
X26875Y63218D01*
X26766Y63170D01*
X26655Y63125D01*
X26543Y63084D01*
X26430Y63046D01*
X26315Y63012D01*
X26199Y62982D01*
X26083Y62956D01*
X25965Y62934D01*
X25847Y62915D01*
X25728Y62901D01*
X25609Y62890D01*
X25490Y62883D01*
X25752Y62973D02*
X26006Y62973D01*
X22006Y66520D02*
X22016Y66638D01*
X22029Y66754D01*
X22047Y66870D01*
X22068Y66986D01*
X22094Y67101D01*
X22123Y67214D01*
X22156Y67327D01*
X22192Y67439D01*
X22233Y67549D01*
X22277Y67658D01*
X22324Y67765D01*
X22376Y67871D01*
X22430Y67975D01*
X22489Y68077D01*
X22550Y68177D01*
X22615Y68275D01*
X22683Y68371D01*
X22754Y68464D01*
X22829Y68555D01*
X22906Y68644D01*
X22986Y68729D01*
X23069Y68812D01*
X23155Y68893D01*
X23243Y68970D01*
X23334Y69044D01*
X23428Y69116D01*
X23523Y69184D01*
X23621Y69249D01*
X23721Y69310D01*
X23823Y69368D01*
X23927Y69423D01*
X24033Y69474D01*
X24141Y69522D01*
X24249Y69566D01*
X24360Y69606D01*
X24471Y69643D01*
X24584Y69676D01*
X24698Y69705D01*
X24813Y69731D01*
X24928Y69752D01*
X25044Y69770D01*
X25161Y69783D01*
X25278Y69793D01*
X25395Y69799D01*
X25513Y69801D01*
X25630Y69799D01*
X25747Y69793D01*
X25748Y69793D02*
X25858Y69794D01*
X25969Y69790D01*
X26080Y69783D01*
X26190Y69772D01*
X26300Y69756D01*
X26409Y69738D01*
X26518Y69715D01*
X26626Y69688D01*
X26732Y69658D01*
X26838Y69624D01*
X26942Y69587D01*
X27045Y69545D01*
X27147Y69501D01*
X27246Y69452D01*
X27344Y69401D01*
X27441Y69345D01*
X27535Y69287D01*
X27627Y69225D01*
X27717Y69160D01*
X27805Y69092D01*
X27890Y69021D01*
X27972Y68947D01*
X28052Y68871D01*
X28130Y68791D01*
X28204Y68709D01*
X28276Y68624D01*
X28344Y68537D01*
X28410Y68447D01*
X28472Y68356D01*
X28531Y68262D01*
X28587Y68166D01*
X28639Y68068D01*
X28688Y67969D01*
X28734Y67868D01*
X28775Y67765D01*
X28814Y67661D01*
X28848Y67555D01*
X28879Y67449D01*
X28906Y67341D01*
X28930Y67233D01*
X28949Y67124D01*
X28965Y67014D01*
X28977Y66904D01*
X28985Y66793D01*
X28989Y66682D01*
X25752Y62973D02*
X25637Y62967D01*
X25522Y62964D01*
X25408Y62965D01*
X25293Y62970D01*
X25178Y62979D01*
X25064Y62992D01*
X24950Y63008D01*
X24837Y63028D01*
X24725Y63052D01*
X24613Y63080D01*
X24503Y63111D01*
X24393Y63146D01*
X24285Y63185D01*
X24178Y63227D01*
X24073Y63273D01*
X23969Y63323D01*
X23867Y63375D01*
X23767Y63432D01*
X23669Y63491D01*
X23572Y63554D01*
X23478Y63620D01*
X23387Y63689D01*
X23297Y63761D01*
X23210Y63836D01*
X23126Y63914D01*
X23044Y63994D01*
X22965Y64078D01*
X22888Y64164D01*
X22815Y64252D01*
X22745Y64343D01*
X22677Y64436D01*
X22613Y64532D01*
X22552Y64629D01*
X22495Y64728D01*
X22441Y64830D01*
X22390Y64933D01*
X22342Y65037D01*
X22299Y65144D01*
X22258Y65251D01*
X22222Y65360D01*
X22189Y65470D01*
X22159Y65581D01*
X22134Y65693D01*
X22112Y65806D01*
X22094Y65920D01*
X22080Y66034D01*
X22069Y66148D01*
X23125Y46194D02*
X25748Y46194D01*
X27830Y46194D01*
X27891Y46202D01*
X27952Y46206D01*
X28013Y46207D01*
X28074Y46204D01*
X28134Y46197D01*
X28195Y46186D01*
X28254Y46172D01*
X28313Y46155D01*
X28370Y46133D01*
X28426Y46109D01*
X28480Y46081D01*
X28533Y46050D01*
X28584Y46015D01*
X28632Y45978D01*
X28678Y45938D01*
X28722Y45895D01*
X28763Y45850D01*
X28801Y45802D01*
X28836Y45752D01*
X28868Y45700D01*
X28897Y45646D01*
X28923Y45591D01*
X28945Y45534D01*
X28963Y45475D01*
X28979Y45416D01*
X28990Y45356D01*
X28990Y43083D01*
X28990Y40429D01*
X28997Y40368D01*
X29000Y40307D01*
X28999Y40246D01*
X28995Y40185D01*
X28987Y40124D01*
X28976Y40064D01*
X28961Y40005D01*
X28942Y39946D01*
X28920Y39889D01*
X28894Y39834D01*
X28866Y39780D01*
X28834Y39728D01*
X28798Y39678D01*
X28760Y39630D01*
X28719Y39585D01*
X28676Y39542D01*
X28630Y39502D01*
X28581Y39464D01*
X28531Y39430D01*
X28478Y39399D01*
X28424Y39371D01*
X28368Y39346D01*
X28311Y39325D01*
X28252Y39307D01*
X28193Y39293D01*
X28133Y39282D01*
X28133Y39283D02*
X25490Y39283D01*
X22971Y39283D01*
X22906Y39293D01*
X22842Y39308D01*
X22779Y39326D01*
X22717Y39348D01*
X22656Y39374D01*
X22597Y39403D01*
X22540Y39435D01*
X22485Y39471D01*
X22432Y39510D01*
X22381Y39551D01*
X22333Y39596D01*
X22287Y39643D01*
X22245Y39693D01*
X22205Y39746D01*
X22168Y39800D01*
X22135Y39857D01*
X22105Y39916D01*
X22078Y39976D01*
X22055Y40037D01*
X22036Y40100D01*
X22020Y40164D01*
X22008Y40229D01*
X22000Y40294D01*
X21996Y40359D01*
X21995Y40425D01*
X21998Y40491D01*
X22006Y40556D01*
X22006Y42921D01*
X22006Y44921D01*
X22004Y44988D01*
X22005Y45055D01*
X22010Y45122D01*
X22019Y45189D01*
X22032Y45255D01*
X22048Y45320D01*
X22068Y45384D01*
X22091Y45447D01*
X22118Y45509D01*
X22149Y45569D01*
X22182Y45627D01*
X22219Y45683D01*
X22259Y45737D01*
X22302Y45789D01*
X22348Y45838D01*
X22396Y45885D01*
X22447Y45928D01*
X22501Y45969D01*
X22556Y46007D01*
X22614Y46042D01*
X22673Y46073D01*
X22734Y46101D01*
X22797Y46125D01*
X22861Y46146D01*
X22926Y46164D01*
X22992Y46177D01*
X23058Y46187D01*
X23125Y46194D01*
X28990Y43083D02*
X28993Y42963D01*
X28992Y42844D01*
X28987Y42725D01*
X28978Y42605D01*
X28966Y42486D01*
X28949Y42368D01*
X28929Y42250D01*
X28904Y42133D01*
X28876Y42017D01*
X28844Y41902D01*
X28809Y41788D01*
X28769Y41675D01*
X28726Y41563D01*
X28680Y41453D01*
X28630Y41345D01*
X28576Y41238D01*
X28519Y41133D01*
X28458Y41030D01*
X28394Y40929D01*
X28327Y40830D01*
X28257Y40733D01*
X28183Y40639D01*
X28106Y40547D01*
X28027Y40458D01*
X27945Y40372D01*
X27859Y40288D01*
X27771Y40207D01*
X27681Y40129D01*
X27588Y40054D01*
X27493Y39982D01*
X27395Y39913D01*
X27295Y39847D01*
X27193Y39785D01*
X27089Y39726D01*
X26983Y39670D01*
X26875Y39618D01*
X26766Y39570D01*
X26655Y39525D01*
X26543Y39484D01*
X26430Y39446D01*
X26315Y39412D01*
X26199Y39382D01*
X26083Y39356D01*
X25965Y39334D01*
X25847Y39315D01*
X25728Y39301D01*
X25609Y39290D01*
X25490Y39283D01*
X25752Y39373D02*
X26006Y39373D01*
X22006Y42920D02*
X22016Y43038D01*
X22029Y43154D01*
X22047Y43270D01*
X22068Y43386D01*
X22094Y43501D01*
X22123Y43614D01*
X22156Y43727D01*
X22192Y43839D01*
X22233Y43949D01*
X22277Y44058D01*
X22324Y44165D01*
X22376Y44271D01*
X22430Y44375D01*
X22489Y44477D01*
X22550Y44577D01*
X22615Y44675D01*
X22683Y44771D01*
X22754Y44864D01*
X22829Y44955D01*
X22906Y45044D01*
X22986Y45129D01*
X23069Y45212D01*
X23155Y45293D01*
X23243Y45370D01*
X23334Y45444D01*
X23428Y45516D01*
X23523Y45584D01*
X23621Y45649D01*
X23721Y45710D01*
X23823Y45768D01*
X23927Y45823D01*
X24033Y45874D01*
X24141Y45922D01*
X24249Y45966D01*
X24360Y46006D01*
X24471Y46043D01*
X24584Y46076D01*
X24698Y46105D01*
X24813Y46131D01*
X24928Y46152D01*
X25044Y46170D01*
X25161Y46183D01*
X25278Y46193D01*
X25395Y46199D01*
X25513Y46201D01*
X25630Y46199D01*
X25747Y46193D01*
X25748Y46193D02*
X25858Y46194D01*
X25969Y46190D01*
X26080Y46183D01*
X26190Y46172D01*
X26300Y46156D01*
X26409Y46138D01*
X26518Y46115D01*
X26626Y46088D01*
X26732Y46058D01*
X26838Y46024D01*
X26942Y45987D01*
X27045Y45945D01*
X27147Y45901D01*
X27246Y45852D01*
X27344Y45801D01*
X27441Y45745D01*
X27535Y45687D01*
X27627Y45625D01*
X27717Y45560D01*
X27805Y45492D01*
X27890Y45421D01*
X27972Y45347D01*
X28052Y45271D01*
X28130Y45191D01*
X28204Y45109D01*
X28276Y45024D01*
X28344Y44937D01*
X28410Y44847D01*
X28472Y44756D01*
X28531Y44662D01*
X28587Y44566D01*
X28639Y44468D01*
X28688Y44369D01*
X28734Y44268D01*
X28775Y44165D01*
X28814Y44061D01*
X28848Y43955D01*
X28879Y43849D01*
X28906Y43741D01*
X28930Y43633D01*
X28949Y43524D01*
X28965Y43414D01*
X28977Y43304D01*
X28985Y43193D01*
X28989Y43082D01*
X25752Y39373D02*
X25637Y39367D01*
X25522Y39364D01*
X25408Y39365D01*
X25293Y39370D01*
X25178Y39379D01*
X25064Y39392D01*
X24950Y39408D01*
X24837Y39428D01*
X24725Y39452D01*
X24613Y39480D01*
X24503Y39511D01*
X24393Y39546D01*
X24285Y39585D01*
X24178Y39627D01*
X24073Y39673D01*
X23969Y39723D01*
X23867Y39775D01*
X23767Y39832D01*
X23669Y39891D01*
X23572Y39954D01*
X23478Y40020D01*
X23387Y40089D01*
X23297Y40161D01*
X23210Y40236D01*
X23126Y40314D01*
X23044Y40394D01*
X22965Y40478D01*
X22888Y40564D01*
X22815Y40652D01*
X22745Y40743D01*
X22677Y40836D01*
X22613Y40932D01*
X22552Y41029D01*
X22495Y41128D01*
X22441Y41230D01*
X22390Y41333D01*
X22342Y41437D01*
X22299Y41544D01*
X22258Y41651D01*
X22222Y41760D01*
X22189Y41870D01*
X22159Y41981D01*
X22134Y42093D01*
X22112Y42206D01*
X22094Y42320D01*
X22080Y42434D01*
X22069Y42548D01*
X23125Y22494D02*
X25748Y22494D01*
X27830Y22494D01*
X27891Y22502D01*
X27952Y22506D01*
X28013Y22507D01*
X28074Y22504D01*
X28134Y22497D01*
X28195Y22486D01*
X28254Y22472D01*
X28313Y22455D01*
X28370Y22433D01*
X28426Y22409D01*
X28480Y22381D01*
X28533Y22350D01*
X28584Y22315D01*
X28632Y22278D01*
X28678Y22238D01*
X28722Y22195D01*
X28763Y22150D01*
X28801Y22102D01*
X28836Y22052D01*
X28868Y22000D01*
X28897Y21946D01*
X28923Y21891D01*
X28945Y21834D01*
X28963Y21775D01*
X28979Y21716D01*
X28990Y21656D01*
X28990Y19383D01*
X28990Y16729D01*
X28997Y16668D01*
X29000Y16607D01*
X28999Y16546D01*
X28995Y16485D01*
X28987Y16424D01*
X28976Y16364D01*
X28961Y16305D01*
X28942Y16246D01*
X28920Y16189D01*
X28894Y16134D01*
X28866Y16080D01*
X28834Y16028D01*
X28798Y15978D01*
X28760Y15930D01*
X28719Y15885D01*
X28676Y15842D01*
X28630Y15802D01*
X28581Y15764D01*
X28531Y15730D01*
X28478Y15699D01*
X28424Y15671D01*
X28368Y15646D01*
X28311Y15625D01*
X28252Y15607D01*
X28193Y15593D01*
X28133Y15582D01*
X28133Y15583D02*
X25490Y15583D01*
X22971Y15583D01*
X22906Y15593D01*
X22842Y15608D01*
X22779Y15626D01*
X22717Y15648D01*
X22656Y15674D01*
X22597Y15703D01*
X22540Y15735D01*
X22485Y15771D01*
X22432Y15810D01*
X22381Y15851D01*
X22333Y15896D01*
X22287Y15943D01*
X22245Y15993D01*
X22205Y16046D01*
X22168Y16100D01*
X22135Y16157D01*
X22105Y16216D01*
X22078Y16276D01*
X22055Y16337D01*
X22036Y16400D01*
X22020Y16464D01*
X22008Y16529D01*
X22000Y16594D01*
X21996Y16659D01*
X21995Y16725D01*
X21998Y16791D01*
X22006Y16856D01*
X22006Y19221D01*
X22006Y21221D01*
X22004Y21288D01*
X22005Y21355D01*
X22010Y21422D01*
X22019Y21489D01*
X22032Y21555D01*
X22048Y21620D01*
X22068Y21684D01*
X22091Y21747D01*
X22118Y21809D01*
X22149Y21869D01*
X22182Y21927D01*
X22219Y21983D01*
X22259Y22037D01*
X22302Y22089D01*
X22348Y22138D01*
X22396Y22185D01*
X22447Y22228D01*
X22501Y22269D01*
X22556Y22307D01*
X22614Y22342D01*
X22673Y22373D01*
X22734Y22401D01*
X22797Y22425D01*
X22861Y22446D01*
X22926Y22464D01*
X22992Y22477D01*
X23058Y22487D01*
X23125Y22494D01*
X28990Y19383D02*
X28993Y19263D01*
X28992Y19144D01*
X28987Y19025D01*
X28978Y18905D01*
X28966Y18786D01*
X28949Y18668D01*
X28929Y18550D01*
X28904Y18433D01*
X28876Y18317D01*
X28844Y18202D01*
X28809Y18088D01*
X28769Y17975D01*
X28726Y17863D01*
X28680Y17753D01*
X28630Y17645D01*
X28576Y17538D01*
X28519Y17433D01*
X28458Y17330D01*
X28394Y17229D01*
X28327Y17130D01*
X28257Y17033D01*
X28183Y16939D01*
X28106Y16847D01*
X28027Y16758D01*
X27945Y16672D01*
X27859Y16588D01*
X27771Y16507D01*
X27681Y16429D01*
X27588Y16354D01*
X27493Y16282D01*
X27395Y16213D01*
X27295Y16147D01*
X27193Y16085D01*
X27089Y16026D01*
X26983Y15970D01*
X26875Y15918D01*
X26766Y15870D01*
X26655Y15825D01*
X26543Y15784D01*
X26430Y15746D01*
X26315Y15712D01*
X26199Y15682D01*
X26083Y15656D01*
X25965Y15634D01*
X25847Y15615D01*
X25728Y15601D01*
X25609Y15590D01*
X25490Y15583D01*
X25752Y15673D02*
X26006Y15673D01*
X22006Y19220D02*
X22016Y19338D01*
X22029Y19454D01*
X22047Y19570D01*
X22068Y19686D01*
X22094Y19801D01*
X22123Y19914D01*
X22156Y20027D01*
X22192Y20139D01*
X22233Y20249D01*
X22277Y20358D01*
X22324Y20465D01*
X22376Y20571D01*
X22430Y20675D01*
X22489Y20777D01*
X22550Y20877D01*
X22615Y20975D01*
X22683Y21071D01*
X22754Y21164D01*
X22829Y21255D01*
X22906Y21344D01*
X22986Y21429D01*
X23069Y21512D01*
X23155Y21593D01*
X23243Y21670D01*
X23334Y21744D01*
X23428Y21816D01*
X23523Y21884D01*
X23621Y21949D01*
X23721Y22010D01*
X23823Y22068D01*
X23927Y22123D01*
X24033Y22174D01*
X24141Y22222D01*
X24249Y22266D01*
X24360Y22306D01*
X24471Y22343D01*
X24584Y22376D01*
X24698Y22405D01*
X24813Y22431D01*
X24928Y22452D01*
X25044Y22470D01*
X25161Y22483D01*
X25278Y22493D01*
X25395Y22499D01*
X25513Y22501D01*
X25630Y22499D01*
X25747Y22493D01*
X25748Y22493D02*
X25858Y22494D01*
X25969Y22490D01*
X26080Y22483D01*
X26190Y22472D01*
X26300Y22456D01*
X26409Y22438D01*
X26518Y22415D01*
X26626Y22388D01*
X26732Y22358D01*
X26838Y22324D01*
X26942Y22287D01*
X27045Y22245D01*
X27147Y22201D01*
X27246Y22152D01*
X27344Y22101D01*
X27441Y22045D01*
X27535Y21987D01*
X27627Y21925D01*
X27717Y21860D01*
X27805Y21792D01*
X27890Y21721D01*
X27972Y21647D01*
X28052Y21571D01*
X28130Y21491D01*
X28204Y21409D01*
X28276Y21324D01*
X28344Y21237D01*
X28410Y21147D01*
X28472Y21056D01*
X28531Y20962D01*
X28587Y20866D01*
X28639Y20768D01*
X28688Y20669D01*
X28734Y20568D01*
X28775Y20465D01*
X28814Y20361D01*
X28848Y20255D01*
X28879Y20149D01*
X28906Y20041D01*
X28930Y19933D01*
X28949Y19824D01*
X28965Y19714D01*
X28977Y19604D01*
X28985Y19493D01*
X28989Y19382D01*
X25752Y15673D02*
X25637Y15667D01*
X25522Y15664D01*
X25408Y15665D01*
X25293Y15670D01*
X25178Y15679D01*
X25064Y15692D01*
X24950Y15708D01*
X24837Y15728D01*
X24725Y15752D01*
X24613Y15780D01*
X24503Y15811D01*
X24393Y15846D01*
X24285Y15885D01*
X24178Y15927D01*
X24073Y15973D01*
X23969Y16023D01*
X23867Y16075D01*
X23767Y16132D01*
X23669Y16191D01*
X23572Y16254D01*
X23478Y16320D01*
X23387Y16389D01*
X23297Y16461D01*
X23210Y16536D01*
X23126Y16614D01*
X23044Y16694D01*
X22965Y16778D01*
X22888Y16864D01*
X22815Y16952D01*
X22745Y17043D01*
X22677Y17136D01*
X22613Y17232D01*
X22552Y17329D01*
X22495Y17428D01*
X22441Y17530D01*
X22390Y17633D01*
X22342Y17737D01*
X22299Y17844D01*
X22258Y17951D01*
X22222Y18060D01*
X22189Y18170D01*
X22159Y18281D01*
X22134Y18393D01*
X22112Y18506D01*
X22094Y18620D01*
X22080Y18734D01*
X22069Y18848D01*
D13*
X03022Y02530D02*
X02775Y02530D01*
X03022Y02530D02*
X03052Y02532D01*
X03081Y02537D01*
X03110Y02546D01*
X03137Y02558D01*
X03162Y02574D01*
X03186Y02592D01*
X03207Y02613D01*
X03225Y02637D01*
X03241Y02662D01*
X03253Y02689D01*
X03262Y02718D01*
X03267Y02747D01*
X03269Y02777D01*
X03267Y02807D01*
X03262Y02836D01*
X03253Y02865D01*
X03241Y02892D01*
X03225Y02917D01*
X03207Y02941D01*
X03186Y02962D01*
X03162Y02980D01*
X03137Y02996D01*
X03110Y03008D01*
X03081Y03017D01*
X03052Y03022D01*
X03022Y03024D01*
X03071Y03024D02*
X02873Y03024D01*
X03071Y03024D02*
X03098Y03026D01*
X03124Y03031D01*
X03150Y03040D01*
X03174Y03053D01*
X03196Y03068D01*
X03216Y03087D01*
X03233Y03108D01*
X03247Y03131D01*
X03258Y03156D01*
X03265Y03182D01*
X03269Y03208D01*
X03269Y03236D01*
X03265Y03262D01*
X03258Y03288D01*
X03247Y03313D01*
X03233Y03336D01*
X03216Y03357D01*
X03196Y03376D01*
X03174Y03391D01*
X03150Y03404D01*
X03124Y03413D01*
X03098Y03418D01*
X03071Y03420D01*
X03071Y03419D02*
X02775Y03419D01*
X03731Y03123D02*
X04176Y03123D01*
X04199Y03121D01*
X04222Y03116D01*
X04243Y03107D01*
X04263Y03095D01*
X04281Y03080D01*
X04296Y03062D01*
X04308Y03042D01*
X04317Y03021D01*
X04322Y02998D01*
X04324Y02975D01*
X04324Y02530D01*
X04027Y02530D02*
X04027Y03123D01*
X03731Y03123D02*
X03731Y02530D01*
X04828Y02530D02*
X04828Y03123D01*
X05273Y03123D01*
X05296Y03121D01*
X05319Y03116D01*
X05340Y03107D01*
X05360Y03095D01*
X05378Y03080D01*
X05393Y03062D01*
X05405Y03042D01*
X05414Y03021D01*
X05419Y02998D01*
X05421Y02975D01*
X05421Y02530D01*
X05125Y02530D02*
X05125Y03123D01*
X27351Y03419D02*
X27648Y03419D01*
X27648Y03420D02*
X27675Y03418D01*
X27701Y03413D01*
X27727Y03404D01*
X27751Y03391D01*
X27773Y03376D01*
X27793Y03357D01*
X27810Y03336D01*
X27824Y03313D01*
X27835Y03288D01*
X27842Y03262D01*
X27846Y03236D01*
X27846Y03208D01*
X27842Y03182D01*
X27835Y03156D01*
X27824Y03131D01*
X27810Y03108D01*
X27793Y03087D01*
X27773Y03068D01*
X27751Y03053D01*
X27727Y03040D01*
X27701Y03031D01*
X27675Y03026D01*
X27648Y03024D01*
X27450Y03024D01*
X27598Y03024D02*
X27628Y03022D01*
X27657Y03017D01*
X27686Y03008D01*
X27713Y02996D01*
X27738Y02980D01*
X27762Y02962D01*
X27783Y02941D01*
X27801Y02917D01*
X27817Y02892D01*
X27829Y02865D01*
X27838Y02836D01*
X27843Y02807D01*
X27845Y02777D01*
X27843Y02747D01*
X27838Y02718D01*
X27829Y02689D01*
X27817Y02662D01*
X27801Y02637D01*
X27783Y02613D01*
X27762Y02592D01*
X27738Y02574D01*
X27713Y02558D01*
X27686Y02546D01*
X27657Y02537D01*
X27628Y02532D01*
X27598Y02530D01*
X27351Y02530D01*
X28308Y02530D02*
X28308Y03123D01*
X28752Y03123D01*
X28604Y03123D02*
X28604Y02530D01*
X28900Y02530D02*
X28900Y02975D01*
X28898Y02998D01*
X28893Y03021D01*
X28884Y03042D01*
X28872Y03062D01*
X28857Y03080D01*
X28839Y03095D01*
X28819Y03107D01*
X28798Y03116D01*
X28775Y03121D01*
X28752Y03123D01*
X29405Y03123D02*
X29850Y03123D01*
X29873Y03121D01*
X29896Y03116D01*
X29917Y03107D01*
X29937Y03095D01*
X29955Y03080D01*
X29970Y03062D01*
X29982Y03042D01*
X29991Y03021D01*
X29996Y02998D01*
X29998Y02975D01*
X29998Y02530D01*
X29701Y02530D02*
X29701Y03123D01*
X29405Y03123D02*
X29405Y02530D01*
X29405Y125030D02*
X29405Y125623D01*
X29850Y125623D01*
X29873Y125621D01*
X29896Y125616D01*
X29917Y125607D01*
X29937Y125595D01*
X29955Y125580D01*
X29970Y125562D01*
X29982Y125542D01*
X29991Y125521D01*
X29996Y125498D01*
X29998Y125475D01*
X29998Y125030D01*
X29701Y125030D02*
X29701Y125623D01*
X28900Y125475D02*
X28900Y125030D01*
X28604Y125030D02*
X28604Y125623D01*
X28752Y125623D02*
X28308Y125623D01*
X28308Y125030D01*
X28900Y125475D02*
X28898Y125498D01*
X28893Y125521D01*
X28884Y125542D01*
X28872Y125562D01*
X28857Y125580D01*
X28839Y125595D01*
X28819Y125607D01*
X28798Y125616D01*
X28775Y125621D01*
X28752Y125623D01*
X27648Y125524D02*
X27675Y125526D01*
X27701Y125531D01*
X27727Y125540D01*
X27751Y125553D01*
X27773Y125568D01*
X27793Y125587D01*
X27810Y125608D01*
X27824Y125631D01*
X27835Y125656D01*
X27842Y125682D01*
X27846Y125708D01*
X27846Y125736D01*
X27842Y125762D01*
X27835Y125788D01*
X27824Y125813D01*
X27810Y125836D01*
X27793Y125857D01*
X27773Y125876D01*
X27751Y125891D01*
X27727Y125904D01*
X27701Y125913D01*
X27675Y125918D01*
X27648Y125920D01*
X27648Y125919D02*
X27351Y125919D01*
X27450Y125524D02*
X27648Y125524D01*
X27598Y125524D02*
X27628Y125522D01*
X27657Y125517D01*
X27686Y125508D01*
X27713Y125496D01*
X27738Y125480D01*
X27762Y125462D01*
X27783Y125441D01*
X27801Y125417D01*
X27817Y125392D01*
X27829Y125365D01*
X27838Y125336D01*
X27843Y125307D01*
X27845Y125277D01*
X27843Y125247D01*
X27838Y125218D01*
X27829Y125189D01*
X27817Y125162D01*
X27801Y125137D01*
X27783Y125113D01*
X27762Y125092D01*
X27738Y125074D01*
X27713Y125058D01*
X27686Y125046D01*
X27657Y125037D01*
X27628Y125032D01*
X27598Y125030D01*
X27351Y125030D01*
X05421Y125030D02*
X05421Y125475D01*
X05419Y125498D01*
X05414Y125521D01*
X05405Y125542D01*
X05393Y125562D01*
X05378Y125580D01*
X05360Y125595D01*
X05340Y125607D01*
X05319Y125616D01*
X05296Y125621D01*
X05273Y125623D01*
X04828Y125623D01*
X04828Y125030D01*
X05125Y125030D02*
X05125Y125623D01*
X04324Y125475D02*
X04324Y125030D01*
X04027Y125030D02*
X04027Y125623D01*
X04176Y125623D02*
X03731Y125623D01*
X03731Y125030D01*
X04324Y125475D02*
X04322Y125498D01*
X04317Y125521D01*
X04308Y125542D01*
X04296Y125562D01*
X04281Y125580D01*
X04263Y125595D01*
X04243Y125607D01*
X04222Y125616D01*
X04199Y125621D01*
X04176Y125623D01*
X03071Y125524D02*
X03098Y125526D01*
X03124Y125531D01*
X03150Y125540D01*
X03174Y125553D01*
X03196Y125568D01*
X03216Y125587D01*
X03233Y125608D01*
X03247Y125631D01*
X03258Y125656D01*
X03265Y125682D01*
X03269Y125708D01*
X03269Y125736D01*
X03265Y125762D01*
X03258Y125788D01*
X03247Y125813D01*
X03233Y125836D01*
X03216Y125857D01*
X03196Y125876D01*
X03174Y125891D01*
X03150Y125904D01*
X03124Y125913D01*
X03098Y125918D01*
X03071Y125920D01*
X03071Y125919D02*
X02775Y125919D01*
X02873Y125524D02*
X03071Y125524D01*
X03022Y125524D02*
X03052Y125522D01*
X03081Y125517D01*
X03110Y125508D01*
X03137Y125496D01*
X03162Y125480D01*
X03186Y125462D01*
X03207Y125441D01*
X03225Y125417D01*
X03241Y125392D01*
X03253Y125365D01*
X03262Y125336D01*
X03267Y125307D01*
X03269Y125277D01*
X03267Y125247D01*
X03262Y125218D01*
X03253Y125189D01*
X03241Y125162D01*
X03225Y125137D01*
X03207Y125113D01*
X03186Y125092D01*
X03162Y125074D01*
X03137Y125058D01*
X03110Y125046D01*
X03081Y125037D01*
X03052Y125032D01*
X03022Y125030D01*
X02775Y125030D01*
D14*
X12104Y116757D02*
X12583Y116757D01*
X12621Y116755D01*
X12658Y116749D01*
X12694Y116739D01*
X12729Y116726D01*
X12763Y116709D01*
X12795Y116688D01*
X12824Y116665D01*
X12851Y116638D01*
X12874Y116609D01*
X12895Y116577D01*
X12912Y116543D01*
X12925Y116508D01*
X12935Y116472D01*
X12941Y116435D01*
X12943Y116397D01*
X12943Y115317D01*
X12403Y115317D01*
X12363Y115319D01*
X12324Y115325D01*
X12285Y115334D01*
X12247Y115347D01*
X12211Y115364D01*
X12176Y115384D01*
X12143Y115407D01*
X12113Y115433D01*
X12086Y115462D01*
X12061Y115493D01*
X12039Y115527D01*
X12021Y115563D01*
X12006Y115600D01*
X11995Y115638D01*
X11987Y115677D01*
X11983Y115717D01*
X11983Y115757D01*
X11987Y115797D01*
X11995Y115836D01*
X12006Y115874D01*
X12021Y115911D01*
X12039Y115947D01*
X12061Y115981D01*
X12086Y116012D01*
X12113Y116041D01*
X12143Y116067D01*
X12176Y116090D01*
X12211Y116110D01*
X12247Y116127D01*
X12285Y116140D01*
X12324Y116149D01*
X12363Y116155D01*
X12403Y116157D01*
X12943Y116157D01*
X13891Y116397D02*
X13891Y115677D01*
X13893Y115639D01*
X13899Y115602D01*
X13909Y115566D01*
X13922Y115531D01*
X13939Y115497D01*
X13960Y115465D01*
X13983Y115436D01*
X14010Y115409D01*
X14039Y115386D01*
X14071Y115365D01*
X14105Y115348D01*
X14140Y115335D01*
X14176Y115325D01*
X14213Y115319D01*
X14251Y115317D01*
X14851Y115317D01*
X14851Y117476D01*
X14851Y116757D02*
X14251Y116757D01*
X14213Y116755D01*
X14176Y116749D01*
X14140Y116739D01*
X14105Y116726D01*
X14071Y116709D01*
X14039Y116688D01*
X14010Y116665D01*
X13983Y116638D01*
X13960Y116609D01*
X13939Y116577D01*
X13922Y116543D01*
X13909Y116508D01*
X13899Y116472D01*
X13893Y116435D01*
X13891Y116397D01*
X15279Y114598D02*
X15399Y114598D01*
X15399Y114597D02*
X15437Y114599D01*
X15474Y114605D01*
X15510Y114615D01*
X15545Y114628D01*
X15579Y114645D01*
X15611Y114666D01*
X15640Y114689D01*
X15667Y114716D01*
X15690Y114745D01*
X15711Y114777D01*
X15728Y114811D01*
X15741Y114846D01*
X15751Y114882D01*
X15757Y114919D01*
X15759Y114957D01*
X15759Y116757D01*
X15819Y117356D02*
X15699Y117356D01*
X15699Y117476D01*
X15819Y117476D01*
X15819Y117356D01*
X16729Y116757D02*
X16729Y115677D01*
X16731Y115639D01*
X16737Y115602D01*
X16747Y115566D01*
X16760Y115531D01*
X16777Y115497D01*
X16798Y115465D01*
X16821Y115436D01*
X16848Y115409D01*
X16877Y115386D01*
X16909Y115365D01*
X16943Y115348D01*
X16978Y115335D01*
X17014Y115325D01*
X17051Y115319D01*
X17089Y115317D01*
X17689Y115317D01*
X17689Y116757D01*
X18817Y116157D02*
X19417Y115917D01*
X19448Y115902D01*
X19477Y115884D01*
X19505Y115863D01*
X19529Y115839D01*
X19551Y115813D01*
X19570Y115784D01*
X19586Y115753D01*
X19598Y115721D01*
X19606Y115687D01*
X19611Y115653D01*
X19612Y115618D01*
X19609Y115584D01*
X19602Y115550D01*
X19592Y115517D01*
X19578Y115486D01*
X19560Y115456D01*
X19539Y115428D01*
X19516Y115403D01*
X19490Y115381D01*
X19461Y115361D01*
X19431Y115345D01*
X19398Y115333D01*
X19365Y115324D01*
X19331Y115318D01*
X19297Y115317D01*
X19477Y116637D02*
X19413Y116664D01*
X19348Y116687D01*
X19281Y116708D01*
X19213Y116725D01*
X19145Y116738D01*
X19076Y116748D01*
X19007Y116754D01*
X18937Y116757D01*
X18903Y116756D01*
X18869Y116750D01*
X18836Y116741D01*
X18803Y116729D01*
X18773Y116713D01*
X18744Y116693D01*
X18718Y116671D01*
X18695Y116646D01*
X18674Y116618D01*
X18656Y116588D01*
X18642Y116557D01*
X18632Y116524D01*
X18625Y116490D01*
X18622Y116456D01*
X18623Y116421D01*
X18628Y116387D01*
X18636Y116353D01*
X18648Y116321D01*
X18664Y116290D01*
X18683Y116261D01*
X18705Y116235D01*
X18729Y116211D01*
X18757Y116190D01*
X18786Y116172D01*
X18817Y116157D01*
X18637Y115437D02*
X18717Y115410D01*
X18798Y115387D01*
X18880Y115367D01*
X18962Y115350D01*
X19045Y115336D01*
X19129Y115327D01*
X19213Y115320D01*
X19297Y115317D01*
X20532Y115677D02*
X20532Y117476D01*
X20292Y116757D02*
X21012Y116757D01*
X20532Y115677D02*
X20534Y115642D01*
X20539Y115607D01*
X20548Y115572D01*
X20559Y115539D01*
X20575Y115507D01*
X20593Y115477D01*
X20614Y115449D01*
X20637Y115422D01*
X20664Y115399D01*
X20692Y115378D01*
X20722Y115360D01*
X20754Y115344D01*
X20787Y115333D01*
X20822Y115324D01*
X20857Y115319D01*
X20892Y115317D01*
X21012Y115317D01*
D15*
X19453Y106920D02*
X18716Y106920D01*
X18716Y105938D01*
X19207Y105938D02*
X19207Y106920D01*
X19453Y106921D02*
X19483Y106919D01*
X19512Y106914D01*
X19540Y106905D01*
X19567Y106893D01*
X19593Y106877D01*
X19616Y106859D01*
X19637Y106838D01*
X19655Y106815D01*
X19671Y106789D01*
X19683Y106762D01*
X19692Y106734D01*
X19697Y106705D01*
X19699Y106675D01*
X19698Y106675D02*
X19698Y105938D01*
X17914Y105938D02*
X17914Y106675D01*
X17915Y106675D02*
X17913Y106705D01*
X17908Y106734D01*
X17899Y106762D01*
X17887Y106789D01*
X17871Y106815D01*
X17853Y106838D01*
X17832Y106859D01*
X17809Y106877D01*
X17783Y106893D01*
X17756Y106905D01*
X17728Y106914D01*
X17699Y106919D01*
X17669Y106921D01*
X17669Y106920D02*
X16932Y106920D01*
X16932Y105938D01*
X17423Y105938D02*
X17423Y106920D01*
X16197Y106429D02*
X16197Y106265D01*
X16195Y106231D01*
X16190Y106197D01*
X16181Y106164D01*
X16169Y106132D01*
X16153Y106101D01*
X16135Y106073D01*
X16113Y106046D01*
X16089Y106022D01*
X16062Y106000D01*
X16033Y105982D01*
X16003Y105966D01*
X15971Y105954D01*
X15938Y105945D01*
X15904Y105940D01*
X15870Y105938D01*
X15379Y105938D01*
X16197Y106429D02*
X16195Y106463D01*
X16190Y106497D01*
X16181Y106530D01*
X16169Y106562D01*
X16153Y106593D01*
X16135Y106621D01*
X16113Y106648D01*
X16089Y106672D01*
X16062Y106694D01*
X16034Y106712D01*
X16003Y106728D01*
X15971Y106740D01*
X15938Y106749D01*
X15904Y106754D01*
X15870Y106756D01*
X15870Y106757D02*
X15379Y106757D01*
X15379Y107411D01*
X16197Y107411D01*
X14782Y106020D02*
X14782Y105938D01*
X14659Y105611D01*
X14700Y105938D02*
X14700Y106020D01*
X14782Y106020D01*
X14782Y105938D02*
X14700Y105938D01*
X13707Y105938D02*
X14116Y107411D01*
X13297Y107411D01*
X13297Y107248D01*
D16*
X11243Y123229D02*
X11243Y126454D01*
X10347Y126454D02*
X12139Y126454D01*
X13014Y125558D02*
X13014Y124125D01*
X13016Y124066D01*
X13022Y124008D01*
X13031Y123950D01*
X13045Y123893D01*
X13062Y123837D01*
X13082Y123782D01*
X13106Y123729D01*
X13134Y123677D01*
X13165Y123627D01*
X13199Y123580D01*
X13236Y123534D01*
X13276Y123491D01*
X13319Y123451D01*
X13365Y123414D01*
X13412Y123380D01*
X13462Y123349D01*
X13514Y123321D01*
X13567Y123297D01*
X13622Y123277D01*
X13678Y123260D01*
X13735Y123246D01*
X13793Y123237D01*
X13851Y123231D01*
X13910Y123229D01*
X13969Y123231D01*
X14027Y123237D01*
X14085Y123246D01*
X14142Y123260D01*
X14198Y123277D01*
X14253Y123297D01*
X14306Y123321D01*
X14358Y123349D01*
X14408Y123380D01*
X14455Y123414D01*
X14501Y123451D01*
X14544Y123491D01*
X14584Y123534D01*
X14621Y123580D01*
X14655Y123627D01*
X14686Y123677D01*
X14714Y123729D01*
X14738Y123782D01*
X14758Y123837D01*
X14775Y123893D01*
X14789Y123950D01*
X14798Y124008D01*
X14804Y124066D01*
X14806Y124125D01*
X14806Y125558D01*
X14804Y125617D01*
X14798Y125675D01*
X14789Y125733D01*
X14775Y125790D01*
X14758Y125846D01*
X14738Y125901D01*
X14714Y125954D01*
X14686Y126006D01*
X14655Y126056D01*
X14621Y126103D01*
X14584Y126149D01*
X14544Y126192D01*
X14501Y126232D01*
X14455Y126269D01*
X14408Y126303D01*
X14358Y126334D01*
X14306Y126362D01*
X14253Y126386D01*
X14198Y126406D01*
X14142Y126423D01*
X14085Y126437D01*
X14027Y126446D01*
X13969Y126452D01*
X13910Y126454D01*
X13851Y126452D01*
X13793Y126446D01*
X13735Y126437D01*
X13678Y126423D01*
X13622Y126406D01*
X13567Y126386D01*
X13514Y126362D01*
X13462Y126334D01*
X13412Y126303D01*
X13365Y126269D01*
X13319Y126232D01*
X13276Y126192D01*
X13236Y126149D01*
X13199Y126103D01*
X13165Y126056D01*
X13134Y126006D01*
X13106Y125954D01*
X13082Y125901D01*
X13062Y125846D01*
X13045Y125790D01*
X13031Y125733D01*
X13022Y125675D01*
X13016Y125617D01*
X13014Y125558D01*
X15978Y126454D02*
X15978Y123229D01*
X17053Y124662D02*
X15978Y126454D01*
X17053Y124662D02*
X18128Y126454D01*
X18128Y123229D01*
X19266Y123229D02*
X19983Y123229D01*
X19625Y123229D02*
X19625Y126454D01*
X19983Y126454D02*
X19266Y126454D01*
X21012Y125738D02*
X21012Y123945D01*
X21014Y123894D01*
X21019Y123843D01*
X21028Y123793D01*
X21041Y123743D01*
X21057Y123694D01*
X21077Y123647D01*
X21100Y123601D01*
X21126Y123557D01*
X21155Y123515D01*
X21187Y123475D01*
X21222Y123438D01*
X21259Y123403D01*
X21299Y123371D01*
X21341Y123342D01*
X21385Y123316D01*
X21431Y123293D01*
X21478Y123273D01*
X21527Y123257D01*
X21577Y123244D01*
X21627Y123235D01*
X21678Y123230D01*
X21729Y123228D01*
X21729Y123229D02*
X22446Y123229D01*
X21012Y125738D02*
X21014Y125789D01*
X21019Y125840D01*
X21028Y125890D01*
X21041Y125940D01*
X21057Y125989D01*
X21077Y126036D01*
X21100Y126082D01*
X21126Y126126D01*
X21155Y126168D01*
X21187Y126208D01*
X21222Y126245D01*
X21259Y126280D01*
X21299Y126312D01*
X21341Y126341D01*
X21385Y126367D01*
X21431Y126390D01*
X21478Y126410D01*
X21527Y126426D01*
X21577Y126439D01*
X21627Y126448D01*
X21678Y126453D01*
X21729Y126455D01*
X21729Y126454D02*
X22446Y126454D01*
X23396Y125558D02*
X23396Y124125D01*
X23398Y124066D01*
X23404Y124008D01*
X23413Y123950D01*
X23427Y123893D01*
X23444Y123837D01*
X23464Y123782D01*
X23488Y123729D01*
X23516Y123677D01*
X23547Y123627D01*
X23581Y123580D01*
X23618Y123534D01*
X23658Y123491D01*
X23701Y123451D01*
X23747Y123414D01*
X23794Y123380D01*
X23844Y123349D01*
X23896Y123321D01*
X23949Y123297D01*
X24004Y123277D01*
X24060Y123260D01*
X24117Y123246D01*
X24175Y123237D01*
X24233Y123231D01*
X24292Y123229D01*
X24351Y123231D01*
X24409Y123237D01*
X24467Y123246D01*
X24524Y123260D01*
X24580Y123277D01*
X24635Y123297D01*
X24688Y123321D01*
X24740Y123349D01*
X24790Y123380D01*
X24837Y123414D01*
X24883Y123451D01*
X24926Y123491D01*
X24966Y123534D01*
X25003Y123580D01*
X25037Y123627D01*
X25068Y123677D01*
X25096Y123729D01*
X25120Y123782D01*
X25140Y123837D01*
X25157Y123893D01*
X25171Y123950D01*
X25180Y124008D01*
X25186Y124066D01*
X25188Y124125D01*
X25188Y125558D01*
X25186Y125617D01*
X25180Y125675D01*
X25171Y125733D01*
X25157Y125790D01*
X25140Y125846D01*
X25120Y125901D01*
X25096Y125954D01*
X25068Y126006D01*
X25037Y126056D01*
X25003Y126103D01*
X24966Y126149D01*
X24926Y126192D01*
X24883Y126232D01*
X24837Y126269D01*
X24790Y126303D01*
X24740Y126334D01*
X24688Y126362D01*
X24635Y126386D01*
X24580Y126406D01*
X24524Y126423D01*
X24467Y126437D01*
X24409Y126446D01*
X24351Y126452D01*
X24292Y126454D01*
X24233Y126452D01*
X24175Y126446D01*
X24117Y126437D01*
X24060Y126423D01*
X24004Y126406D01*
X23949Y126386D01*
X23896Y126362D01*
X23844Y126334D01*
X23794Y126303D01*
X23747Y126269D01*
X23701Y126232D01*
X23658Y126192D01*
X23618Y126149D01*
X23581Y126103D01*
X23547Y126056D01*
X23516Y126006D01*
X23488Y125954D01*
X23464Y125901D01*
X23444Y125846D01*
X23427Y125790D01*
X23413Y125733D01*
X23404Y125675D01*
X23398Y125617D01*
X23396Y125558D01*
X09651Y123229D02*
X08576Y126454D01*
X07500Y123229D01*
X07769Y124035D02*
X09382Y124035D01*
D17*
X14125Y07172D03*
X18027Y01345D03*
D18*
X18020Y01357D03*
X14551Y07678D03*
X13564Y07987D03*
X12057Y02925D03*
D19*
X11681Y08604D03*
X12335Y10777D03*
X12706Y10777D03*
X12706Y10802D03*
X12718Y10826D03*
X12730Y10863D03*
X12730Y10888D03*
X12743Y10913D03*
X12767Y10999D03*
X12792Y11061D03*
X12878Y11283D03*
X12878Y11406D03*
X12767Y11690D03*
X12743Y11777D03*
X12730Y11802D03*
X12335Y11715D03*
X12385Y12085D03*
X12409Y12197D03*
X12422Y12258D03*
X12434Y12320D03*
X12446Y12345D03*
X12446Y12369D03*
X12459Y12406D03*
X12471Y12431D03*
X12471Y12456D03*
X12496Y12518D03*
X12520Y12604D03*
X13570Y10061D03*
X13607Y09777D03*
X13631Y09690D03*
X14977Y11431D03*
X15002Y11369D03*
X15014Y11320D03*
X15027Y11283D03*
X15039Y11258D03*
X15039Y11234D03*
X15064Y11172D03*
X15064Y11147D03*
X15088Y11085D03*
X15113Y10999D03*
X14952Y11518D03*
X14928Y11579D03*
X14903Y11653D03*
X14891Y11690D03*
X14854Y11802D03*
X16360Y07110D03*
X16520Y05802D03*
X16520Y05777D03*
X16310Y04629D03*
X16323Y04604D03*
X16866Y04542D03*
X16767Y02913D03*
X16767Y02888D03*
X16792Y02802D03*
X16817Y02740D03*
X18175Y02690D03*
X18199Y02542D03*
X18224Y02406D03*
X18249Y01740D03*
X18014Y01369D03*
X21199Y03974D03*
X21224Y04061D03*
X21224Y04456D03*
X21199Y04542D03*
X22199Y04110D03*
X22199Y03950D03*
X10545Y08913D03*
D20*
X10631Y08727D03*
X11706Y08678D03*
X11755Y08443D03*
X11767Y08419D03*
X12829Y09703D03*
X12817Y09727D03*
X13693Y09567D03*
X12767Y11987D03*
X12681Y12925D03*
X13891Y12505D03*
X13915Y12468D03*
X13952Y12419D03*
X13977Y12382D03*
X13989Y12357D03*
X14014Y12332D03*
X14027Y12308D03*
X14039Y12295D03*
X14051Y12271D03*
X14064Y12246D03*
X14767Y10937D03*
X15829Y08764D03*
X15841Y08752D03*
X15854Y08727D03*
X15866Y08703D03*
X15891Y08666D03*
X15903Y08641D03*
X15952Y08567D03*
X15977Y08530D03*
X16014Y08481D03*
X16039Y08443D03*
X15557Y06962D03*
X15545Y06937D03*
X15496Y06814D03*
X16483Y05987D03*
X16496Y05937D03*
X16348Y04555D03*
X16841Y04481D03*
X17397Y06073D03*
X17385Y06098D03*
X17335Y06184D03*
X17323Y06209D03*
X17014Y07419D03*
X18064Y04616D03*
X18150Y04481D03*
X18175Y04443D03*
X18187Y04419D03*
X18434Y04814D03*
X18397Y04851D03*
X19125Y04135D03*
X19162Y04184D03*
X18014Y01382D03*
X17039Y02295D03*
X17014Y02332D03*
X17002Y02357D03*
X21039Y04851D03*
X21051Y04839D03*
X21064Y04814D03*
X22088Y04332D03*
X22113Y04295D03*
X22150Y03851D03*
X22138Y03839D03*
X12088Y03011D03*
D21*
X12946Y08048D03*
X12946Y09555D03*
X13489Y10382D03*
X13280Y12357D03*
X13736Y12703D03*
X13687Y12764D03*
X13662Y12789D03*
X12736Y12987D03*
X11897Y08246D03*
X11922Y08221D03*
X10847Y08443D03*
X10823Y08468D03*
X10798Y08505D03*
X14662Y11122D03*
X14662Y11135D03*
X15662Y09122D03*
X15687Y09073D03*
X15712Y09024D03*
X15712Y09011D03*
X15736Y08962D03*
X16168Y08271D03*
X16218Y08209D03*
X16736Y07814D03*
X16823Y07073D03*
X16465Y06048D03*
X16489Y05394D03*
X16489Y05382D03*
X16391Y04505D03*
X16786Y03419D03*
X17168Y02122D03*
X17193Y02098D03*
X18008Y01394D03*
X18391Y04160D03*
X19255Y04308D03*
X19280Y04332D03*
D22*
X18008Y01406D03*
X17847Y03690D03*
X17823Y03777D03*
X17823Y03802D03*
X17415Y01863D03*
X16415Y05085D03*
X16415Y05110D03*
X16440Y05197D03*
X17033Y08542D03*
X15489Y09542D03*
X12576Y10147D03*
X12057Y08085D03*
X11057Y08234D03*
X21847Y04604D03*
X21872Y04579D03*
D23*
X21730Y04703D03*
X21668Y04752D03*
X22026Y03727D03*
X19286Y04382D03*
X17915Y03394D03*
X17940Y03308D03*
X17940Y03295D03*
X17323Y02839D03*
X17298Y02851D03*
X17533Y01764D03*
X17557Y01752D03*
X18002Y01419D03*
X16347Y06295D03*
X17026Y08530D03*
X15397Y09789D03*
X15372Y09851D03*
X14175Y09135D03*
X14187Y09098D03*
X13212Y09308D03*
X13187Y09332D03*
X12557Y10221D03*
X11175Y08135D03*
X12175Y03122D03*
D24*
X12230Y03172D03*
X12255Y03197D03*
X13218Y04234D03*
X13638Y04579D03*
X12230Y07950D03*
X12526Y10345D03*
X12526Y10369D03*
X13317Y09234D03*
X14144Y09197D03*
X14391Y11542D03*
X14341Y11629D03*
X15280Y10085D03*
X15304Y10036D03*
X15502Y06740D03*
X16638Y04283D03*
X16810Y03715D03*
X16835Y03258D03*
X17971Y03110D03*
X17983Y03061D03*
X17983Y03036D03*
X17638Y01690D03*
X17996Y01431D03*
X17428Y07036D03*
X17082Y07518D03*
X21971Y03690D03*
X11243Y08085D03*
D25*
X11298Y08048D03*
X13422Y09160D03*
X13459Y09135D03*
X13422Y10271D03*
X14286Y11703D03*
X15187Y10332D03*
X15212Y10271D03*
X16804Y04098D03*
X16854Y03209D03*
X17989Y01443D03*
X17323Y07851D03*
X13150Y04160D03*
D26*
X13045Y04061D03*
X12415Y03345D03*
X13773Y04715D03*
X13798Y04740D03*
X12848Y09913D03*
X12514Y10579D03*
X11378Y07999D03*
X14415Y11406D03*
X15119Y10493D03*
X16810Y04061D03*
X17625Y06913D03*
X17082Y07258D03*
X17317Y07913D03*
X17996Y02826D03*
X17983Y01456D03*
X21909Y03653D03*
D27*
X19230Y04394D03*
X17983Y01468D03*
X16835Y03839D03*
X16835Y03851D03*
X16835Y03876D03*
X16823Y03987D03*
X16823Y04011D03*
X17082Y07246D03*
X15094Y10567D03*
X15082Y10592D03*
X15070Y10616D03*
X14193Y11814D03*
X14082Y09271D03*
X14638Y07666D03*
X13847Y04789D03*
X13823Y04764D03*
X12514Y10641D03*
X12514Y10666D03*
D28*
X11496Y07937D03*
X12891Y03900D03*
X12866Y03876D03*
X12607Y03567D03*
X12582Y03530D03*
X12557Y03505D03*
X15026Y10727D03*
X15014Y10752D03*
X15014Y10764D03*
X15002Y10789D03*
X16594Y06937D03*
X17014Y08443D03*
X17298Y07987D03*
X17743Y06851D03*
X16631Y04357D03*
X16915Y03098D03*
X17977Y01481D03*
X21841Y03616D03*
D29*
X17971Y01493D03*
X15539Y07172D03*
X14996Y10802D03*
X13971Y04913D03*
X12860Y03863D03*
X12749Y03740D03*
X12638Y03604D03*
X12588Y03542D03*
D30*
X13360Y10184D03*
X14459Y11221D03*
X14940Y10925D03*
X14952Y10900D03*
X13076Y13209D03*
X17002Y08419D03*
X17817Y06814D03*
X16940Y03048D03*
X17965Y01505D03*
X20261Y03135D03*
X21780Y03592D03*
D31*
X21755Y03579D03*
X20273Y05579D03*
X20138Y05653D03*
X20064Y05690D03*
X20014Y05715D03*
X19965Y05740D03*
X17965Y01518D03*
X17607Y02690D03*
X17385Y05579D03*
X17360Y05629D03*
X16607Y06999D03*
X16434Y07974D03*
X14138Y05085D03*
D32*
X15520Y07209D03*
X16520Y06814D03*
X17952Y01530D03*
X18792Y03900D03*
D33*
X18792Y03913D03*
X17952Y01542D03*
X16570Y04715D03*
X17446Y05493D03*
X17273Y05863D03*
X17977Y06740D03*
X16422Y07950D03*
X14409Y05369D03*
X14335Y05283D03*
X14310Y05258D03*
X14286Y05234D03*
X13989Y09406D03*
X12866Y09974D03*
D34*
X13280Y12295D03*
X14107Y11937D03*
X13971Y09443D03*
X14193Y08752D03*
X14230Y08727D03*
X14280Y08703D03*
X14514Y05481D03*
X14502Y05468D03*
X14477Y05443D03*
X14415Y05382D03*
X14403Y05357D03*
X14378Y05332D03*
X14354Y05308D03*
X14341Y05295D03*
X13193Y07505D03*
X16564Y04703D03*
X17243Y05937D03*
X17230Y05962D03*
X17218Y05987D03*
X17205Y06011D03*
X17205Y06024D03*
X17193Y06048D03*
X17045Y06295D03*
X17033Y06308D03*
X16983Y06382D03*
X16959Y06419D03*
X17946Y01555D03*
X18934Y03789D03*
X18786Y03925D03*
X19378Y03468D03*
X20983Y05727D03*
D35*
X18125Y04937D03*
X17940Y01567D03*
D36*
X17934Y01579D03*
X17489Y05456D03*
X14675Y05629D03*
X14650Y05604D03*
X12872Y09999D03*
D37*
X12878Y10011D03*
X14866Y05814D03*
X14841Y05789D03*
X17928Y01592D03*
X20360Y03876D03*
X21064Y05073D03*
D38*
X21193Y04974D03*
X21218Y04950D03*
X18168Y06653D03*
X17922Y01604D03*
X15415Y07826D03*
X14983Y05913D03*
X13107Y07542D03*
D39*
X17915Y01616D03*
X21236Y04937D03*
D40*
X21255Y04913D03*
X17909Y01629D03*
X17539Y05431D03*
X15070Y05999D03*
X12885Y10036D03*
X11082Y09345D03*
D41*
X12885Y10048D03*
X17020Y08308D03*
X17909Y01641D03*
D42*
X17903Y01653D03*
X17051Y07740D03*
X15150Y06085D03*
X15125Y06061D03*
X14027Y08888D03*
D43*
X13514Y09098D03*
X13477Y09122D03*
X12847Y09900D03*
X12514Y10481D03*
X12514Y10505D03*
X12514Y10530D03*
X11341Y08024D03*
X13107Y04122D03*
X13119Y04135D03*
X13699Y04641D03*
X13736Y04678D03*
X12366Y03295D03*
X14267Y11727D03*
X15168Y10382D03*
X15181Y10357D03*
X15564Y07122D03*
X16526Y04851D03*
X16823Y03764D03*
X17996Y02900D03*
X17996Y02876D03*
X17687Y01666D03*
X17317Y07876D03*
X21193Y05616D03*
X21230Y05468D03*
X21934Y03666D03*
D44*
X22199Y03937D03*
X22199Y03962D03*
X22199Y04098D03*
X21224Y04073D03*
X21224Y04048D03*
X21199Y03987D03*
X21199Y03962D03*
X21224Y04443D03*
X21224Y04468D03*
X21199Y04530D03*
X19039Y03962D03*
X18175Y02678D03*
X18175Y02666D03*
X18199Y02555D03*
X18224Y02394D03*
X18249Y02221D03*
X18249Y02209D03*
X18249Y01752D03*
X18224Y01666D03*
X16792Y02814D03*
X16767Y02900D03*
X16310Y04616D03*
X16310Y04641D03*
X16323Y04666D03*
X16520Y05764D03*
X16520Y05789D03*
X16385Y07048D03*
X15496Y06851D03*
X15138Y10937D03*
X15113Y10987D03*
X15113Y11011D03*
X15088Y11073D03*
X15088Y11098D03*
X15064Y11160D03*
X15039Y11246D03*
X15027Y11271D03*
X15027Y11295D03*
X15014Y11308D03*
X15014Y11332D03*
X15002Y11357D03*
X14977Y11443D03*
X14952Y11505D03*
X14928Y11592D03*
X14903Y11666D03*
X14891Y11703D03*
X14878Y11727D03*
X14866Y11764D03*
X14199Y10209D03*
X13582Y09937D03*
X13582Y09925D03*
X13594Y09851D03*
X13594Y09839D03*
X13607Y09789D03*
X13607Y09764D03*
X13631Y09703D03*
X13631Y09678D03*
X12743Y10925D03*
X12730Y10876D03*
X12718Y10851D03*
X12718Y10839D03*
X12706Y10814D03*
X12706Y10789D03*
X12681Y10703D03*
X12767Y10987D03*
X12878Y11295D03*
X12878Y11308D03*
X12878Y11394D03*
X12878Y11419D03*
X12866Y11443D03*
X12854Y11481D03*
X12743Y11752D03*
X12743Y11764D03*
X12730Y11814D03*
X12730Y11937D03*
X12360Y11937D03*
X12360Y11925D03*
X12385Y12073D03*
X12409Y12209D03*
X12409Y12221D03*
X12422Y12271D03*
X12434Y12295D03*
X12434Y12308D03*
X12434Y12332D03*
X12446Y12357D03*
X12446Y12382D03*
X12459Y12394D03*
X12459Y12419D03*
X12471Y12443D03*
X12496Y12530D03*
X12520Y12592D03*
X12323Y11567D03*
X12323Y10900D03*
X11681Y08592D03*
X10545Y08900D03*
D45*
X12317Y03246D03*
X13168Y04184D03*
X13675Y04616D03*
X14131Y09221D03*
X14403Y11481D03*
X14304Y11678D03*
X14551Y12246D03*
X15218Y10246D03*
X15230Y10221D03*
X15243Y10184D03*
X15502Y06727D03*
X16810Y03727D03*
X16848Y03221D03*
X17996Y02962D03*
X17996Y02937D03*
X17996Y02925D03*
X17662Y01678D03*
X18576Y04727D03*
X17539Y06962D03*
X17317Y07839D03*
X12514Y10443D03*
D46*
X12749Y10937D03*
X12773Y11011D03*
X12786Y11048D03*
X12798Y11073D03*
X12810Y11122D03*
X12823Y11135D03*
X12835Y11184D03*
X12860Y11246D03*
X12860Y11468D03*
X12835Y11530D03*
X12823Y11555D03*
X12823Y11567D03*
X12810Y11592D03*
X12798Y11616D03*
X12786Y11641D03*
X12773Y11666D03*
X12773Y11678D03*
X12761Y11703D03*
X12477Y12468D03*
X12489Y12505D03*
X12527Y12616D03*
X12539Y12641D03*
X12551Y12666D03*
X12551Y12678D03*
X12564Y12703D03*
X12588Y12764D03*
X13514Y10443D03*
X13638Y09666D03*
X13650Y09641D03*
X13662Y09616D03*
X13662Y07184D03*
X14983Y11419D03*
X14996Y11382D03*
X14946Y11530D03*
X14934Y11567D03*
X14909Y11641D03*
X14860Y11789D03*
X14835Y11839D03*
X14835Y11851D03*
X14823Y11876D03*
X14810Y11900D03*
X14810Y11925D03*
X14798Y11937D03*
X14786Y11962D03*
X14773Y12011D03*
X14761Y12024D03*
X15045Y11221D03*
X15057Y11184D03*
X15107Y11024D03*
X16366Y07098D03*
X16378Y07073D03*
X16514Y05851D03*
X16514Y05839D03*
X16514Y05814D03*
X16527Y05678D03*
X16527Y05666D03*
X16527Y05641D03*
X16798Y02789D03*
X16810Y02752D03*
X16823Y02727D03*
X16835Y02678D03*
X16860Y02616D03*
X16885Y02567D03*
X18230Y01678D03*
X19045Y03987D03*
X19057Y04011D03*
X21181Y03925D03*
X21193Y04555D03*
X21193Y04567D03*
X21181Y04592D03*
X22156Y04221D03*
X22181Y04160D03*
X22181Y03900D03*
X15489Y06839D03*
X15502Y06876D03*
X12243Y07555D03*
X11699Y08555D03*
X11687Y08567D03*
X11675Y08666D03*
X10996Y09394D03*
X10551Y08876D03*
X10564Y08851D03*
D47*
X10533Y08950D03*
X10533Y09036D03*
X11668Y08653D03*
X12693Y10740D03*
X12755Y10950D03*
X12372Y11999D03*
X12397Y12147D03*
X12347Y11826D03*
X12483Y12493D03*
X12533Y12629D03*
X13619Y09740D03*
X13619Y09715D03*
X13644Y09653D03*
X12940Y08085D03*
X14989Y11406D03*
X14940Y11542D03*
X14915Y11629D03*
X14829Y11863D03*
X15051Y11197D03*
X15076Y11110D03*
X15101Y11036D03*
X15125Y10974D03*
X16755Y02950D03*
X16780Y02863D03*
X16804Y02777D03*
X18187Y02629D03*
X18187Y02604D03*
X18236Y02320D03*
X18236Y01715D03*
X18236Y01690D03*
X21212Y03999D03*
X21212Y04493D03*
X21212Y04518D03*
X21187Y04579D03*
X22187Y04147D03*
D48*
X21989Y03703D03*
X21619Y04789D03*
X21261Y05481D03*
X17965Y03160D03*
X17965Y03135D03*
X17619Y01703D03*
X16829Y03271D03*
X16804Y03703D03*
X16780Y04160D03*
X15323Y09987D03*
X14372Y11592D03*
X14347Y11616D03*
X13261Y09271D03*
X12533Y10308D03*
X12533Y10332D03*
X12212Y07962D03*
X13261Y04271D03*
X13236Y04246D03*
X12212Y03160D03*
X12187Y03135D03*
D49*
X12076Y02987D03*
X10533Y08925D03*
X10533Y08937D03*
X12347Y11839D03*
X12372Y12011D03*
X12397Y12135D03*
X12397Y12160D03*
X12483Y12481D03*
X12508Y12555D03*
X12508Y12567D03*
X12755Y11727D03*
X12829Y11160D03*
X12804Y11098D03*
X12780Y11024D03*
X12755Y10962D03*
X12693Y10764D03*
X12693Y10752D03*
X13619Y09727D03*
X14236Y11024D03*
X14533Y12419D03*
X14915Y11616D03*
X14940Y11555D03*
X14965Y11481D03*
X14965Y11468D03*
X14989Y11394D03*
X15051Y11209D03*
X15076Y11135D03*
X15076Y11122D03*
X15101Y11048D03*
X15125Y10962D03*
X16533Y05703D03*
X16755Y02962D03*
X16755Y02937D03*
X16780Y02851D03*
X16780Y02839D03*
X16804Y02764D03*
X16829Y02703D03*
X18187Y02616D03*
X18212Y02481D03*
X18212Y02468D03*
X18236Y02308D03*
X18261Y01851D03*
X18236Y01703D03*
X21187Y03937D03*
X21212Y04011D03*
X21212Y04024D03*
X21236Y04122D03*
X21236Y04382D03*
X21236Y04394D03*
X21212Y04505D03*
X22187Y04135D03*
X22187Y03925D03*
D50*
X21607Y04802D03*
X21570Y04826D03*
X21249Y05579D03*
X20878Y03604D03*
X17977Y03085D03*
X17607Y01715D03*
X17360Y07085D03*
X17027Y08518D03*
X15335Y09950D03*
X15310Y09999D03*
X14360Y11604D03*
X14545Y12283D03*
X14162Y09172D03*
X13273Y09258D03*
X13594Y04542D03*
X13249Y04258D03*
X12199Y03147D03*
D51*
X13292Y04295D03*
X13341Y04332D03*
X13366Y04357D03*
X13403Y04382D03*
X13415Y04394D03*
X13452Y04419D03*
X13477Y04443D03*
X13514Y04468D03*
X13527Y04481D03*
X13564Y04505D03*
X14181Y09122D03*
X13230Y09295D03*
X12823Y09876D03*
X12539Y10295D03*
X12181Y07987D03*
X11193Y08122D03*
X14391Y11567D03*
X14539Y12295D03*
X15329Y09962D03*
X15341Y09937D03*
X15341Y09925D03*
X15354Y09900D03*
X15366Y09876D03*
X15378Y09839D03*
X16230Y07221D03*
X16329Y06332D03*
X16341Y06308D03*
X16502Y04900D03*
X16761Y04184D03*
X16823Y03295D03*
X17588Y01727D03*
X17959Y03184D03*
X17959Y03209D03*
X17959Y03221D03*
X17946Y03246D03*
X17946Y03271D03*
X17378Y07073D03*
X17341Y07098D03*
X17045Y07332D03*
X17317Y07789D03*
X15502Y06752D03*
X21650Y04764D03*
X21699Y04727D03*
D52*
X21218Y04481D03*
X21230Y04419D03*
X21243Y04357D03*
X21243Y04332D03*
X21243Y04308D03*
X21243Y04295D03*
X21243Y04271D03*
X21243Y04246D03*
X21243Y04221D03*
X21243Y04209D03*
X21243Y04184D03*
X21243Y04160D03*
X21243Y04135D03*
X21230Y04098D03*
X22193Y04122D03*
X22205Y04073D03*
X22205Y04048D03*
X22205Y04024D03*
X22205Y04011D03*
X22205Y03987D03*
X18168Y02703D03*
X18181Y02641D03*
X18193Y02592D03*
X18193Y02567D03*
X18205Y02530D03*
X18205Y02505D03*
X18218Y02443D03*
X18218Y02419D03*
X18230Y02382D03*
X18230Y02357D03*
X18230Y02332D03*
X18243Y02295D03*
X18243Y02271D03*
X18243Y02246D03*
X18255Y02184D03*
X18255Y02160D03*
X18255Y02135D03*
X18255Y02122D03*
X18255Y02098D03*
X18255Y02073D03*
X18267Y02048D03*
X18267Y02024D03*
X18267Y02011D03*
X18267Y01987D03*
X18267Y01962D03*
X18267Y01937D03*
X18267Y01925D03*
X18267Y01900D03*
X18267Y01876D03*
X18255Y01839D03*
X18255Y01814D03*
X18255Y01789D03*
X18255Y01764D03*
X18243Y01727D03*
X16773Y02876D03*
X16761Y02925D03*
X16749Y02987D03*
X16526Y05727D03*
X16526Y05752D03*
X16366Y07122D03*
X16366Y07135D03*
X14243Y11048D03*
X14243Y11073D03*
X14243Y11098D03*
X14243Y11122D03*
X14243Y11135D03*
X14243Y11160D03*
X14230Y11011D03*
X14230Y10987D03*
X14230Y10962D03*
X14230Y10937D03*
X14230Y10925D03*
X14230Y10900D03*
X14230Y10876D03*
X14230Y10851D03*
X14218Y10839D03*
X14218Y10814D03*
X14218Y10789D03*
X14218Y10764D03*
X14218Y10752D03*
X14218Y10727D03*
X14218Y10703D03*
X14218Y10678D03*
X14218Y10666D03*
X14218Y10641D03*
X14218Y10616D03*
X14205Y10592D03*
X14205Y10567D03*
X14205Y10555D03*
X14205Y10530D03*
X14205Y10505D03*
X14205Y10481D03*
X14205Y10468D03*
X14205Y10443D03*
X14205Y10419D03*
X14205Y10394D03*
X14205Y10382D03*
X14205Y10357D03*
X14205Y10332D03*
X14205Y10308D03*
X14205Y10295D03*
X14205Y10271D03*
X14205Y10246D03*
X14205Y10221D03*
X14193Y10184D03*
X14193Y10160D03*
X14193Y10135D03*
X14193Y10122D03*
X14193Y10098D03*
X14193Y10073D03*
X14193Y10048D03*
X14193Y10024D03*
X14193Y10011D03*
X14193Y09987D03*
X14193Y09962D03*
X14193Y09937D03*
X14193Y09925D03*
X14193Y09900D03*
X14205Y09876D03*
X14205Y09851D03*
X14205Y09839D03*
X14205Y09814D03*
X14205Y09789D03*
X14205Y09764D03*
X14205Y09752D03*
X14205Y09727D03*
X14205Y09703D03*
X14205Y09678D03*
X14205Y09666D03*
X14205Y09641D03*
X14205Y09616D03*
X14205Y09592D03*
X14218Y09567D03*
X14218Y09555D03*
X14218Y09530D03*
X14218Y09505D03*
X14218Y09481D03*
X14218Y09468D03*
X13613Y09752D03*
X13601Y09814D03*
X13576Y09962D03*
X13576Y09987D03*
X13576Y10011D03*
X13576Y10024D03*
X13576Y10048D03*
X13564Y07962D03*
X14131Y07209D03*
X12736Y11789D03*
X12366Y11962D03*
X12366Y11987D03*
X12378Y12024D03*
X12378Y12048D03*
X12391Y12098D03*
X12391Y12122D03*
X12403Y12184D03*
X12415Y12246D03*
X12354Y11900D03*
X12354Y11876D03*
X12354Y11851D03*
X12341Y11814D03*
X12341Y11789D03*
X12341Y11764D03*
X12341Y11752D03*
X12341Y11727D03*
X12329Y11703D03*
X12329Y11678D03*
X12329Y11666D03*
X12329Y11641D03*
X12329Y11616D03*
X12329Y11592D03*
X12329Y10876D03*
X12329Y10851D03*
X12329Y10839D03*
X12329Y10814D03*
X12329Y10789D03*
X12341Y10764D03*
X12341Y10752D03*
X12341Y10727D03*
X12341Y10703D03*
X12687Y10727D03*
X11675Y08641D03*
X11675Y08616D03*
X10526Y08962D03*
X10526Y08987D03*
X10526Y09011D03*
X10526Y09024D03*
D53*
X11162Y08147D03*
X12162Y07999D03*
X13459Y10320D03*
X14187Y09110D03*
X13459Y12974D03*
X15397Y09802D03*
X15397Y09777D03*
X17323Y07777D03*
X17915Y03406D03*
X17940Y03283D03*
X17286Y02863D03*
X17570Y01740D03*
X21718Y04715D03*
X21743Y04690D03*
X12162Y03110D03*
D54*
X13199Y09320D03*
X12545Y10258D03*
X15385Y09826D03*
X17928Y03369D03*
X17928Y03345D03*
X17520Y01777D03*
X18545Y04740D03*
X21681Y04740D03*
D55*
X21230Y04431D03*
X21230Y04406D03*
X21243Y04369D03*
X21243Y04345D03*
X21243Y04320D03*
X21243Y04283D03*
X21243Y04258D03*
X21243Y04234D03*
X21243Y04197D03*
X21243Y04172D03*
X21243Y04147D03*
X21230Y04110D03*
X21230Y04085D03*
X21218Y04036D03*
X22205Y04036D03*
X22205Y04061D03*
X22205Y04085D03*
X22205Y03999D03*
X22205Y03974D03*
X18168Y02715D03*
X18181Y02653D03*
X18193Y02579D03*
X18205Y02518D03*
X18205Y02493D03*
X18218Y02456D03*
X18218Y02431D03*
X18230Y02369D03*
X18230Y02345D03*
X18243Y02283D03*
X18243Y02258D03*
X18243Y02234D03*
X18255Y02197D03*
X18255Y02172D03*
X18255Y02147D03*
X18255Y02110D03*
X18255Y02085D03*
X18267Y02061D03*
X18267Y02036D03*
X18267Y01999D03*
X18267Y01974D03*
X18267Y01950D03*
X18267Y01913D03*
X18267Y01888D03*
X18267Y01863D03*
X18255Y01826D03*
X18255Y01802D03*
X18255Y01777D03*
X17675Y02518D03*
X16996Y03913D03*
X16662Y03913D03*
X16749Y02974D03*
X16526Y05715D03*
X16526Y05740D03*
X14243Y11036D03*
X14243Y11061D03*
X14243Y11085D03*
X14243Y11110D03*
X14243Y11147D03*
X14243Y11172D03*
X14230Y10999D03*
X14230Y10974D03*
X14230Y10950D03*
X14230Y10913D03*
X14230Y10888D03*
X14230Y10863D03*
X14218Y10826D03*
X14218Y10802D03*
X14218Y10777D03*
X14218Y10740D03*
X14218Y10715D03*
X14218Y10690D03*
X14218Y10653D03*
X14218Y10629D03*
X14205Y10604D03*
X14205Y10579D03*
X14205Y10542D03*
X14205Y10518D03*
X14205Y10493D03*
X14205Y10456D03*
X14205Y10431D03*
X14205Y10406D03*
X14205Y10369D03*
X14205Y10345D03*
X14205Y10320D03*
X14205Y10283D03*
X14205Y10258D03*
X14205Y10234D03*
X14193Y10197D03*
X14193Y10172D03*
X14193Y10147D03*
X14193Y10110D03*
X14193Y10085D03*
X14193Y10061D03*
X14193Y10036D03*
X14193Y09999D03*
X14193Y09974D03*
X14193Y09950D03*
X14193Y09913D03*
X14193Y09888D03*
X14205Y09863D03*
X14205Y09826D03*
X14205Y09802D03*
X14205Y09777D03*
X14205Y09740D03*
X14205Y09715D03*
X14205Y09690D03*
X14205Y09653D03*
X14205Y09629D03*
X14205Y09604D03*
X14205Y09579D03*
X14218Y09542D03*
X14218Y09518D03*
X14218Y09493D03*
X13601Y09802D03*
X13601Y09826D03*
X13576Y09950D03*
X13576Y09974D03*
X13576Y09999D03*
X13576Y10036D03*
X13514Y10456D03*
X12687Y10715D03*
X12341Y10715D03*
X12341Y10740D03*
X12329Y10802D03*
X12329Y10826D03*
X12329Y10863D03*
X12329Y10888D03*
X12329Y11579D03*
X12329Y11604D03*
X12329Y11629D03*
X12329Y11653D03*
X12329Y11690D03*
X12341Y11740D03*
X12341Y11777D03*
X12341Y11802D03*
X12354Y11863D03*
X12354Y11888D03*
X12354Y11913D03*
X12366Y11950D03*
X12366Y11974D03*
X12378Y12036D03*
X12378Y12061D03*
X12391Y12110D03*
X12403Y12172D03*
X12415Y12234D03*
X11675Y08629D03*
X10526Y08974D03*
X10526Y08999D03*
X12070Y02974D03*
D56*
X12243Y07567D03*
X12144Y08011D03*
X12946Y08011D03*
X13465Y10332D03*
X13786Y09481D03*
X13798Y09468D03*
X14205Y09048D03*
X14218Y09024D03*
X15440Y09666D03*
X15440Y09678D03*
X15415Y09727D03*
X15403Y09764D03*
X16255Y07209D03*
X16366Y06271D03*
X16378Y06246D03*
X15502Y06764D03*
X15576Y07073D03*
X16810Y03332D03*
X17502Y01789D03*
X17922Y03382D03*
X17897Y03468D03*
X17897Y03481D03*
X17897Y03505D03*
X17872Y03592D03*
X21761Y04678D03*
X21773Y04666D03*
X11144Y08160D03*
D57*
X12551Y10234D03*
X12810Y09863D03*
X13168Y09345D03*
X14193Y09085D03*
X14205Y09061D03*
X14539Y12320D03*
X15415Y09740D03*
X16354Y06283D03*
X16489Y04913D03*
X16810Y03320D03*
X17255Y02888D03*
X17897Y03493D03*
X17489Y01802D03*
X18601Y03950D03*
X20378Y03950D03*
X21786Y04653D03*
D58*
X21267Y05567D03*
X18588Y03962D03*
X17885Y03530D03*
X17909Y03443D03*
X17909Y03419D03*
X17267Y02876D03*
X17477Y01814D03*
X15452Y09641D03*
X15428Y09703D03*
X13156Y09357D03*
X12564Y10209D03*
X12131Y08024D03*
X13477Y12962D03*
D59*
X13496Y12950D03*
X13064Y13283D03*
X13471Y10345D03*
X13138Y09369D03*
X12570Y10172D03*
X12113Y08036D03*
X12138Y03085D03*
X15582Y07061D03*
X16385Y06234D03*
X16422Y05147D03*
X17224Y02913D03*
X17459Y01826D03*
X17891Y03518D03*
X17878Y03579D03*
X17866Y03604D03*
X17866Y03629D03*
X17854Y03653D03*
X17841Y03715D03*
X18570Y03974D03*
X16792Y07777D03*
X15471Y09604D03*
X15459Y09629D03*
X15446Y09653D03*
X15434Y09690D03*
X21286Y05493D03*
X21817Y04629D03*
X22039Y03740D03*
D60*
X21829Y04616D03*
X20891Y03592D03*
X17878Y03567D03*
X17878Y03555D03*
X17866Y03616D03*
X17854Y03666D03*
X17854Y03678D03*
X17841Y03703D03*
X17829Y03764D03*
X17656Y02567D03*
X17434Y01851D03*
X17446Y01839D03*
X17199Y02937D03*
X16792Y03666D03*
X16483Y04925D03*
X16471Y04937D03*
X16422Y05135D03*
X16422Y05160D03*
X16434Y05184D03*
X15496Y09530D03*
X15483Y09567D03*
X15471Y09592D03*
X15459Y09616D03*
X14224Y09011D03*
X13681Y07221D03*
X13125Y09382D03*
X13113Y09394D03*
X12570Y10184D03*
X11088Y08209D03*
X11113Y08184D03*
X12150Y03098D03*
D61*
X12131Y03073D03*
X12070Y08073D03*
X12946Y08024D03*
X13082Y09419D03*
X13477Y10357D03*
X13527Y12925D03*
X14539Y12332D03*
X15502Y09505D03*
X15514Y09481D03*
X16391Y06221D03*
X16786Y03641D03*
X17354Y01925D03*
X17378Y01900D03*
X17403Y01876D03*
X17860Y03641D03*
X17835Y03727D03*
X17835Y03752D03*
X17810Y03814D03*
X17810Y03839D03*
X17798Y03876D03*
X17786Y03925D03*
X17773Y03962D03*
X17749Y04048D03*
X18317Y04925D03*
X18564Y03987D03*
X21860Y04592D03*
X21885Y04567D03*
X11070Y08221D03*
X11045Y08246D03*
D62*
X12082Y08061D03*
X13094Y09406D03*
X13070Y09431D03*
X13539Y12913D03*
X15477Y09579D03*
X15502Y09518D03*
X15514Y09493D03*
X15527Y09456D03*
X15502Y06777D03*
X16403Y06197D03*
X16428Y05172D03*
X16452Y04950D03*
X16786Y03653D03*
X16810Y03345D03*
X17181Y02950D03*
X17366Y01913D03*
X17391Y01888D03*
X17835Y03740D03*
X17810Y03826D03*
X17798Y03863D03*
X17798Y03888D03*
X17786Y03913D03*
X17082Y07493D03*
D63*
X16767Y07789D03*
X16409Y06184D03*
X16422Y06160D03*
X16459Y05271D03*
X16446Y05246D03*
X16409Y05073D03*
X16409Y05048D03*
X16446Y04962D03*
X16767Y04666D03*
X16804Y03357D03*
X17150Y02987D03*
X17175Y02962D03*
X17335Y01937D03*
X17804Y03851D03*
X17780Y03937D03*
X17767Y03987D03*
X17755Y04024D03*
X17743Y04073D03*
X17730Y04098D03*
X17730Y04122D03*
X17718Y04160D03*
X17705Y04184D03*
X17705Y04209D03*
X17693Y04246D03*
X17681Y04271D03*
X17644Y04394D03*
X18533Y04011D03*
X15557Y09382D03*
X15545Y09394D03*
X15545Y09419D03*
X15533Y09443D03*
X13570Y07900D03*
X13557Y12900D03*
X12767Y13011D03*
X12039Y08098D03*
X11014Y08271D03*
X10989Y08295D03*
X10977Y08308D03*
X21891Y04555D03*
D64*
X21959Y04493D03*
X22082Y03777D03*
X17712Y04172D03*
X17687Y04258D03*
X17662Y04345D03*
X17650Y04369D03*
X17625Y04456D03*
X17601Y04542D03*
X17576Y04604D03*
X17576Y04629D03*
X17551Y04690D03*
X17526Y04777D03*
X17514Y04802D03*
X17465Y04950D03*
X16786Y03629D03*
X16465Y05283D03*
X16415Y06172D03*
X15601Y09258D03*
X15601Y09283D03*
X17280Y01999D03*
X17304Y01974D03*
X17329Y01950D03*
X12946Y08036D03*
X13008Y09493D03*
X12983Y09518D03*
X12033Y08110D03*
X10959Y08320D03*
X12119Y03061D03*
D65*
X12107Y03048D03*
X13675Y07209D03*
X13020Y09481D03*
X12996Y09505D03*
X12020Y08122D03*
X14539Y12357D03*
X15564Y09357D03*
X15588Y09308D03*
X15588Y09295D03*
X15613Y09246D03*
X15638Y09184D03*
X15588Y07048D03*
X15502Y06789D03*
X16428Y06135D03*
X17020Y07382D03*
X17070Y07481D03*
X17502Y04839D03*
X17539Y04727D03*
X17564Y04666D03*
X17564Y04641D03*
X17588Y04592D03*
X17588Y04567D03*
X17613Y04505D03*
X17613Y04481D03*
X17638Y04419D03*
X17675Y04308D03*
X17675Y04295D03*
X17699Y04221D03*
X17724Y04135D03*
X18502Y04764D03*
X17267Y02011D03*
X17292Y01987D03*
X17317Y01962D03*
X22070Y03764D03*
D66*
X21946Y04505D03*
X21922Y04530D03*
X18489Y04048D03*
X18465Y04073D03*
X18354Y04900D03*
X17650Y04382D03*
X17662Y04332D03*
X17625Y04443D03*
X17625Y04468D03*
X17601Y04530D03*
X17601Y04555D03*
X17576Y04616D03*
X17551Y04678D03*
X17551Y04703D03*
X17526Y04752D03*
X17526Y04764D03*
X17514Y04814D03*
X17489Y04876D03*
X16798Y03394D03*
X16798Y03382D03*
X16415Y04481D03*
X16465Y05295D03*
X16440Y06122D03*
X15625Y09209D03*
X15601Y09271D03*
X15576Y09332D03*
X13736Y09530D03*
X13033Y09468D03*
X12008Y08135D03*
X12798Y12011D03*
X13601Y12851D03*
X13576Y12876D03*
X17255Y02024D03*
D67*
X17249Y02036D03*
X17224Y02061D03*
X16792Y03406D03*
X16804Y04629D03*
X16409Y04999D03*
X16471Y05320D03*
X16483Y05345D03*
X16446Y06110D03*
X16940Y06147D03*
X17446Y04999D03*
X17459Y04974D03*
X17483Y04888D03*
X17496Y04863D03*
X17508Y04826D03*
X18434Y04110D03*
X18459Y04085D03*
X19310Y04369D03*
X20891Y03579D03*
X21989Y04456D03*
X16261Y08172D03*
X15681Y09085D03*
X15668Y09110D03*
X15656Y09147D03*
X15644Y09172D03*
X15631Y09197D03*
X13730Y09542D03*
X13570Y07913D03*
X13631Y12826D03*
X11965Y08172D03*
X10940Y08345D03*
X10915Y08369D03*
X10878Y08406D03*
D68*
X10891Y08394D03*
X10903Y08382D03*
X10928Y08357D03*
X10952Y08332D03*
X10866Y08419D03*
X11952Y08184D03*
X11977Y08160D03*
X12965Y09530D03*
X13644Y12814D03*
X13619Y12839D03*
X13064Y13295D03*
X14644Y11160D03*
X15619Y09221D03*
X15644Y09160D03*
X15656Y09135D03*
X16446Y06098D03*
X16483Y05357D03*
X16471Y05308D03*
X16409Y05024D03*
X16409Y05011D03*
X16422Y04987D03*
X16792Y04641D03*
X16780Y03616D03*
X17212Y02073D03*
X17236Y02048D03*
X17520Y04789D03*
X17496Y04851D03*
X17483Y04900D03*
X17471Y04925D03*
X17471Y04937D03*
X17459Y04962D03*
X17434Y05024D03*
X16977Y06073D03*
X16965Y06098D03*
X16952Y06122D03*
X16915Y06184D03*
X16903Y06209D03*
X17027Y08555D03*
X18409Y04135D03*
X18422Y04122D03*
X18446Y04098D03*
X19298Y04357D03*
X21310Y05505D03*
X21310Y05530D03*
X21965Y04481D03*
X21977Y04468D03*
X22002Y04443D03*
X22101Y03789D03*
D69*
X22107Y03802D03*
X19292Y04345D03*
X19267Y04320D03*
X18403Y04147D03*
X18378Y04172D03*
X18366Y04888D03*
X17181Y02110D03*
X17206Y02085D03*
X16773Y03604D03*
X16378Y04518D03*
X16452Y06085D03*
X16835Y07085D03*
X16181Y08258D03*
X15699Y09036D03*
X15588Y07036D03*
X15502Y06802D03*
X14699Y11061D03*
X14675Y11110D03*
X14638Y11172D03*
X14539Y12369D03*
X13749Y12690D03*
X13675Y12777D03*
X11909Y08234D03*
X10860Y08431D03*
X10835Y08456D03*
D70*
X10755Y08555D03*
X10743Y08567D03*
X11829Y08332D03*
X11854Y08308D03*
X12915Y09592D03*
X12891Y09616D03*
X12878Y09641D03*
X13705Y09555D03*
X13496Y10394D03*
X13570Y07925D03*
X13780Y07666D03*
X13422Y07481D03*
X14718Y11024D03*
X14705Y11048D03*
X14693Y11073D03*
X14681Y11098D03*
X15743Y08937D03*
X15755Y08925D03*
X15767Y08900D03*
X16101Y08357D03*
X16138Y08308D03*
X16150Y08295D03*
X16187Y08246D03*
X15594Y07024D03*
X16471Y06024D03*
X16496Y05419D03*
X16372Y04530D03*
X16780Y03592D03*
X17138Y02160D03*
X17162Y02135D03*
X18347Y04209D03*
X18335Y04221D03*
X18298Y04271D03*
X18372Y04876D03*
X19187Y04221D03*
X19249Y04295D03*
X22039Y04394D03*
X22051Y04382D03*
X13854Y12555D03*
X13829Y12592D03*
X13804Y12616D03*
X13767Y12666D03*
X13755Y12678D03*
X13718Y12727D03*
D71*
X13730Y12715D03*
X13705Y12740D03*
X13780Y12653D03*
X13817Y12604D03*
X12780Y11999D03*
X12718Y12974D03*
X12903Y09604D03*
X12928Y09579D03*
X13409Y07493D03*
X11891Y08258D03*
X11841Y08320D03*
X10804Y08493D03*
X10767Y08542D03*
X10718Y08604D03*
X10570Y09061D03*
X14718Y11036D03*
X15718Y08999D03*
X15730Y08974D03*
X15743Y08950D03*
X15755Y08913D03*
X15767Y08888D03*
X15780Y08863D03*
X16162Y08283D03*
X16199Y08234D03*
X17014Y07406D03*
X16471Y06036D03*
X16496Y05431D03*
X16496Y05406D03*
X16829Y04604D03*
X17150Y02147D03*
X18360Y04197D03*
X18323Y04234D03*
X18286Y04283D03*
X18483Y04777D03*
X19212Y04258D03*
X19199Y04234D03*
X19236Y04283D03*
X21323Y05518D03*
X22064Y04369D03*
D72*
X22082Y04345D03*
X22131Y03826D03*
X18243Y04345D03*
X18181Y04431D03*
X17082Y02234D03*
X17107Y02197D03*
X17131Y02172D03*
X16786Y03456D03*
X16773Y03579D03*
X16366Y04542D03*
X16502Y05456D03*
X16477Y05999D03*
X16860Y07110D03*
X16131Y08320D03*
X16107Y08345D03*
X16094Y08369D03*
X16070Y08406D03*
X16045Y08431D03*
X15810Y08802D03*
X15798Y08826D03*
X15564Y06974D03*
X14749Y10974D03*
X13959Y12406D03*
X13946Y12431D03*
X13885Y12518D03*
X13860Y12542D03*
X13835Y12579D03*
X13798Y12629D03*
X13502Y10406D03*
X12885Y09629D03*
X12946Y08061D03*
X13810Y07629D03*
X13835Y07604D03*
X12699Y12950D03*
X10699Y08629D03*
D73*
X10687Y08641D03*
X10712Y08616D03*
X12687Y12937D03*
X12712Y12962D03*
X12847Y09678D03*
X13823Y07616D03*
X14736Y10987D03*
X13872Y12530D03*
X13847Y12567D03*
X15576Y06987D03*
X16119Y08332D03*
X16057Y08419D03*
X15823Y08789D03*
X16847Y07098D03*
X16489Y05962D03*
X17033Y08567D03*
X18255Y04332D03*
X18280Y04295D03*
X18465Y04789D03*
X19144Y04160D03*
X17057Y02271D03*
X17119Y02184D03*
X22119Y03814D03*
D74*
X22070Y04357D03*
X21020Y04876D03*
X19206Y04246D03*
X19181Y04209D03*
X18317Y04246D03*
X18267Y04308D03*
X18230Y04357D03*
X18218Y04382D03*
X18206Y04394D03*
X17094Y02221D03*
X17107Y02209D03*
X16786Y03443D03*
X16773Y03567D03*
X16835Y04592D03*
X16502Y05443D03*
X16502Y05468D03*
X16477Y06011D03*
X15588Y07011D03*
X16082Y08382D03*
X16070Y08394D03*
X16020Y08468D03*
X15996Y08505D03*
X15810Y08814D03*
X15798Y08839D03*
X15786Y08851D03*
X15773Y08876D03*
X14749Y10962D03*
X14724Y11011D03*
X14539Y12382D03*
X13934Y12443D03*
X13909Y12481D03*
X12773Y09839D03*
X12860Y09666D03*
X13798Y07641D03*
X12094Y03024D03*
X11810Y08357D03*
X11798Y08382D03*
X11786Y08394D03*
X10724Y08592D03*
X10662Y08678D03*
D75*
X10668Y08666D03*
X10644Y08703D03*
X13508Y10419D03*
X13965Y12394D03*
X14533Y12394D03*
X15940Y08592D03*
X15965Y08555D03*
X15533Y06925D03*
X16508Y05505D03*
X16508Y05481D03*
X17372Y06122D03*
X18101Y04555D03*
X17668Y02530D03*
X17076Y02246D03*
X16780Y03468D03*
X16780Y03481D03*
D76*
X16841Y04579D03*
X16496Y05950D03*
X16027Y08456D03*
X16002Y08493D03*
X15989Y08518D03*
X15928Y08604D03*
X15915Y08629D03*
X15841Y08740D03*
X17360Y06147D03*
X18125Y04518D03*
X18138Y04493D03*
X18162Y04456D03*
X18199Y04406D03*
X18224Y04369D03*
X18446Y04802D03*
X19113Y04110D03*
X19138Y04147D03*
X19150Y04172D03*
X21051Y04826D03*
X21088Y04777D03*
X17051Y02283D03*
X17064Y02258D03*
X17027Y02320D03*
X14064Y12258D03*
X14039Y12283D03*
X14014Y12320D03*
X14002Y12345D03*
X13989Y12369D03*
X13928Y12456D03*
X12829Y09715D03*
X12841Y09690D03*
X12656Y12888D03*
X10656Y08690D03*
X10681Y08653D03*
D77*
X10551Y09048D03*
X11736Y08468D03*
X12798Y09752D03*
X12798Y09764D03*
X12625Y12839D03*
X12650Y12876D03*
X12662Y12900D03*
X13057Y13308D03*
X15922Y08616D03*
X16502Y05925D03*
X16502Y05900D03*
X16514Y05555D03*
X16514Y05530D03*
X16847Y04567D03*
X16773Y03555D03*
X16983Y02394D03*
X16983Y02382D03*
X17033Y02308D03*
X17983Y04752D03*
X18008Y04703D03*
X18033Y04666D03*
X18082Y04592D03*
X18094Y04567D03*
X18119Y04530D03*
X17934Y04839D03*
X18415Y04839D03*
X19119Y04122D03*
X19107Y04098D03*
X20897Y03567D03*
X21119Y04727D03*
X21107Y04752D03*
X21094Y04764D03*
X21082Y04789D03*
X22107Y04308D03*
X22144Y04246D03*
X17008Y07443D03*
D78*
X17008Y07431D03*
X16502Y05913D03*
X16514Y05542D03*
X16514Y05518D03*
X16847Y04493D03*
X16773Y03542D03*
X16959Y02431D03*
X16971Y02406D03*
X17008Y02345D03*
X17971Y04777D03*
X17959Y04802D03*
X17922Y04863D03*
X17897Y04913D03*
X18008Y04715D03*
X18057Y04629D03*
X18070Y04604D03*
X18082Y04579D03*
X18107Y04542D03*
X19082Y04061D03*
X19094Y04085D03*
X20378Y03974D03*
X21144Y03863D03*
X21107Y04740D03*
X22119Y04283D03*
X15897Y08653D03*
X15872Y08690D03*
X15526Y06913D03*
X12810Y09740D03*
X12786Y09777D03*
X12773Y09802D03*
X12638Y12863D03*
X11761Y08431D03*
X10638Y08715D03*
X10625Y08740D03*
X10601Y08777D03*
D79*
X10588Y08802D03*
X11724Y08493D03*
X11749Y08456D03*
X15860Y08715D03*
X17909Y04888D03*
X18020Y04690D03*
X18045Y04653D03*
X18428Y04826D03*
X16996Y02369D03*
X22156Y03863D03*
D80*
X22162Y03876D03*
X22162Y04209D03*
X21162Y04641D03*
X21150Y04666D03*
X21138Y04678D03*
X21125Y04703D03*
X19076Y04048D03*
X18026Y04678D03*
X17965Y04789D03*
X17915Y04876D03*
X17903Y04900D03*
X17891Y04925D03*
X16891Y02555D03*
X16903Y02530D03*
X16915Y02505D03*
X16940Y02468D03*
X16965Y02419D03*
X16854Y02641D03*
X16780Y03505D03*
X16854Y04505D03*
X16854Y04555D03*
X16508Y05876D03*
X14780Y11987D03*
X14755Y12048D03*
X14743Y12073D03*
X13668Y09592D03*
X12780Y09789D03*
X12854Y11221D03*
X12743Y11962D03*
X12582Y12752D03*
X11705Y08530D03*
X11718Y08505D03*
X11730Y08481D03*
X10594Y08789D03*
X10582Y08814D03*
X10570Y08839D03*
X12940Y08073D03*
D81*
X12767Y09814D03*
X12631Y12851D03*
X15520Y06900D03*
X16520Y05616D03*
X16520Y05592D03*
X16520Y05567D03*
X16767Y03530D03*
X16928Y02481D03*
X16952Y02443D03*
X17977Y04764D03*
X17952Y04814D03*
X17928Y04851D03*
X19088Y04073D03*
X19064Y04024D03*
D82*
X19076Y04036D03*
X17989Y04740D03*
X17940Y04826D03*
X16878Y02579D03*
X16903Y02542D03*
X16915Y02518D03*
X16940Y02456D03*
X16780Y03493D03*
X16335Y04579D03*
X16508Y05863D03*
X16508Y05888D03*
X15508Y06888D03*
X14533Y12406D03*
X13508Y10431D03*
X13668Y09604D03*
X12755Y09826D03*
X12829Y11542D03*
X12804Y11604D03*
X12755Y11974D03*
X12594Y12777D03*
X12607Y12802D03*
X12619Y12826D03*
X12076Y02999D03*
X21162Y03888D03*
X21138Y04690D03*
X21125Y04715D03*
X22138Y04258D03*
X22150Y04234D03*
X22175Y03888D03*
D83*
X17681Y02481D03*
X12064Y02876D03*
D84*
X13681Y09579D03*
X12792Y11629D03*
X15496Y06826D03*
X16360Y07085D03*
X16520Y05604D03*
X16520Y05579D03*
X16928Y02493D03*
D85*
X17675Y02493D03*
X20909Y03542D03*
X13662Y07147D03*
D86*
X12057Y02937D03*
X14539Y12443D03*
X16366Y07184D03*
X17675Y02505D03*
D87*
X17662Y02542D03*
X16489Y05369D03*
X16465Y06061D03*
X16230Y08197D03*
X15687Y09061D03*
X14687Y11085D03*
X14650Y11147D03*
X13650Y12802D03*
X12959Y09542D03*
X13440Y07456D03*
X12094Y03036D03*
X11946Y08197D03*
X11872Y08283D03*
X10786Y08518D03*
X22008Y04431D03*
X22033Y04406D03*
D88*
X18520Y04752D03*
X18520Y04024D03*
X17792Y03900D03*
X17656Y04357D03*
X17656Y02555D03*
X16792Y07048D03*
X15520Y09468D03*
X12792Y09851D03*
D89*
X12539Y10283D03*
X12193Y07974D03*
X13243Y09283D03*
X14378Y11579D03*
X15354Y09888D03*
X15366Y09863D03*
X16317Y06345D03*
X16329Y06320D03*
X16699Y04234D03*
X16749Y04197D03*
X16773Y04172D03*
X16798Y03690D03*
X17341Y02826D03*
X17650Y02579D03*
X17959Y03197D03*
X17946Y03234D03*
X17946Y03258D03*
X17934Y03320D03*
X17329Y07110D03*
X13539Y04493D03*
X13502Y04456D03*
X13428Y04406D03*
X13391Y04369D03*
X13354Y04345D03*
X13317Y04320D03*
X21638Y04777D03*
D90*
X21168Y04616D03*
X21168Y03900D03*
X22168Y04184D03*
X16872Y04530D03*
X16329Y04592D03*
X16329Y04678D03*
X16847Y02666D03*
X16872Y02592D03*
X14897Y11678D03*
X14872Y11752D03*
X14847Y11814D03*
X12847Y11505D03*
X12872Y11271D03*
X12847Y11209D03*
X12736Y10900D03*
X12576Y12727D03*
X12601Y12789D03*
D91*
X13397Y13011D03*
X13347Y09209D03*
X12940Y07987D03*
X13644Y04592D03*
X13212Y04221D03*
X12286Y03221D03*
X11261Y08073D03*
X11014Y09382D03*
X14397Y11505D03*
X15236Y10209D03*
X15261Y10135D03*
X17026Y08505D03*
X17446Y07024D03*
X17459Y07011D03*
X17989Y03024D03*
X17989Y03011D03*
X17989Y02987D03*
X17644Y02592D03*
X20372Y03937D03*
D92*
X21168Y04629D03*
X22168Y04197D03*
X19033Y03950D03*
X17008Y07456D03*
X17033Y08579D03*
X16847Y02653D03*
X16872Y02604D03*
X15008Y11345D03*
X14872Y11740D03*
X14847Y11826D03*
X12872Y11431D03*
X12847Y11493D03*
X12872Y11258D03*
X12847Y11197D03*
X12736Y11950D03*
X12576Y12740D03*
X11712Y08518D03*
X10576Y08826D03*
D93*
X11323Y08036D03*
X12940Y07974D03*
X14125Y09234D03*
X12347Y03283D03*
X17026Y08493D03*
X17557Y06950D03*
X17644Y02604D03*
X21212Y05604D03*
D94*
X17996Y02814D03*
X17638Y02616D03*
X16823Y03789D03*
X16810Y04048D03*
X16527Y04839D03*
X15502Y06703D03*
X15131Y10468D03*
X15131Y10481D03*
X15119Y10505D03*
X15107Y10530D03*
X14415Y11419D03*
X13403Y10246D03*
X12934Y07962D03*
X12514Y10555D03*
X12514Y10567D03*
X12514Y10592D03*
X13070Y13246D03*
X11403Y07987D03*
X13057Y04073D03*
X13761Y04703D03*
X13786Y04727D03*
X17317Y07900D03*
D95*
X16514Y05826D03*
X16527Y05690D03*
X16527Y05653D03*
X16527Y05629D03*
X16317Y04653D03*
X16860Y04518D03*
X16773Y03518D03*
X16786Y02826D03*
X16823Y02715D03*
X16835Y02690D03*
X16860Y02629D03*
X15502Y06863D03*
X16378Y07061D03*
X15094Y11061D03*
X14971Y11456D03*
X14959Y11493D03*
X14922Y11604D03*
X14885Y11715D03*
X14860Y11777D03*
X14823Y11888D03*
X14810Y11913D03*
X14798Y11950D03*
X14786Y11974D03*
X14773Y11999D03*
X14761Y12036D03*
X14749Y12061D03*
X13650Y09629D03*
X13564Y07950D03*
X12761Y10974D03*
X12786Y11036D03*
X12798Y11085D03*
X12810Y11110D03*
X12823Y11147D03*
X12835Y11172D03*
X12860Y11234D03*
X12860Y11456D03*
X12835Y11518D03*
X12810Y11579D03*
X12786Y11653D03*
X12761Y11715D03*
X12749Y11740D03*
X12502Y12542D03*
X12514Y12579D03*
X12539Y12653D03*
X12551Y12690D03*
X12564Y12715D03*
X11687Y08579D03*
X11699Y08542D03*
X10564Y08863D03*
X10551Y08888D03*
X19057Y03999D03*
X19045Y03974D03*
X21181Y03913D03*
X21193Y03950D03*
X21181Y04604D03*
X21156Y04653D03*
X22181Y04172D03*
X22181Y03913D03*
D96*
X17631Y02629D03*
X16817Y04036D03*
X15113Y10518D03*
X15088Y10579D03*
X14199Y11802D03*
D97*
X14168Y11839D03*
X15033Y10703D03*
X16465Y08024D03*
X16897Y03122D03*
X17625Y02641D03*
X13897Y04839D03*
D98*
X12903Y03913D03*
X12878Y03888D03*
X12570Y03518D03*
X12545Y03493D03*
X14434Y11320D03*
X14150Y11863D03*
X15002Y10777D03*
X16545Y04802D03*
X16903Y03110D03*
X17619Y02653D03*
X18829Y03826D03*
X20372Y03913D03*
D99*
X18817Y03851D03*
X17767Y06839D03*
X17101Y07209D03*
X16545Y04789D03*
X16928Y03073D03*
X17619Y02666D03*
X15743Y07567D03*
X14989Y10814D03*
X14977Y10839D03*
X14977Y10851D03*
X14446Y11271D03*
X14051Y09308D03*
X14002Y04937D03*
X13989Y04925D03*
X12743Y03727D03*
X11520Y07925D03*
D100*
X14045Y04987D03*
X14020Y04962D03*
X15539Y07184D03*
X14452Y11246D03*
X17613Y02678D03*
D101*
X17601Y02703D03*
X16959Y03011D03*
X17415Y05530D03*
X17391Y05567D03*
X17329Y05727D03*
X17107Y07184D03*
X17082Y07616D03*
X17255Y08011D03*
X19823Y05814D03*
X19872Y05789D03*
X19922Y05764D03*
X19946Y05752D03*
X20205Y05616D03*
X20255Y05592D03*
X20366Y05530D03*
X21033Y05703D03*
X14465Y11184D03*
X13280Y12308D03*
X14193Y05135D03*
D102*
X17601Y02715D03*
X21008Y05715D03*
D103*
X21428Y03481D03*
X18996Y04567D03*
X18922Y04641D03*
X18526Y06505D03*
X17761Y02727D03*
X15230Y07962D03*
X13292Y12209D03*
D104*
X15218Y07974D03*
X15699Y07740D03*
X17749Y02740D03*
X18564Y06493D03*
X18934Y04629D03*
D105*
X18594Y06481D03*
X17730Y02764D03*
X17743Y02752D03*
X16533Y06678D03*
D106*
X17724Y02777D03*
X19452Y03579D03*
X13292Y12197D03*
D107*
X17718Y02789D03*
X20286Y03160D03*
D108*
X21520Y04863D03*
X17385Y02802D03*
X15273Y10110D03*
X15249Y10172D03*
X14545Y12258D03*
X13434Y10283D03*
X13360Y09197D03*
X12520Y10406D03*
D109*
X12508Y10604D03*
X13619Y09036D03*
X13026Y04036D03*
X12434Y03369D03*
X11422Y07974D03*
X15101Y10542D03*
X17076Y07542D03*
X17323Y07950D03*
X17323Y07974D03*
X16533Y04826D03*
X16829Y03826D03*
X16829Y03802D03*
X18002Y02802D03*
X18619Y04715D03*
X21175Y05629D03*
D110*
X21582Y04814D03*
X17977Y03098D03*
X17360Y02814D03*
X16730Y04209D03*
X16681Y04246D03*
X16656Y04271D03*
X16310Y06357D03*
X15570Y07098D03*
X15310Y10011D03*
X14385Y11555D03*
X14162Y09160D03*
X13298Y09246D03*
X13446Y10308D03*
X13064Y13271D03*
X11224Y08098D03*
X13582Y04530D03*
X17409Y07048D03*
D111*
X17582Y06937D03*
X17607Y06925D03*
X17027Y08481D03*
X16866Y03184D03*
X18002Y02851D03*
X18002Y02839D03*
X15162Y10394D03*
X15150Y10419D03*
X14409Y11443D03*
X14249Y11752D03*
X14113Y09246D03*
X13088Y04098D03*
X11360Y08011D03*
D112*
X12385Y03320D03*
X14409Y11431D03*
X14224Y11777D03*
X15138Y10456D03*
X15150Y10431D03*
X16631Y04320D03*
X18002Y02863D03*
D113*
X12070Y02888D03*
D114*
X13094Y04110D03*
X13712Y04653D03*
X13489Y09110D03*
X13415Y10258D03*
X12514Y10493D03*
X12514Y10518D03*
X14255Y11740D03*
X15168Y10369D03*
X15181Y10345D03*
X15193Y10320D03*
X15502Y06715D03*
X16798Y04085D03*
X16860Y03197D03*
X17996Y02888D03*
X17317Y07863D03*
D115*
X14533Y12468D03*
X12940Y08122D03*
X12064Y02900D03*
D116*
X12101Y08048D03*
X13508Y12937D03*
X16397Y06209D03*
X17212Y02925D03*
X17236Y02900D03*
X21804Y04641D03*
D117*
X20372Y03999D03*
X14533Y12456D03*
X12940Y08110D03*
X12051Y02913D03*
D118*
X13138Y04147D03*
X13434Y09147D03*
X12520Y10456D03*
X13064Y13258D03*
X14273Y11715D03*
X14409Y11456D03*
X16520Y04863D03*
X16817Y03740D03*
X18002Y02913D03*
D119*
X12064Y02950D03*
D120*
X12329Y03258D03*
X13156Y04172D03*
X13662Y04604D03*
X13687Y04629D03*
X13403Y09172D03*
X12514Y10431D03*
X11280Y08061D03*
X14403Y11493D03*
X14292Y11690D03*
X15206Y10283D03*
X15218Y10258D03*
X15230Y10234D03*
X15243Y10197D03*
X15564Y07110D03*
X16798Y04110D03*
X16848Y03234D03*
X17996Y02974D03*
X17996Y02950D03*
X17514Y06974D03*
X17070Y07283D03*
D121*
X16366Y07160D03*
X12070Y02962D03*
D122*
X11026Y08258D03*
X11002Y08283D03*
X13039Y09456D03*
X13483Y10369D03*
X13755Y09518D03*
X14545Y12345D03*
X13570Y12888D03*
X15533Y09431D03*
X15545Y09406D03*
X15557Y09369D03*
X15570Y09345D03*
X15582Y09320D03*
X16273Y07197D03*
X16459Y05258D03*
X16446Y05234D03*
X16409Y05061D03*
X16409Y05036D03*
X16780Y04653D03*
X16804Y03369D03*
X17162Y02974D03*
X17607Y04518D03*
X17668Y04320D03*
X17681Y04283D03*
X17693Y04234D03*
X17705Y04197D03*
X17718Y04147D03*
X17730Y04110D03*
X17743Y04085D03*
X17743Y04061D03*
X17755Y04036D03*
X17767Y03999D03*
X17767Y03974D03*
X17780Y03950D03*
X18335Y04913D03*
X18508Y04036D03*
X18545Y03999D03*
X17026Y07369D03*
X21298Y05542D03*
D123*
X20428Y05493D03*
X20341Y05542D03*
X20181Y05629D03*
X19724Y05863D03*
X17403Y05542D03*
X17341Y05690D03*
X16971Y02999D03*
X16996Y08406D03*
X13341Y10172D03*
D124*
X12829Y09888D03*
X14397Y11518D03*
X14323Y11653D03*
X15261Y10147D03*
X13187Y04197D03*
X12298Y03234D03*
X17483Y06999D03*
X17323Y07826D03*
X17989Y02999D03*
D125*
X16952Y03024D03*
X16557Y04752D03*
X17385Y05592D03*
X17360Y05641D03*
X17348Y05666D03*
X17335Y05703D03*
X17866Y06789D03*
X16607Y06987D03*
X14125Y05073D03*
X14014Y09357D03*
X14125Y11900D03*
X19335Y03481D03*
X20113Y05666D03*
X20088Y05678D03*
X20039Y05703D03*
X19989Y05727D03*
D126*
X17082Y07604D03*
X16514Y06826D03*
X16946Y03036D03*
X14094Y05036D03*
X14020Y09345D03*
D127*
X14391Y11530D03*
X14329Y11641D03*
X14551Y12271D03*
X15267Y10122D03*
X15280Y10098D03*
X15304Y10024D03*
X16514Y04876D03*
X16786Y04135D03*
X17057Y07308D03*
X17317Y07814D03*
X17971Y03122D03*
X17983Y03073D03*
X17983Y03048D03*
X21230Y05592D03*
X21502Y04876D03*
X21539Y04851D03*
X21551Y04839D03*
X13625Y04567D03*
X13613Y04555D03*
X12280Y03209D03*
X12243Y03184D03*
X13329Y09221D03*
X13440Y10295D03*
X12526Y10357D03*
X12526Y10382D03*
D128*
X14452Y11258D03*
X14946Y10913D03*
X15502Y06653D03*
X16934Y03061D03*
D129*
X16922Y03085D03*
X17082Y07579D03*
X14983Y10826D03*
X13280Y12320D03*
X13946Y04888D03*
X12823Y03826D03*
X12810Y03802D03*
X12786Y03777D03*
X12736Y03715D03*
X12712Y03690D03*
X12662Y03629D03*
X12625Y03579D03*
D130*
X13656Y07160D03*
X20249Y03122D03*
D131*
X21150Y05641D03*
X17693Y06876D03*
X16570Y06900D03*
X16545Y06876D03*
X15545Y07160D03*
X15064Y10641D03*
X15051Y10666D03*
X14434Y11332D03*
X12854Y09925D03*
X11446Y07962D03*
X12977Y03987D03*
X12952Y03962D03*
X12928Y03937D03*
X13878Y04814D03*
X16891Y03135D03*
D132*
X16885Y03147D03*
X14428Y11369D03*
X14181Y11826D03*
D133*
X13422Y12999D03*
X12533Y10320D03*
X12940Y07999D03*
X11212Y08110D03*
X15347Y09913D03*
X15323Y09974D03*
X16508Y04888D03*
X16668Y04258D03*
X16780Y04147D03*
X16829Y03283D03*
X17965Y03172D03*
X17965Y03147D03*
X17397Y07061D03*
X17051Y07320D03*
X17323Y07802D03*
D134*
X17026Y08283D03*
X15705Y07690D03*
X15335Y06283D03*
X14002Y08913D03*
X19422Y03542D03*
X20273Y03147D03*
D135*
X21891Y03641D03*
X17644Y06900D03*
X17323Y07937D03*
X17323Y07962D03*
X16829Y03814D03*
X16878Y03160D03*
X15101Y10555D03*
X14422Y11382D03*
X14422Y11394D03*
X14212Y11789D03*
X13594Y09048D03*
X12508Y10616D03*
X13039Y04048D03*
X13014Y04024D03*
X12446Y03382D03*
X12422Y03357D03*
D136*
X13576Y09061D03*
X16872Y03172D03*
X20872Y03629D03*
D137*
X20298Y03172D03*
X20829Y05431D03*
X15730Y07777D03*
D138*
X15662Y07308D03*
X20304Y03184D03*
D139*
X20310Y03197D03*
D140*
X20323Y03209D03*
X14644Y08295D03*
D141*
X11347Y09184D03*
X20335Y03221D03*
D142*
X20341Y03234D03*
X14378Y08406D03*
D143*
X14138Y09209D03*
X14310Y11666D03*
X15249Y10160D03*
X16631Y04295D03*
X16792Y04122D03*
X16841Y03246D03*
X17496Y06987D03*
X17064Y07295D03*
X13385Y09184D03*
X12520Y10394D03*
X12520Y10419D03*
X12249Y07937D03*
X13199Y04209D03*
X21952Y03678D03*
D144*
X20354Y03246D03*
D145*
X20354Y03258D03*
D146*
X20878Y03616D03*
X17088Y07530D03*
X16631Y04308D03*
X16817Y03752D03*
X15199Y10295D03*
X15199Y10308D03*
X14409Y11468D03*
X12520Y10468D03*
X12335Y03271D03*
D147*
X13909Y08567D03*
X16156Y06555D03*
X20366Y03271D03*
D148*
X20366Y03283D03*
X13773Y08604D03*
X13761Y12110D03*
D149*
X12687Y08703D03*
X12798Y07678D03*
X16156Y06481D03*
X20378Y03295D03*
D150*
X20372Y03925D03*
X17076Y07271D03*
X16804Y04073D03*
X15557Y07135D03*
X14236Y11764D03*
X13557Y09073D03*
X12397Y03332D03*
X12372Y03308D03*
D151*
X14199Y09073D03*
X14545Y12308D03*
X15385Y09814D03*
X15409Y09752D03*
X17088Y07505D03*
X16792Y03678D03*
X16817Y03308D03*
X17928Y03332D03*
X17928Y03357D03*
X12545Y10246D03*
X12545Y10271D03*
D152*
X20384Y03308D03*
D153*
X20391Y03320D03*
X14946Y07493D03*
D154*
X20403Y03332D03*
D155*
X20409Y03345D03*
X14952Y07456D03*
D156*
X20409Y03357D03*
D157*
X20422Y03369D03*
D158*
X20428Y03382D03*
D159*
X17317Y07925D03*
X14428Y11357D03*
X12996Y04011D03*
X12477Y03419D03*
X12452Y03394D03*
D160*
X20434Y03394D03*
D161*
X17675Y06888D03*
X16823Y03999D03*
X16835Y03863D03*
X15502Y06690D03*
X15551Y07147D03*
X15082Y10604D03*
X15070Y10629D03*
X15057Y10653D03*
X13403Y10234D03*
X12514Y10629D03*
X12514Y10653D03*
X13835Y04777D03*
X12983Y03999D03*
X12465Y03406D03*
D162*
X20440Y03406D03*
D163*
X20446Y03419D03*
D164*
X21866Y03629D03*
X17088Y07234D03*
X16582Y06913D03*
X16557Y06888D03*
X16483Y08036D03*
X15755Y07542D03*
X16631Y04345D03*
X17027Y08456D03*
X14434Y11345D03*
X12928Y07950D03*
X13866Y04802D03*
X12496Y03431D03*
D165*
X13792Y07653D03*
X16792Y03431D03*
D166*
X17885Y03542D03*
X17909Y03456D03*
X17909Y03431D03*
X17045Y07345D03*
X15428Y09715D03*
X13564Y07888D03*
X12564Y10197D03*
X11131Y08172D03*
D167*
X20452Y03431D03*
D168*
X20860Y03641D03*
X18835Y03814D03*
X17070Y07555D03*
X17082Y07567D03*
X16588Y06925D03*
X16514Y06851D03*
X15749Y07555D03*
X15502Y06678D03*
X16539Y04814D03*
X15045Y10678D03*
X14156Y11851D03*
X13391Y10221D03*
X12514Y10678D03*
X13909Y04851D03*
X12922Y03925D03*
X12539Y03481D03*
X12527Y03468D03*
X12502Y03443D03*
D169*
X15693Y07727D03*
X19557Y03443D03*
D170*
X20705Y05357D03*
X21150Y03443D03*
X16854Y08122D03*
X15743Y07814D03*
D171*
X15045Y10690D03*
X15020Y10740D03*
X14070Y09283D03*
X13070Y13234D03*
X12514Y10690D03*
X11477Y07950D03*
X12514Y03456D03*
X13885Y04826D03*
X17724Y06863D03*
X21131Y05653D03*
D172*
X19446Y03456D03*
X16409Y07888D03*
X15027Y05950D03*
X13891Y07234D03*
D173*
X21280Y03456D03*
D174*
X21366Y03468D03*
X19131Y05024D03*
X13959Y07308D03*
X13292Y12184D03*
D175*
X14119Y11913D03*
X14008Y09369D03*
X14168Y05110D03*
X16625Y04406D03*
X17354Y05653D03*
X17329Y05715D03*
X17897Y06777D03*
X18798Y03888D03*
X19329Y03493D03*
X20230Y05604D03*
X19897Y05777D03*
X19847Y05802D03*
X19798Y05826D03*
D176*
X21483Y03493D03*
X16409Y07826D03*
X13965Y08950D03*
X13101Y13061D03*
D177*
X14175Y08764D03*
X11064Y09357D03*
X16977Y06394D03*
X17064Y06271D03*
X17088Y06221D03*
X19360Y03505D03*
D178*
X18323Y06592D03*
X15323Y06271D03*
X15347Y07876D03*
X21533Y03505D03*
D179*
X21119Y05036D03*
X21082Y05061D03*
X19378Y03518D03*
X18761Y04690D03*
X17057Y07690D03*
X15712Y07653D03*
X14885Y05826D03*
X14823Y05777D03*
X14786Y05740D03*
X14761Y05715D03*
X14699Y05653D03*
X14094Y08826D03*
X14070Y11974D03*
D180*
X21576Y03518D03*
D181*
X21273Y04900D03*
X19397Y03530D03*
X16409Y07876D03*
X15076Y06011D03*
X14039Y08876D03*
X14397Y12184D03*
X14372Y12209D03*
X14372Y12221D03*
D182*
X14940Y05876D03*
X14780Y05727D03*
X17125Y07122D03*
X17051Y07703D03*
X18138Y06666D03*
X21150Y05011D03*
X21175Y04987D03*
X21619Y03530D03*
D183*
X21656Y03542D03*
X19138Y04431D03*
D184*
X19082Y05011D03*
X18823Y03839D03*
X17094Y07221D03*
X16514Y06839D03*
X14440Y11295D03*
X14440Y11308D03*
X14057Y09295D03*
X12922Y07937D03*
X13959Y04900D03*
X13934Y04876D03*
X12847Y03851D03*
X12798Y03789D03*
X12761Y03752D03*
X12687Y03666D03*
X12650Y03616D03*
X12625Y03592D03*
X12601Y03555D03*
D185*
X17033Y08246D03*
X19440Y03555D03*
D186*
X20903Y03555D03*
X13520Y10468D03*
D187*
X12866Y09987D03*
X14582Y05555D03*
X14557Y05530D03*
X14533Y05505D03*
X16422Y07937D03*
X17002Y06357D03*
X17076Y06246D03*
X17125Y06160D03*
X17150Y06135D03*
X17459Y05481D03*
X18002Y06727D03*
X18076Y05024D03*
X18780Y03937D03*
X21693Y03555D03*
D188*
X19452Y03567D03*
X17045Y08184D03*
X16527Y06703D03*
X15428Y06332D03*
X13107Y13024D03*
D189*
X13082Y13184D03*
X14107Y11925D03*
X13996Y09394D03*
X14267Y05221D03*
X16428Y07962D03*
X16613Y07024D03*
X17243Y08024D03*
X17946Y06752D03*
X17292Y05814D03*
X16564Y04727D03*
X20835Y03678D03*
X21724Y03567D03*
D190*
X19459Y03592D03*
D191*
X19465Y03604D03*
D192*
X20854Y03653D03*
X21817Y03604D03*
X17792Y06826D03*
X16594Y06950D03*
X16446Y07999D03*
X16631Y04369D03*
X14965Y10863D03*
X14446Y11283D03*
X12681Y03653D03*
X11039Y09369D03*
D193*
X13039Y10122D03*
X13039Y10135D03*
X15026Y08098D03*
X18989Y06332D03*
X19471Y03616D03*
D194*
X19477Y03629D03*
X17823Y05345D03*
X15749Y07258D03*
D195*
X15502Y06666D03*
X16452Y08011D03*
X12860Y09937D03*
X13070Y13221D03*
X12835Y03839D03*
X12773Y03764D03*
X12724Y03703D03*
X12699Y03678D03*
X12675Y03641D03*
X21107Y05666D03*
D196*
X19483Y03641D03*
D197*
X19489Y03653D03*
X16872Y08085D03*
D198*
X14823Y08209D03*
X19489Y03666D03*
D199*
X20847Y03666D03*
X16625Y04394D03*
X16551Y04764D03*
X15736Y07592D03*
X16440Y07987D03*
X14465Y11209D03*
X14033Y09332D03*
D200*
X12440Y08900D03*
X15736Y06394D03*
X19502Y03678D03*
D201*
X19502Y03690D03*
X19749Y06061D03*
X14489Y07579D03*
X12675Y07604D03*
D202*
X14570Y05542D03*
X14545Y05518D03*
X14520Y05493D03*
X14656Y07653D03*
X16520Y06802D03*
X17088Y06234D03*
X17113Y06197D03*
X17175Y06085D03*
X17199Y06036D03*
X16570Y04690D03*
X18088Y04999D03*
X20952Y05740D03*
X20817Y03690D03*
D203*
X19946Y03703D03*
D204*
X19940Y03715D03*
D205*
X22008Y03715D03*
X15576Y07085D03*
X14168Y09147D03*
X12847Y12036D03*
X13280Y12345D03*
X13576Y04518D03*
X13465Y04431D03*
X13280Y04283D03*
D206*
X19940Y03727D03*
D207*
X19928Y03740D03*
D208*
X19928Y03752D03*
D209*
X21280Y05555D03*
X22057Y03752D03*
X17823Y03789D03*
X17761Y04011D03*
X17033Y07357D03*
X16440Y05221D03*
X16440Y05209D03*
X16415Y05122D03*
X16415Y05098D03*
X16761Y04678D03*
X15489Y09555D03*
X13761Y09505D03*
X13057Y09443D03*
X12576Y10160D03*
X12823Y12024D03*
X10601Y09073D03*
D210*
X19928Y03764D03*
D211*
X17323Y07888D03*
X16829Y03777D03*
X14101Y09258D03*
X13533Y09085D03*
X12508Y10542D03*
X13755Y04690D03*
X13076Y04085D03*
D212*
X19922Y03777D03*
D213*
X20391Y03789D03*
D214*
X19193Y04406D03*
X18872Y03802D03*
X17008Y08431D03*
X16551Y04777D03*
X15736Y07579D03*
X14959Y10888D03*
X14033Y04974D03*
X14008Y04950D03*
D215*
X19810Y06036D03*
X20452Y03802D03*
D216*
X13385Y10209D03*
X12817Y03814D03*
D217*
X17928Y05332D03*
X20496Y03814D03*
D218*
X20526Y03826D03*
X19440Y06172D03*
D219*
X20551Y03839D03*
X14872Y08184D03*
X12415Y08925D03*
X11922Y09073D03*
D220*
X14915Y08160D03*
X16891Y08048D03*
X20582Y03851D03*
D221*
X18804Y03863D03*
X17841Y06802D03*
X17273Y07999D03*
X17101Y07197D03*
X16607Y06974D03*
X14928Y10950D03*
X14459Y11234D03*
X14138Y11888D03*
X14039Y09320D03*
X12866Y09950D03*
X11557Y07913D03*
X14064Y04999D03*
D222*
X14385Y12197D03*
X14360Y12234D03*
X20360Y03863D03*
D223*
X18804Y03876D03*
X17372Y05616D03*
D224*
X17996Y04727D03*
X18045Y04641D03*
X18131Y04505D03*
X18156Y04468D03*
X16341Y04567D03*
X15885Y08678D03*
X14131Y07221D03*
X13564Y07937D03*
X12613Y12814D03*
X10613Y08764D03*
X10613Y08752D03*
X21156Y03876D03*
X22131Y04271D03*
D225*
X16829Y03974D03*
X16829Y03950D03*
X16829Y03888D03*
X16533Y06863D03*
X12965Y03974D03*
X12940Y03950D03*
D226*
X14366Y05320D03*
X14391Y05345D03*
X14440Y05406D03*
X14465Y05431D03*
X14489Y05456D03*
X14255Y08715D03*
X13983Y09431D03*
X13082Y13172D03*
X16983Y08369D03*
X17230Y08036D03*
X17070Y07653D03*
X16971Y06406D03*
X17008Y06345D03*
X17070Y06258D03*
X17218Y05999D03*
X17230Y05974D03*
X17255Y05913D03*
X20366Y03888D03*
D227*
X16829Y03900D03*
X16829Y03925D03*
X16829Y03937D03*
X16829Y03962D03*
D228*
X15502Y06641D03*
X14107Y05048D03*
X14082Y05024D03*
X14070Y05011D03*
X18675Y04703D03*
X20366Y03900D03*
D229*
X20378Y03962D03*
X22020Y04419D03*
X18366Y04184D03*
X17020Y07394D03*
X17045Y07468D03*
X16243Y08184D03*
X16206Y08221D03*
X15724Y08987D03*
X15699Y09048D03*
X15675Y09098D03*
X16452Y06073D03*
X16477Y05332D03*
X16810Y04616D03*
X13699Y12752D03*
X12934Y09567D03*
X13428Y07468D03*
X11934Y08209D03*
X11885Y08271D03*
X11860Y08295D03*
X10810Y08481D03*
X10773Y08530D03*
D230*
X20372Y03987D03*
D231*
X20366Y04011D03*
D232*
X16817Y04024D03*
X16631Y04332D03*
X15767Y07530D03*
X13656Y09011D03*
X13631Y09024D03*
X13817Y04752D03*
D233*
X11996Y08147D03*
X12749Y12999D03*
X13588Y12863D03*
X15613Y09234D03*
X16749Y07802D03*
X16810Y07061D03*
X16428Y06147D03*
X16428Y04974D03*
X16403Y04493D03*
X17477Y04913D03*
X17539Y04740D03*
X17539Y04715D03*
X17564Y04653D03*
X17588Y04579D03*
X17613Y04493D03*
X17638Y04431D03*
X17638Y04406D03*
X18477Y04061D03*
X21909Y04542D03*
X21934Y04518D03*
D234*
X21033Y04863D03*
X19168Y04197D03*
X18391Y04863D03*
X18255Y04320D03*
X18304Y04258D03*
X16489Y05974D03*
X15551Y06950D03*
X15576Y06999D03*
X15823Y08777D03*
X14736Y10999D03*
X13897Y12493D03*
X12872Y09653D03*
X11823Y08345D03*
X10736Y08579D03*
D235*
X13304Y04308D03*
X13440Y12987D03*
X16712Y04221D03*
D236*
X19224Y04271D03*
X13792Y12641D03*
D237*
X12668Y12913D03*
X11780Y08406D03*
X11804Y08369D03*
X13668Y07197D03*
X15940Y08579D03*
X15965Y08542D03*
X16508Y05493D03*
X21076Y04802D03*
X22101Y04320D03*
D238*
X21082Y05678D03*
X17082Y07592D03*
X16601Y06962D03*
X16625Y04382D03*
X14959Y10876D03*
X14144Y11876D03*
D239*
X14002Y09382D03*
X14261Y05209D03*
X14236Y05184D03*
X14212Y05160D03*
X16619Y04419D03*
X17434Y05505D03*
X17310Y05764D03*
X17915Y06764D03*
X16989Y08394D03*
X20409Y05505D03*
X20446Y05481D03*
X20471Y05468D03*
D240*
X19162Y04419D03*
X17273Y05876D03*
X17249Y05925D03*
X17113Y07160D03*
X16989Y08382D03*
X15520Y07221D03*
X14323Y05271D03*
X14298Y05246D03*
X13989Y09419D03*
D241*
X14212Y08740D03*
X16619Y04431D03*
X17236Y05950D03*
X17261Y05888D03*
D242*
X17261Y05900D03*
X17076Y07641D03*
X16619Y04443D03*
D243*
X17514Y05443D03*
X18119Y06678D03*
X19119Y04443D03*
X21131Y05024D03*
X14909Y05851D03*
X14897Y05839D03*
X14810Y05764D03*
X14798Y05752D03*
X14749Y05703D03*
X14724Y05678D03*
X14712Y05666D03*
X14687Y05641D03*
X14107Y08814D03*
X13131Y07530D03*
D244*
X13965Y09456D03*
X16619Y04456D03*
X17187Y06061D03*
X17162Y06110D03*
X17125Y06172D03*
X17051Y06283D03*
X17026Y06320D03*
D245*
X16397Y07863D03*
X17014Y08320D03*
X19101Y04456D03*
X20743Y05826D03*
X21286Y04888D03*
X14051Y08863D03*
D246*
X14601Y05567D03*
X16613Y04468D03*
X17477Y05468D03*
X16996Y08357D03*
D247*
X16520Y06752D03*
X17557Y05419D03*
X18261Y06616D03*
X19088Y04468D03*
X20706Y05839D03*
X15706Y07678D03*
X15138Y06073D03*
X15113Y06048D03*
X13064Y07567D03*
D248*
X19070Y04481D03*
D249*
X19057Y04493D03*
X17033Y08258D03*
D250*
X19045Y04505D03*
X13946Y08962D03*
D251*
X13934Y08974D03*
X15699Y07715D03*
X16526Y06715D03*
X18440Y06542D03*
X19033Y04518D03*
D252*
X19020Y04530D03*
D253*
X19008Y04542D03*
D254*
X19002Y04555D03*
D255*
X18977Y04579D03*
X18952Y04604D03*
D256*
X18965Y04592D03*
X17668Y05382D03*
X15459Y06357D03*
X13965Y12048D03*
D257*
X13946Y07295D03*
X18946Y04616D03*
D258*
X18903Y04653D03*
X18496Y06518D03*
D259*
X13724Y04666D03*
D260*
X13286Y12221D03*
X18878Y04666D03*
D261*
X18847Y04678D03*
X18378Y06567D03*
D262*
X17298Y05802D03*
X17310Y05777D03*
X17323Y05740D03*
X17422Y05518D03*
X17076Y07629D03*
X16557Y04740D03*
X15730Y07604D03*
D263*
X13928Y04863D03*
D264*
X15039Y05962D03*
X14064Y08851D03*
X13088Y13122D03*
X18199Y06641D03*
X21249Y04925D03*
D265*
X18119Y04950D03*
X18107Y04974D03*
X18033Y06715D03*
X17119Y07147D03*
X15724Y07629D03*
X14156Y08777D03*
X14094Y11950D03*
D266*
X13088Y13160D03*
X14138Y08789D03*
X14631Y05592D03*
X16409Y07925D03*
X16520Y06789D03*
X17064Y07666D03*
X18113Y04962D03*
X20928Y05752D03*
D267*
X20835Y05789D03*
X21205Y04962D03*
X17008Y08332D03*
X15008Y05937D03*
X14971Y05900D03*
X14082Y08839D03*
X14057Y11987D03*
D268*
X17872Y04987D03*
D269*
X21162Y04999D03*
D270*
X20854Y05382D03*
X18755Y06419D03*
X17866Y05011D03*
X16533Y06641D03*
X12347Y08987D03*
D271*
X18582Y05036D03*
D272*
X18668Y05048D03*
D273*
X21101Y05048D03*
D274*
X21057Y05690D03*
X14465Y11197D03*
X14119Y05061D03*
D275*
X14847Y07345D03*
X18736Y05061D03*
D276*
X18804Y05073D03*
D277*
X18860Y05085D03*
D278*
X21051Y05085D03*
X14854Y05802D03*
X14125Y08802D03*
D279*
X12860Y09962D03*
X11588Y07900D03*
X14181Y05122D03*
X14156Y05098D03*
X16613Y07011D03*
X17317Y05752D03*
X17341Y05678D03*
X17403Y05555D03*
X19699Y05876D03*
X19749Y05851D03*
X19773Y05839D03*
X20156Y05641D03*
X20292Y05567D03*
X20317Y05555D03*
D280*
X19329Y05098D03*
D281*
X19323Y05110D03*
X19261Y05283D03*
D282*
X19298Y05135D03*
X19310Y05122D03*
D283*
X20385Y05518D03*
X17113Y07172D03*
X14249Y05197D03*
X14224Y05172D03*
X14199Y05147D03*
D284*
X19249Y05258D03*
X19286Y05147D03*
D285*
X19280Y05160D03*
D286*
X19261Y05172D03*
D287*
X19255Y05184D03*
X19230Y05246D03*
D288*
X19236Y05197D03*
D289*
X19230Y05209D03*
D290*
X19218Y05221D03*
D291*
X19218Y05234D03*
D292*
X19255Y05271D03*
D293*
X19267Y05295D03*
D294*
X19273Y05308D03*
D295*
X19280Y05320D03*
D296*
X20440Y05332D03*
D297*
X20594Y05345D03*
X14545Y07542D03*
D298*
X17761Y05357D03*
D299*
X17705Y05369D03*
D300*
X15786Y07234D03*
X20798Y05369D03*
D301*
X17020Y06332D03*
X15724Y07616D03*
X14452Y05419D03*
X14428Y05394D03*
D302*
X15267Y07937D03*
X17625Y05394D03*
D303*
X18817Y06394D03*
X20854Y05394D03*
X12656Y07900D03*
X12631Y07925D03*
X11162Y09295D03*
D304*
X15335Y07888D03*
X17594Y05406D03*
X18348Y06579D03*
X20570Y05888D03*
D305*
X20841Y05406D03*
D306*
X20835Y05419D03*
X18922Y06357D03*
X14008Y07332D03*
D307*
X14983Y08122D03*
X12070Y09048D03*
X19057Y06308D03*
X20823Y05443D03*
D308*
X20817Y05456D03*
D309*
X14619Y05579D03*
X13162Y07518D03*
D310*
X13076Y13197D03*
X15533Y07197D03*
X17372Y05604D03*
X19668Y05888D03*
D311*
X20897Y05764D03*
X18057Y06703D03*
X17119Y07135D03*
X17057Y07678D03*
X15712Y07641D03*
X14662Y05616D03*
X14082Y11962D03*
D312*
X14736Y05690D03*
X17008Y08345D03*
X20872Y05777D03*
D313*
X17304Y05789D03*
X17280Y05839D03*
X17280Y05851D03*
X13329Y10160D03*
D314*
X15051Y05974D03*
X17051Y07715D03*
X20804Y05802D03*
D315*
X20773Y05814D03*
X17057Y07727D03*
X16527Y06764D03*
X15403Y07839D03*
X15057Y05987D03*
D316*
X16613Y07036D03*
X17292Y05826D03*
X11625Y07888D03*
D317*
X15156Y06098D03*
X15181Y06122D03*
X15243Y06184D03*
X15267Y06209D03*
X17020Y08295D03*
X20675Y05851D03*
D318*
X16520Y06777D03*
X14952Y05888D03*
X14928Y05863D03*
D319*
X15206Y06147D03*
X15230Y06172D03*
X15292Y06234D03*
X15317Y06258D03*
X18292Y06604D03*
X20638Y05863D03*
D320*
X20601Y05876D03*
X17057Y07764D03*
X15354Y06295D03*
X13983Y08925D03*
D321*
X20150Y05900D03*
D322*
X20125Y05913D03*
D323*
X14996Y05925D03*
X12885Y10024D03*
D324*
X20094Y05925D03*
D325*
X20064Y05937D03*
D326*
X20039Y05950D03*
D327*
X20008Y05962D03*
X11304Y09209D03*
D328*
X12625Y07629D03*
X19971Y05974D03*
D329*
X19940Y05987D03*
D330*
X19909Y05999D03*
D331*
X19878Y06011D03*
X12656Y07616D03*
D332*
X13897Y07246D03*
X15094Y06024D03*
X16391Y07851D03*
D333*
X14514Y07567D03*
X19848Y06024D03*
D334*
X15107Y06036D03*
X14045Y11999D03*
D335*
X11286Y09221D03*
X19780Y06048D03*
D336*
X19718Y06073D03*
X14471Y07592D03*
D337*
X15730Y06369D03*
X19681Y06085D03*
D338*
X19644Y06098D03*
X12705Y07592D03*
D339*
X12897Y10061D03*
X13280Y12258D03*
X15255Y06197D03*
X15168Y06110D03*
D340*
X11267Y09234D03*
X19613Y06110D03*
D341*
X19582Y06122D03*
X19545Y06135D03*
D342*
X17057Y07752D03*
X15304Y06246D03*
X15280Y06221D03*
X15218Y06160D03*
X15193Y06135D03*
X14008Y08900D03*
X14033Y12011D03*
X13094Y13098D03*
D343*
X19508Y06147D03*
D344*
X19477Y06160D03*
D345*
X19403Y06184D03*
D346*
X19372Y06197D03*
D347*
X19335Y06209D03*
X19298Y06221D03*
X16878Y08073D03*
X16866Y08098D03*
D348*
X16885Y08061D03*
X19267Y06234D03*
D349*
X19230Y06246D03*
X15687Y07295D03*
D350*
X16372Y06258D03*
X14212Y09036D03*
X13780Y09493D03*
X11101Y08197D03*
D351*
X19199Y06258D03*
D352*
X19156Y06271D03*
D353*
X19125Y06283D03*
D354*
X19094Y06295D03*
X15736Y07789D03*
X14959Y08135D03*
X11206Y09271D03*
D355*
X15286Y07925D03*
X15385Y06308D03*
X17039Y08221D03*
D356*
X15409Y06320D03*
X13928Y07283D03*
D357*
X15002Y08110D03*
X19027Y06320D03*
D358*
X15452Y06345D03*
D359*
X18952Y06345D03*
D360*
X16996Y06369D03*
D361*
X18885Y06369D03*
X15045Y08085D03*
D362*
X15736Y06382D03*
D363*
X15064Y08073D03*
X12187Y09024D03*
X18854Y06382D03*
D364*
X15736Y06406D03*
X14773Y08234D03*
D365*
X13983Y07320D03*
X18786Y06406D03*
D366*
X15736Y06419D03*
D367*
X16156Y06431D03*
D368*
X18718Y06431D03*
D369*
X16156Y06443D03*
D370*
X15144Y08024D03*
X18687Y06443D03*
D371*
X16156Y06456D03*
D372*
X14656Y07604D03*
X18656Y06456D03*
D373*
X16150Y06468D03*
D374*
X16533Y06666D03*
X18619Y06468D03*
D375*
X16156Y06493D03*
D376*
X16156Y06505D03*
D377*
X16156Y06518D03*
D378*
X16156Y06530D03*
X13823Y08592D03*
D379*
X13928Y08987D03*
X17039Y08209D03*
X18471Y06530D03*
D380*
X16156Y06542D03*
X13860Y08579D03*
D381*
X13915Y07271D03*
X18409Y06555D03*
D382*
X16150Y06567D03*
X12619Y08752D03*
D383*
X13989Y08542D03*
X16150Y06579D03*
D384*
X16150Y06592D03*
X14026Y08530D03*
X11446Y09122D03*
D385*
X12582Y08777D03*
X16150Y06604D03*
D386*
X16150Y06616D03*
D387*
X16150Y06629D03*
D388*
X18230Y06629D03*
X13094Y13110D03*
D389*
X16526Y06653D03*
D390*
X16533Y06690D03*
D391*
X16409Y07913D03*
X18088Y06690D03*
X13273Y12283D03*
X13088Y13147D03*
D392*
X16520Y06727D03*
D393*
X16526Y06740D03*
X13094Y13085D03*
D394*
X16150Y07122D03*
X16940Y07987D03*
D395*
X13662Y07135D03*
D396*
X16150Y07135D03*
X17026Y08616D03*
D397*
X16150Y07147D03*
D398*
X16366Y07147D03*
X13662Y07172D03*
X13057Y13320D03*
D399*
X14131Y07160D03*
D400*
X12940Y08135D03*
X16150Y07160D03*
D401*
X16150Y07172D03*
D402*
X16372Y07172D03*
X14125Y07197D03*
D403*
X14125Y07184D03*
D404*
X16144Y07184D03*
D405*
X15767Y07246D03*
D406*
X13909Y07258D03*
D407*
X15730Y07271D03*
D408*
X15712Y07283D03*
D409*
X15638Y07320D03*
X16860Y08110D03*
D410*
X16829Y08160D03*
X15607Y07332D03*
X11249Y09246D03*
D411*
X14835Y07357D03*
D412*
X14829Y07369D03*
D413*
X14817Y07382D03*
D414*
X14804Y07394D03*
X14780Y07419D03*
D415*
X14792Y07406D03*
D416*
X14767Y07431D03*
D417*
X14755Y07443D03*
D418*
X14965Y07468D03*
D419*
X14965Y07481D03*
X12644Y07789D03*
D420*
X13014Y07493D03*
X14533Y12431D03*
D421*
X14928Y07505D03*
D422*
X14903Y07518D03*
X13582Y08653D03*
X12743Y07715D03*
D423*
X14564Y07530D03*
D424*
X14656Y07641D03*
X15385Y07851D03*
X13088Y07555D03*
D425*
X14533Y07555D03*
X14693Y08271D03*
D426*
X12736Y07579D03*
D427*
X14656Y07616D03*
D428*
X14656Y07629D03*
D429*
X12619Y07641D03*
D430*
X12613Y07653D03*
D431*
X12601Y07666D03*
D432*
X13280Y12271D03*
X15712Y07666D03*
D433*
X12780Y07690D03*
D434*
X12761Y07703D03*
D435*
X13971Y08937D03*
X15317Y07900D03*
X15699Y07703D03*
D436*
X12724Y07727D03*
D437*
X16570Y07727D03*
D438*
X12712Y07740D03*
D439*
X12693Y07752D03*
D440*
X15162Y08011D03*
X15705Y07752D03*
D441*
X13527Y08666D03*
X12675Y07764D03*
D442*
X12243Y09011D03*
X15724Y07764D03*
D443*
X12656Y07777D03*
D444*
X12625Y07802D03*
D445*
X15736Y07802D03*
D446*
X12607Y07814D03*
D447*
X12594Y07826D03*
D448*
X12576Y07839D03*
X13465Y08678D03*
D449*
X14014Y12024D03*
X13286Y12246D03*
X13101Y13073D03*
X11101Y09332D03*
X16409Y07839D03*
X17027Y08271D03*
D450*
X12564Y07851D03*
D451*
X16897Y07851D03*
D452*
X12551Y07863D03*
D453*
X15372Y07863D03*
D454*
X12533Y07876D03*
D455*
X12668Y07888D03*
D456*
X13088Y13135D03*
X16409Y07900D03*
D457*
X15088Y08061D03*
X12644Y07913D03*
D458*
X15304Y07913D03*
D459*
X15255Y07950D03*
X13909Y08999D03*
X17045Y08197D03*
D460*
X13564Y07974D03*
X13280Y12369D03*
D461*
X16952Y07974D03*
D462*
X15199Y07987D03*
D463*
X13557Y07999D03*
D464*
X15181Y07999D03*
D465*
X14533Y12481D03*
X13557Y08011D03*
D466*
X12391Y08974D03*
X15119Y08036D03*
D467*
X15107Y08048D03*
D468*
X17026Y08592D03*
X12940Y08098D03*
D469*
X16847Y08135D03*
D470*
X14940Y08147D03*
D471*
X16835Y08147D03*
D472*
X14897Y08172D03*
D473*
X17051Y08172D03*
X11125Y09320D03*
D474*
X14847Y08197D03*
D475*
X14798Y08221D03*
D476*
X13989Y12036D03*
X13286Y12234D03*
X17039Y08234D03*
D477*
X14749Y08246D03*
D478*
X14718Y08258D03*
D479*
X14668Y08283D03*
D480*
X14613Y08308D03*
D481*
X14588Y08320D03*
D482*
X14557Y08332D03*
X12496Y08851D03*
D483*
X14526Y08345D03*
D484*
X14502Y08357D03*
D485*
X14471Y08369D03*
D486*
X14440Y08382D03*
D487*
X14409Y08394D03*
X13570Y12073D03*
D488*
X14347Y08419D03*
D489*
X14317Y08431D03*
D490*
X14280Y08443D03*
D491*
X14249Y08456D03*
D492*
X14212Y08468D03*
D493*
X15144Y10443D03*
X13280Y12332D03*
X17033Y08468D03*
D494*
X14181Y08481D03*
X11428Y09135D03*
D495*
X14144Y08493D03*
D496*
X14101Y08505D03*
D497*
X14070Y08518D03*
D498*
X13946Y08555D03*
D499*
X13520Y10518D03*
X17027Y08604D03*
D500*
X13730Y08616D03*
D501*
X13681Y08629D03*
D502*
X13631Y08641D03*
D503*
X13113Y08690D03*
D504*
X12668Y08715D03*
D505*
X12650Y08727D03*
D506*
X12631Y08740D03*
X13767Y12147D03*
D507*
X12601Y08764D03*
D508*
X12570Y08789D03*
D509*
X12551Y08802D03*
X11403Y09147D03*
D510*
X11391Y09160D03*
X12539Y08814D03*
D511*
X12520Y08826D03*
X13570Y12061D03*
D512*
X12508Y08839D03*
D513*
X12483Y08863D03*
D514*
X12465Y08876D03*
D515*
X12452Y08888D03*
D516*
X12428Y08913D03*
D517*
X12409Y08937D03*
D518*
X12397Y08950D03*
D519*
X12391Y08962D03*
D520*
X12292Y08999D03*
D521*
X12131Y09036D03*
X13045Y10110D03*
X11181Y09283D03*
D522*
X12002Y09061D03*
D523*
X11508Y09085D03*
D524*
X11489Y09098D03*
D525*
X11465Y09110D03*
D526*
X11366Y09172D03*
D527*
X14156Y09184D03*
X15292Y10048D03*
X15292Y10073D03*
D528*
X11323Y09197D03*
D529*
X11224Y09258D03*
D530*
X11144Y09308D03*
D531*
X12317Y10913D03*
X12317Y10950D03*
X12317Y10974D03*
X12317Y10999D03*
X12317Y11036D03*
X12317Y11061D03*
X12317Y11085D03*
X12317Y11110D03*
X12317Y11147D03*
X12317Y11172D03*
X12317Y11197D03*
X12317Y11234D03*
X12317Y11258D03*
X12317Y11283D03*
X12317Y11320D03*
X12317Y11345D03*
X12317Y11369D03*
X12317Y11406D03*
X12317Y11431D03*
X12317Y11456D03*
X12317Y11493D03*
X12317Y11518D03*
X12317Y11542D03*
X12724Y11826D03*
X12724Y11863D03*
X12724Y11888D03*
X12724Y11913D03*
X12428Y12283D03*
X12885Y11369D03*
X12885Y11345D03*
X12885Y11320D03*
X13588Y09913D03*
X13588Y09888D03*
X13588Y09863D03*
D532*
X13588Y09876D03*
X13588Y09900D03*
X12885Y11332D03*
X12885Y11357D03*
X12885Y11382D03*
X12724Y11839D03*
X12724Y11851D03*
X12724Y11876D03*
X12724Y11900D03*
X12724Y11925D03*
X12317Y11555D03*
X12317Y11530D03*
X12317Y11505D03*
X12317Y11481D03*
X12317Y11468D03*
X12317Y11443D03*
X12317Y11419D03*
X12317Y11394D03*
X12317Y11382D03*
X12317Y11357D03*
X12317Y11332D03*
X12317Y11308D03*
X12317Y11295D03*
X12317Y11271D03*
X12317Y11246D03*
X12317Y11221D03*
X12317Y11209D03*
X12317Y11184D03*
X12317Y11160D03*
X12317Y11135D03*
X12317Y11122D03*
X12317Y11098D03*
X12317Y11073D03*
X12317Y11048D03*
X12317Y11024D03*
X12317Y11011D03*
X12317Y10987D03*
X12317Y10962D03*
X12317Y10937D03*
X12317Y10925D03*
D533*
X15292Y10061D03*
D534*
X13057Y10073D03*
D535*
X13051Y10085D03*
D536*
X13051Y10098D03*
D537*
X13304Y10147D03*
D538*
X13372Y10197D03*
D539*
X15156Y10406D03*
D540*
X13520Y10481D03*
D541*
X13520Y10493D03*
D542*
X13520Y10505D03*
D543*
X13520Y10530D03*
D544*
X13514Y10542D03*
D545*
X15033Y10715D03*
D546*
X12872Y12048D03*
D547*
X13761Y12085D03*
D548*
X13767Y12098D03*
D549*
X13767Y12122D03*
D550*
X13767Y12135D03*
D551*
X13767Y12160D03*
D552*
X13773Y12172D03*
D553*
X13101Y13036D03*
D554*
X13101Y13048D03*
D555*
X13057Y13332D03*
M02*
